G04 EAGLE Gerber RS-274X export*
G75*
%MOMM*%
%FSLAX34Y34*%
%LPD*%
%INSilk screen SOL*%
%IPPOS*%
%AMOC8*
5,1,8,0,0,1.08239X$1,22.5*%
G01*
%ADD10C,0.152400*%
%ADD11C,0.000000*%
%ADD12C,0.025400*%
%ADD13C,0.254000*%


D10*
X375600Y0D02*
X-375600Y0D01*
X-375600Y290000D01*
X-464500Y290000D01*
X375600Y290000D02*
X375600Y0D01*
X375600Y290000D02*
X464500Y290000D01*
X147000Y750000D02*
X-147000Y750000D01*
X-464500Y432500D02*
X-464500Y290000D01*
X464500Y290000D02*
X464500Y432500D01*
X464407Y440172D01*
X464129Y447839D01*
X463666Y455498D01*
X463018Y463143D01*
X462185Y470770D01*
X461168Y478375D01*
X459968Y485953D01*
X458585Y493500D01*
X457020Y501011D01*
X455274Y508483D01*
X453348Y515910D01*
X451243Y523288D01*
X448960Y530613D01*
X446502Y537881D01*
X443868Y545087D01*
X441060Y552228D01*
X438082Y559298D01*
X434933Y566295D01*
X431616Y573213D01*
X428132Y580050D01*
X424485Y586800D01*
X420675Y593460D01*
X416706Y600026D01*
X412579Y606494D01*
X408297Y612861D01*
X403863Y619122D01*
X399278Y625274D01*
X394547Y631314D01*
X389670Y637237D01*
X384652Y643041D01*
X379495Y648723D01*
X374203Y654277D01*
X368777Y659703D01*
X363223Y664995D01*
X357541Y670152D01*
X351737Y675170D01*
X345814Y680047D01*
X339774Y684778D01*
X333622Y689363D01*
X327361Y693797D01*
X320994Y698079D01*
X314526Y702206D01*
X307960Y706175D01*
X301300Y709985D01*
X294550Y713632D01*
X287713Y717116D01*
X280795Y720433D01*
X273798Y723582D01*
X266728Y726560D01*
X259587Y729368D01*
X252381Y732002D01*
X245113Y734460D01*
X237788Y736743D01*
X230410Y738848D01*
X222983Y740774D01*
X215511Y742520D01*
X208000Y744085D01*
X200453Y745468D01*
X192875Y746668D01*
X185270Y747685D01*
X177643Y748518D01*
X169998Y749166D01*
X162339Y749629D01*
X154672Y749907D01*
X147000Y750000D01*
X-147000Y750000D02*
X-154672Y749907D01*
X-162339Y749629D01*
X-169998Y749166D01*
X-177643Y748518D01*
X-185270Y747685D01*
X-192875Y746668D01*
X-200453Y745468D01*
X-208000Y744085D01*
X-215511Y742520D01*
X-222983Y740774D01*
X-230410Y738848D01*
X-237788Y736743D01*
X-245113Y734460D01*
X-252381Y732002D01*
X-259587Y729368D01*
X-266728Y726560D01*
X-273798Y723582D01*
X-280795Y720433D01*
X-287713Y717116D01*
X-294550Y713632D01*
X-301300Y709985D01*
X-307960Y706175D01*
X-314526Y702206D01*
X-320994Y698079D01*
X-327361Y693797D01*
X-333622Y689363D01*
X-339774Y684778D01*
X-345814Y680047D01*
X-351737Y675170D01*
X-357541Y670152D01*
X-363223Y664995D01*
X-368777Y659703D01*
X-374203Y654277D01*
X-379495Y648723D01*
X-384652Y643041D01*
X-389670Y637237D01*
X-394547Y631314D01*
X-399278Y625274D01*
X-403863Y619122D01*
X-408297Y612861D01*
X-412579Y606494D01*
X-416706Y600026D01*
X-420675Y593460D01*
X-424485Y586800D01*
X-428132Y580050D01*
X-431616Y573213D01*
X-434933Y566295D01*
X-438082Y559298D01*
X-441060Y552228D01*
X-443868Y545087D01*
X-446502Y537881D01*
X-448960Y530613D01*
X-451243Y523288D01*
X-453348Y515910D01*
X-455274Y508483D01*
X-457020Y501011D01*
X-458585Y493500D01*
X-459968Y485953D01*
X-461168Y478375D01*
X-462185Y470770D01*
X-463018Y463143D01*
X-463666Y455498D01*
X-464129Y447839D01*
X-464407Y440172D01*
X-464500Y432500D01*
D11*
X-365520Y151130D02*
X-365515Y151498D01*
X-365502Y151866D01*
X-365479Y152233D01*
X-365448Y152600D01*
X-365407Y152966D01*
X-365358Y153331D01*
X-365299Y153694D01*
X-365232Y154056D01*
X-365156Y154417D01*
X-365070Y154775D01*
X-364977Y155131D01*
X-364874Y155484D01*
X-364763Y155835D01*
X-364643Y156183D01*
X-364515Y156528D01*
X-364378Y156870D01*
X-364233Y157209D01*
X-364080Y157543D01*
X-363918Y157874D01*
X-363749Y158201D01*
X-363571Y158523D01*
X-363386Y158842D01*
X-363193Y159155D01*
X-362992Y159464D01*
X-362784Y159767D01*
X-362568Y160065D01*
X-362345Y160358D01*
X-362115Y160646D01*
X-361878Y160928D01*
X-361634Y161203D01*
X-361384Y161473D01*
X-361127Y161737D01*
X-360863Y161994D01*
X-360593Y162244D01*
X-360318Y162488D01*
X-360036Y162725D01*
X-359748Y162955D01*
X-359455Y163178D01*
X-359157Y163394D01*
X-358854Y163602D01*
X-358545Y163803D01*
X-358232Y163996D01*
X-357913Y164181D01*
X-357591Y164359D01*
X-357264Y164528D01*
X-356933Y164690D01*
X-356599Y164843D01*
X-356260Y164988D01*
X-355918Y165125D01*
X-355573Y165253D01*
X-355225Y165373D01*
X-354874Y165484D01*
X-354521Y165587D01*
X-354165Y165680D01*
X-353807Y165766D01*
X-353446Y165842D01*
X-353084Y165909D01*
X-352721Y165968D01*
X-352356Y166017D01*
X-351990Y166058D01*
X-351623Y166089D01*
X-351256Y166112D01*
X-350888Y166125D01*
X-350520Y166130D01*
X-350152Y166125D01*
X-349784Y166112D01*
X-349417Y166089D01*
X-349050Y166058D01*
X-348684Y166017D01*
X-348319Y165968D01*
X-347956Y165909D01*
X-347594Y165842D01*
X-347233Y165766D01*
X-346875Y165680D01*
X-346519Y165587D01*
X-346166Y165484D01*
X-345815Y165373D01*
X-345467Y165253D01*
X-345122Y165125D01*
X-344780Y164988D01*
X-344441Y164843D01*
X-344107Y164690D01*
X-343776Y164528D01*
X-343449Y164359D01*
X-343127Y164181D01*
X-342808Y163996D01*
X-342495Y163803D01*
X-342186Y163602D01*
X-341883Y163394D01*
X-341585Y163178D01*
X-341292Y162955D01*
X-341004Y162725D01*
X-340722Y162488D01*
X-340447Y162244D01*
X-340177Y161994D01*
X-339913Y161737D01*
X-339656Y161473D01*
X-339406Y161203D01*
X-339162Y160928D01*
X-338925Y160646D01*
X-338695Y160358D01*
X-338472Y160065D01*
X-338256Y159767D01*
X-338048Y159464D01*
X-337847Y159155D01*
X-337654Y158842D01*
X-337469Y158523D01*
X-337291Y158201D01*
X-337122Y157874D01*
X-336960Y157543D01*
X-336807Y157209D01*
X-336662Y156870D01*
X-336525Y156528D01*
X-336397Y156183D01*
X-336277Y155835D01*
X-336166Y155484D01*
X-336063Y155131D01*
X-335970Y154775D01*
X-335884Y154417D01*
X-335808Y154056D01*
X-335741Y153694D01*
X-335682Y153331D01*
X-335633Y152966D01*
X-335592Y152600D01*
X-335561Y152233D01*
X-335538Y151866D01*
X-335525Y151498D01*
X-335520Y151130D01*
X-335525Y150762D01*
X-335538Y150394D01*
X-335561Y150027D01*
X-335592Y149660D01*
X-335633Y149294D01*
X-335682Y148929D01*
X-335741Y148566D01*
X-335808Y148204D01*
X-335884Y147843D01*
X-335970Y147485D01*
X-336063Y147129D01*
X-336166Y146776D01*
X-336277Y146425D01*
X-336397Y146077D01*
X-336525Y145732D01*
X-336662Y145390D01*
X-336807Y145051D01*
X-336960Y144717D01*
X-337122Y144386D01*
X-337291Y144059D01*
X-337469Y143737D01*
X-337654Y143418D01*
X-337847Y143105D01*
X-338048Y142796D01*
X-338256Y142493D01*
X-338472Y142195D01*
X-338695Y141902D01*
X-338925Y141614D01*
X-339162Y141332D01*
X-339406Y141057D01*
X-339656Y140787D01*
X-339913Y140523D01*
X-340177Y140266D01*
X-340447Y140016D01*
X-340722Y139772D01*
X-341004Y139535D01*
X-341292Y139305D01*
X-341585Y139082D01*
X-341883Y138866D01*
X-342186Y138658D01*
X-342495Y138457D01*
X-342808Y138264D01*
X-343127Y138079D01*
X-343449Y137901D01*
X-343776Y137732D01*
X-344107Y137570D01*
X-344441Y137417D01*
X-344780Y137272D01*
X-345122Y137135D01*
X-345467Y137007D01*
X-345815Y136887D01*
X-346166Y136776D01*
X-346519Y136673D01*
X-346875Y136580D01*
X-347233Y136494D01*
X-347594Y136418D01*
X-347956Y136351D01*
X-348319Y136292D01*
X-348684Y136243D01*
X-349050Y136202D01*
X-349417Y136171D01*
X-349784Y136148D01*
X-350152Y136135D01*
X-350520Y136130D01*
X-350888Y136135D01*
X-351256Y136148D01*
X-351623Y136171D01*
X-351990Y136202D01*
X-352356Y136243D01*
X-352721Y136292D01*
X-353084Y136351D01*
X-353446Y136418D01*
X-353807Y136494D01*
X-354165Y136580D01*
X-354521Y136673D01*
X-354874Y136776D01*
X-355225Y136887D01*
X-355573Y137007D01*
X-355918Y137135D01*
X-356260Y137272D01*
X-356599Y137417D01*
X-356933Y137570D01*
X-357264Y137732D01*
X-357591Y137901D01*
X-357913Y138079D01*
X-358232Y138264D01*
X-358545Y138457D01*
X-358854Y138658D01*
X-359157Y138866D01*
X-359455Y139082D01*
X-359748Y139305D01*
X-360036Y139535D01*
X-360318Y139772D01*
X-360593Y140016D01*
X-360863Y140266D01*
X-361127Y140523D01*
X-361384Y140787D01*
X-361634Y141057D01*
X-361878Y141332D01*
X-362115Y141614D01*
X-362345Y141902D01*
X-362568Y142195D01*
X-362784Y142493D01*
X-362992Y142796D01*
X-363193Y143105D01*
X-363386Y143418D01*
X-363571Y143737D01*
X-363749Y144059D01*
X-363918Y144386D01*
X-364080Y144717D01*
X-364233Y145051D01*
X-364378Y145390D01*
X-364515Y145732D01*
X-364643Y146077D01*
X-364763Y146425D01*
X-364874Y146776D01*
X-364977Y147129D01*
X-365070Y147485D01*
X-365156Y147843D01*
X-365232Y148204D01*
X-365299Y148566D01*
X-365358Y148929D01*
X-365407Y149294D01*
X-365448Y149660D01*
X-365479Y150027D01*
X-365502Y150394D01*
X-365515Y150762D01*
X-365520Y151130D01*
X335520Y151130D02*
X335525Y151498D01*
X335538Y151866D01*
X335561Y152233D01*
X335592Y152600D01*
X335633Y152966D01*
X335682Y153331D01*
X335741Y153694D01*
X335808Y154056D01*
X335884Y154417D01*
X335970Y154775D01*
X336063Y155131D01*
X336166Y155484D01*
X336277Y155835D01*
X336397Y156183D01*
X336525Y156528D01*
X336662Y156870D01*
X336807Y157209D01*
X336960Y157543D01*
X337122Y157874D01*
X337291Y158201D01*
X337469Y158523D01*
X337654Y158842D01*
X337847Y159155D01*
X338048Y159464D01*
X338256Y159767D01*
X338472Y160065D01*
X338695Y160358D01*
X338925Y160646D01*
X339162Y160928D01*
X339406Y161203D01*
X339656Y161473D01*
X339913Y161737D01*
X340177Y161994D01*
X340447Y162244D01*
X340722Y162488D01*
X341004Y162725D01*
X341292Y162955D01*
X341585Y163178D01*
X341883Y163394D01*
X342186Y163602D01*
X342495Y163803D01*
X342808Y163996D01*
X343127Y164181D01*
X343449Y164359D01*
X343776Y164528D01*
X344107Y164690D01*
X344441Y164843D01*
X344780Y164988D01*
X345122Y165125D01*
X345467Y165253D01*
X345815Y165373D01*
X346166Y165484D01*
X346519Y165587D01*
X346875Y165680D01*
X347233Y165766D01*
X347594Y165842D01*
X347956Y165909D01*
X348319Y165968D01*
X348684Y166017D01*
X349050Y166058D01*
X349417Y166089D01*
X349784Y166112D01*
X350152Y166125D01*
X350520Y166130D01*
X350888Y166125D01*
X351256Y166112D01*
X351623Y166089D01*
X351990Y166058D01*
X352356Y166017D01*
X352721Y165968D01*
X353084Y165909D01*
X353446Y165842D01*
X353807Y165766D01*
X354165Y165680D01*
X354521Y165587D01*
X354874Y165484D01*
X355225Y165373D01*
X355573Y165253D01*
X355918Y165125D01*
X356260Y164988D01*
X356599Y164843D01*
X356933Y164690D01*
X357264Y164528D01*
X357591Y164359D01*
X357913Y164181D01*
X358232Y163996D01*
X358545Y163803D01*
X358854Y163602D01*
X359157Y163394D01*
X359455Y163178D01*
X359748Y162955D01*
X360036Y162725D01*
X360318Y162488D01*
X360593Y162244D01*
X360863Y161994D01*
X361127Y161737D01*
X361384Y161473D01*
X361634Y161203D01*
X361878Y160928D01*
X362115Y160646D01*
X362345Y160358D01*
X362568Y160065D01*
X362784Y159767D01*
X362992Y159464D01*
X363193Y159155D01*
X363386Y158842D01*
X363571Y158523D01*
X363749Y158201D01*
X363918Y157874D01*
X364080Y157543D01*
X364233Y157209D01*
X364378Y156870D01*
X364515Y156528D01*
X364643Y156183D01*
X364763Y155835D01*
X364874Y155484D01*
X364977Y155131D01*
X365070Y154775D01*
X365156Y154417D01*
X365232Y154056D01*
X365299Y153694D01*
X365358Y153331D01*
X365407Y152966D01*
X365448Y152600D01*
X365479Y152233D01*
X365502Y151866D01*
X365515Y151498D01*
X365520Y151130D01*
X365515Y150762D01*
X365502Y150394D01*
X365479Y150027D01*
X365448Y149660D01*
X365407Y149294D01*
X365358Y148929D01*
X365299Y148566D01*
X365232Y148204D01*
X365156Y147843D01*
X365070Y147485D01*
X364977Y147129D01*
X364874Y146776D01*
X364763Y146425D01*
X364643Y146077D01*
X364515Y145732D01*
X364378Y145390D01*
X364233Y145051D01*
X364080Y144717D01*
X363918Y144386D01*
X363749Y144059D01*
X363571Y143737D01*
X363386Y143418D01*
X363193Y143105D01*
X362992Y142796D01*
X362784Y142493D01*
X362568Y142195D01*
X362345Y141902D01*
X362115Y141614D01*
X361878Y141332D01*
X361634Y141057D01*
X361384Y140787D01*
X361127Y140523D01*
X360863Y140266D01*
X360593Y140016D01*
X360318Y139772D01*
X360036Y139535D01*
X359748Y139305D01*
X359455Y139082D01*
X359157Y138866D01*
X358854Y138658D01*
X358545Y138457D01*
X358232Y138264D01*
X357913Y138079D01*
X357591Y137901D01*
X357264Y137732D01*
X356933Y137570D01*
X356599Y137417D01*
X356260Y137272D01*
X355918Y137135D01*
X355573Y137007D01*
X355225Y136887D01*
X354874Y136776D01*
X354521Y136673D01*
X354165Y136580D01*
X353807Y136494D01*
X353446Y136418D01*
X353084Y136351D01*
X352721Y136292D01*
X352356Y136243D01*
X351990Y136202D01*
X351623Y136171D01*
X351256Y136148D01*
X350888Y136135D01*
X350520Y136130D01*
X350152Y136135D01*
X349784Y136148D01*
X349417Y136171D01*
X349050Y136202D01*
X348684Y136243D01*
X348319Y136292D01*
X347956Y136351D01*
X347594Y136418D01*
X347233Y136494D01*
X346875Y136580D01*
X346519Y136673D01*
X346166Y136776D01*
X345815Y136887D01*
X345467Y137007D01*
X345122Y137135D01*
X344780Y137272D01*
X344441Y137417D01*
X344107Y137570D01*
X343776Y137732D01*
X343449Y137901D01*
X343127Y138079D01*
X342808Y138264D01*
X342495Y138457D01*
X342186Y138658D01*
X341883Y138866D01*
X341585Y139082D01*
X341292Y139305D01*
X341004Y139535D01*
X340722Y139772D01*
X340447Y140016D01*
X340177Y140266D01*
X339913Y140523D01*
X339656Y140787D01*
X339406Y141057D01*
X339162Y141332D01*
X338925Y141614D01*
X338695Y141902D01*
X338472Y142195D01*
X338256Y142493D01*
X338048Y142796D01*
X337847Y143105D01*
X337654Y143418D01*
X337469Y143737D01*
X337291Y144059D01*
X337122Y144386D01*
X336960Y144717D01*
X336807Y145051D01*
X336662Y145390D01*
X336525Y145732D01*
X336397Y146077D01*
X336277Y146425D01*
X336166Y146776D01*
X336063Y147129D01*
X335970Y147485D01*
X335884Y147843D01*
X335808Y148204D01*
X335741Y148566D01*
X335682Y148929D01*
X335633Y149294D01*
X335592Y149660D01*
X335561Y150027D01*
X335538Y150394D01*
X335525Y150762D01*
X335520Y151130D01*
X-157240Y711200D02*
X-157235Y711568D01*
X-157222Y711936D01*
X-157199Y712303D01*
X-157168Y712670D01*
X-157127Y713036D01*
X-157078Y713401D01*
X-157019Y713764D01*
X-156952Y714126D01*
X-156876Y714487D01*
X-156790Y714845D01*
X-156697Y715201D01*
X-156594Y715554D01*
X-156483Y715905D01*
X-156363Y716253D01*
X-156235Y716598D01*
X-156098Y716940D01*
X-155953Y717279D01*
X-155800Y717613D01*
X-155638Y717944D01*
X-155469Y718271D01*
X-155291Y718593D01*
X-155106Y718912D01*
X-154913Y719225D01*
X-154712Y719534D01*
X-154504Y719837D01*
X-154288Y720135D01*
X-154065Y720428D01*
X-153835Y720716D01*
X-153598Y720998D01*
X-153354Y721273D01*
X-153104Y721543D01*
X-152847Y721807D01*
X-152583Y722064D01*
X-152313Y722314D01*
X-152038Y722558D01*
X-151756Y722795D01*
X-151468Y723025D01*
X-151175Y723248D01*
X-150877Y723464D01*
X-150574Y723672D01*
X-150265Y723873D01*
X-149952Y724066D01*
X-149633Y724251D01*
X-149311Y724429D01*
X-148984Y724598D01*
X-148653Y724760D01*
X-148319Y724913D01*
X-147980Y725058D01*
X-147638Y725195D01*
X-147293Y725323D01*
X-146945Y725443D01*
X-146594Y725554D01*
X-146241Y725657D01*
X-145885Y725750D01*
X-145527Y725836D01*
X-145166Y725912D01*
X-144804Y725979D01*
X-144441Y726038D01*
X-144076Y726087D01*
X-143710Y726128D01*
X-143343Y726159D01*
X-142976Y726182D01*
X-142608Y726195D01*
X-142240Y726200D01*
X-141872Y726195D01*
X-141504Y726182D01*
X-141137Y726159D01*
X-140770Y726128D01*
X-140404Y726087D01*
X-140039Y726038D01*
X-139676Y725979D01*
X-139314Y725912D01*
X-138953Y725836D01*
X-138595Y725750D01*
X-138239Y725657D01*
X-137886Y725554D01*
X-137535Y725443D01*
X-137187Y725323D01*
X-136842Y725195D01*
X-136500Y725058D01*
X-136161Y724913D01*
X-135827Y724760D01*
X-135496Y724598D01*
X-135169Y724429D01*
X-134847Y724251D01*
X-134528Y724066D01*
X-134215Y723873D01*
X-133906Y723672D01*
X-133603Y723464D01*
X-133305Y723248D01*
X-133012Y723025D01*
X-132724Y722795D01*
X-132442Y722558D01*
X-132167Y722314D01*
X-131897Y722064D01*
X-131633Y721807D01*
X-131376Y721543D01*
X-131126Y721273D01*
X-130882Y720998D01*
X-130645Y720716D01*
X-130415Y720428D01*
X-130192Y720135D01*
X-129976Y719837D01*
X-129768Y719534D01*
X-129567Y719225D01*
X-129374Y718912D01*
X-129189Y718593D01*
X-129011Y718271D01*
X-128842Y717944D01*
X-128680Y717613D01*
X-128527Y717279D01*
X-128382Y716940D01*
X-128245Y716598D01*
X-128117Y716253D01*
X-127997Y715905D01*
X-127886Y715554D01*
X-127783Y715201D01*
X-127690Y714845D01*
X-127604Y714487D01*
X-127528Y714126D01*
X-127461Y713764D01*
X-127402Y713401D01*
X-127353Y713036D01*
X-127312Y712670D01*
X-127281Y712303D01*
X-127258Y711936D01*
X-127245Y711568D01*
X-127240Y711200D01*
X-127245Y710832D01*
X-127258Y710464D01*
X-127281Y710097D01*
X-127312Y709730D01*
X-127353Y709364D01*
X-127402Y708999D01*
X-127461Y708636D01*
X-127528Y708274D01*
X-127604Y707913D01*
X-127690Y707555D01*
X-127783Y707199D01*
X-127886Y706846D01*
X-127997Y706495D01*
X-128117Y706147D01*
X-128245Y705802D01*
X-128382Y705460D01*
X-128527Y705121D01*
X-128680Y704787D01*
X-128842Y704456D01*
X-129011Y704129D01*
X-129189Y703807D01*
X-129374Y703488D01*
X-129567Y703175D01*
X-129768Y702866D01*
X-129976Y702563D01*
X-130192Y702265D01*
X-130415Y701972D01*
X-130645Y701684D01*
X-130882Y701402D01*
X-131126Y701127D01*
X-131376Y700857D01*
X-131633Y700593D01*
X-131897Y700336D01*
X-132167Y700086D01*
X-132442Y699842D01*
X-132724Y699605D01*
X-133012Y699375D01*
X-133305Y699152D01*
X-133603Y698936D01*
X-133906Y698728D01*
X-134215Y698527D01*
X-134528Y698334D01*
X-134847Y698149D01*
X-135169Y697971D01*
X-135496Y697802D01*
X-135827Y697640D01*
X-136161Y697487D01*
X-136500Y697342D01*
X-136842Y697205D01*
X-137187Y697077D01*
X-137535Y696957D01*
X-137886Y696846D01*
X-138239Y696743D01*
X-138595Y696650D01*
X-138953Y696564D01*
X-139314Y696488D01*
X-139676Y696421D01*
X-140039Y696362D01*
X-140404Y696313D01*
X-140770Y696272D01*
X-141137Y696241D01*
X-141504Y696218D01*
X-141872Y696205D01*
X-142240Y696200D01*
X-142608Y696205D01*
X-142976Y696218D01*
X-143343Y696241D01*
X-143710Y696272D01*
X-144076Y696313D01*
X-144441Y696362D01*
X-144804Y696421D01*
X-145166Y696488D01*
X-145527Y696564D01*
X-145885Y696650D01*
X-146241Y696743D01*
X-146594Y696846D01*
X-146945Y696957D01*
X-147293Y697077D01*
X-147638Y697205D01*
X-147980Y697342D01*
X-148319Y697487D01*
X-148653Y697640D01*
X-148984Y697802D01*
X-149311Y697971D01*
X-149633Y698149D01*
X-149952Y698334D01*
X-150265Y698527D01*
X-150574Y698728D01*
X-150877Y698936D01*
X-151175Y699152D01*
X-151468Y699375D01*
X-151756Y699605D01*
X-152038Y699842D01*
X-152313Y700086D01*
X-152583Y700336D01*
X-152847Y700593D01*
X-153104Y700857D01*
X-153354Y701127D01*
X-153598Y701402D01*
X-153835Y701684D01*
X-154065Y701972D01*
X-154288Y702265D01*
X-154504Y702563D01*
X-154712Y702866D01*
X-154913Y703175D01*
X-155106Y703488D01*
X-155291Y703807D01*
X-155469Y704129D01*
X-155638Y704456D01*
X-155800Y704787D01*
X-155953Y705121D01*
X-156098Y705460D01*
X-156235Y705802D01*
X-156363Y706147D01*
X-156483Y706495D01*
X-156594Y706846D01*
X-156697Y707199D01*
X-156790Y707555D01*
X-156876Y707913D01*
X-156952Y708274D01*
X-157019Y708636D01*
X-157078Y708999D01*
X-157127Y709364D01*
X-157168Y709730D01*
X-157199Y710097D01*
X-157222Y710464D01*
X-157235Y710832D01*
X-157240Y711200D01*
X127240Y711200D02*
X127245Y711568D01*
X127258Y711936D01*
X127281Y712303D01*
X127312Y712670D01*
X127353Y713036D01*
X127402Y713401D01*
X127461Y713764D01*
X127528Y714126D01*
X127604Y714487D01*
X127690Y714845D01*
X127783Y715201D01*
X127886Y715554D01*
X127997Y715905D01*
X128117Y716253D01*
X128245Y716598D01*
X128382Y716940D01*
X128527Y717279D01*
X128680Y717613D01*
X128842Y717944D01*
X129011Y718271D01*
X129189Y718593D01*
X129374Y718912D01*
X129567Y719225D01*
X129768Y719534D01*
X129976Y719837D01*
X130192Y720135D01*
X130415Y720428D01*
X130645Y720716D01*
X130882Y720998D01*
X131126Y721273D01*
X131376Y721543D01*
X131633Y721807D01*
X131897Y722064D01*
X132167Y722314D01*
X132442Y722558D01*
X132724Y722795D01*
X133012Y723025D01*
X133305Y723248D01*
X133603Y723464D01*
X133906Y723672D01*
X134215Y723873D01*
X134528Y724066D01*
X134847Y724251D01*
X135169Y724429D01*
X135496Y724598D01*
X135827Y724760D01*
X136161Y724913D01*
X136500Y725058D01*
X136842Y725195D01*
X137187Y725323D01*
X137535Y725443D01*
X137886Y725554D01*
X138239Y725657D01*
X138595Y725750D01*
X138953Y725836D01*
X139314Y725912D01*
X139676Y725979D01*
X140039Y726038D01*
X140404Y726087D01*
X140770Y726128D01*
X141137Y726159D01*
X141504Y726182D01*
X141872Y726195D01*
X142240Y726200D01*
X142608Y726195D01*
X142976Y726182D01*
X143343Y726159D01*
X143710Y726128D01*
X144076Y726087D01*
X144441Y726038D01*
X144804Y725979D01*
X145166Y725912D01*
X145527Y725836D01*
X145885Y725750D01*
X146241Y725657D01*
X146594Y725554D01*
X146945Y725443D01*
X147293Y725323D01*
X147638Y725195D01*
X147980Y725058D01*
X148319Y724913D01*
X148653Y724760D01*
X148984Y724598D01*
X149311Y724429D01*
X149633Y724251D01*
X149952Y724066D01*
X150265Y723873D01*
X150574Y723672D01*
X150877Y723464D01*
X151175Y723248D01*
X151468Y723025D01*
X151756Y722795D01*
X152038Y722558D01*
X152313Y722314D01*
X152583Y722064D01*
X152847Y721807D01*
X153104Y721543D01*
X153354Y721273D01*
X153598Y720998D01*
X153835Y720716D01*
X154065Y720428D01*
X154288Y720135D01*
X154504Y719837D01*
X154712Y719534D01*
X154913Y719225D01*
X155106Y718912D01*
X155291Y718593D01*
X155469Y718271D01*
X155638Y717944D01*
X155800Y717613D01*
X155953Y717279D01*
X156098Y716940D01*
X156235Y716598D01*
X156363Y716253D01*
X156483Y715905D01*
X156594Y715554D01*
X156697Y715201D01*
X156790Y714845D01*
X156876Y714487D01*
X156952Y714126D01*
X157019Y713764D01*
X157078Y713401D01*
X157127Y713036D01*
X157168Y712670D01*
X157199Y712303D01*
X157222Y711936D01*
X157235Y711568D01*
X157240Y711200D01*
X157235Y710832D01*
X157222Y710464D01*
X157199Y710097D01*
X157168Y709730D01*
X157127Y709364D01*
X157078Y708999D01*
X157019Y708636D01*
X156952Y708274D01*
X156876Y707913D01*
X156790Y707555D01*
X156697Y707199D01*
X156594Y706846D01*
X156483Y706495D01*
X156363Y706147D01*
X156235Y705802D01*
X156098Y705460D01*
X155953Y705121D01*
X155800Y704787D01*
X155638Y704456D01*
X155469Y704129D01*
X155291Y703807D01*
X155106Y703488D01*
X154913Y703175D01*
X154712Y702866D01*
X154504Y702563D01*
X154288Y702265D01*
X154065Y701972D01*
X153835Y701684D01*
X153598Y701402D01*
X153354Y701127D01*
X153104Y700857D01*
X152847Y700593D01*
X152583Y700336D01*
X152313Y700086D01*
X152038Y699842D01*
X151756Y699605D01*
X151468Y699375D01*
X151175Y699152D01*
X150877Y698936D01*
X150574Y698728D01*
X150265Y698527D01*
X149952Y698334D01*
X149633Y698149D01*
X149311Y697971D01*
X148984Y697802D01*
X148653Y697640D01*
X148319Y697487D01*
X147980Y697342D01*
X147638Y697205D01*
X147293Y697077D01*
X146945Y696957D01*
X146594Y696846D01*
X146241Y696743D01*
X145885Y696650D01*
X145527Y696564D01*
X145166Y696488D01*
X144804Y696421D01*
X144441Y696362D01*
X144076Y696313D01*
X143710Y696272D01*
X143343Y696241D01*
X142976Y696218D01*
X142608Y696205D01*
X142240Y696200D01*
X141872Y696205D01*
X141504Y696218D01*
X141137Y696241D01*
X140770Y696272D01*
X140404Y696313D01*
X140039Y696362D01*
X139676Y696421D01*
X139314Y696488D01*
X138953Y696564D01*
X138595Y696650D01*
X138239Y696743D01*
X137886Y696846D01*
X137535Y696957D01*
X137187Y697077D01*
X136842Y697205D01*
X136500Y697342D01*
X136161Y697487D01*
X135827Y697640D01*
X135496Y697802D01*
X135169Y697971D01*
X134847Y698149D01*
X134528Y698334D01*
X134215Y698527D01*
X133906Y698728D01*
X133603Y698936D01*
X133305Y699152D01*
X133012Y699375D01*
X132724Y699605D01*
X132442Y699842D01*
X132167Y700086D01*
X131897Y700336D01*
X131633Y700593D01*
X131376Y700857D01*
X131126Y701127D01*
X130882Y701402D01*
X130645Y701684D01*
X130415Y701972D01*
X130192Y702265D01*
X129976Y702563D01*
X129768Y702866D01*
X129567Y703175D01*
X129374Y703488D01*
X129189Y703807D01*
X129011Y704129D01*
X128842Y704456D01*
X128680Y704787D01*
X128527Y705121D01*
X128382Y705460D01*
X128245Y705802D01*
X128117Y706147D01*
X127997Y706495D01*
X127886Y706846D01*
X127783Y707199D01*
X127690Y707555D01*
X127604Y707913D01*
X127528Y708274D01*
X127461Y708636D01*
X127402Y708999D01*
X127353Y709364D01*
X127312Y709730D01*
X127281Y710097D01*
X127258Y710464D01*
X127245Y710832D01*
X127240Y711200D01*
X-303870Y35000D02*
X-303866Y35337D01*
X-303853Y35675D01*
X-303833Y36012D01*
X-303804Y36348D01*
X-303767Y36683D01*
X-303721Y37018D01*
X-303668Y37351D01*
X-303606Y37682D01*
X-303536Y38013D01*
X-303458Y38341D01*
X-303372Y38667D01*
X-303278Y38991D01*
X-303176Y39313D01*
X-303066Y39632D01*
X-302949Y39949D01*
X-302823Y40262D01*
X-302690Y40572D01*
X-302550Y40879D01*
X-302402Y41182D01*
X-302246Y41482D01*
X-302084Y41777D01*
X-301914Y42069D01*
X-301737Y42356D01*
X-301553Y42639D01*
X-301362Y42917D01*
X-301164Y43191D01*
X-300960Y43459D01*
X-300749Y43723D01*
X-300532Y43981D01*
X-300308Y44234D01*
X-300078Y44481D01*
X-299843Y44723D01*
X-299601Y44958D01*
X-299354Y45188D01*
X-299101Y45412D01*
X-298843Y45629D01*
X-298579Y45840D01*
X-298311Y46044D01*
X-298037Y46242D01*
X-297759Y46433D01*
X-297476Y46617D01*
X-297189Y46794D01*
X-296897Y46964D01*
X-296602Y47126D01*
X-296302Y47282D01*
X-295999Y47430D01*
X-295692Y47570D01*
X-295382Y47703D01*
X-295069Y47829D01*
X-294752Y47946D01*
X-294433Y48056D01*
X-294111Y48158D01*
X-293787Y48252D01*
X-293461Y48338D01*
X-293133Y48416D01*
X-292802Y48486D01*
X-292471Y48548D01*
X-292138Y48601D01*
X-291803Y48647D01*
X-291468Y48684D01*
X-291132Y48713D01*
X-290795Y48733D01*
X-290457Y48746D01*
X-290120Y48750D01*
X-289783Y48746D01*
X-289445Y48733D01*
X-289108Y48713D01*
X-288772Y48684D01*
X-288437Y48647D01*
X-288102Y48601D01*
X-287769Y48548D01*
X-287438Y48486D01*
X-287107Y48416D01*
X-286779Y48338D01*
X-286453Y48252D01*
X-286129Y48158D01*
X-285807Y48056D01*
X-285488Y47946D01*
X-285171Y47829D01*
X-284858Y47703D01*
X-284548Y47570D01*
X-284241Y47430D01*
X-283938Y47282D01*
X-283638Y47126D01*
X-283343Y46964D01*
X-283051Y46794D01*
X-282764Y46617D01*
X-282481Y46433D01*
X-282203Y46242D01*
X-281929Y46044D01*
X-281661Y45840D01*
X-281397Y45629D01*
X-281139Y45412D01*
X-280886Y45188D01*
X-280639Y44958D01*
X-280397Y44723D01*
X-280162Y44481D01*
X-279932Y44234D01*
X-279708Y43981D01*
X-279491Y43723D01*
X-279280Y43459D01*
X-279076Y43191D01*
X-278878Y42917D01*
X-278687Y42639D01*
X-278503Y42356D01*
X-278326Y42069D01*
X-278156Y41777D01*
X-277994Y41482D01*
X-277838Y41182D01*
X-277690Y40879D01*
X-277550Y40572D01*
X-277417Y40262D01*
X-277291Y39949D01*
X-277174Y39632D01*
X-277064Y39313D01*
X-276962Y38991D01*
X-276868Y38667D01*
X-276782Y38341D01*
X-276704Y38013D01*
X-276634Y37682D01*
X-276572Y37351D01*
X-276519Y37018D01*
X-276473Y36683D01*
X-276436Y36348D01*
X-276407Y36012D01*
X-276387Y35675D01*
X-276374Y35337D01*
X-276370Y35000D01*
X-276374Y34663D01*
X-276387Y34325D01*
X-276407Y33988D01*
X-276436Y33652D01*
X-276473Y33317D01*
X-276519Y32982D01*
X-276572Y32649D01*
X-276634Y32318D01*
X-276704Y31987D01*
X-276782Y31659D01*
X-276868Y31333D01*
X-276962Y31009D01*
X-277064Y30687D01*
X-277174Y30368D01*
X-277291Y30051D01*
X-277417Y29738D01*
X-277550Y29428D01*
X-277690Y29121D01*
X-277838Y28818D01*
X-277994Y28518D01*
X-278156Y28223D01*
X-278326Y27931D01*
X-278503Y27644D01*
X-278687Y27361D01*
X-278878Y27083D01*
X-279076Y26809D01*
X-279280Y26541D01*
X-279491Y26277D01*
X-279708Y26019D01*
X-279932Y25766D01*
X-280162Y25519D01*
X-280397Y25277D01*
X-280639Y25042D01*
X-280886Y24812D01*
X-281139Y24588D01*
X-281397Y24371D01*
X-281661Y24160D01*
X-281929Y23956D01*
X-282203Y23758D01*
X-282481Y23567D01*
X-282764Y23383D01*
X-283051Y23206D01*
X-283343Y23036D01*
X-283638Y22874D01*
X-283938Y22718D01*
X-284241Y22570D01*
X-284548Y22430D01*
X-284858Y22297D01*
X-285171Y22171D01*
X-285488Y22054D01*
X-285807Y21944D01*
X-286129Y21842D01*
X-286453Y21748D01*
X-286779Y21662D01*
X-287107Y21584D01*
X-287438Y21514D01*
X-287769Y21452D01*
X-288102Y21399D01*
X-288437Y21353D01*
X-288772Y21316D01*
X-289108Y21287D01*
X-289445Y21267D01*
X-289783Y21254D01*
X-290120Y21250D01*
X-290457Y21254D01*
X-290795Y21267D01*
X-291132Y21287D01*
X-291468Y21316D01*
X-291803Y21353D01*
X-292138Y21399D01*
X-292471Y21452D01*
X-292802Y21514D01*
X-293133Y21584D01*
X-293461Y21662D01*
X-293787Y21748D01*
X-294111Y21842D01*
X-294433Y21944D01*
X-294752Y22054D01*
X-295069Y22171D01*
X-295382Y22297D01*
X-295692Y22430D01*
X-295999Y22570D01*
X-296302Y22718D01*
X-296602Y22874D01*
X-296897Y23036D01*
X-297189Y23206D01*
X-297476Y23383D01*
X-297759Y23567D01*
X-298037Y23758D01*
X-298311Y23956D01*
X-298579Y24160D01*
X-298843Y24371D01*
X-299101Y24588D01*
X-299354Y24812D01*
X-299601Y25042D01*
X-299843Y25277D01*
X-300078Y25519D01*
X-300308Y25766D01*
X-300532Y26019D01*
X-300749Y26277D01*
X-300960Y26541D01*
X-301164Y26809D01*
X-301362Y27083D01*
X-301553Y27361D01*
X-301737Y27644D01*
X-301914Y27931D01*
X-302084Y28223D01*
X-302246Y28518D01*
X-302402Y28818D01*
X-302550Y29121D01*
X-302690Y29428D01*
X-302823Y29738D01*
X-302949Y30051D01*
X-303066Y30368D01*
X-303176Y30687D01*
X-303278Y31009D01*
X-303372Y31333D01*
X-303458Y31659D01*
X-303536Y31987D01*
X-303606Y32318D01*
X-303668Y32649D01*
X-303721Y32982D01*
X-303767Y33317D01*
X-303804Y33652D01*
X-303833Y33988D01*
X-303853Y34325D01*
X-303866Y34663D01*
X-303870Y35000D01*
X276130Y35000D02*
X276134Y35337D01*
X276147Y35675D01*
X276167Y36012D01*
X276196Y36348D01*
X276233Y36683D01*
X276279Y37018D01*
X276332Y37351D01*
X276394Y37682D01*
X276464Y38013D01*
X276542Y38341D01*
X276628Y38667D01*
X276722Y38991D01*
X276824Y39313D01*
X276934Y39632D01*
X277051Y39949D01*
X277177Y40262D01*
X277310Y40572D01*
X277450Y40879D01*
X277598Y41182D01*
X277754Y41482D01*
X277916Y41777D01*
X278086Y42069D01*
X278263Y42356D01*
X278447Y42639D01*
X278638Y42917D01*
X278836Y43191D01*
X279040Y43459D01*
X279251Y43723D01*
X279468Y43981D01*
X279692Y44234D01*
X279922Y44481D01*
X280157Y44723D01*
X280399Y44958D01*
X280646Y45188D01*
X280899Y45412D01*
X281157Y45629D01*
X281421Y45840D01*
X281689Y46044D01*
X281963Y46242D01*
X282241Y46433D01*
X282524Y46617D01*
X282811Y46794D01*
X283103Y46964D01*
X283398Y47126D01*
X283698Y47282D01*
X284001Y47430D01*
X284308Y47570D01*
X284618Y47703D01*
X284931Y47829D01*
X285248Y47946D01*
X285567Y48056D01*
X285889Y48158D01*
X286213Y48252D01*
X286539Y48338D01*
X286867Y48416D01*
X287198Y48486D01*
X287529Y48548D01*
X287862Y48601D01*
X288197Y48647D01*
X288532Y48684D01*
X288868Y48713D01*
X289205Y48733D01*
X289543Y48746D01*
X289880Y48750D01*
X290217Y48746D01*
X290555Y48733D01*
X290892Y48713D01*
X291228Y48684D01*
X291563Y48647D01*
X291898Y48601D01*
X292231Y48548D01*
X292562Y48486D01*
X292893Y48416D01*
X293221Y48338D01*
X293547Y48252D01*
X293871Y48158D01*
X294193Y48056D01*
X294512Y47946D01*
X294829Y47829D01*
X295142Y47703D01*
X295452Y47570D01*
X295759Y47430D01*
X296062Y47282D01*
X296362Y47126D01*
X296657Y46964D01*
X296949Y46794D01*
X297236Y46617D01*
X297519Y46433D01*
X297797Y46242D01*
X298071Y46044D01*
X298339Y45840D01*
X298603Y45629D01*
X298861Y45412D01*
X299114Y45188D01*
X299361Y44958D01*
X299603Y44723D01*
X299838Y44481D01*
X300068Y44234D01*
X300292Y43981D01*
X300509Y43723D01*
X300720Y43459D01*
X300924Y43191D01*
X301122Y42917D01*
X301313Y42639D01*
X301497Y42356D01*
X301674Y42069D01*
X301844Y41777D01*
X302006Y41482D01*
X302162Y41182D01*
X302310Y40879D01*
X302450Y40572D01*
X302583Y40262D01*
X302709Y39949D01*
X302826Y39632D01*
X302936Y39313D01*
X303038Y38991D01*
X303132Y38667D01*
X303218Y38341D01*
X303296Y38013D01*
X303366Y37682D01*
X303428Y37351D01*
X303481Y37018D01*
X303527Y36683D01*
X303564Y36348D01*
X303593Y36012D01*
X303613Y35675D01*
X303626Y35337D01*
X303630Y35000D01*
X303626Y34663D01*
X303613Y34325D01*
X303593Y33988D01*
X303564Y33652D01*
X303527Y33317D01*
X303481Y32982D01*
X303428Y32649D01*
X303366Y32318D01*
X303296Y31987D01*
X303218Y31659D01*
X303132Y31333D01*
X303038Y31009D01*
X302936Y30687D01*
X302826Y30368D01*
X302709Y30051D01*
X302583Y29738D01*
X302450Y29428D01*
X302310Y29121D01*
X302162Y28818D01*
X302006Y28518D01*
X301844Y28223D01*
X301674Y27931D01*
X301497Y27644D01*
X301313Y27361D01*
X301122Y27083D01*
X300924Y26809D01*
X300720Y26541D01*
X300509Y26277D01*
X300292Y26019D01*
X300068Y25766D01*
X299838Y25519D01*
X299603Y25277D01*
X299361Y25042D01*
X299114Y24812D01*
X298861Y24588D01*
X298603Y24371D01*
X298339Y24160D01*
X298071Y23956D01*
X297797Y23758D01*
X297519Y23567D01*
X297236Y23383D01*
X296949Y23206D01*
X296657Y23036D01*
X296362Y22874D01*
X296062Y22718D01*
X295759Y22570D01*
X295452Y22430D01*
X295142Y22297D01*
X294829Y22171D01*
X294512Y22054D01*
X294193Y21944D01*
X293871Y21842D01*
X293547Y21748D01*
X293221Y21662D01*
X292893Y21584D01*
X292562Y21514D01*
X292231Y21452D01*
X291898Y21399D01*
X291563Y21353D01*
X291228Y21316D01*
X290892Y21287D01*
X290555Y21267D01*
X290217Y21254D01*
X289880Y21250D01*
X289543Y21254D01*
X289205Y21267D01*
X288868Y21287D01*
X288532Y21316D01*
X288197Y21353D01*
X287862Y21399D01*
X287529Y21452D01*
X287198Y21514D01*
X286867Y21584D01*
X286539Y21662D01*
X286213Y21748D01*
X285889Y21842D01*
X285567Y21944D01*
X285248Y22054D01*
X284931Y22171D01*
X284618Y22297D01*
X284308Y22430D01*
X284001Y22570D01*
X283698Y22718D01*
X283398Y22874D01*
X283103Y23036D01*
X282811Y23206D01*
X282524Y23383D01*
X282241Y23567D01*
X281963Y23758D01*
X281689Y23956D01*
X281421Y24160D01*
X281157Y24371D01*
X280899Y24588D01*
X280646Y24812D01*
X280399Y25042D01*
X280157Y25277D01*
X279922Y25519D01*
X279692Y25766D01*
X279468Y26019D01*
X279251Y26277D01*
X279040Y26541D01*
X278836Y26809D01*
X278638Y27083D01*
X278447Y27361D01*
X278263Y27644D01*
X278086Y27931D01*
X277916Y28223D01*
X277754Y28518D01*
X277598Y28818D01*
X277450Y29121D01*
X277310Y29428D01*
X277177Y29738D01*
X277051Y30051D01*
X276934Y30368D01*
X276824Y30687D01*
X276722Y31009D01*
X276628Y31333D01*
X276542Y31659D01*
X276464Y31987D01*
X276394Y32318D01*
X276332Y32649D01*
X276279Y32982D01*
X276233Y33317D01*
X276196Y33652D01*
X276167Y33988D01*
X276147Y34325D01*
X276134Y34663D01*
X276130Y35000D01*
D12*
X410106Y547238D02*
X408350Y545774D01*
X408350Y545775D02*
X408049Y546122D01*
X407740Y546462D01*
X407423Y546795D01*
X407098Y547120D01*
X406766Y547437D01*
X406426Y547746D01*
X406078Y548047D01*
X405724Y548340D01*
X405362Y548623D01*
X404994Y548898D01*
X404619Y549165D01*
X404238Y549422D01*
X403851Y549670D01*
X403459Y549908D01*
X403060Y550137D01*
X402656Y550357D01*
X402248Y550567D01*
X401834Y550767D01*
X401415Y550957D01*
X400992Y551136D01*
X400565Y551306D01*
X400134Y551465D01*
X399699Y551614D01*
X399261Y551753D01*
X398820Y551881D01*
X398375Y551998D01*
X397928Y552105D01*
X397479Y552201D01*
X397027Y552286D01*
X396574Y552360D01*
X396118Y552424D01*
X395662Y552476D01*
X395204Y552518D01*
X394746Y552548D01*
X394286Y552568D01*
X393827Y552577D01*
X393826Y554862D01*
X393827Y554863D01*
X394342Y554853D01*
X394857Y554832D01*
X395371Y554798D01*
X395884Y554752D01*
X396396Y554693D01*
X396906Y554622D01*
X397415Y554539D01*
X397921Y554444D01*
X398425Y554336D01*
X398926Y554217D01*
X399424Y554086D01*
X399919Y553942D01*
X400410Y553787D01*
X400898Y553620D01*
X401381Y553441D01*
X401860Y553251D01*
X402334Y553050D01*
X402803Y552837D01*
X403267Y552613D01*
X403726Y552378D01*
X404178Y552131D01*
X404625Y551875D01*
X405065Y551607D01*
X405499Y551329D01*
X405926Y551041D01*
X406346Y550742D01*
X406758Y550433D01*
X407164Y550115D01*
X407561Y549787D01*
X407950Y549450D01*
X408331Y549103D01*
X408704Y548747D01*
X409068Y548383D01*
X409423Y548010D01*
X409769Y547628D01*
X410106Y547238D01*
X409922Y547084D01*
X409589Y547470D01*
X409247Y547847D01*
X408895Y548216D01*
X408535Y548576D01*
X408167Y548928D01*
X407790Y549271D01*
X407405Y549604D01*
X407012Y549929D01*
X406612Y550243D01*
X406204Y550548D01*
X405789Y550844D01*
X405367Y551129D01*
X404938Y551404D01*
X404502Y551668D01*
X404061Y551922D01*
X403613Y552165D01*
X403160Y552398D01*
X402702Y552619D01*
X402238Y552830D01*
X401769Y553029D01*
X401295Y553217D01*
X400818Y553394D01*
X400336Y553559D01*
X399850Y553712D01*
X399361Y553854D01*
X398868Y553984D01*
X398373Y554102D01*
X397875Y554208D01*
X397374Y554303D01*
X396871Y554385D01*
X396367Y554455D01*
X395861Y554513D01*
X395353Y554558D01*
X394845Y554592D01*
X394336Y554613D01*
X393827Y554623D01*
X393827Y554383D01*
X394330Y554374D01*
X394833Y554352D01*
X395336Y554319D01*
X395837Y554274D01*
X396338Y554217D01*
X396836Y554147D01*
X397333Y554066D01*
X397828Y553973D01*
X398321Y553868D01*
X398810Y553751D01*
X399297Y553623D01*
X399781Y553483D01*
X400261Y553331D01*
X400737Y553168D01*
X401210Y552993D01*
X401678Y552807D01*
X402141Y552610D01*
X402600Y552402D01*
X403053Y552183D01*
X403501Y551953D01*
X403944Y551713D01*
X404380Y551462D01*
X404810Y551200D01*
X405234Y550928D01*
X405652Y550647D01*
X406062Y550355D01*
X406465Y550053D01*
X406861Y549742D01*
X407250Y549422D01*
X407630Y549092D01*
X408003Y548753D01*
X408367Y548406D01*
X408723Y548049D01*
X409070Y547685D01*
X409408Y547312D01*
X409738Y546931D01*
X409553Y546777D01*
X409228Y547154D01*
X408893Y547522D01*
X408550Y547883D01*
X408198Y548235D01*
X407838Y548578D01*
X407470Y548913D01*
X407094Y549239D01*
X406710Y549556D01*
X406319Y549863D01*
X405920Y550161D01*
X405514Y550450D01*
X405102Y550728D01*
X404683Y550997D01*
X404258Y551255D01*
X403826Y551503D01*
X403389Y551741D01*
X402946Y551968D01*
X402498Y552185D01*
X402045Y552390D01*
X401587Y552585D01*
X401124Y552769D01*
X400657Y552941D01*
X400186Y553103D01*
X399712Y553253D01*
X399234Y553391D01*
X398753Y553518D01*
X398269Y553634D01*
X397782Y553737D01*
X397293Y553830D01*
X396801Y553910D01*
X396309Y553978D01*
X395814Y554035D01*
X395318Y554080D01*
X394822Y554113D01*
X394324Y554134D01*
X393827Y554143D01*
X393827Y553903D01*
X394319Y553894D01*
X394810Y553873D01*
X395301Y553840D01*
X395791Y553796D01*
X396279Y553740D01*
X396767Y553672D01*
X397252Y553593D01*
X397735Y553502D01*
X398216Y553399D01*
X398695Y553285D01*
X399170Y553160D01*
X399643Y553023D01*
X400112Y552875D01*
X400577Y552715D01*
X401038Y552545D01*
X401496Y552363D01*
X401948Y552171D01*
X402396Y551967D01*
X402839Y551754D01*
X403277Y551529D01*
X403709Y551294D01*
X404135Y551049D01*
X404555Y550793D01*
X404970Y550528D01*
X405377Y550253D01*
X405778Y549968D01*
X406172Y549673D01*
X406559Y549369D01*
X406938Y549056D01*
X407310Y548734D01*
X407674Y548403D01*
X408030Y548064D01*
X408377Y547716D01*
X408717Y547360D01*
X409047Y546996D01*
X409369Y546623D01*
X409184Y546470D01*
X408867Y546837D01*
X408540Y547197D01*
X408205Y547549D01*
X407861Y547893D01*
X407510Y548229D01*
X407150Y548555D01*
X406783Y548874D01*
X406408Y549183D01*
X406025Y549483D01*
X405636Y549774D01*
X405240Y550056D01*
X404837Y550328D01*
X404428Y550590D01*
X404013Y550842D01*
X403591Y551085D01*
X403164Y551317D01*
X402732Y551539D01*
X402294Y551750D01*
X401852Y551951D01*
X401404Y552141D01*
X400953Y552321D01*
X400497Y552489D01*
X400037Y552647D01*
X399574Y552793D01*
X399107Y552928D01*
X398637Y553052D01*
X398164Y553165D01*
X397689Y553267D01*
X397211Y553356D01*
X396732Y553435D01*
X396250Y553502D01*
X395767Y553557D01*
X395283Y553601D01*
X394798Y553633D01*
X394313Y553654D01*
X393827Y553663D01*
X393827Y553423D01*
X394307Y553414D01*
X394787Y553393D01*
X395266Y553362D01*
X395744Y553318D01*
X396221Y553264D01*
X396697Y553197D01*
X397171Y553120D01*
X397642Y553031D01*
X398112Y552931D01*
X398579Y552819D01*
X399043Y552697D01*
X399505Y552563D01*
X399962Y552418D01*
X400417Y552263D01*
X400867Y552096D01*
X401313Y551919D01*
X401755Y551731D01*
X402193Y551533D01*
X402625Y551324D01*
X403052Y551105D01*
X403474Y550875D01*
X403890Y550636D01*
X404301Y550387D01*
X404705Y550128D01*
X405103Y549859D01*
X405494Y549581D01*
X405879Y549293D01*
X406257Y548997D01*
X406627Y548691D01*
X406990Y548377D01*
X407345Y548054D01*
X407693Y547722D01*
X408032Y547383D01*
X408363Y547035D01*
X408686Y546679D01*
X409000Y546316D01*
X408816Y546163D01*
X408505Y546521D01*
X408187Y546872D01*
X407859Y547216D01*
X407524Y547551D01*
X407181Y547879D01*
X406830Y548198D01*
X406471Y548508D01*
X406105Y548810D01*
X405732Y549103D01*
X405352Y549387D01*
X404966Y549662D01*
X404573Y549927D01*
X404173Y550183D01*
X403768Y550430D01*
X403357Y550666D01*
X402940Y550893D01*
X402518Y551109D01*
X402091Y551315D01*
X401659Y551511D01*
X401222Y551697D01*
X400781Y551872D01*
X400337Y552037D01*
X399888Y552190D01*
X399436Y552333D01*
X398980Y552465D01*
X398521Y552587D01*
X398060Y552697D01*
X397596Y552796D01*
X397130Y552883D01*
X396662Y552960D01*
X396192Y553025D01*
X395721Y553080D01*
X395248Y553122D01*
X394775Y553154D01*
X394301Y553174D01*
X393827Y553183D01*
X393827Y552943D01*
X394295Y552934D01*
X394763Y552914D01*
X395231Y552883D01*
X395697Y552841D01*
X396163Y552787D01*
X396627Y552723D01*
X397089Y552647D01*
X397550Y552560D01*
X398008Y552462D01*
X398464Y552354D01*
X398916Y552234D01*
X399366Y552103D01*
X399813Y551962D01*
X400256Y551810D01*
X400696Y551648D01*
X401131Y551475D01*
X401562Y551292D01*
X401989Y551098D01*
X402411Y550894D01*
X402828Y550680D01*
X403239Y550457D01*
X403645Y550223D01*
X404046Y549980D01*
X404440Y549727D01*
X404829Y549465D01*
X405210Y549194D01*
X405586Y548913D01*
X405954Y548624D01*
X406316Y548326D01*
X406670Y548019D01*
X407016Y547704D01*
X407356Y547381D01*
X407687Y547049D01*
X408010Y546710D01*
X408325Y546363D01*
X408631Y546009D01*
X408447Y545855D01*
X408144Y546205D01*
X407833Y546548D01*
X407514Y546883D01*
X407187Y547210D01*
X406852Y547529D01*
X406510Y547840D01*
X406160Y548143D01*
X405803Y548437D01*
X405439Y548723D01*
X405069Y549000D01*
X404691Y549268D01*
X404308Y549527D01*
X403918Y549777D01*
X403523Y550017D01*
X403122Y550247D01*
X402715Y550468D01*
X402304Y550679D01*
X401887Y550881D01*
X401466Y551072D01*
X401040Y551253D01*
X400610Y551424D01*
X400176Y551584D01*
X399738Y551734D01*
X399297Y551874D01*
X398853Y552002D01*
X398406Y552121D01*
X397956Y552228D01*
X397503Y552325D01*
X397049Y552410D01*
X396592Y552485D01*
X396134Y552549D01*
X395674Y552602D01*
X395213Y552644D01*
X394752Y552674D01*
X394289Y552694D01*
X393827Y552703D01*
X393574Y554862D02*
X393574Y552576D01*
X393573Y552577D02*
X393108Y552568D01*
X392643Y552548D01*
X392179Y552517D01*
X391716Y552474D01*
X391254Y552420D01*
X390793Y552355D01*
X390334Y552279D01*
X389877Y552192D01*
X389422Y552094D01*
X388970Y551984D01*
X388520Y551864D01*
X388074Y551733D01*
X387631Y551591D01*
X387191Y551438D01*
X386756Y551275D01*
X386324Y551101D01*
X385897Y550917D01*
X385474Y550723D01*
X385056Y550518D01*
X384643Y550303D01*
X384236Y550078D01*
X383834Y549844D01*
X383438Y549600D01*
X383048Y549346D01*
X382664Y549083D01*
X382287Y548810D01*
X381917Y548529D01*
X381553Y548239D01*
X381197Y547940D01*
X380848Y547632D01*
X380506Y547316D01*
X380172Y546992D01*
X379847Y546659D01*
X379529Y546319D01*
X379220Y545972D01*
X378919Y545617D01*
X378627Y545255D01*
X378344Y544885D01*
X378070Y544509D01*
X377805Y544127D01*
X377549Y543738D01*
X377303Y543343D01*
X377067Y542942D01*
X376840Y542536D01*
X374823Y543611D01*
X374823Y543612D01*
X375077Y544067D01*
X375341Y544517D01*
X375617Y544959D01*
X375903Y545395D01*
X376200Y545824D01*
X376506Y546246D01*
X376824Y546660D01*
X377151Y547066D01*
X377488Y547464D01*
X377834Y547853D01*
X378190Y548235D01*
X378555Y548607D01*
X378929Y548970D01*
X379311Y549325D01*
X379702Y549670D01*
X380102Y550005D01*
X380509Y550330D01*
X380924Y550646D01*
X381347Y550951D01*
X381777Y551246D01*
X382214Y551530D01*
X382658Y551804D01*
X383108Y552067D01*
X383565Y552319D01*
X384027Y552559D01*
X384496Y552789D01*
X384969Y553007D01*
X385448Y553213D01*
X385932Y553408D01*
X386420Y553590D01*
X386913Y553761D01*
X387410Y553920D01*
X387910Y554067D01*
X388414Y554202D01*
X388921Y554324D01*
X389430Y554434D01*
X389943Y554531D01*
X390457Y554616D01*
X390974Y554689D01*
X391491Y554749D01*
X392011Y554796D01*
X392531Y554831D01*
X393052Y554853D01*
X393573Y554863D01*
X393573Y554623D01*
X393058Y554613D01*
X392543Y554591D01*
X392028Y554557D01*
X391515Y554510D01*
X391003Y554451D01*
X390492Y554379D01*
X389984Y554295D01*
X389477Y554198D01*
X388973Y554090D01*
X388472Y553969D01*
X387974Y553836D01*
X387479Y553691D01*
X386988Y553533D01*
X386501Y553364D01*
X386019Y553184D01*
X385540Y552991D01*
X385067Y552787D01*
X384598Y552572D01*
X384135Y552345D01*
X383678Y552107D01*
X383227Y551858D01*
X382781Y551598D01*
X382343Y551328D01*
X381910Y551047D01*
X381485Y550755D01*
X381067Y550453D01*
X380657Y550141D01*
X380254Y549819D01*
X379859Y549488D01*
X379473Y549147D01*
X379094Y548797D01*
X378725Y548437D01*
X378364Y548069D01*
X378012Y547692D01*
X377669Y547307D01*
X377336Y546913D01*
X377013Y546512D01*
X376699Y546103D01*
X376396Y545686D01*
X376103Y545262D01*
X375820Y544831D01*
X375547Y544393D01*
X375286Y543949D01*
X375035Y543499D01*
X375246Y543386D01*
X375494Y543831D01*
X375753Y544270D01*
X376022Y544703D01*
X376302Y545129D01*
X376592Y545548D01*
X376892Y545960D01*
X377202Y546364D01*
X377522Y546761D01*
X377851Y547150D01*
X378190Y547531D01*
X378538Y547904D01*
X378894Y548268D01*
X379260Y548623D01*
X379634Y548969D01*
X380016Y549306D01*
X380406Y549634D01*
X380805Y549952D01*
X381210Y550260D01*
X381624Y550559D01*
X382044Y550847D01*
X382471Y551125D01*
X382905Y551393D01*
X383345Y551649D01*
X383791Y551896D01*
X384243Y552131D01*
X384701Y552355D01*
X385164Y552568D01*
X385632Y552770D01*
X386105Y552960D01*
X386582Y553139D01*
X387064Y553306D01*
X387549Y553461D01*
X388038Y553604D01*
X388531Y553736D01*
X389026Y553856D01*
X389524Y553963D01*
X390025Y554058D01*
X390528Y554142D01*
X391032Y554213D01*
X391539Y554271D01*
X392046Y554318D01*
X392555Y554352D01*
X393064Y554373D01*
X393573Y554383D01*
X393573Y554143D01*
X393070Y554133D01*
X392566Y554112D01*
X392064Y554078D01*
X391562Y554032D01*
X391062Y553974D01*
X390563Y553904D01*
X390066Y553822D01*
X389571Y553728D01*
X389079Y553621D01*
X388589Y553503D01*
X388102Y553373D01*
X387619Y553231D01*
X387139Y553078D01*
X386663Y552913D01*
X386191Y552736D01*
X385724Y552548D01*
X385262Y552349D01*
X384804Y552138D01*
X384351Y551916D01*
X383905Y551684D01*
X383463Y551441D01*
X383028Y551187D01*
X382600Y550922D01*
X382177Y550648D01*
X381762Y550363D01*
X381354Y550068D01*
X380952Y549763D01*
X380559Y549449D01*
X380173Y549125D01*
X379795Y548792D01*
X379425Y548449D01*
X379064Y548098D01*
X378712Y547738D01*
X378368Y547370D01*
X378033Y546994D01*
X377708Y546609D01*
X377392Y546217D01*
X377085Y545817D01*
X376789Y545410D01*
X376502Y544996D01*
X376225Y544575D01*
X375959Y544147D01*
X375703Y543713D01*
X375458Y543273D01*
X375670Y543160D01*
X375912Y543595D01*
X376165Y544024D01*
X376428Y544446D01*
X376702Y544863D01*
X376985Y545272D01*
X377278Y545674D01*
X377581Y546069D01*
X377893Y546457D01*
X378215Y546837D01*
X378546Y547209D01*
X378886Y547573D01*
X379234Y547929D01*
X379591Y548276D01*
X379956Y548614D01*
X380330Y548943D01*
X380711Y549263D01*
X381100Y549574D01*
X381497Y549875D01*
X381900Y550166D01*
X382311Y550448D01*
X382728Y550720D01*
X383152Y550981D01*
X383582Y551232D01*
X384018Y551472D01*
X384459Y551702D01*
X384907Y551921D01*
X385359Y552129D01*
X385816Y552326D01*
X386278Y552512D01*
X386744Y552687D01*
X387214Y552850D01*
X387689Y553002D01*
X388166Y553142D01*
X388647Y553270D01*
X389131Y553387D01*
X389618Y553492D01*
X390107Y553586D01*
X390598Y553667D01*
X391091Y553736D01*
X391586Y553794D01*
X392081Y553839D01*
X392578Y553872D01*
X393076Y553893D01*
X393573Y553903D01*
X393573Y553663D01*
X393082Y553654D01*
X392590Y553633D01*
X392099Y553600D01*
X391609Y553555D01*
X391121Y553498D01*
X390633Y553429D01*
X390148Y553349D01*
X389665Y553257D01*
X389184Y553153D01*
X388706Y553038D01*
X388230Y552911D01*
X387758Y552772D01*
X387290Y552622D01*
X386825Y552461D01*
X386364Y552288D01*
X385908Y552104D01*
X385456Y551910D01*
X385009Y551704D01*
X384567Y551488D01*
X384131Y551261D01*
X383700Y551023D01*
X383275Y550775D01*
X382857Y550517D01*
X382444Y550249D01*
X382039Y549970D01*
X381640Y549682D01*
X381248Y549385D01*
X380864Y549078D01*
X380487Y548761D01*
X380118Y548436D01*
X379757Y548102D01*
X379404Y547759D01*
X379059Y547408D01*
X378724Y547048D01*
X378397Y546680D01*
X378079Y546305D01*
X377770Y545922D01*
X377471Y545532D01*
X377181Y545134D01*
X376901Y544729D01*
X376631Y544318D01*
X376371Y543901D01*
X376121Y543477D01*
X375882Y543047D01*
X376094Y542934D01*
X376330Y543359D01*
X376577Y543777D01*
X376834Y544190D01*
X377101Y544596D01*
X377378Y544996D01*
X377664Y545389D01*
X377960Y545774D01*
X378265Y546153D01*
X378579Y546524D01*
X378902Y546887D01*
X379233Y547242D01*
X379574Y547589D01*
X379922Y547928D01*
X380279Y548258D01*
X380644Y548580D01*
X381016Y548892D01*
X381396Y549196D01*
X381783Y549490D01*
X382177Y549774D01*
X382578Y550049D01*
X382985Y550314D01*
X383399Y550569D01*
X383819Y550814D01*
X384244Y551049D01*
X384675Y551273D01*
X385112Y551487D01*
X385554Y551690D01*
X386000Y551883D01*
X386451Y552064D01*
X386906Y552235D01*
X387365Y552394D01*
X387828Y552542D01*
X388294Y552679D01*
X388764Y552805D01*
X389237Y552919D01*
X389712Y553022D01*
X390189Y553113D01*
X390669Y553192D01*
X391150Y553260D01*
X391633Y553316D01*
X392117Y553360D01*
X392602Y553393D01*
X393087Y553414D01*
X393573Y553423D01*
X393573Y553183D01*
X393093Y553174D01*
X392614Y553153D01*
X392135Y553121D01*
X391656Y553077D01*
X391179Y553022D01*
X390704Y552955D01*
X390230Y552876D01*
X389759Y552786D01*
X389289Y552685D01*
X388822Y552572D01*
X388359Y552448D01*
X387898Y552313D01*
X387441Y552166D01*
X386987Y552009D01*
X386537Y551840D01*
X386092Y551661D01*
X385651Y551471D01*
X385215Y551270D01*
X384783Y551059D01*
X384357Y550837D01*
X383937Y550606D01*
X383522Y550364D01*
X383114Y550111D01*
X382711Y549850D01*
X382315Y549578D01*
X381926Y549297D01*
X381543Y549006D01*
X381168Y548707D01*
X380800Y548398D01*
X380440Y548081D01*
X380088Y547754D01*
X379744Y547420D01*
X379407Y547077D01*
X379080Y546726D01*
X378761Y546367D01*
X378450Y546001D01*
X378149Y545627D01*
X377857Y545246D01*
X377574Y544858D01*
X377301Y544463D01*
X377037Y544062D01*
X376783Y543654D01*
X376539Y543241D01*
X376305Y542821D01*
X376517Y542708D01*
X376748Y543122D01*
X376989Y543531D01*
X377240Y543934D01*
X377500Y544330D01*
X377770Y544720D01*
X378050Y545103D01*
X378338Y545479D01*
X378636Y545849D01*
X378942Y546211D01*
X379258Y546565D01*
X379581Y546912D01*
X379913Y547250D01*
X380254Y547581D01*
X380602Y547903D01*
X380957Y548217D01*
X381321Y548521D01*
X381691Y548817D01*
X382069Y549104D01*
X382453Y549382D01*
X382845Y549650D01*
X383242Y549909D01*
X383646Y550158D01*
X384055Y550397D01*
X384471Y550626D01*
X384891Y550845D01*
X385317Y551053D01*
X385748Y551252D01*
X386184Y551439D01*
X386624Y551617D01*
X387068Y551783D01*
X387516Y551938D01*
X387968Y552083D01*
X388423Y552217D01*
X388881Y552339D01*
X389342Y552451D01*
X389805Y552551D01*
X390271Y552640D01*
X390739Y552717D01*
X391209Y552783D01*
X391680Y552838D01*
X392152Y552882D01*
X392625Y552913D01*
X393099Y552934D01*
X393573Y552943D01*
X393573Y552703D01*
X393105Y552694D01*
X392637Y552674D01*
X392170Y552642D01*
X391703Y552599D01*
X391238Y552545D01*
X390774Y552480D01*
X390312Y552403D01*
X389852Y552315D01*
X389394Y552216D01*
X388939Y552106D01*
X388487Y551985D01*
X388037Y551853D01*
X387591Y551711D01*
X387149Y551557D01*
X386710Y551393D01*
X386276Y551218D01*
X385846Y551032D01*
X385420Y550837D01*
X384999Y550630D01*
X384584Y550414D01*
X384174Y550188D01*
X383769Y549952D01*
X383371Y549706D01*
X382978Y549451D01*
X382592Y549186D01*
X382212Y548912D01*
X381839Y548628D01*
X381473Y548336D01*
X381114Y548035D01*
X380763Y547725D01*
X380419Y547407D01*
X380083Y547081D01*
X379755Y546746D01*
X379436Y546404D01*
X379124Y546054D01*
X378821Y545697D01*
X378528Y545332D01*
X378242Y544960D01*
X377967Y544582D01*
X377700Y544197D01*
X377443Y543805D01*
X377195Y543408D01*
X376957Y543004D01*
X376729Y542595D01*
X393826Y511938D02*
X393826Y514224D01*
X393827Y514223D02*
X394295Y514232D01*
X394763Y514253D01*
X395231Y514284D01*
X395698Y514327D01*
X396163Y514382D01*
X396627Y514448D01*
X397089Y514525D01*
X397549Y514613D01*
X398007Y514713D01*
X398463Y514824D01*
X398915Y514946D01*
X399364Y515079D01*
X399810Y515223D01*
X400253Y515377D01*
X400691Y515543D01*
X401125Y515719D01*
X401555Y515906D01*
X401980Y516103D01*
X402400Y516310D01*
X402815Y516528D01*
X403225Y516756D01*
X403629Y516993D01*
X404027Y517241D01*
X404418Y517498D01*
X404804Y517765D01*
X405183Y518041D01*
X405554Y518326D01*
X405919Y518620D01*
X406277Y518923D01*
X406627Y519235D01*
X406969Y519555D01*
X407303Y519883D01*
X407629Y520219D01*
X407947Y520564D01*
X408257Y520916D01*
X410001Y519439D01*
X410002Y519439D01*
X409655Y519044D01*
X409299Y518658D01*
X408934Y518281D01*
X408559Y517912D01*
X408176Y517553D01*
X407783Y517204D01*
X407383Y516864D01*
X406974Y516534D01*
X406557Y516214D01*
X406133Y515905D01*
X405701Y515606D01*
X405262Y515317D01*
X404816Y515040D01*
X404363Y514773D01*
X403904Y514518D01*
X403439Y514274D01*
X402968Y514041D01*
X402491Y513820D01*
X402009Y513611D01*
X401522Y513413D01*
X401031Y513228D01*
X400535Y513054D01*
X400035Y512893D01*
X399531Y512744D01*
X399024Y512608D01*
X398513Y512484D01*
X398000Y512372D01*
X397484Y512273D01*
X396966Y512187D01*
X396446Y512113D01*
X395924Y512053D01*
X395401Y512005D01*
X394877Y511969D01*
X394352Y511947D01*
X393827Y511937D01*
X393827Y512177D01*
X394346Y512187D01*
X394865Y512209D01*
X395383Y512244D01*
X395900Y512291D01*
X396416Y512352D01*
X396930Y512424D01*
X397443Y512510D01*
X397953Y512607D01*
X398460Y512718D01*
X398965Y512840D01*
X399467Y512975D01*
X399965Y513123D01*
X400459Y513282D01*
X400949Y513453D01*
X401435Y513637D01*
X401916Y513832D01*
X402393Y514039D01*
X402864Y514257D01*
X403330Y514487D01*
X403790Y514729D01*
X404243Y514981D01*
X404691Y515245D01*
X405132Y515519D01*
X405566Y515804D01*
X405993Y516100D01*
X406413Y516406D01*
X406825Y516722D01*
X407229Y517048D01*
X407625Y517384D01*
X408013Y517730D01*
X408392Y518085D01*
X408762Y518449D01*
X409124Y518822D01*
X409476Y519204D01*
X409819Y519594D01*
X409635Y519749D01*
X409297Y519363D01*
X408949Y518986D01*
X408591Y518617D01*
X408225Y518257D01*
X407850Y517906D01*
X407467Y517565D01*
X407075Y517233D01*
X406676Y516910D01*
X406269Y516598D01*
X405854Y516295D01*
X405432Y516003D01*
X405002Y515721D01*
X404566Y515450D01*
X404124Y515189D01*
X403675Y514940D01*
X403221Y514701D01*
X402760Y514474D01*
X402295Y514258D01*
X401824Y514053D01*
X401348Y513860D01*
X400867Y513679D01*
X400383Y513510D01*
X399894Y513352D01*
X399402Y513207D01*
X398906Y513073D01*
X398407Y512952D01*
X397905Y512843D01*
X397401Y512746D01*
X396895Y512662D01*
X396386Y512590D01*
X395876Y512530D01*
X395365Y512483D01*
X394853Y512449D01*
X394340Y512427D01*
X393827Y512417D01*
X393827Y512657D01*
X394334Y512667D01*
X394841Y512688D01*
X395347Y512723D01*
X395853Y512769D01*
X396357Y512828D01*
X396859Y512899D01*
X397360Y512982D01*
X397858Y513078D01*
X398354Y513186D01*
X398847Y513306D01*
X399337Y513438D01*
X399824Y513582D01*
X400307Y513737D01*
X400786Y513905D01*
X401261Y514084D01*
X401731Y514275D01*
X402196Y514477D01*
X402657Y514690D01*
X403112Y514915D01*
X403561Y515151D01*
X404005Y515398D01*
X404442Y515655D01*
X404873Y515923D01*
X405297Y516202D01*
X405714Y516490D01*
X406124Y516789D01*
X406527Y517098D01*
X406922Y517417D01*
X407309Y517745D01*
X407688Y518083D01*
X408058Y518430D01*
X408420Y518785D01*
X408773Y519150D01*
X409117Y519523D01*
X409452Y519904D01*
X409269Y520059D01*
X408938Y519682D01*
X408598Y519314D01*
X408249Y518954D01*
X407891Y518602D01*
X407525Y518259D01*
X407151Y517926D01*
X406768Y517601D01*
X406378Y517286D01*
X405980Y516981D01*
X405575Y516686D01*
X405162Y516400D01*
X404743Y516125D01*
X404317Y515860D01*
X403885Y515606D01*
X403447Y515362D01*
X403003Y515129D01*
X402553Y514907D01*
X402098Y514696D01*
X401638Y514496D01*
X401173Y514308D01*
X400704Y514130D01*
X400231Y513965D01*
X399753Y513811D01*
X399272Y513669D01*
X398788Y513538D01*
X398301Y513420D01*
X397811Y513313D01*
X397318Y513219D01*
X396824Y513136D01*
X396327Y513066D01*
X395829Y513008D01*
X395329Y512962D01*
X394829Y512928D01*
X394328Y512907D01*
X393827Y512897D01*
X393827Y513137D01*
X394322Y513147D01*
X394817Y513168D01*
X395312Y513201D01*
X395805Y513247D01*
X396297Y513304D01*
X396788Y513374D01*
X397277Y513455D01*
X397763Y513549D01*
X398248Y513654D01*
X398729Y513771D01*
X399208Y513900D01*
X399683Y514040D01*
X400155Y514193D01*
X400622Y514356D01*
X401086Y514531D01*
X401545Y514717D01*
X402000Y514915D01*
X402449Y515123D01*
X402894Y515343D01*
X403332Y515573D01*
X403766Y515814D01*
X404193Y516065D01*
X404613Y516327D01*
X405028Y516599D01*
X405435Y516881D01*
X405836Y517173D01*
X406229Y517475D01*
X406614Y517786D01*
X406992Y518106D01*
X407362Y518436D01*
X407724Y518774D01*
X408078Y519122D01*
X408423Y519478D01*
X408759Y519842D01*
X409086Y520214D01*
X408903Y520369D01*
X408579Y520001D01*
X408247Y519642D01*
X407907Y519290D01*
X407557Y518947D01*
X407200Y518612D01*
X406834Y518287D01*
X406461Y517970D01*
X406080Y517663D01*
X405691Y517365D01*
X405296Y517076D01*
X404893Y516798D01*
X404484Y516529D01*
X404068Y516270D01*
X403646Y516022D01*
X403218Y515784D01*
X402785Y515557D01*
X402346Y515340D01*
X401901Y515134D01*
X401452Y514939D01*
X400999Y514755D01*
X400541Y514582D01*
X400079Y514420D01*
X399613Y514270D01*
X399143Y514131D01*
X398670Y514004D01*
X398195Y513888D01*
X397716Y513784D01*
X397235Y513692D01*
X396752Y513611D01*
X396268Y513542D01*
X395781Y513485D01*
X395294Y513441D01*
X394805Y513408D01*
X394316Y513386D01*
X393827Y513377D01*
X393827Y513617D01*
X394310Y513626D01*
X394793Y513647D01*
X395276Y513680D01*
X395758Y513724D01*
X396238Y513780D01*
X396717Y513848D01*
X397194Y513928D01*
X397669Y514019D01*
X398141Y514122D01*
X398611Y514236D01*
X399078Y514362D01*
X399542Y514499D01*
X400002Y514648D01*
X400459Y514807D01*
X400911Y514978D01*
X401360Y515160D01*
X401803Y515353D01*
X402242Y515556D01*
X402676Y515770D01*
X403104Y515995D01*
X403527Y516230D01*
X403943Y516475D01*
X404354Y516731D01*
X404758Y516996D01*
X405156Y517272D01*
X405547Y517556D01*
X405931Y517851D01*
X406307Y518154D01*
X406676Y518467D01*
X407037Y518789D01*
X407390Y519119D01*
X407735Y519458D01*
X408072Y519805D01*
X408400Y520161D01*
X408719Y520524D01*
X408536Y520679D01*
X408221Y520320D01*
X407897Y519969D01*
X407564Y519626D01*
X407223Y519292D01*
X406875Y518965D01*
X406518Y518648D01*
X406153Y518339D01*
X405782Y518039D01*
X405403Y517748D01*
X405017Y517467D01*
X404624Y517195D01*
X404224Y516933D01*
X403819Y516681D01*
X403407Y516438D01*
X402990Y516206D01*
X402567Y515984D01*
X402138Y515773D01*
X401705Y515572D01*
X401267Y515381D01*
X400824Y515202D01*
X400377Y515033D01*
X399926Y514875D01*
X399472Y514729D01*
X399014Y514593D01*
X398552Y514469D01*
X398088Y514356D01*
X397621Y514254D01*
X397152Y514164D01*
X396681Y514086D01*
X396208Y514019D01*
X395734Y513963D01*
X395258Y513919D01*
X394781Y513887D01*
X394304Y513866D01*
X393827Y513857D01*
X393827Y514097D01*
X394298Y514106D01*
X394770Y514127D01*
X395240Y514159D01*
X395710Y514202D01*
X396179Y514257D01*
X396646Y514323D01*
X397111Y514401D01*
X397574Y514490D01*
X398035Y514590D01*
X398493Y514702D01*
X398949Y514824D01*
X399401Y514958D01*
X399850Y515103D01*
X400296Y515259D01*
X400737Y515425D01*
X401174Y515603D01*
X401607Y515791D01*
X402035Y515989D01*
X402458Y516198D01*
X402875Y516417D01*
X403288Y516646D01*
X403694Y516886D01*
X404095Y517135D01*
X404489Y517394D01*
X404877Y517662D01*
X405258Y517940D01*
X405633Y518227D01*
X406000Y518523D01*
X406360Y518828D01*
X406712Y519142D01*
X407057Y519464D01*
X407393Y519795D01*
X407721Y520133D01*
X408041Y520480D01*
X408353Y520834D01*
X375128Y522641D02*
X377113Y523776D01*
X377112Y523775D02*
X377350Y523377D01*
X377596Y522985D01*
X377853Y522600D01*
X378118Y522220D01*
X378392Y521847D01*
X378676Y521481D01*
X378968Y521122D01*
X379269Y520770D01*
X379578Y520425D01*
X379895Y520088D01*
X380221Y519758D01*
X380554Y519437D01*
X380895Y519123D01*
X381244Y518818D01*
X381599Y518522D01*
X381962Y518234D01*
X382332Y517955D01*
X382708Y517685D01*
X383091Y517424D01*
X383480Y517173D01*
X383874Y516931D01*
X384275Y516698D01*
X384681Y516476D01*
X385092Y516263D01*
X385509Y516060D01*
X385930Y515867D01*
X386355Y515685D01*
X386785Y515513D01*
X387219Y515351D01*
X387657Y515200D01*
X388098Y515059D01*
X388543Y514929D01*
X388990Y514810D01*
X389440Y514702D01*
X389893Y514604D01*
X390348Y514518D01*
X390805Y514443D01*
X391264Y514378D01*
X391724Y514325D01*
X392185Y514283D01*
X392647Y514252D01*
X393110Y514232D01*
X393573Y514223D01*
X393573Y511938D01*
X393573Y511937D01*
X393054Y511947D01*
X392535Y511969D01*
X392017Y512003D01*
X391500Y512050D01*
X390985Y512109D01*
X390471Y512181D01*
X389959Y512265D01*
X389449Y512362D01*
X388941Y512471D01*
X388437Y512592D01*
X387935Y512725D01*
X387437Y512871D01*
X386942Y513028D01*
X386452Y513198D01*
X385965Y513379D01*
X385483Y513572D01*
X385006Y513776D01*
X384535Y513992D01*
X384068Y514219D01*
X383607Y514458D01*
X383152Y514707D01*
X382703Y514968D01*
X382261Y515239D01*
X381825Y515521D01*
X381396Y515813D01*
X380974Y516116D01*
X380560Y516429D01*
X380154Y516751D01*
X379755Y517084D01*
X379364Y517426D01*
X378982Y517777D01*
X378609Y518137D01*
X378244Y518507D01*
X377889Y518885D01*
X377542Y519271D01*
X377205Y519666D01*
X376878Y520069D01*
X376561Y520479D01*
X376253Y520898D01*
X375956Y521323D01*
X375669Y521756D01*
X375393Y522195D01*
X375128Y522641D01*
X375336Y522760D01*
X375598Y522319D01*
X375872Y521885D01*
X376155Y521457D01*
X376449Y521036D01*
X376753Y520623D01*
X377067Y520217D01*
X377391Y519819D01*
X377724Y519428D01*
X378066Y519046D01*
X378418Y518673D01*
X378778Y518307D01*
X379147Y517951D01*
X379525Y517604D01*
X379911Y517266D01*
X380305Y516937D01*
X380707Y516618D01*
X381117Y516309D01*
X381534Y516010D01*
X381958Y515721D01*
X382389Y515442D01*
X382826Y515174D01*
X383270Y514916D01*
X383720Y514670D01*
X384175Y514434D01*
X384637Y514209D01*
X385103Y513996D01*
X385575Y513793D01*
X386051Y513603D01*
X386532Y513424D01*
X387017Y513256D01*
X387506Y513101D01*
X387999Y512957D01*
X388495Y512825D01*
X388994Y512705D01*
X389495Y512597D01*
X390000Y512502D01*
X390506Y512419D01*
X391014Y512348D01*
X391524Y512289D01*
X392035Y512242D01*
X392547Y512208D01*
X393060Y512187D01*
X393573Y512177D01*
X393573Y512417D01*
X393065Y512427D01*
X392559Y512448D01*
X392052Y512482D01*
X391547Y512528D01*
X391043Y512586D01*
X390541Y512656D01*
X390040Y512738D01*
X389542Y512833D01*
X389046Y512939D01*
X388553Y513058D01*
X388063Y513188D01*
X387576Y513330D01*
X387092Y513484D01*
X386613Y513650D01*
X386137Y513827D01*
X385667Y514015D01*
X385200Y514215D01*
X384739Y514426D01*
X384283Y514648D01*
X383832Y514881D01*
X383388Y515125D01*
X382949Y515380D01*
X382516Y515645D01*
X382091Y515921D01*
X381671Y516206D01*
X381259Y516502D01*
X380854Y516808D01*
X380457Y517123D01*
X380068Y517448D01*
X379686Y517782D01*
X379312Y518125D01*
X378947Y518478D01*
X378591Y518839D01*
X378243Y519208D01*
X377905Y519586D01*
X377576Y519972D01*
X377256Y520365D01*
X376945Y520767D01*
X376645Y521175D01*
X376354Y521591D01*
X376074Y522014D01*
X375804Y522443D01*
X375544Y522879D01*
X375753Y522998D01*
X376009Y522567D01*
X376276Y522143D01*
X376553Y521725D01*
X376841Y521314D01*
X377138Y520910D01*
X377444Y520514D01*
X377761Y520124D01*
X378086Y519743D01*
X378421Y519370D01*
X378764Y519005D01*
X379117Y518648D01*
X379477Y518300D01*
X379847Y517960D01*
X380224Y517630D01*
X380609Y517309D01*
X381002Y516997D01*
X381402Y516695D01*
X381809Y516403D01*
X382223Y516120D01*
X382644Y515848D01*
X383072Y515586D01*
X383506Y515334D01*
X383945Y515093D01*
X384391Y514863D01*
X384841Y514643D01*
X385297Y514435D01*
X385758Y514237D01*
X386224Y514051D01*
X386693Y513876D01*
X387167Y513712D01*
X387645Y513560D01*
X388126Y513420D01*
X388611Y513291D01*
X389099Y513174D01*
X389589Y513068D01*
X390081Y512975D01*
X390576Y512893D01*
X391073Y512824D01*
X391571Y512766D01*
X392070Y512721D01*
X392570Y512688D01*
X393071Y512667D01*
X393573Y512657D01*
X393573Y512897D01*
X393077Y512906D01*
X392582Y512927D01*
X392088Y512960D01*
X391594Y513005D01*
X391102Y513062D01*
X390611Y513131D01*
X390122Y513211D01*
X389635Y513304D01*
X389151Y513408D01*
X388669Y513524D01*
X388190Y513651D01*
X387715Y513790D01*
X387242Y513940D01*
X386774Y514102D01*
X386310Y514275D01*
X385850Y514459D01*
X385394Y514654D01*
X384944Y514860D01*
X384498Y515077D01*
X384058Y515305D01*
X383624Y515543D01*
X383195Y515792D01*
X382772Y516051D01*
X382356Y516320D01*
X381947Y516599D01*
X381544Y516888D01*
X381149Y517187D01*
X380761Y517495D01*
X380380Y517812D01*
X380007Y518139D01*
X379643Y518474D01*
X379286Y518818D01*
X378938Y519171D01*
X378598Y519531D01*
X378267Y519900D01*
X377946Y520277D01*
X377633Y520662D01*
X377330Y521054D01*
X377036Y521453D01*
X376753Y521859D01*
X376479Y522272D01*
X376215Y522691D01*
X375961Y523117D01*
X376169Y523236D01*
X376420Y522816D01*
X376681Y522401D01*
X376952Y521993D01*
X377232Y521592D01*
X377522Y521197D01*
X377822Y520810D01*
X378131Y520430D01*
X378449Y520058D01*
X378775Y519693D01*
X379111Y519337D01*
X379455Y518988D01*
X379808Y518648D01*
X380168Y518317D01*
X380536Y517994D01*
X380913Y517681D01*
X381296Y517376D01*
X381687Y517081D01*
X382085Y516796D01*
X382489Y516520D01*
X382900Y516254D01*
X383318Y515998D01*
X383741Y515752D01*
X384171Y515517D01*
X384606Y515292D01*
X385046Y515078D01*
X385491Y514874D01*
X385941Y514681D01*
X386396Y514499D01*
X386855Y514328D01*
X387317Y514168D01*
X387784Y514020D01*
X388254Y513882D01*
X388727Y513756D01*
X389203Y513642D01*
X389682Y513539D01*
X390163Y513448D01*
X390646Y513368D01*
X391131Y513300D01*
X391618Y513244D01*
X392105Y513200D01*
X392594Y513167D01*
X393083Y513146D01*
X393573Y513137D01*
X393573Y513377D01*
X393089Y513386D01*
X392606Y513407D01*
X392123Y513439D01*
X391641Y513483D01*
X391160Y513539D01*
X390681Y513606D01*
X390204Y513684D01*
X389729Y513775D01*
X389256Y513876D01*
X388785Y513989D01*
X388318Y514114D01*
X387853Y514249D01*
X387392Y514396D01*
X386935Y514554D01*
X386482Y514723D01*
X386033Y514903D01*
X385588Y515093D01*
X385148Y515295D01*
X384713Y515507D01*
X384284Y515729D01*
X383859Y515961D01*
X383441Y516204D01*
X383028Y516457D01*
X382622Y516720D01*
X382222Y516992D01*
X381829Y517274D01*
X381443Y517566D01*
X381064Y517867D01*
X380693Y518176D01*
X380329Y518495D01*
X379973Y518822D01*
X379624Y519158D01*
X379284Y519503D01*
X378953Y519855D01*
X378630Y520215D01*
X378316Y520583D01*
X378011Y520958D01*
X377715Y521341D01*
X377428Y521731D01*
X377151Y522127D01*
X376883Y522530D01*
X376626Y522940D01*
X376378Y523355D01*
X376586Y523474D01*
X376831Y523064D01*
X377086Y522659D01*
X377350Y522261D01*
X377624Y521870D01*
X377907Y521485D01*
X378199Y521107D01*
X378501Y520736D01*
X378811Y520372D01*
X379130Y520017D01*
X379458Y519669D01*
X379794Y519329D01*
X380138Y518997D01*
X380489Y518673D01*
X380849Y518359D01*
X381216Y518053D01*
X381591Y517755D01*
X381972Y517468D01*
X382360Y517189D01*
X382755Y516920D01*
X383156Y516660D01*
X383564Y516410D01*
X383977Y516171D01*
X384396Y515941D01*
X384821Y515721D01*
X385250Y515512D01*
X385685Y515313D01*
X386124Y515125D01*
X386568Y514947D01*
X387016Y514780D01*
X387467Y514624D01*
X387923Y514479D01*
X388382Y514345D01*
X388843Y514222D01*
X389308Y514110D01*
X389775Y514010D01*
X390245Y513921D01*
X390716Y513843D01*
X391190Y513777D01*
X391664Y513722D01*
X392140Y513678D01*
X392617Y513647D01*
X393095Y513626D01*
X393573Y513617D01*
X393573Y513857D01*
X393101Y513866D01*
X392629Y513886D01*
X392158Y513918D01*
X391688Y513961D01*
X391219Y514015D01*
X390751Y514081D01*
X390286Y514157D01*
X389822Y514245D01*
X389360Y514345D01*
X388902Y514455D01*
X388445Y514576D01*
X387992Y514709D01*
X387542Y514852D01*
X387096Y515006D01*
X386654Y515171D01*
X386216Y515346D01*
X385782Y515532D01*
X385353Y515729D01*
X384928Y515936D01*
X384509Y516153D01*
X384095Y516380D01*
X383687Y516616D01*
X383284Y516863D01*
X382888Y517120D01*
X382498Y517385D01*
X382114Y517661D01*
X381738Y517945D01*
X381368Y518238D01*
X381005Y518541D01*
X380650Y518852D01*
X380303Y519171D01*
X379963Y519499D01*
X379631Y519835D01*
X379308Y520178D01*
X378992Y520530D01*
X378686Y520889D01*
X378388Y521255D01*
X378099Y521628D01*
X377819Y522008D01*
X377549Y522395D01*
X377288Y522789D01*
X377036Y523188D01*
X376795Y523593D01*
X377003Y523713D01*
X377242Y523312D01*
X377490Y522918D01*
X377748Y522529D01*
X378015Y522147D01*
X378291Y521772D01*
X378577Y521403D01*
X378871Y521041D01*
X379174Y520687D01*
X379485Y520340D01*
X379804Y520001D01*
X380132Y519669D01*
X380468Y519345D01*
X380811Y519030D01*
X381162Y518723D01*
X381520Y518424D01*
X381885Y518135D01*
X382257Y517854D01*
X382636Y517582D01*
X383021Y517319D01*
X383412Y517066D01*
X383810Y516823D01*
X384213Y516589D01*
X384622Y516364D01*
X385036Y516150D01*
X385455Y515946D01*
X385879Y515752D01*
X386307Y515568D01*
X386740Y515395D01*
X387177Y515232D01*
X387617Y515080D01*
X388062Y514939D01*
X388509Y514808D01*
X388960Y514688D01*
X389413Y514579D01*
X389869Y514481D01*
X390327Y514394D01*
X390787Y514318D01*
X391248Y514253D01*
X391711Y514200D01*
X392176Y514157D01*
X392641Y514126D01*
X393106Y514106D01*
X393573Y514097D01*
D13*
X409448Y541274D02*
X409448Y546354D01*
X409448Y525018D02*
X409448Y520446D01*
D12*
X385976Y604388D02*
X384220Y602924D01*
X384220Y602925D02*
X383919Y603272D01*
X383610Y603612D01*
X383293Y603945D01*
X382968Y604270D01*
X382636Y604587D01*
X382296Y604896D01*
X381948Y605197D01*
X381594Y605490D01*
X381232Y605773D01*
X380864Y606048D01*
X380489Y606315D01*
X380108Y606572D01*
X379721Y606820D01*
X379329Y607058D01*
X378930Y607287D01*
X378526Y607507D01*
X378118Y607717D01*
X377704Y607917D01*
X377285Y608107D01*
X376862Y608286D01*
X376435Y608456D01*
X376004Y608615D01*
X375569Y608764D01*
X375131Y608903D01*
X374690Y609031D01*
X374245Y609148D01*
X373798Y609255D01*
X373349Y609351D01*
X372897Y609436D01*
X372444Y609510D01*
X371988Y609574D01*
X371532Y609626D01*
X371074Y609668D01*
X370616Y609698D01*
X370156Y609718D01*
X369697Y609727D01*
X369696Y612012D01*
X369697Y612013D01*
X370212Y612003D01*
X370727Y611982D01*
X371241Y611948D01*
X371754Y611902D01*
X372266Y611843D01*
X372776Y611772D01*
X373285Y611689D01*
X373791Y611594D01*
X374295Y611486D01*
X374796Y611367D01*
X375294Y611236D01*
X375789Y611092D01*
X376280Y610937D01*
X376768Y610770D01*
X377251Y610591D01*
X377730Y610401D01*
X378204Y610200D01*
X378673Y609987D01*
X379137Y609763D01*
X379596Y609528D01*
X380048Y609281D01*
X380495Y609025D01*
X380935Y608757D01*
X381369Y608479D01*
X381796Y608191D01*
X382216Y607892D01*
X382628Y607583D01*
X383034Y607265D01*
X383431Y606937D01*
X383820Y606600D01*
X384201Y606253D01*
X384574Y605897D01*
X384938Y605533D01*
X385293Y605160D01*
X385639Y604778D01*
X385976Y604388D01*
X385792Y604234D01*
X385459Y604620D01*
X385117Y604997D01*
X384765Y605366D01*
X384405Y605726D01*
X384037Y606078D01*
X383660Y606421D01*
X383275Y606754D01*
X382882Y607079D01*
X382482Y607393D01*
X382074Y607698D01*
X381659Y607994D01*
X381237Y608279D01*
X380808Y608554D01*
X380372Y608818D01*
X379931Y609072D01*
X379483Y609315D01*
X379030Y609548D01*
X378572Y609769D01*
X378108Y609980D01*
X377639Y610179D01*
X377165Y610367D01*
X376688Y610544D01*
X376206Y610709D01*
X375720Y610862D01*
X375231Y611004D01*
X374738Y611134D01*
X374243Y611252D01*
X373745Y611358D01*
X373244Y611453D01*
X372741Y611535D01*
X372237Y611605D01*
X371731Y611663D01*
X371223Y611708D01*
X370715Y611742D01*
X370206Y611763D01*
X369697Y611773D01*
X369697Y611533D01*
X370200Y611524D01*
X370703Y611502D01*
X371206Y611469D01*
X371707Y611424D01*
X372208Y611367D01*
X372706Y611297D01*
X373203Y611216D01*
X373698Y611123D01*
X374191Y611018D01*
X374680Y610901D01*
X375167Y610773D01*
X375651Y610633D01*
X376131Y610481D01*
X376607Y610318D01*
X377080Y610143D01*
X377548Y609957D01*
X378011Y609760D01*
X378470Y609552D01*
X378923Y609333D01*
X379371Y609103D01*
X379814Y608863D01*
X380250Y608612D01*
X380680Y608350D01*
X381104Y608078D01*
X381522Y607797D01*
X381932Y607505D01*
X382335Y607203D01*
X382731Y606892D01*
X383120Y606572D01*
X383500Y606242D01*
X383873Y605903D01*
X384237Y605556D01*
X384593Y605199D01*
X384940Y604835D01*
X385278Y604462D01*
X385608Y604081D01*
X385423Y603927D01*
X385098Y604304D01*
X384763Y604672D01*
X384420Y605033D01*
X384068Y605385D01*
X383708Y605728D01*
X383340Y606063D01*
X382964Y606389D01*
X382580Y606706D01*
X382189Y607013D01*
X381790Y607311D01*
X381384Y607600D01*
X380972Y607878D01*
X380553Y608147D01*
X380128Y608405D01*
X379696Y608653D01*
X379259Y608891D01*
X378816Y609118D01*
X378368Y609335D01*
X377915Y609540D01*
X377457Y609735D01*
X376994Y609919D01*
X376527Y610091D01*
X376056Y610253D01*
X375582Y610403D01*
X375104Y610541D01*
X374623Y610668D01*
X374139Y610784D01*
X373652Y610887D01*
X373163Y610980D01*
X372671Y611060D01*
X372179Y611128D01*
X371684Y611185D01*
X371188Y611230D01*
X370692Y611263D01*
X370194Y611284D01*
X369697Y611293D01*
X369697Y611053D01*
X370189Y611044D01*
X370680Y611023D01*
X371171Y610990D01*
X371661Y610946D01*
X372149Y610890D01*
X372637Y610822D01*
X373122Y610743D01*
X373605Y610652D01*
X374086Y610549D01*
X374565Y610435D01*
X375040Y610310D01*
X375513Y610173D01*
X375982Y610025D01*
X376447Y609865D01*
X376908Y609695D01*
X377366Y609513D01*
X377818Y609321D01*
X378266Y609117D01*
X378709Y608904D01*
X379147Y608679D01*
X379579Y608444D01*
X380005Y608199D01*
X380425Y607943D01*
X380840Y607678D01*
X381247Y607403D01*
X381648Y607118D01*
X382042Y606823D01*
X382429Y606519D01*
X382808Y606206D01*
X383180Y605884D01*
X383544Y605553D01*
X383900Y605214D01*
X384247Y604866D01*
X384587Y604510D01*
X384917Y604146D01*
X385239Y603773D01*
X385054Y603620D01*
X384737Y603987D01*
X384410Y604347D01*
X384075Y604699D01*
X383731Y605043D01*
X383380Y605379D01*
X383020Y605705D01*
X382653Y606024D01*
X382278Y606333D01*
X381895Y606633D01*
X381506Y606924D01*
X381110Y607206D01*
X380707Y607478D01*
X380298Y607740D01*
X379883Y607992D01*
X379461Y608235D01*
X379034Y608467D01*
X378602Y608689D01*
X378164Y608900D01*
X377722Y609101D01*
X377274Y609291D01*
X376823Y609471D01*
X376367Y609639D01*
X375907Y609797D01*
X375444Y609943D01*
X374977Y610078D01*
X374507Y610202D01*
X374034Y610315D01*
X373559Y610417D01*
X373081Y610506D01*
X372602Y610585D01*
X372120Y610652D01*
X371637Y610707D01*
X371153Y610751D01*
X370668Y610783D01*
X370183Y610804D01*
X369697Y610813D01*
X369697Y610573D01*
X370177Y610564D01*
X370657Y610543D01*
X371136Y610512D01*
X371614Y610468D01*
X372091Y610414D01*
X372567Y610347D01*
X373041Y610270D01*
X373512Y610181D01*
X373982Y610081D01*
X374449Y609969D01*
X374913Y609847D01*
X375375Y609713D01*
X375832Y609568D01*
X376287Y609413D01*
X376737Y609246D01*
X377183Y609069D01*
X377625Y608881D01*
X378063Y608683D01*
X378495Y608474D01*
X378922Y608255D01*
X379344Y608025D01*
X379760Y607786D01*
X380171Y607537D01*
X380575Y607278D01*
X380973Y607009D01*
X381364Y606731D01*
X381749Y606443D01*
X382127Y606147D01*
X382497Y605841D01*
X382860Y605527D01*
X383215Y605204D01*
X383563Y604872D01*
X383902Y604533D01*
X384233Y604185D01*
X384556Y603829D01*
X384870Y603466D01*
X384686Y603313D01*
X384375Y603671D01*
X384057Y604022D01*
X383729Y604366D01*
X383394Y604701D01*
X383051Y605029D01*
X382700Y605348D01*
X382341Y605658D01*
X381975Y605960D01*
X381602Y606253D01*
X381222Y606537D01*
X380836Y606812D01*
X380443Y607077D01*
X380043Y607333D01*
X379638Y607580D01*
X379227Y607816D01*
X378810Y608043D01*
X378388Y608259D01*
X377961Y608465D01*
X377529Y608661D01*
X377092Y608847D01*
X376651Y609022D01*
X376207Y609187D01*
X375758Y609340D01*
X375306Y609483D01*
X374850Y609615D01*
X374391Y609737D01*
X373930Y609847D01*
X373466Y609946D01*
X373000Y610033D01*
X372532Y610110D01*
X372062Y610175D01*
X371591Y610230D01*
X371118Y610272D01*
X370645Y610304D01*
X370171Y610324D01*
X369697Y610333D01*
X369697Y610093D01*
X370165Y610084D01*
X370633Y610064D01*
X371101Y610033D01*
X371567Y609991D01*
X372033Y609937D01*
X372497Y609873D01*
X372959Y609797D01*
X373420Y609710D01*
X373878Y609612D01*
X374334Y609504D01*
X374786Y609384D01*
X375236Y609253D01*
X375683Y609112D01*
X376126Y608960D01*
X376566Y608798D01*
X377001Y608625D01*
X377432Y608442D01*
X377859Y608248D01*
X378281Y608044D01*
X378698Y607830D01*
X379109Y607607D01*
X379515Y607373D01*
X379916Y607130D01*
X380310Y606877D01*
X380699Y606615D01*
X381080Y606344D01*
X381456Y606063D01*
X381824Y605774D01*
X382186Y605476D01*
X382540Y605169D01*
X382886Y604854D01*
X383226Y604531D01*
X383557Y604199D01*
X383880Y603860D01*
X384195Y603513D01*
X384501Y603159D01*
X384317Y603005D01*
X384014Y603355D01*
X383703Y603698D01*
X383384Y604033D01*
X383057Y604360D01*
X382722Y604679D01*
X382380Y604990D01*
X382030Y605293D01*
X381673Y605587D01*
X381309Y605873D01*
X380939Y606150D01*
X380561Y606418D01*
X380178Y606677D01*
X379788Y606927D01*
X379393Y607167D01*
X378992Y607397D01*
X378585Y607618D01*
X378174Y607829D01*
X377757Y608031D01*
X377336Y608222D01*
X376910Y608403D01*
X376480Y608574D01*
X376046Y608734D01*
X375608Y608884D01*
X375167Y609024D01*
X374723Y609152D01*
X374276Y609271D01*
X373826Y609378D01*
X373373Y609475D01*
X372919Y609560D01*
X372462Y609635D01*
X372004Y609699D01*
X371544Y609752D01*
X371083Y609794D01*
X370622Y609824D01*
X370159Y609844D01*
X369697Y609853D01*
X369444Y612012D02*
X369444Y609726D01*
X369443Y609727D02*
X368978Y609718D01*
X368513Y609698D01*
X368049Y609667D01*
X367586Y609624D01*
X367124Y609570D01*
X366663Y609505D01*
X366204Y609429D01*
X365747Y609342D01*
X365292Y609244D01*
X364840Y609134D01*
X364390Y609014D01*
X363944Y608883D01*
X363501Y608741D01*
X363061Y608588D01*
X362626Y608425D01*
X362194Y608251D01*
X361767Y608067D01*
X361344Y607873D01*
X360926Y607668D01*
X360513Y607453D01*
X360106Y607228D01*
X359704Y606994D01*
X359308Y606750D01*
X358918Y606496D01*
X358534Y606233D01*
X358157Y605960D01*
X357787Y605679D01*
X357423Y605389D01*
X357067Y605090D01*
X356718Y604782D01*
X356376Y604466D01*
X356042Y604142D01*
X355717Y603809D01*
X355399Y603469D01*
X355090Y603122D01*
X354789Y602767D01*
X354497Y602405D01*
X354214Y602035D01*
X353940Y601659D01*
X353675Y601277D01*
X353419Y600888D01*
X353173Y600493D01*
X352937Y600092D01*
X352710Y599686D01*
X350693Y600761D01*
X350693Y600762D01*
X350947Y601217D01*
X351211Y601667D01*
X351487Y602109D01*
X351773Y602545D01*
X352070Y602974D01*
X352376Y603396D01*
X352694Y603810D01*
X353021Y604216D01*
X353358Y604614D01*
X353704Y605003D01*
X354060Y605385D01*
X354425Y605757D01*
X354799Y606120D01*
X355181Y606475D01*
X355572Y606820D01*
X355972Y607155D01*
X356379Y607480D01*
X356794Y607796D01*
X357217Y608101D01*
X357647Y608396D01*
X358084Y608680D01*
X358528Y608954D01*
X358978Y609217D01*
X359435Y609469D01*
X359897Y609709D01*
X360366Y609939D01*
X360839Y610157D01*
X361318Y610363D01*
X361802Y610558D01*
X362290Y610740D01*
X362783Y610911D01*
X363280Y611070D01*
X363780Y611217D01*
X364284Y611352D01*
X364791Y611474D01*
X365300Y611584D01*
X365813Y611681D01*
X366327Y611766D01*
X366844Y611839D01*
X367361Y611899D01*
X367881Y611946D01*
X368401Y611981D01*
X368922Y612003D01*
X369443Y612013D01*
X369443Y611773D01*
X368928Y611763D01*
X368413Y611741D01*
X367898Y611707D01*
X367385Y611660D01*
X366873Y611601D01*
X366362Y611529D01*
X365854Y611445D01*
X365347Y611348D01*
X364843Y611240D01*
X364342Y611119D01*
X363844Y610986D01*
X363349Y610841D01*
X362858Y610683D01*
X362371Y610514D01*
X361889Y610334D01*
X361410Y610141D01*
X360937Y609937D01*
X360468Y609722D01*
X360005Y609495D01*
X359548Y609257D01*
X359097Y609008D01*
X358651Y608748D01*
X358213Y608478D01*
X357780Y608197D01*
X357355Y607905D01*
X356937Y607603D01*
X356527Y607291D01*
X356124Y606969D01*
X355729Y606638D01*
X355343Y606297D01*
X354964Y605947D01*
X354595Y605587D01*
X354234Y605219D01*
X353882Y604842D01*
X353539Y604457D01*
X353206Y604063D01*
X352883Y603662D01*
X352569Y603253D01*
X352266Y602836D01*
X351973Y602412D01*
X351690Y601981D01*
X351417Y601543D01*
X351156Y601099D01*
X350905Y600649D01*
X351116Y600536D01*
X351364Y600981D01*
X351623Y601420D01*
X351892Y601853D01*
X352172Y602279D01*
X352462Y602698D01*
X352762Y603110D01*
X353072Y603514D01*
X353392Y603911D01*
X353721Y604300D01*
X354060Y604681D01*
X354408Y605054D01*
X354764Y605418D01*
X355130Y605773D01*
X355504Y606119D01*
X355886Y606456D01*
X356276Y606784D01*
X356675Y607102D01*
X357080Y607410D01*
X357494Y607709D01*
X357914Y607997D01*
X358341Y608275D01*
X358775Y608543D01*
X359215Y608799D01*
X359661Y609046D01*
X360113Y609281D01*
X360571Y609505D01*
X361034Y609718D01*
X361502Y609920D01*
X361975Y610110D01*
X362452Y610289D01*
X362934Y610456D01*
X363419Y610611D01*
X363908Y610754D01*
X364401Y610886D01*
X364896Y611006D01*
X365394Y611113D01*
X365895Y611208D01*
X366398Y611292D01*
X366902Y611363D01*
X367409Y611421D01*
X367916Y611468D01*
X368425Y611502D01*
X368934Y611523D01*
X369443Y611533D01*
X369443Y611293D01*
X368940Y611283D01*
X368436Y611262D01*
X367934Y611228D01*
X367432Y611182D01*
X366932Y611124D01*
X366433Y611054D01*
X365936Y610972D01*
X365441Y610878D01*
X364949Y610771D01*
X364459Y610653D01*
X363972Y610523D01*
X363489Y610381D01*
X363009Y610228D01*
X362533Y610063D01*
X362061Y609886D01*
X361594Y609698D01*
X361132Y609499D01*
X360674Y609288D01*
X360221Y609066D01*
X359775Y608834D01*
X359333Y608591D01*
X358898Y608337D01*
X358470Y608072D01*
X358047Y607798D01*
X357632Y607513D01*
X357224Y607218D01*
X356822Y606913D01*
X356429Y606599D01*
X356043Y606275D01*
X355665Y605942D01*
X355295Y605599D01*
X354934Y605248D01*
X354582Y604888D01*
X354238Y604520D01*
X353903Y604144D01*
X353578Y603759D01*
X353262Y603367D01*
X352955Y602967D01*
X352659Y602560D01*
X352372Y602146D01*
X352095Y601725D01*
X351829Y601297D01*
X351573Y600863D01*
X351328Y600423D01*
X351540Y600310D01*
X351782Y600745D01*
X352035Y601174D01*
X352298Y601596D01*
X352572Y602013D01*
X352855Y602422D01*
X353148Y602824D01*
X353451Y603219D01*
X353763Y603607D01*
X354085Y603987D01*
X354416Y604359D01*
X354756Y604723D01*
X355104Y605079D01*
X355461Y605426D01*
X355826Y605764D01*
X356200Y606093D01*
X356581Y606413D01*
X356970Y606724D01*
X357367Y607025D01*
X357770Y607316D01*
X358181Y607598D01*
X358598Y607870D01*
X359022Y608131D01*
X359452Y608382D01*
X359888Y608622D01*
X360329Y608852D01*
X360777Y609071D01*
X361229Y609279D01*
X361686Y609476D01*
X362148Y609662D01*
X362614Y609837D01*
X363084Y610000D01*
X363559Y610152D01*
X364036Y610292D01*
X364517Y610420D01*
X365001Y610537D01*
X365488Y610642D01*
X365977Y610736D01*
X366468Y610817D01*
X366961Y610886D01*
X367456Y610944D01*
X367951Y610989D01*
X368448Y611022D01*
X368946Y611043D01*
X369443Y611053D01*
X369443Y610813D01*
X368952Y610804D01*
X368460Y610783D01*
X367969Y610750D01*
X367479Y610705D01*
X366991Y610648D01*
X366503Y610579D01*
X366018Y610499D01*
X365535Y610407D01*
X365054Y610303D01*
X364576Y610188D01*
X364100Y610061D01*
X363628Y609922D01*
X363160Y609772D01*
X362695Y609611D01*
X362234Y609438D01*
X361778Y609254D01*
X361326Y609060D01*
X360879Y608854D01*
X360437Y608638D01*
X360001Y608411D01*
X359570Y608173D01*
X359145Y607925D01*
X358727Y607667D01*
X358314Y607399D01*
X357909Y607120D01*
X357510Y606832D01*
X357118Y606535D01*
X356734Y606228D01*
X356357Y605911D01*
X355988Y605586D01*
X355627Y605252D01*
X355274Y604909D01*
X354929Y604558D01*
X354594Y604198D01*
X354267Y603830D01*
X353949Y603455D01*
X353640Y603072D01*
X353341Y602682D01*
X353051Y602284D01*
X352771Y601879D01*
X352501Y601468D01*
X352241Y601051D01*
X351991Y600627D01*
X351752Y600197D01*
X351964Y600084D01*
X352200Y600509D01*
X352447Y600927D01*
X352704Y601340D01*
X352971Y601746D01*
X353248Y602146D01*
X353534Y602539D01*
X353830Y602924D01*
X354135Y603303D01*
X354449Y603674D01*
X354772Y604037D01*
X355103Y604392D01*
X355444Y604739D01*
X355792Y605078D01*
X356149Y605408D01*
X356514Y605730D01*
X356886Y606042D01*
X357266Y606346D01*
X357653Y606640D01*
X358047Y606924D01*
X358448Y607199D01*
X358855Y607464D01*
X359269Y607719D01*
X359689Y607964D01*
X360114Y608199D01*
X360545Y608423D01*
X360982Y608637D01*
X361424Y608840D01*
X361870Y609033D01*
X362321Y609214D01*
X362776Y609385D01*
X363235Y609544D01*
X363698Y609692D01*
X364164Y609829D01*
X364634Y609955D01*
X365107Y610069D01*
X365582Y610172D01*
X366059Y610263D01*
X366539Y610342D01*
X367020Y610410D01*
X367503Y610466D01*
X367987Y610510D01*
X368472Y610543D01*
X368957Y610564D01*
X369443Y610573D01*
X369443Y610333D01*
X368963Y610324D01*
X368484Y610303D01*
X368005Y610271D01*
X367526Y610227D01*
X367049Y610172D01*
X366574Y610105D01*
X366100Y610026D01*
X365629Y609936D01*
X365159Y609835D01*
X364692Y609722D01*
X364229Y609598D01*
X363768Y609463D01*
X363311Y609316D01*
X362857Y609159D01*
X362407Y608990D01*
X361962Y608811D01*
X361521Y608621D01*
X361085Y608420D01*
X360653Y608209D01*
X360227Y607987D01*
X359807Y607756D01*
X359392Y607514D01*
X358984Y607261D01*
X358581Y607000D01*
X358185Y606728D01*
X357796Y606447D01*
X357413Y606156D01*
X357038Y605857D01*
X356670Y605548D01*
X356310Y605231D01*
X355958Y604904D01*
X355614Y604570D01*
X355277Y604227D01*
X354950Y603876D01*
X354631Y603517D01*
X354320Y603151D01*
X354019Y602777D01*
X353727Y602396D01*
X353444Y602008D01*
X353171Y601613D01*
X352907Y601212D01*
X352653Y600804D01*
X352409Y600391D01*
X352175Y599971D01*
X352387Y599858D01*
X352618Y600272D01*
X352859Y600681D01*
X353110Y601084D01*
X353370Y601480D01*
X353640Y601870D01*
X353920Y602253D01*
X354208Y602629D01*
X354506Y602999D01*
X354812Y603361D01*
X355128Y603715D01*
X355451Y604062D01*
X355783Y604400D01*
X356124Y604731D01*
X356472Y605053D01*
X356827Y605367D01*
X357191Y605671D01*
X357561Y605967D01*
X357939Y606254D01*
X358323Y606532D01*
X358715Y606800D01*
X359112Y607059D01*
X359516Y607308D01*
X359925Y607547D01*
X360341Y607776D01*
X360761Y607995D01*
X361187Y608203D01*
X361618Y608402D01*
X362054Y608589D01*
X362494Y608767D01*
X362938Y608933D01*
X363386Y609088D01*
X363838Y609233D01*
X364293Y609367D01*
X364751Y609489D01*
X365212Y609601D01*
X365675Y609701D01*
X366141Y609790D01*
X366609Y609867D01*
X367079Y609933D01*
X367550Y609988D01*
X368022Y610032D01*
X368495Y610063D01*
X368969Y610084D01*
X369443Y610093D01*
X369443Y609853D01*
X368975Y609844D01*
X368507Y609824D01*
X368040Y609792D01*
X367573Y609749D01*
X367108Y609695D01*
X366644Y609630D01*
X366182Y609553D01*
X365722Y609465D01*
X365264Y609366D01*
X364809Y609256D01*
X364357Y609135D01*
X363907Y609003D01*
X363461Y608861D01*
X363019Y608707D01*
X362580Y608543D01*
X362146Y608368D01*
X361716Y608182D01*
X361290Y607987D01*
X360869Y607780D01*
X360454Y607564D01*
X360044Y607338D01*
X359639Y607102D01*
X359241Y606856D01*
X358848Y606601D01*
X358462Y606336D01*
X358082Y606062D01*
X357709Y605778D01*
X357343Y605486D01*
X356984Y605185D01*
X356633Y604875D01*
X356289Y604557D01*
X355953Y604231D01*
X355625Y603896D01*
X355306Y603554D01*
X354994Y603204D01*
X354691Y602847D01*
X354398Y602482D01*
X354112Y602110D01*
X353837Y601732D01*
X353570Y601347D01*
X353313Y600955D01*
X353065Y600558D01*
X352827Y600154D01*
X352599Y599745D01*
X369696Y569088D02*
X369696Y571374D01*
X369697Y571373D02*
X370165Y571382D01*
X370633Y571403D01*
X371101Y571434D01*
X371568Y571477D01*
X372033Y571532D01*
X372497Y571598D01*
X372959Y571675D01*
X373419Y571763D01*
X373877Y571863D01*
X374333Y571974D01*
X374785Y572096D01*
X375234Y572229D01*
X375680Y572373D01*
X376123Y572527D01*
X376561Y572693D01*
X376995Y572869D01*
X377425Y573056D01*
X377850Y573253D01*
X378270Y573460D01*
X378685Y573678D01*
X379095Y573906D01*
X379499Y574143D01*
X379897Y574391D01*
X380288Y574648D01*
X380674Y574915D01*
X381053Y575191D01*
X381424Y575476D01*
X381789Y575770D01*
X382147Y576073D01*
X382497Y576385D01*
X382839Y576705D01*
X383173Y577033D01*
X383499Y577369D01*
X383817Y577714D01*
X384127Y578066D01*
X385871Y576589D01*
X385872Y576589D01*
X385525Y576194D01*
X385169Y575808D01*
X384804Y575431D01*
X384429Y575062D01*
X384046Y574703D01*
X383653Y574354D01*
X383253Y574014D01*
X382844Y573684D01*
X382427Y573364D01*
X382003Y573055D01*
X381571Y572756D01*
X381132Y572467D01*
X380686Y572190D01*
X380233Y571923D01*
X379774Y571668D01*
X379309Y571424D01*
X378838Y571191D01*
X378361Y570970D01*
X377879Y570761D01*
X377392Y570563D01*
X376901Y570378D01*
X376405Y570204D01*
X375905Y570043D01*
X375401Y569894D01*
X374894Y569758D01*
X374383Y569634D01*
X373870Y569522D01*
X373354Y569423D01*
X372836Y569337D01*
X372316Y569263D01*
X371794Y569203D01*
X371271Y569155D01*
X370747Y569119D01*
X370222Y569097D01*
X369697Y569087D01*
X369697Y569327D01*
X370216Y569337D01*
X370735Y569359D01*
X371253Y569394D01*
X371770Y569441D01*
X372286Y569502D01*
X372800Y569574D01*
X373313Y569660D01*
X373823Y569757D01*
X374330Y569868D01*
X374835Y569990D01*
X375337Y570125D01*
X375835Y570273D01*
X376329Y570432D01*
X376819Y570603D01*
X377305Y570787D01*
X377786Y570982D01*
X378263Y571189D01*
X378734Y571407D01*
X379200Y571637D01*
X379660Y571879D01*
X380113Y572131D01*
X380561Y572395D01*
X381002Y572669D01*
X381436Y572954D01*
X381863Y573250D01*
X382283Y573556D01*
X382695Y573872D01*
X383099Y574198D01*
X383495Y574534D01*
X383883Y574880D01*
X384262Y575235D01*
X384632Y575599D01*
X384994Y575972D01*
X385346Y576354D01*
X385689Y576744D01*
X385505Y576899D01*
X385167Y576513D01*
X384819Y576136D01*
X384461Y575767D01*
X384095Y575407D01*
X383720Y575056D01*
X383337Y574715D01*
X382945Y574383D01*
X382546Y574060D01*
X382139Y573748D01*
X381724Y573445D01*
X381302Y573153D01*
X380872Y572871D01*
X380436Y572600D01*
X379994Y572339D01*
X379545Y572090D01*
X379091Y571851D01*
X378630Y571624D01*
X378165Y571408D01*
X377694Y571203D01*
X377218Y571010D01*
X376737Y570829D01*
X376253Y570660D01*
X375764Y570502D01*
X375272Y570357D01*
X374776Y570223D01*
X374277Y570102D01*
X373775Y569993D01*
X373271Y569896D01*
X372765Y569812D01*
X372256Y569740D01*
X371746Y569680D01*
X371235Y569633D01*
X370723Y569599D01*
X370210Y569577D01*
X369697Y569567D01*
X369697Y569807D01*
X370204Y569817D01*
X370711Y569838D01*
X371217Y569873D01*
X371723Y569919D01*
X372227Y569978D01*
X372729Y570049D01*
X373230Y570132D01*
X373728Y570228D01*
X374224Y570336D01*
X374717Y570456D01*
X375207Y570588D01*
X375694Y570732D01*
X376177Y570887D01*
X376656Y571055D01*
X377131Y571234D01*
X377601Y571425D01*
X378066Y571627D01*
X378527Y571840D01*
X378982Y572065D01*
X379431Y572301D01*
X379875Y572548D01*
X380312Y572805D01*
X380743Y573073D01*
X381167Y573352D01*
X381584Y573640D01*
X381994Y573939D01*
X382397Y574248D01*
X382792Y574567D01*
X383179Y574895D01*
X383558Y575233D01*
X383928Y575580D01*
X384290Y575935D01*
X384643Y576300D01*
X384987Y576673D01*
X385322Y577054D01*
X385139Y577209D01*
X384808Y576832D01*
X384468Y576464D01*
X384119Y576104D01*
X383761Y575752D01*
X383395Y575409D01*
X383021Y575076D01*
X382638Y574751D01*
X382248Y574436D01*
X381850Y574131D01*
X381445Y573836D01*
X381032Y573550D01*
X380613Y573275D01*
X380187Y573010D01*
X379755Y572756D01*
X379317Y572512D01*
X378873Y572279D01*
X378423Y572057D01*
X377968Y571846D01*
X377508Y571646D01*
X377043Y571458D01*
X376574Y571280D01*
X376101Y571115D01*
X375623Y570961D01*
X375142Y570819D01*
X374658Y570688D01*
X374171Y570570D01*
X373681Y570463D01*
X373188Y570369D01*
X372694Y570286D01*
X372197Y570216D01*
X371699Y570158D01*
X371199Y570112D01*
X370699Y570078D01*
X370198Y570057D01*
X369697Y570047D01*
X369697Y570287D01*
X370192Y570297D01*
X370687Y570318D01*
X371182Y570351D01*
X371675Y570397D01*
X372167Y570454D01*
X372658Y570524D01*
X373147Y570605D01*
X373633Y570699D01*
X374118Y570804D01*
X374599Y570921D01*
X375078Y571050D01*
X375553Y571190D01*
X376025Y571343D01*
X376492Y571506D01*
X376956Y571681D01*
X377415Y571867D01*
X377870Y572065D01*
X378319Y572273D01*
X378764Y572493D01*
X379202Y572723D01*
X379636Y572964D01*
X380063Y573215D01*
X380483Y573477D01*
X380898Y573749D01*
X381305Y574031D01*
X381706Y574323D01*
X382099Y574625D01*
X382484Y574936D01*
X382862Y575256D01*
X383232Y575586D01*
X383594Y575924D01*
X383948Y576272D01*
X384293Y576628D01*
X384629Y576992D01*
X384956Y577364D01*
X384773Y577519D01*
X384449Y577151D01*
X384117Y576792D01*
X383777Y576440D01*
X383427Y576097D01*
X383070Y575762D01*
X382704Y575437D01*
X382331Y575120D01*
X381950Y574813D01*
X381561Y574515D01*
X381166Y574226D01*
X380763Y573948D01*
X380354Y573679D01*
X379938Y573420D01*
X379516Y573172D01*
X379088Y572934D01*
X378655Y572707D01*
X378216Y572490D01*
X377771Y572284D01*
X377322Y572089D01*
X376869Y571905D01*
X376411Y571732D01*
X375949Y571570D01*
X375483Y571420D01*
X375013Y571281D01*
X374540Y571154D01*
X374065Y571038D01*
X373586Y570934D01*
X373105Y570842D01*
X372622Y570761D01*
X372138Y570692D01*
X371651Y570635D01*
X371164Y570591D01*
X370675Y570558D01*
X370186Y570536D01*
X369697Y570527D01*
X369697Y570767D01*
X370180Y570776D01*
X370663Y570797D01*
X371146Y570830D01*
X371628Y570874D01*
X372108Y570930D01*
X372587Y570998D01*
X373064Y571078D01*
X373539Y571169D01*
X374011Y571272D01*
X374481Y571386D01*
X374948Y571512D01*
X375412Y571649D01*
X375872Y571798D01*
X376329Y571957D01*
X376781Y572128D01*
X377230Y572310D01*
X377673Y572503D01*
X378112Y572706D01*
X378546Y572920D01*
X378974Y573145D01*
X379397Y573380D01*
X379813Y573625D01*
X380224Y573881D01*
X380628Y574146D01*
X381026Y574422D01*
X381417Y574706D01*
X381801Y575001D01*
X382177Y575304D01*
X382546Y575617D01*
X382907Y575939D01*
X383260Y576269D01*
X383605Y576608D01*
X383942Y576955D01*
X384270Y577311D01*
X384589Y577674D01*
X384406Y577829D01*
X384091Y577470D01*
X383767Y577119D01*
X383434Y576776D01*
X383093Y576442D01*
X382745Y576115D01*
X382388Y575798D01*
X382023Y575489D01*
X381652Y575189D01*
X381273Y574898D01*
X380887Y574617D01*
X380494Y574345D01*
X380094Y574083D01*
X379689Y573831D01*
X379277Y573588D01*
X378860Y573356D01*
X378437Y573134D01*
X378008Y572923D01*
X377575Y572722D01*
X377137Y572531D01*
X376694Y572352D01*
X376247Y572183D01*
X375796Y572025D01*
X375342Y571879D01*
X374884Y571743D01*
X374422Y571619D01*
X373958Y571506D01*
X373491Y571404D01*
X373022Y571314D01*
X372551Y571236D01*
X372078Y571169D01*
X371604Y571113D01*
X371128Y571069D01*
X370651Y571037D01*
X370174Y571016D01*
X369697Y571007D01*
X369697Y571247D01*
X370168Y571256D01*
X370640Y571277D01*
X371110Y571309D01*
X371580Y571352D01*
X372049Y571407D01*
X372516Y571473D01*
X372981Y571551D01*
X373444Y571640D01*
X373905Y571740D01*
X374363Y571852D01*
X374819Y571974D01*
X375271Y572108D01*
X375720Y572253D01*
X376166Y572409D01*
X376607Y572575D01*
X377044Y572753D01*
X377477Y572941D01*
X377905Y573139D01*
X378328Y573348D01*
X378745Y573567D01*
X379158Y573796D01*
X379564Y574036D01*
X379965Y574285D01*
X380359Y574544D01*
X380747Y574812D01*
X381128Y575090D01*
X381503Y575377D01*
X381870Y575673D01*
X382230Y575978D01*
X382582Y576292D01*
X382927Y576614D01*
X383263Y576945D01*
X383591Y577283D01*
X383911Y577630D01*
X384223Y577984D01*
X350998Y579791D02*
X352983Y580926D01*
X352982Y580925D02*
X353220Y580527D01*
X353466Y580135D01*
X353723Y579750D01*
X353988Y579370D01*
X354262Y578997D01*
X354546Y578631D01*
X354838Y578272D01*
X355139Y577920D01*
X355448Y577575D01*
X355765Y577238D01*
X356091Y576908D01*
X356424Y576587D01*
X356765Y576273D01*
X357114Y575968D01*
X357469Y575672D01*
X357832Y575384D01*
X358202Y575105D01*
X358578Y574835D01*
X358961Y574574D01*
X359350Y574323D01*
X359744Y574081D01*
X360145Y573848D01*
X360551Y573626D01*
X360962Y573413D01*
X361379Y573210D01*
X361800Y573017D01*
X362225Y572835D01*
X362655Y572663D01*
X363089Y572501D01*
X363527Y572350D01*
X363968Y572209D01*
X364413Y572079D01*
X364860Y571960D01*
X365310Y571852D01*
X365763Y571754D01*
X366218Y571668D01*
X366675Y571593D01*
X367134Y571528D01*
X367594Y571475D01*
X368055Y571433D01*
X368517Y571402D01*
X368980Y571382D01*
X369443Y571373D01*
X369443Y569088D01*
X369443Y569087D01*
X368924Y569097D01*
X368405Y569119D01*
X367887Y569153D01*
X367370Y569200D01*
X366855Y569259D01*
X366341Y569331D01*
X365829Y569415D01*
X365319Y569512D01*
X364811Y569621D01*
X364307Y569742D01*
X363805Y569875D01*
X363307Y570021D01*
X362812Y570178D01*
X362322Y570348D01*
X361835Y570529D01*
X361353Y570722D01*
X360876Y570926D01*
X360405Y571142D01*
X359938Y571369D01*
X359477Y571608D01*
X359022Y571857D01*
X358573Y572118D01*
X358131Y572389D01*
X357695Y572671D01*
X357266Y572963D01*
X356844Y573266D01*
X356430Y573579D01*
X356024Y573901D01*
X355625Y574234D01*
X355234Y574576D01*
X354852Y574927D01*
X354479Y575287D01*
X354114Y575657D01*
X353759Y576035D01*
X353412Y576421D01*
X353075Y576816D01*
X352748Y577219D01*
X352431Y577629D01*
X352123Y578048D01*
X351826Y578473D01*
X351539Y578906D01*
X351263Y579345D01*
X350998Y579791D01*
X351206Y579910D01*
X351468Y579469D01*
X351742Y579035D01*
X352025Y578607D01*
X352319Y578186D01*
X352623Y577773D01*
X352937Y577367D01*
X353261Y576969D01*
X353594Y576578D01*
X353936Y576196D01*
X354288Y575823D01*
X354648Y575457D01*
X355017Y575101D01*
X355395Y574754D01*
X355781Y574416D01*
X356175Y574087D01*
X356577Y573768D01*
X356987Y573459D01*
X357404Y573160D01*
X357828Y572871D01*
X358259Y572592D01*
X358696Y572324D01*
X359140Y572066D01*
X359590Y571820D01*
X360045Y571584D01*
X360507Y571359D01*
X360973Y571146D01*
X361445Y570943D01*
X361921Y570753D01*
X362402Y570574D01*
X362887Y570406D01*
X363376Y570251D01*
X363869Y570107D01*
X364365Y569975D01*
X364864Y569855D01*
X365365Y569747D01*
X365870Y569652D01*
X366376Y569569D01*
X366884Y569498D01*
X367394Y569439D01*
X367905Y569392D01*
X368417Y569358D01*
X368930Y569337D01*
X369443Y569327D01*
X369443Y569567D01*
X368935Y569577D01*
X368429Y569598D01*
X367922Y569632D01*
X367417Y569678D01*
X366913Y569736D01*
X366411Y569806D01*
X365910Y569888D01*
X365412Y569983D01*
X364916Y570089D01*
X364423Y570208D01*
X363933Y570338D01*
X363446Y570480D01*
X362962Y570634D01*
X362483Y570800D01*
X362007Y570977D01*
X361537Y571165D01*
X361070Y571365D01*
X360609Y571576D01*
X360153Y571798D01*
X359702Y572031D01*
X359258Y572275D01*
X358819Y572530D01*
X358386Y572795D01*
X357961Y573071D01*
X357541Y573356D01*
X357129Y573652D01*
X356724Y573958D01*
X356327Y574273D01*
X355938Y574598D01*
X355556Y574932D01*
X355182Y575275D01*
X354817Y575628D01*
X354461Y575989D01*
X354113Y576358D01*
X353775Y576736D01*
X353446Y577122D01*
X353126Y577515D01*
X352815Y577917D01*
X352515Y578325D01*
X352224Y578741D01*
X351944Y579164D01*
X351674Y579593D01*
X351414Y580029D01*
X351623Y580148D01*
X351879Y579717D01*
X352146Y579293D01*
X352423Y578875D01*
X352711Y578464D01*
X353008Y578060D01*
X353314Y577664D01*
X353631Y577274D01*
X353956Y576893D01*
X354291Y576520D01*
X354634Y576155D01*
X354987Y575798D01*
X355347Y575450D01*
X355717Y575110D01*
X356094Y574780D01*
X356479Y574459D01*
X356872Y574147D01*
X357272Y573845D01*
X357679Y573553D01*
X358093Y573270D01*
X358514Y572998D01*
X358942Y572736D01*
X359376Y572484D01*
X359815Y572243D01*
X360261Y572013D01*
X360711Y571793D01*
X361167Y571585D01*
X361628Y571387D01*
X362094Y571201D01*
X362563Y571026D01*
X363037Y570862D01*
X363515Y570710D01*
X363996Y570570D01*
X364481Y570441D01*
X364969Y570324D01*
X365459Y570218D01*
X365951Y570125D01*
X366446Y570043D01*
X366943Y569974D01*
X367441Y569916D01*
X367940Y569871D01*
X368440Y569838D01*
X368941Y569817D01*
X369443Y569807D01*
X369443Y570047D01*
X368947Y570056D01*
X368452Y570077D01*
X367958Y570110D01*
X367464Y570155D01*
X366972Y570212D01*
X366481Y570281D01*
X365992Y570361D01*
X365505Y570454D01*
X365021Y570558D01*
X364539Y570674D01*
X364060Y570801D01*
X363585Y570940D01*
X363112Y571090D01*
X362644Y571252D01*
X362180Y571425D01*
X361720Y571609D01*
X361264Y571804D01*
X360814Y572010D01*
X360368Y572227D01*
X359928Y572455D01*
X359494Y572693D01*
X359065Y572942D01*
X358642Y573201D01*
X358226Y573470D01*
X357817Y573749D01*
X357414Y574038D01*
X357019Y574337D01*
X356631Y574645D01*
X356250Y574962D01*
X355877Y575289D01*
X355513Y575624D01*
X355156Y575968D01*
X354808Y576321D01*
X354468Y576681D01*
X354137Y577050D01*
X353816Y577427D01*
X353503Y577812D01*
X353200Y578204D01*
X352906Y578603D01*
X352623Y579009D01*
X352349Y579422D01*
X352085Y579841D01*
X351831Y580267D01*
X352039Y580386D01*
X352290Y579966D01*
X352551Y579551D01*
X352822Y579143D01*
X353102Y578742D01*
X353392Y578347D01*
X353692Y577960D01*
X354001Y577580D01*
X354319Y577208D01*
X354645Y576843D01*
X354981Y576487D01*
X355325Y576138D01*
X355678Y575798D01*
X356038Y575467D01*
X356406Y575144D01*
X356783Y574831D01*
X357166Y574526D01*
X357557Y574231D01*
X357955Y573946D01*
X358359Y573670D01*
X358770Y573404D01*
X359188Y573148D01*
X359611Y572902D01*
X360041Y572667D01*
X360476Y572442D01*
X360916Y572228D01*
X361361Y572024D01*
X361811Y571831D01*
X362266Y571649D01*
X362725Y571478D01*
X363187Y571318D01*
X363654Y571170D01*
X364124Y571032D01*
X364597Y570906D01*
X365073Y570792D01*
X365552Y570689D01*
X366033Y570598D01*
X366516Y570518D01*
X367001Y570450D01*
X367488Y570394D01*
X367975Y570350D01*
X368464Y570317D01*
X368953Y570296D01*
X369443Y570287D01*
X369443Y570527D01*
X368959Y570536D01*
X368476Y570557D01*
X367993Y570589D01*
X367511Y570633D01*
X367030Y570689D01*
X366551Y570756D01*
X366074Y570834D01*
X365599Y570925D01*
X365126Y571026D01*
X364655Y571139D01*
X364188Y571264D01*
X363723Y571399D01*
X363262Y571546D01*
X362805Y571704D01*
X362352Y571873D01*
X361903Y572053D01*
X361458Y572243D01*
X361018Y572445D01*
X360583Y572657D01*
X360154Y572879D01*
X359729Y573111D01*
X359311Y573354D01*
X358898Y573607D01*
X358492Y573870D01*
X358092Y574142D01*
X357699Y574424D01*
X357313Y574716D01*
X356934Y575017D01*
X356563Y575326D01*
X356199Y575645D01*
X355843Y575972D01*
X355494Y576308D01*
X355154Y576653D01*
X354823Y577005D01*
X354500Y577365D01*
X354186Y577733D01*
X353881Y578108D01*
X353585Y578491D01*
X353298Y578881D01*
X353021Y579277D01*
X352753Y579680D01*
X352496Y580090D01*
X352248Y580505D01*
X352456Y580624D01*
X352701Y580214D01*
X352956Y579809D01*
X353220Y579411D01*
X353494Y579020D01*
X353777Y578635D01*
X354069Y578257D01*
X354371Y577886D01*
X354681Y577522D01*
X355000Y577167D01*
X355328Y576819D01*
X355664Y576479D01*
X356008Y576147D01*
X356359Y575823D01*
X356719Y575509D01*
X357086Y575203D01*
X357461Y574905D01*
X357842Y574618D01*
X358230Y574339D01*
X358625Y574070D01*
X359026Y573810D01*
X359434Y573560D01*
X359847Y573321D01*
X360266Y573091D01*
X360691Y572871D01*
X361120Y572662D01*
X361555Y572463D01*
X361994Y572275D01*
X362438Y572097D01*
X362886Y571930D01*
X363337Y571774D01*
X363793Y571629D01*
X364252Y571495D01*
X364713Y571372D01*
X365178Y571260D01*
X365645Y571160D01*
X366115Y571071D01*
X366586Y570993D01*
X367060Y570927D01*
X367534Y570872D01*
X368010Y570828D01*
X368487Y570797D01*
X368965Y570776D01*
X369443Y570767D01*
X369443Y571007D01*
X368971Y571016D01*
X368499Y571036D01*
X368028Y571068D01*
X367558Y571111D01*
X367089Y571165D01*
X366621Y571231D01*
X366156Y571307D01*
X365692Y571395D01*
X365230Y571495D01*
X364772Y571605D01*
X364315Y571726D01*
X363862Y571859D01*
X363412Y572002D01*
X362966Y572156D01*
X362524Y572321D01*
X362086Y572496D01*
X361652Y572682D01*
X361223Y572879D01*
X360798Y573086D01*
X360379Y573303D01*
X359965Y573530D01*
X359557Y573766D01*
X359154Y574013D01*
X358758Y574270D01*
X358368Y574535D01*
X357984Y574811D01*
X357608Y575095D01*
X357238Y575388D01*
X356875Y575691D01*
X356520Y576002D01*
X356173Y576321D01*
X355833Y576649D01*
X355501Y576985D01*
X355178Y577328D01*
X354862Y577680D01*
X354556Y578039D01*
X354258Y578405D01*
X353969Y578778D01*
X353689Y579158D01*
X353419Y579545D01*
X353158Y579939D01*
X352906Y580338D01*
X352665Y580743D01*
X352873Y580863D01*
X353112Y580462D01*
X353360Y580068D01*
X353618Y579679D01*
X353885Y579297D01*
X354161Y578922D01*
X354447Y578553D01*
X354741Y578191D01*
X355044Y577837D01*
X355355Y577490D01*
X355674Y577151D01*
X356002Y576819D01*
X356338Y576495D01*
X356681Y576180D01*
X357032Y575873D01*
X357390Y575574D01*
X357755Y575285D01*
X358127Y575004D01*
X358506Y574732D01*
X358891Y574469D01*
X359282Y574216D01*
X359680Y573973D01*
X360083Y573739D01*
X360492Y573514D01*
X360906Y573300D01*
X361325Y573096D01*
X361749Y572902D01*
X362177Y572718D01*
X362610Y572545D01*
X363047Y572382D01*
X363487Y572230D01*
X363932Y572089D01*
X364379Y571958D01*
X364830Y571838D01*
X365283Y571729D01*
X365739Y571631D01*
X366197Y571544D01*
X366657Y571468D01*
X367118Y571403D01*
X367581Y571350D01*
X368046Y571307D01*
X368511Y571276D01*
X368976Y571256D01*
X369443Y571247D01*
D13*
X385318Y598424D02*
X385318Y603504D01*
X385318Y582168D02*
X385318Y577596D01*
M02*
