M48
;GenerationSoftware,Autodesk,EAGLE,9.4.2*%
;CreationDate,2019-08-26T19:57:04Z*%
FMAT,2
ICI,OFF
METRIC,TZ,000.000
T7C0.813
T6C1.000
T5C1.016
T4C1.118
T3C2.750
T2C3.000
%
G90
M71
T2
X-35052Y15113
X35052Y15113
X-14224Y71120
X14224Y71120
T3
X-29012Y3500
X28988Y3500
T4
X-29464Y45212
X-39624Y45212
T5
X23099Y41599
X-23099Y41599
X23099Y44139
X23099Y46679
X23099Y49219
X23099Y51759
X23099Y54299
X23099Y56839
X23099Y59379
X-23099Y31439
X-23099Y33979
X-23099Y36519
X-23099Y39059
X37008Y46838
X23099Y39059
X23099Y36519
X23099Y33979
X23099Y31439
X-30734Y53721
X-38354Y53721
X43510Y33553
X37008Y33553
X43510Y38075
X37008Y38075
X37008Y42316
X43510Y46838
X43510Y42316
X3937Y7620
X11557Y17780
X9017Y17780
X6477Y17780
X3937Y17780
X1397Y17780
X-1143Y17780
X-3683Y17780
X-6223Y17780
X14097Y7620
X11557Y7620
X9017Y7620
X6477Y7620
X-23099Y44139
X1397Y7620
X-1143Y7620
X-3683Y7620
X-6223Y7620
X-8763Y7620
X-11303Y7620
X-23099Y59379
X-23099Y56839
X-23099Y54299
X-23099Y51759
X-23099Y49219
X-23099Y46679
T6
X3798Y25230
X-3822Y27770
X-21971Y17145
X-19431Y17145
X-16891Y17145
X-1282Y25230
X-1282Y27770
X1258Y25230
X1258Y27770
X-3822Y25230
X3798Y27770
X6338Y25230
X6338Y27770
X8878Y25230
X8878Y27770
X11418Y25230
X11418Y27770
X-13982Y25230
X-24142Y25230
X-24142Y27770
X-21602Y25230
X-21602Y27770
X-19062Y25230
X-19062Y27770
X-16522Y25230
X-16522Y27770
X-1270Y36830
X-13982Y27770
X-11442Y25230
X-11442Y27770
X-8902Y25230
X-8902Y27770
X-6362Y25230
X-6362Y27770
X-3810Y36830
X-6350Y58420
X-3810Y58420
X-8890Y58420
X3810Y58420
X6350Y58420
X8890Y58420
X-11430Y36830
X-8890Y36830
X-6350Y36830
X11430Y36830
X8890Y36830
X6350Y36830
X3810Y36830
X1270Y36830
X13958Y25230
X1270Y58420
X-1270Y58420
X24118Y27770
X24118Y25230
X21578Y27770
X21578Y25230
X19038Y27770
X19038Y25230
X16498Y27770
X16498Y25230
X13958Y27770
T7
X-30226Y32385
X25781Y19304
X25781Y22479
X-26797Y32258
X-44450Y32258
X33528Y50038
X33528Y42418
X38100Y53340
X40640Y53340
X30988Y58928
X30988Y51308
X35687Y59055
X38227Y59055
X-41910Y37211
X-36830Y32258
X-39370Y37211
X22225Y16510
X22225Y8890
X18542Y8890
X18542Y16510
X-40640Y35306
M30