M48
;GenerationSoftware,Autodesk,EAGLE,9.4.2*%
;CreationDate,2019-08-26T20:04:26Z*%
FMAT,2
ICI,OFF
METRIC,TZ,000.000
T9C0.700
T8C0.800
T7C0.813
T6C1.000
T5C1.016
T4C1.803
T3C2.000
T2C3.000
%
G90
M71
T2
X0Y-28575
T3
X-15240Y38608
X-32983Y8530
X-32983Y-9470
X32983Y-9470
X32983Y8530
X-15240Y30988
X15240Y30988
X15240Y38608
T4
X-42164Y-32131
X42164Y-22733
X42164Y-27432
X42164Y-32131
X-42164Y-22733
X-42164Y-27432
T5
X-23114Y43307
X-23114Y22987
X-23114Y25527
X-23114Y20447
X-23114Y28067
X-23114Y30607
X-23114Y33147
X-23114Y35687
X-23114Y38227
X-23114Y40767
X23114Y25527
X-23114Y17907
X-23114Y15367
X-19431Y-13335
X-19431Y-10795
X-16891Y-13335
X-16891Y-10795
X-14351Y-13335
X-14351Y-10795
X14351Y-13335
X14351Y-10795
X16891Y-13335
X16891Y-10795
X19431Y-13335
X19431Y-10795
X23114Y17907
X-2540Y-14478
X0Y-14478
X2540Y-14478
X23114Y43307
X23114Y40767
X23114Y38227
X23114Y35687
X23114Y30607
X23114Y15367
X23114Y20447
X23114Y22987
X23114Y33147
X23114Y28067
T6
X-6350Y21971
X8890Y21971
X6350Y21971
X3810Y21971
X1270Y21971
X-1270Y21971
X-3810Y21971
X-8890Y8509
X-8890Y21971
X8890Y8509
X6350Y8509
X3810Y8509
X1270Y8509
X-1270Y8509
X-3810Y8509
X-6350Y8509
T7
X38608Y39624
X35560Y22733
X33655Y44577
X5842Y45720
X13462Y45720
X-37211Y15367
X-44831Y15367
X37211Y15367
X44831Y15367
X-31115Y17907
X-31115Y25527
X-24255Y49403
X-17655Y45593
X24255Y49403
X17655Y45593
X31115Y17907
X-34925Y15367
X31115Y25527
X34290Y20828
X36830Y20828
X-1270Y45720
X0Y47625
X1270Y45720
X-36830Y20828
X-35560Y22733
X-34290Y20828
X27305Y15367
X34925Y15367
X-13462Y45720
X-5842Y45720
X-27305Y15367
T8
X-43050Y17945
X-12065Y51773
X-40516Y18123
X40516Y18123
X43050Y17945
X-37970Y25565
X-35436Y25743
X35436Y25743
X37970Y25565
X-4445Y50843
X-3175Y53043
X3175Y53043
X4445Y50843
X-13335Y49573
X12065Y51773
X13335Y49573
T9
X1000Y4000
X-1000Y4000
M30