G04 EAGLE Gerber RS-274X export*
G75*
%MOMM*%
%FSLAX34Y34*%
%LPD*%
%INSolder side*%
%IPPOS*%
%AMOC8*
5,1,8,0,0,1.08239X$1,22.5*%
G01*
%ADD10C,1.308000*%
%ADD11R,1.308000X1.308000*%
%ADD12P,1.429621X8X22.500000*%
%ADD13P,1.429621X8X202.500000*%
%ADD14P,1.429621X8X112.500000*%
%ADD15P,1.429621X8X352.500000*%
%ADD16P,1.429621X8X232.500000*%
%ADD17R,3.000000X3.000000*%
%ADD18C,1.879600*%
%ADD19C,2.705100*%
%ADD20R,1.508000X1.508000*%
%ADD21P,1.632244X8X112.500000*%
%ADD22C,1.524000*%
%ADD23C,1.600000*%
%ADD24C,0.609600*%
%ADD25P,1.319650X8X22.500000*%

G36*
X104855Y-267715D02*
X104855Y-267715D01*
X391852Y-267715D01*
X391967Y-267696D01*
X392083Y-267679D01*
X392089Y-267677D01*
X392095Y-267676D01*
X392197Y-267621D01*
X392302Y-267568D01*
X392307Y-267563D01*
X392312Y-267560D01*
X392392Y-267476D01*
X392474Y-267392D01*
X392478Y-267386D01*
X392481Y-267382D01*
X392489Y-267365D01*
X392555Y-267245D01*
X393633Y-264644D01*
X398438Y-259838D01*
X404717Y-257238D01*
X438563Y-257238D01*
X444842Y-259838D01*
X449296Y-264292D01*
X449354Y-264334D01*
X449406Y-264384D01*
X449453Y-264405D01*
X449495Y-264436D01*
X449564Y-264457D01*
X449629Y-264487D01*
X449681Y-264493D01*
X449731Y-264508D01*
X449802Y-264506D01*
X449873Y-264514D01*
X449924Y-264503D01*
X449976Y-264502D01*
X450044Y-264477D01*
X450114Y-264462D01*
X450159Y-264435D01*
X450207Y-264417D01*
X450263Y-264373D01*
X450325Y-264336D01*
X450359Y-264296D01*
X450399Y-264264D01*
X450438Y-264203D01*
X450485Y-264149D01*
X450504Y-264101D01*
X450532Y-264057D01*
X450550Y-263987D01*
X450577Y-263921D01*
X450585Y-263849D01*
X450593Y-263818D01*
X450591Y-263795D01*
X450595Y-263754D01*
X450595Y-239271D01*
X450581Y-239181D01*
X450573Y-239090D01*
X450561Y-239060D01*
X450556Y-239028D01*
X450531Y-238983D01*
X450531Y-238980D01*
X450523Y-238968D01*
X450513Y-238948D01*
X450477Y-238864D01*
X450451Y-238832D01*
X450440Y-238811D01*
X450417Y-238789D01*
X450415Y-238786D01*
X450405Y-238769D01*
X450394Y-238760D01*
X450372Y-238733D01*
X449685Y-238045D01*
X449669Y-238034D01*
X449656Y-238018D01*
X449569Y-237962D01*
X449485Y-237902D01*
X449466Y-237896D01*
X449449Y-237885D01*
X449349Y-237860D01*
X449250Y-237829D01*
X449230Y-237830D01*
X449211Y-237825D01*
X449108Y-237833D01*
X449004Y-237836D01*
X448985Y-237843D01*
X448965Y-237844D01*
X448871Y-237885D01*
X448773Y-237920D01*
X448757Y-237933D01*
X448739Y-237940D01*
X448608Y-238045D01*
X444842Y-241812D01*
X438563Y-244412D01*
X404717Y-244412D01*
X398438Y-241812D01*
X393633Y-237006D01*
X392555Y-234405D01*
X392494Y-234305D01*
X392434Y-234205D01*
X392429Y-234201D01*
X392426Y-234196D01*
X392336Y-234121D01*
X392247Y-234045D01*
X392241Y-234043D01*
X392236Y-234039D01*
X392128Y-233997D01*
X392019Y-233953D01*
X392011Y-233952D01*
X392007Y-233951D01*
X391988Y-233950D01*
X391852Y-233935D01*
X260306Y-233935D01*
X257879Y-232929D01*
X234431Y-209481D01*
X233425Y-207054D01*
X233425Y-81791D01*
X233411Y-81701D01*
X233403Y-81610D01*
X233391Y-81580D01*
X233386Y-81548D01*
X233343Y-81468D01*
X233307Y-81384D01*
X233281Y-81352D01*
X233270Y-81331D01*
X233247Y-81309D01*
X233202Y-81253D01*
X203951Y-52001D01*
X202945Y-49574D01*
X202945Y391204D01*
X203951Y393631D01*
X217962Y407643D01*
X218015Y407717D01*
X218075Y407786D01*
X218087Y407816D01*
X218106Y407843D01*
X218133Y407930D01*
X218167Y408014D01*
X218171Y408055D01*
X218178Y408078D01*
X218177Y408110D01*
X218185Y408181D01*
X218185Y410247D01*
X220158Y415008D01*
X223802Y418652D01*
X226250Y419667D01*
X226311Y419705D01*
X226377Y419734D01*
X226415Y419769D01*
X226459Y419796D01*
X226505Y419852D01*
X226558Y419900D01*
X226583Y419946D01*
X226616Y419986D01*
X226642Y420053D01*
X226676Y420116D01*
X226686Y420167D01*
X226704Y420215D01*
X226707Y420287D01*
X226720Y420358D01*
X226713Y420409D01*
X226715Y420461D01*
X226695Y420530D01*
X226684Y420601D01*
X226661Y420647D01*
X226646Y420697D01*
X226605Y420756D01*
X226573Y420820D01*
X226536Y420857D01*
X226506Y420899D01*
X226448Y420942D01*
X226397Y420992D01*
X226334Y421027D01*
X226309Y421046D01*
X226286Y421053D01*
X226250Y421073D01*
X223802Y422088D01*
X220158Y425732D01*
X218185Y430493D01*
X218185Y435647D01*
X220158Y440408D01*
X223802Y444052D01*
X224065Y444162D01*
X224165Y444223D01*
X224265Y444283D01*
X224269Y444288D01*
X224274Y444291D01*
X224349Y444381D01*
X224425Y444470D01*
X224427Y444476D01*
X224431Y444481D01*
X224473Y444589D01*
X224517Y444698D01*
X224518Y444706D01*
X224519Y444710D01*
X224520Y444729D01*
X224535Y444865D01*
X224535Y449624D01*
X225028Y450813D01*
X225038Y450857D01*
X225058Y450899D01*
X225066Y450976D01*
X225084Y451052D01*
X225080Y451098D01*
X225085Y451143D01*
X225068Y451220D01*
X225061Y451297D01*
X225042Y451339D01*
X225032Y451384D01*
X224992Y451451D01*
X224961Y451522D01*
X224930Y451556D01*
X224906Y451595D01*
X224847Y451646D01*
X224794Y451703D01*
X224754Y451725D01*
X224719Y451755D01*
X224647Y451784D01*
X224579Y451821D01*
X224534Y451830D01*
X224491Y451847D01*
X224355Y451862D01*
X224337Y451865D01*
X224332Y451864D01*
X224324Y451865D01*
X215141Y451865D01*
X215051Y451851D01*
X214960Y451843D01*
X214930Y451831D01*
X214898Y451826D01*
X214818Y451783D01*
X214734Y451747D01*
X214702Y451721D01*
X214681Y451710D01*
X214659Y451687D01*
X214603Y451642D01*
X196058Y433097D01*
X196005Y433023D01*
X195945Y432954D01*
X195933Y432924D01*
X195914Y432897D01*
X195887Y432811D01*
X195853Y432726D01*
X195849Y432685D01*
X195842Y432662D01*
X195843Y432630D01*
X195835Y432559D01*
X195835Y-88944D01*
X194829Y-91371D01*
X192505Y-93696D01*
X192463Y-93754D01*
X192414Y-93806D01*
X192392Y-93853D01*
X192361Y-93895D01*
X192340Y-93964D01*
X192310Y-94029D01*
X192304Y-94081D01*
X192289Y-94131D01*
X192291Y-94202D01*
X192283Y-94273D01*
X192294Y-94324D01*
X192295Y-94376D01*
X192320Y-94444D01*
X192335Y-94514D01*
X192362Y-94559D01*
X192380Y-94607D01*
X192425Y-94663D01*
X192461Y-94725D01*
X192501Y-94759D01*
X192533Y-94799D01*
X192594Y-94838D01*
X192648Y-94885D01*
X192697Y-94904D01*
X192740Y-94932D01*
X192810Y-94950D01*
X192876Y-94977D01*
X192948Y-94985D01*
X192979Y-94993D01*
X193002Y-94991D01*
X193043Y-94995D01*
X196887Y-94995D01*
X201648Y-96968D01*
X205292Y-100612D01*
X207265Y-105373D01*
X207265Y-110527D01*
X205292Y-115288D01*
X201648Y-118932D01*
X199200Y-119947D01*
X199139Y-119985D01*
X199073Y-120014D01*
X199035Y-120049D01*
X198991Y-120076D01*
X198945Y-120132D01*
X198892Y-120180D01*
X198867Y-120226D01*
X198834Y-120266D01*
X198808Y-120333D01*
X198774Y-120396D01*
X198764Y-120447D01*
X198746Y-120495D01*
X198743Y-120567D01*
X198730Y-120638D01*
X198737Y-120689D01*
X198735Y-120741D01*
X198755Y-120810D01*
X198766Y-120881D01*
X198789Y-120927D01*
X198804Y-120977D01*
X198845Y-121036D01*
X198877Y-121100D01*
X198914Y-121137D01*
X198944Y-121179D01*
X199002Y-121222D01*
X199053Y-121272D01*
X199116Y-121307D01*
X199141Y-121326D01*
X199164Y-121333D01*
X199200Y-121353D01*
X201648Y-122368D01*
X205292Y-126012D01*
X207265Y-130773D01*
X207265Y-135927D01*
X205823Y-139409D01*
X205822Y-139409D01*
X205292Y-140688D01*
X201648Y-144332D01*
X196887Y-146305D01*
X191733Y-146305D01*
X186972Y-144332D01*
X183328Y-140688D01*
X182818Y-139457D01*
X182313Y-138240D01*
X182275Y-138179D01*
X182246Y-138113D01*
X182211Y-138075D01*
X182184Y-138031D01*
X182128Y-137985D01*
X182080Y-137932D01*
X182034Y-137907D01*
X181994Y-137874D01*
X181927Y-137848D01*
X181864Y-137814D01*
X181813Y-137804D01*
X181765Y-137786D01*
X181693Y-137783D01*
X181622Y-137770D01*
X181571Y-137777D01*
X181519Y-137775D01*
X181450Y-137795D01*
X181379Y-137806D01*
X181333Y-137829D01*
X181283Y-137844D01*
X181224Y-137885D01*
X181160Y-137917D01*
X181123Y-137954D01*
X181081Y-137984D01*
X181038Y-138042D01*
X180988Y-138093D01*
X180953Y-138156D01*
X180934Y-138181D01*
X180927Y-138204D01*
X180907Y-138240D01*
X179892Y-140688D01*
X176248Y-144332D01*
X171487Y-146305D01*
X166333Y-146305D01*
X161572Y-144332D01*
X157928Y-140688D01*
X156336Y-136846D01*
X156283Y-136761D01*
X156235Y-136671D01*
X156218Y-136656D01*
X156207Y-136637D01*
X156129Y-136573D01*
X156054Y-136504D01*
X156034Y-136495D01*
X156017Y-136481D01*
X155923Y-136444D01*
X155830Y-136402D01*
X155808Y-136400D01*
X155787Y-136392D01*
X155686Y-136388D01*
X155586Y-136378D01*
X155564Y-136383D01*
X155542Y-136382D01*
X155445Y-136410D01*
X155346Y-136433D01*
X155327Y-136444D01*
X155305Y-136450D01*
X155222Y-136508D01*
X155136Y-136561D01*
X155122Y-136578D01*
X155103Y-136591D01*
X155043Y-136672D01*
X154978Y-136750D01*
X154967Y-136775D01*
X154957Y-136788D01*
X154947Y-136819D01*
X154909Y-136902D01*
X154574Y-137933D01*
X153816Y-139420D01*
X153721Y-139607D01*
X152616Y-141128D01*
X151288Y-142456D01*
X149767Y-143561D01*
X148093Y-144414D01*
X146306Y-144995D01*
X145033Y-145196D01*
X145033Y-134112D01*
X145030Y-134092D01*
X145032Y-134073D01*
X145010Y-133971D01*
X144993Y-133869D01*
X144984Y-133852D01*
X144980Y-133832D01*
X144927Y-133743D01*
X144878Y-133652D01*
X144864Y-133638D01*
X144854Y-133621D01*
X144775Y-133554D01*
X144700Y-133483D01*
X144682Y-133474D01*
X144667Y-133461D01*
X144571Y-133423D01*
X144477Y-133379D01*
X144457Y-133377D01*
X144439Y-133369D01*
X144272Y-133351D01*
X143509Y-133351D01*
X143509Y-132588D01*
X143506Y-132568D01*
X143508Y-132549D01*
X143486Y-132447D01*
X143469Y-132345D01*
X143460Y-132328D01*
X143456Y-132308D01*
X143403Y-132219D01*
X143354Y-132128D01*
X143340Y-132114D01*
X143330Y-132097D01*
X143251Y-132030D01*
X143176Y-131959D01*
X143158Y-131950D01*
X143143Y-131937D01*
X143047Y-131898D01*
X142953Y-131855D01*
X142933Y-131853D01*
X142915Y-131845D01*
X142748Y-131827D01*
X131664Y-131827D01*
X131865Y-130554D01*
X132446Y-128767D01*
X133299Y-127093D01*
X134404Y-125572D01*
X135732Y-124244D01*
X137253Y-123139D01*
X138927Y-122286D01*
X139958Y-121951D01*
X140048Y-121905D01*
X140140Y-121864D01*
X140156Y-121849D01*
X140176Y-121838D01*
X140247Y-121766D01*
X140321Y-121697D01*
X140332Y-121678D01*
X140347Y-121662D01*
X140391Y-121570D01*
X140440Y-121482D01*
X140444Y-121460D01*
X140453Y-121440D01*
X140465Y-121339D01*
X140483Y-121240D01*
X140480Y-121218D01*
X140483Y-121196D01*
X140462Y-121097D01*
X140448Y-120996D01*
X140438Y-120976D01*
X140433Y-120955D01*
X140382Y-120867D01*
X140336Y-120777D01*
X140320Y-120761D01*
X140309Y-120742D01*
X140233Y-120676D01*
X140161Y-120605D01*
X140136Y-120591D01*
X140124Y-120580D01*
X140094Y-120568D01*
X140014Y-120524D01*
X136172Y-118932D01*
X132528Y-115288D01*
X130555Y-110527D01*
X130555Y-105373D01*
X132528Y-100612D01*
X136172Y-96968D01*
X140933Y-94995D01*
X146087Y-94995D01*
X150848Y-96968D01*
X154492Y-100612D01*
X155507Y-103060D01*
X155545Y-103121D01*
X155574Y-103187D01*
X155609Y-103225D01*
X155636Y-103269D01*
X155692Y-103315D01*
X155740Y-103368D01*
X155786Y-103393D01*
X155826Y-103426D01*
X155893Y-103452D01*
X155956Y-103486D01*
X156007Y-103496D01*
X156055Y-103514D01*
X156127Y-103517D01*
X156198Y-103530D01*
X156249Y-103523D01*
X156301Y-103525D01*
X156370Y-103505D01*
X156441Y-103494D01*
X156487Y-103471D01*
X156537Y-103456D01*
X156596Y-103415D01*
X156660Y-103383D01*
X156697Y-103346D01*
X156739Y-103316D01*
X156782Y-103258D01*
X156832Y-103207D01*
X156867Y-103144D01*
X156886Y-103119D01*
X156893Y-103096D01*
X156913Y-103060D01*
X157928Y-100612D01*
X161572Y-96968D01*
X166333Y-94995D01*
X171487Y-94995D01*
X171750Y-95104D01*
X171864Y-95131D01*
X171978Y-95160D01*
X171984Y-95159D01*
X171990Y-95161D01*
X172106Y-95150D01*
X172223Y-95141D01*
X172229Y-95138D01*
X172235Y-95138D01*
X172342Y-95090D01*
X172449Y-95044D01*
X172455Y-95040D01*
X172459Y-95038D01*
X172473Y-95025D01*
X172580Y-94939D01*
X182402Y-85117D01*
X182455Y-85043D01*
X182515Y-84974D01*
X182527Y-84944D01*
X182546Y-84917D01*
X182573Y-84830D01*
X182607Y-84746D01*
X182611Y-84705D01*
X182618Y-84682D01*
X182617Y-84650D01*
X182625Y-84579D01*
X182625Y152397D01*
X182614Y152468D01*
X182612Y152539D01*
X182594Y152588D01*
X182586Y152640D01*
X182552Y152703D01*
X182527Y152770D01*
X182495Y152811D01*
X182470Y152857D01*
X182418Y152906D01*
X182374Y152962D01*
X182330Y152991D01*
X182292Y153026D01*
X182227Y153057D01*
X182167Y153095D01*
X182116Y153108D01*
X182069Y153130D01*
X181998Y153138D01*
X181928Y153155D01*
X181876Y153151D01*
X181825Y153157D01*
X181754Y153142D01*
X181683Y153136D01*
X181635Y153116D01*
X181584Y153105D01*
X181523Y153068D01*
X181457Y153040D01*
X181401Y152995D01*
X181373Y152979D01*
X181358Y152961D01*
X181326Y152935D01*
X175191Y146801D01*
X172764Y145795D01*
X-68577Y145795D01*
X-68648Y145784D01*
X-68719Y145782D01*
X-68768Y145764D01*
X-68820Y145756D01*
X-68883Y145722D01*
X-68950Y145697D01*
X-68991Y145665D01*
X-69037Y145640D01*
X-69086Y145588D01*
X-69142Y145544D01*
X-69171Y145500D01*
X-69206Y145462D01*
X-69237Y145397D01*
X-69275Y145337D01*
X-69288Y145286D01*
X-69310Y145239D01*
X-69318Y145168D01*
X-69335Y145098D01*
X-69331Y145046D01*
X-69337Y144995D01*
X-69322Y144924D01*
X-69316Y144853D01*
X-69296Y144805D01*
X-69285Y144754D01*
X-69248Y144693D01*
X-69220Y144627D01*
X-69175Y144571D01*
X-69159Y144543D01*
X-69141Y144528D01*
X-69115Y144496D01*
X-57901Y133281D01*
X-56895Y130854D01*
X-56895Y94494D01*
X-56881Y94404D01*
X-56873Y94313D01*
X-56861Y94283D01*
X-56856Y94251D01*
X-56813Y94170D01*
X-56777Y94086D01*
X-56751Y94054D01*
X-56740Y94034D01*
X-56717Y94011D01*
X-56672Y93955D01*
X-52403Y89686D01*
X-52403Y80494D01*
X-58904Y73993D01*
X-68096Y73993D01*
X-74597Y80494D01*
X-74597Y89686D01*
X-70328Y93955D01*
X-70275Y94029D01*
X-70215Y94099D01*
X-70203Y94129D01*
X-70184Y94155D01*
X-70157Y94242D01*
X-70123Y94327D01*
X-70119Y94368D01*
X-70112Y94390D01*
X-70113Y94422D01*
X-70105Y94494D01*
X-70105Y126489D01*
X-70119Y126579D01*
X-70127Y126670D01*
X-70139Y126700D01*
X-70144Y126732D01*
X-70187Y126812D01*
X-70223Y126896D01*
X-70249Y126928D01*
X-70260Y126949D01*
X-70283Y126971D01*
X-70328Y127027D01*
X-88873Y145572D01*
X-88947Y145625D01*
X-89016Y145685D01*
X-89046Y145697D01*
X-89073Y145716D01*
X-89160Y145743D01*
X-89244Y145777D01*
X-89285Y145781D01*
X-89308Y145788D01*
X-89340Y145787D01*
X-89411Y145795D01*
X-148079Y145795D01*
X-148169Y145781D01*
X-148260Y145773D01*
X-148290Y145761D01*
X-148322Y145756D01*
X-148402Y145713D01*
X-148486Y145677D01*
X-148518Y145651D01*
X-148539Y145640D01*
X-148561Y145617D01*
X-148617Y145572D01*
X-162082Y132107D01*
X-162135Y132033D01*
X-162195Y131964D01*
X-162207Y131934D01*
X-162226Y131907D01*
X-162253Y131821D01*
X-162287Y131736D01*
X-162291Y131695D01*
X-162298Y131672D01*
X-162297Y131640D01*
X-162305Y131569D01*
X-162305Y-96155D01*
X-162286Y-96270D01*
X-162269Y-96386D01*
X-162267Y-96392D01*
X-162266Y-96398D01*
X-162211Y-96500D01*
X-162158Y-96605D01*
X-162153Y-96610D01*
X-162150Y-96615D01*
X-162066Y-96695D01*
X-161982Y-96777D01*
X-161976Y-96781D01*
X-161972Y-96785D01*
X-161955Y-96792D01*
X-161835Y-96858D01*
X-161572Y-96968D01*
X-157928Y-100612D01*
X-156913Y-103060D01*
X-156875Y-103121D01*
X-156846Y-103187D01*
X-156811Y-103225D01*
X-156784Y-103269D01*
X-156728Y-103315D01*
X-156680Y-103368D01*
X-156634Y-103393D01*
X-156594Y-103426D01*
X-156527Y-103452D01*
X-156464Y-103486D01*
X-156413Y-103496D01*
X-156365Y-103514D01*
X-156293Y-103517D01*
X-156222Y-103530D01*
X-156171Y-103523D01*
X-156119Y-103525D01*
X-156050Y-103505D01*
X-155979Y-103494D01*
X-155933Y-103471D01*
X-155883Y-103456D01*
X-155824Y-103415D01*
X-155760Y-103383D01*
X-155723Y-103346D01*
X-155681Y-103316D01*
X-155638Y-103258D01*
X-155588Y-103207D01*
X-155553Y-103144D01*
X-155534Y-103119D01*
X-155527Y-103096D01*
X-155507Y-103060D01*
X-154492Y-100612D01*
X-150848Y-96968D01*
X-146087Y-94995D01*
X-140933Y-94995D01*
X-136172Y-96968D01*
X-132528Y-100612D01*
X-130555Y-105373D01*
X-130555Y-110527D01*
X-132528Y-115288D01*
X-136172Y-118932D01*
X-138620Y-119947D01*
X-138681Y-119985D01*
X-138747Y-120014D01*
X-138785Y-120049D01*
X-138829Y-120076D01*
X-138875Y-120132D01*
X-138928Y-120180D01*
X-138953Y-120226D01*
X-138986Y-120266D01*
X-139012Y-120333D01*
X-139046Y-120396D01*
X-139056Y-120447D01*
X-139074Y-120495D01*
X-139077Y-120567D01*
X-139090Y-120638D01*
X-139083Y-120689D01*
X-139085Y-120741D01*
X-139065Y-120810D01*
X-139054Y-120881D01*
X-139031Y-120927D01*
X-139016Y-120977D01*
X-138975Y-121036D01*
X-138943Y-121100D01*
X-138906Y-121137D01*
X-138876Y-121179D01*
X-138818Y-121222D01*
X-138767Y-121272D01*
X-138704Y-121307D01*
X-138679Y-121326D01*
X-138656Y-121333D01*
X-138620Y-121353D01*
X-136172Y-122368D01*
X-132528Y-126012D01*
X-130555Y-130773D01*
X-130555Y-135927D01*
X-132528Y-140688D01*
X-136172Y-144332D01*
X-140933Y-146305D01*
X-146087Y-146305D01*
X-150848Y-144332D01*
X-154492Y-140688D01*
X-155507Y-138240D01*
X-155545Y-138179D01*
X-155574Y-138113D01*
X-155609Y-138075D01*
X-155636Y-138031D01*
X-155692Y-137985D01*
X-155740Y-137932D01*
X-155786Y-137907D01*
X-155826Y-137874D01*
X-155893Y-137848D01*
X-155956Y-137814D01*
X-156007Y-137804D01*
X-156055Y-137786D01*
X-156127Y-137783D01*
X-156198Y-137770D01*
X-156249Y-137777D01*
X-156301Y-137775D01*
X-156370Y-137795D01*
X-156441Y-137806D01*
X-156487Y-137829D01*
X-156537Y-137844D01*
X-156596Y-137885D01*
X-156660Y-137917D01*
X-156697Y-137954D01*
X-156739Y-137984D01*
X-156782Y-138042D01*
X-156832Y-138093D01*
X-156867Y-138156D01*
X-156886Y-138181D01*
X-156893Y-138204D01*
X-156913Y-138240D01*
X-157928Y-140688D01*
X-161572Y-144332D01*
X-166333Y-146305D01*
X-171487Y-146305D01*
X-176248Y-144332D01*
X-179892Y-140688D01*
X-181484Y-136846D01*
X-181537Y-136761D01*
X-181585Y-136671D01*
X-181602Y-136656D01*
X-181613Y-136637D01*
X-181691Y-136573D01*
X-181766Y-136504D01*
X-181786Y-136495D01*
X-181803Y-136481D01*
X-181897Y-136444D01*
X-181990Y-136402D01*
X-182012Y-136400D01*
X-182033Y-136392D01*
X-182134Y-136388D01*
X-182234Y-136378D01*
X-182256Y-136383D01*
X-182278Y-136382D01*
X-182375Y-136410D01*
X-182474Y-136433D01*
X-182493Y-136444D01*
X-182515Y-136450D01*
X-182598Y-136508D01*
X-182684Y-136561D01*
X-182698Y-136578D01*
X-182717Y-136591D01*
X-182777Y-136672D01*
X-182842Y-136750D01*
X-182853Y-136775D01*
X-182863Y-136788D01*
X-182873Y-136819D01*
X-182911Y-136902D01*
X-183246Y-137933D01*
X-184004Y-139420D01*
X-184099Y-139607D01*
X-185204Y-141128D01*
X-186532Y-142456D01*
X-188053Y-143561D01*
X-189727Y-144414D01*
X-191514Y-144995D01*
X-192787Y-145196D01*
X-192787Y-134112D01*
X-192790Y-134092D01*
X-192788Y-134073D01*
X-192810Y-133971D01*
X-192827Y-133869D01*
X-192836Y-133852D01*
X-192840Y-133832D01*
X-192893Y-133743D01*
X-192942Y-133652D01*
X-192956Y-133638D01*
X-192966Y-133621D01*
X-193045Y-133554D01*
X-193120Y-133483D01*
X-193138Y-133474D01*
X-193153Y-133461D01*
X-193249Y-133423D01*
X-193343Y-133379D01*
X-193363Y-133377D01*
X-193381Y-133369D01*
X-193548Y-133351D01*
X-194311Y-133351D01*
X-194311Y-132588D01*
X-194314Y-132568D01*
X-194312Y-132549D01*
X-194334Y-132447D01*
X-194351Y-132345D01*
X-194360Y-132328D01*
X-194364Y-132308D01*
X-194417Y-132219D01*
X-194466Y-132128D01*
X-194480Y-132114D01*
X-194490Y-132097D01*
X-194569Y-132030D01*
X-194644Y-131959D01*
X-194662Y-131950D01*
X-194677Y-131937D01*
X-194773Y-131898D01*
X-194867Y-131855D01*
X-194887Y-131853D01*
X-194905Y-131845D01*
X-195072Y-131827D01*
X-206156Y-131827D01*
X-205955Y-130554D01*
X-205374Y-128767D01*
X-204521Y-127093D01*
X-203416Y-125572D01*
X-202088Y-124244D01*
X-200567Y-123139D01*
X-198893Y-122286D01*
X-197862Y-121951D01*
X-197772Y-121905D01*
X-197680Y-121864D01*
X-197664Y-121849D01*
X-197644Y-121838D01*
X-197573Y-121766D01*
X-197499Y-121697D01*
X-197488Y-121678D01*
X-197473Y-121662D01*
X-197429Y-121570D01*
X-197380Y-121482D01*
X-197376Y-121460D01*
X-197367Y-121440D01*
X-197355Y-121339D01*
X-197337Y-121240D01*
X-197340Y-121218D01*
X-197337Y-121196D01*
X-197358Y-121097D01*
X-197372Y-120996D01*
X-197382Y-120976D01*
X-197387Y-120955D01*
X-197438Y-120867D01*
X-197484Y-120777D01*
X-197500Y-120761D01*
X-197511Y-120742D01*
X-197587Y-120676D01*
X-197659Y-120605D01*
X-197684Y-120591D01*
X-197696Y-120580D01*
X-197726Y-120568D01*
X-197806Y-120524D01*
X-201648Y-118932D01*
X-205292Y-115288D01*
X-207265Y-110527D01*
X-207265Y-105373D01*
X-205292Y-100612D01*
X-201648Y-96968D01*
X-196887Y-94995D01*
X-191733Y-94995D01*
X-186972Y-96968D01*
X-183328Y-100612D01*
X-182313Y-103060D01*
X-182275Y-103121D01*
X-182246Y-103187D01*
X-182211Y-103225D01*
X-182184Y-103269D01*
X-182128Y-103315D01*
X-182080Y-103368D01*
X-182034Y-103393D01*
X-181994Y-103426D01*
X-181927Y-103452D01*
X-181864Y-103486D01*
X-181813Y-103496D01*
X-181765Y-103514D01*
X-181693Y-103517D01*
X-181622Y-103530D01*
X-181571Y-103523D01*
X-181519Y-103525D01*
X-181450Y-103505D01*
X-181379Y-103494D01*
X-181333Y-103471D01*
X-181283Y-103456D01*
X-181224Y-103415D01*
X-181160Y-103383D01*
X-181123Y-103346D01*
X-181081Y-103316D01*
X-181038Y-103258D01*
X-180988Y-103207D01*
X-180953Y-103144D01*
X-180934Y-103119D01*
X-180927Y-103096D01*
X-180907Y-103060D01*
X-179892Y-100612D01*
X-176248Y-96968D01*
X-175985Y-96858D01*
X-175885Y-96797D01*
X-175785Y-96737D01*
X-175781Y-96732D01*
X-175776Y-96729D01*
X-175701Y-96639D01*
X-175625Y-96550D01*
X-175623Y-96544D01*
X-175619Y-96539D01*
X-175577Y-96431D01*
X-175533Y-96322D01*
X-175532Y-96314D01*
X-175531Y-96310D01*
X-175530Y-96291D01*
X-175515Y-96155D01*
X-175515Y135934D01*
X-174509Y138361D01*
X-172544Y140326D01*
X-154871Y157999D01*
X-152444Y159005D01*
X168399Y159005D01*
X168489Y159019D01*
X168580Y159027D01*
X168610Y159039D01*
X168642Y159044D01*
X168722Y159087D01*
X168806Y159123D01*
X168838Y159149D01*
X168859Y159160D01*
X168881Y159183D01*
X168937Y159228D01*
X182402Y172693D01*
X182455Y172767D01*
X182515Y172836D01*
X182527Y172866D01*
X182546Y172893D01*
X182573Y172980D01*
X182607Y173064D01*
X182611Y173105D01*
X182618Y173128D01*
X182617Y173160D01*
X182625Y173231D01*
X182625Y436924D01*
X183631Y439351D01*
X185596Y441316D01*
X206384Y462104D01*
X208349Y464069D01*
X210776Y465075D01*
X295954Y465075D01*
X298381Y464069D01*
X300346Y462104D01*
X347696Y414755D01*
X347754Y414713D01*
X347806Y414664D01*
X347853Y414642D01*
X347895Y414611D01*
X347964Y414590D01*
X348029Y414560D01*
X348081Y414554D01*
X348131Y414539D01*
X348202Y414541D01*
X348273Y414533D01*
X348324Y414544D01*
X348376Y414545D01*
X348444Y414570D01*
X348514Y414585D01*
X348559Y414612D01*
X348607Y414630D01*
X348663Y414675D01*
X348725Y414711D01*
X348759Y414751D01*
X348799Y414783D01*
X348838Y414844D01*
X348885Y414898D01*
X348904Y414947D01*
X348932Y414990D01*
X348950Y415060D01*
X348977Y415126D01*
X348985Y415198D01*
X348993Y415229D01*
X348991Y415252D01*
X348995Y415293D01*
X348995Y456689D01*
X348981Y456779D01*
X348973Y456870D01*
X348961Y456900D01*
X348956Y456932D01*
X348913Y457012D01*
X348877Y457096D01*
X348851Y457128D01*
X348840Y457149D01*
X348817Y457171D01*
X348772Y457227D01*
X266727Y539272D01*
X266653Y539325D01*
X266584Y539385D01*
X266554Y539397D01*
X266527Y539416D01*
X266440Y539443D01*
X266356Y539477D01*
X266315Y539481D01*
X266292Y539488D01*
X266260Y539487D01*
X266189Y539495D01*
X110062Y539495D01*
X109991Y539484D01*
X109919Y539482D01*
X109870Y539464D01*
X109819Y539456D01*
X109755Y539422D01*
X109688Y539397D01*
X109647Y539365D01*
X109601Y539340D01*
X109552Y539288D01*
X109496Y539244D01*
X109468Y539200D01*
X109432Y539162D01*
X109402Y539097D01*
X109363Y539037D01*
X109350Y538986D01*
X109328Y538939D01*
X109321Y538868D01*
X109303Y538798D01*
X109307Y538746D01*
X109301Y538695D01*
X109317Y538624D01*
X109322Y538553D01*
X109342Y538505D01*
X109354Y538454D01*
X109390Y538393D01*
X109418Y538327D01*
X109463Y538271D01*
X109480Y538243D01*
X109498Y538228D01*
X109523Y538196D01*
X119671Y528048D01*
X119745Y527995D01*
X119814Y527936D01*
X119844Y527923D01*
X119871Y527905D01*
X119958Y527878D01*
X120042Y527844D01*
X120083Y527839D01*
X120106Y527832D01*
X120138Y527833D01*
X120209Y527825D01*
X122658Y527825D01*
X126369Y526288D01*
X129210Y523448D01*
X130747Y519737D01*
X130747Y515720D01*
X129210Y512009D01*
X126369Y509169D01*
X122658Y507632D01*
X118642Y507632D01*
X114931Y509169D01*
X112090Y512009D01*
X110553Y515720D01*
X110553Y518169D01*
X110539Y518259D01*
X110531Y518350D01*
X110519Y518380D01*
X110514Y518412D01*
X110471Y518493D01*
X110435Y518577D01*
X110409Y518609D01*
X110398Y518630D01*
X110375Y518652D01*
X110330Y518708D01*
X89766Y539272D01*
X89692Y539325D01*
X89622Y539385D01*
X89592Y539397D01*
X89566Y539416D01*
X89479Y539443D01*
X89394Y539477D01*
X89353Y539481D01*
X89331Y539488D01*
X89299Y539487D01*
X89227Y539495D01*
X38800Y539495D01*
X38729Y539484D01*
X38658Y539482D01*
X38609Y539464D01*
X38557Y539456D01*
X38494Y539422D01*
X38427Y539397D01*
X38386Y539365D01*
X38340Y539340D01*
X38290Y539288D01*
X38234Y539244D01*
X38206Y539200D01*
X38170Y539162D01*
X38140Y539097D01*
X38101Y539037D01*
X38089Y538986D01*
X38067Y538939D01*
X38059Y538868D01*
X38041Y538798D01*
X38045Y538746D01*
X38040Y538695D01*
X38055Y538624D01*
X38061Y538553D01*
X38081Y538505D01*
X38092Y538454D01*
X38129Y538393D01*
X38157Y538327D01*
X38202Y538271D01*
X38218Y538243D01*
X38236Y538228D01*
X38262Y538196D01*
X40310Y536148D01*
X41847Y532437D01*
X41847Y528420D01*
X40310Y524709D01*
X37469Y521869D01*
X33758Y520332D01*
X29742Y520332D01*
X26031Y521869D01*
X23190Y524709D01*
X21653Y528420D01*
X21653Y532437D01*
X23190Y536148D01*
X25238Y538196D01*
X25280Y538254D01*
X25330Y538306D01*
X25351Y538353D01*
X25382Y538395D01*
X25403Y538464D01*
X25433Y538529D01*
X25439Y538581D01*
X25454Y538631D01*
X25452Y538702D01*
X25460Y538773D01*
X25449Y538824D01*
X25448Y538876D01*
X25423Y538944D01*
X25408Y539014D01*
X25381Y539059D01*
X25363Y539107D01*
X25319Y539163D01*
X25282Y539225D01*
X25242Y539259D01*
X25210Y539299D01*
X25149Y539338D01*
X25095Y539385D01*
X25047Y539404D01*
X25003Y539432D01*
X24933Y539450D01*
X24867Y539477D01*
X24795Y539485D01*
X24764Y539493D01*
X24741Y539491D01*
X24700Y539495D01*
X-24420Y539495D01*
X-24467Y539488D01*
X-24515Y539489D01*
X-24588Y539468D01*
X-24662Y539456D01*
X-24705Y539433D01*
X-24751Y539419D01*
X-24813Y539376D01*
X-24880Y539340D01*
X-24913Y539306D01*
X-24952Y539278D01*
X-24997Y539217D01*
X-25049Y539162D01*
X-25069Y539119D01*
X-25098Y539080D01*
X-25121Y539008D01*
X-25153Y538939D01*
X-25158Y538891D01*
X-25173Y538846D01*
X-25172Y538770D01*
X-25180Y538695D01*
X-25170Y538648D01*
X-25169Y538600D01*
X-25144Y538528D01*
X-25128Y538454D01*
X-25103Y538413D01*
X-25087Y538368D01*
X-25040Y538308D01*
X-25001Y538243D01*
X-24965Y538212D01*
X-24935Y538174D01*
X-24832Y538098D01*
X-24815Y538083D01*
X-24808Y538081D01*
X-24800Y538075D01*
X-19762Y535166D01*
X-18999Y532320D01*
X-27013Y518440D01*
X-29859Y517678D01*
X-43738Y525691D01*
X-44501Y528537D01*
X-38833Y538353D01*
X-38800Y538442D01*
X-38759Y538529D01*
X-38756Y538557D01*
X-38746Y538583D01*
X-38743Y538679D01*
X-38732Y538773D01*
X-38738Y538801D01*
X-38737Y538829D01*
X-38764Y538921D01*
X-38785Y539014D01*
X-38799Y539038D01*
X-38807Y539065D01*
X-38862Y539143D01*
X-38911Y539225D01*
X-38932Y539243D01*
X-38948Y539266D01*
X-39025Y539323D01*
X-39098Y539385D01*
X-39124Y539395D01*
X-39147Y539412D01*
X-39237Y539441D01*
X-39326Y539477D01*
X-39361Y539481D01*
X-39381Y539487D01*
X-39414Y539487D01*
X-39492Y539495D01*
X-165935Y539495D01*
X-166006Y539484D01*
X-166078Y539482D01*
X-166127Y539464D01*
X-166178Y539456D01*
X-166242Y539422D01*
X-166309Y539397D01*
X-166350Y539365D01*
X-166396Y539340D01*
X-166445Y539288D01*
X-166501Y539244D01*
X-166529Y539200D01*
X-166565Y539162D01*
X-166595Y539097D01*
X-166634Y539037D01*
X-166647Y538986D01*
X-166669Y538939D01*
X-166677Y538868D01*
X-166694Y538798D01*
X-166690Y538746D01*
X-166696Y538695D01*
X-166680Y538624D01*
X-166675Y538553D01*
X-166655Y538505D01*
X-166643Y538454D01*
X-166607Y538393D01*
X-166579Y538327D01*
X-166534Y538271D01*
X-166517Y538243D01*
X-166499Y538228D01*
X-166474Y538196D01*
X-134329Y506051D01*
X-134255Y505998D01*
X-134186Y505939D01*
X-134156Y505926D01*
X-134129Y505908D01*
X-134042Y505881D01*
X-133958Y505847D01*
X-133917Y505842D01*
X-133894Y505835D01*
X-133862Y505836D01*
X-133791Y505828D01*
X-131342Y505828D01*
X-127631Y504291D01*
X-124790Y501451D01*
X-123253Y497740D01*
X-123253Y493723D01*
X-124790Y490012D01*
X-127631Y487172D01*
X-131342Y485635D01*
X-135358Y485635D01*
X-139069Y487172D01*
X-141910Y490012D01*
X-143447Y493723D01*
X-143447Y496172D01*
X-143461Y496262D01*
X-143469Y496353D01*
X-143481Y496383D01*
X-143486Y496415D01*
X-143529Y496496D01*
X-143565Y496580D01*
X-143591Y496612D01*
X-143602Y496632D01*
X-143625Y496655D01*
X-143670Y496711D01*
X-186231Y539272D01*
X-186305Y539325D01*
X-186375Y539385D01*
X-186405Y539397D01*
X-186431Y539416D01*
X-186518Y539443D01*
X-186603Y539477D01*
X-186644Y539481D01*
X-186666Y539488D01*
X-186698Y539487D01*
X-186770Y539495D01*
X-245869Y539495D01*
X-245959Y539481D01*
X-246050Y539473D01*
X-246080Y539461D01*
X-246112Y539456D01*
X-246192Y539413D01*
X-246276Y539377D01*
X-246308Y539351D01*
X-246329Y539340D01*
X-246351Y539317D01*
X-246407Y539272D01*
X-372871Y412808D01*
X-372916Y412746D01*
X-372944Y412717D01*
X-372949Y412705D01*
X-372984Y412665D01*
X-372996Y412635D01*
X-373015Y412608D01*
X-373042Y412521D01*
X-373076Y412437D01*
X-373080Y412396D01*
X-373087Y412373D01*
X-373086Y412341D01*
X-373094Y412270D01*
X-373094Y263644D01*
X-373080Y263553D01*
X-373072Y263463D01*
X-373060Y263433D01*
X-373055Y263401D01*
X-373012Y263320D01*
X-372976Y263236D01*
X-372950Y263204D01*
X-372940Y263183D01*
X-372916Y263161D01*
X-372871Y263105D01*
X-371139Y261373D01*
X-369602Y257662D01*
X-369602Y253646D01*
X-371139Y249935D01*
X-373980Y247094D01*
X-377691Y245557D01*
X-381707Y245557D01*
X-385418Y247094D01*
X-388259Y249935D01*
X-389796Y253646D01*
X-389796Y257662D01*
X-388259Y261373D01*
X-386527Y263105D01*
X-386474Y263179D01*
X-386414Y263249D01*
X-386402Y263279D01*
X-386383Y263305D01*
X-386356Y263392D01*
X-386322Y263477D01*
X-386318Y263518D01*
X-386311Y263540D01*
X-386312Y263572D01*
X-386304Y263644D01*
X-386304Y416635D01*
X-385298Y419062D01*
X-252661Y551699D01*
X-250234Y552705D01*
X270554Y552705D01*
X272981Y551699D01*
X361199Y463481D01*
X362205Y461054D01*
X362205Y264176D01*
X362219Y264086D01*
X362227Y263995D01*
X362239Y263966D01*
X362244Y263934D01*
X362287Y263853D01*
X362323Y263769D01*
X362349Y263737D01*
X362360Y263716D01*
X362383Y263694D01*
X362428Y263638D01*
X362920Y263145D01*
X364458Y259434D01*
X364458Y255418D01*
X362920Y251707D01*
X360080Y248866D01*
X356369Y247329D01*
X352353Y247329D01*
X348642Y248866D01*
X345801Y251707D01*
X344264Y255418D01*
X344264Y259434D01*
X345801Y263145D01*
X348700Y266044D01*
X348725Y266059D01*
X348729Y266063D01*
X348734Y266067D01*
X348808Y266156D01*
X348885Y266246D01*
X348887Y266251D01*
X348891Y266256D01*
X348933Y266364D01*
X348977Y266474D01*
X348978Y266481D01*
X348979Y266486D01*
X348980Y266503D01*
X348995Y266641D01*
X348995Y394459D01*
X348981Y394549D01*
X348973Y394640D01*
X348961Y394670D01*
X348956Y394702D01*
X348913Y394782D01*
X348877Y394866D01*
X348851Y394898D01*
X348840Y394919D01*
X348817Y394941D01*
X348772Y394997D01*
X292127Y451642D01*
X292053Y451695D01*
X291984Y451755D01*
X291954Y451767D01*
X291927Y451786D01*
X291840Y451813D01*
X291756Y451847D01*
X291715Y451851D01*
X291692Y451858D01*
X291660Y451857D01*
X291589Y451865D01*
X244351Y451865D01*
X244261Y451851D01*
X244170Y451843D01*
X244140Y451831D01*
X244108Y451826D01*
X244028Y451783D01*
X243944Y451747D01*
X243912Y451721D01*
X243891Y451710D01*
X243869Y451687D01*
X243813Y451642D01*
X237968Y445797D01*
X237915Y445723D01*
X237855Y445654D01*
X237843Y445624D01*
X237824Y445597D01*
X237797Y445510D01*
X237763Y445426D01*
X237759Y445385D01*
X237752Y445362D01*
X237753Y445330D01*
X237745Y445259D01*
X237745Y444865D01*
X237764Y444750D01*
X237781Y444634D01*
X237783Y444628D01*
X237784Y444622D01*
X237839Y444519D01*
X237892Y444415D01*
X237897Y444410D01*
X237900Y444405D01*
X237984Y444324D01*
X238068Y444243D01*
X238074Y444239D01*
X238078Y444235D01*
X238095Y444228D01*
X238215Y444162D01*
X238478Y444052D01*
X242122Y440408D01*
X244095Y435647D01*
X244095Y430493D01*
X242122Y425732D01*
X238478Y422088D01*
X236030Y421073D01*
X235969Y421035D01*
X235903Y421006D01*
X235865Y420971D01*
X235821Y420944D01*
X235775Y420888D01*
X235722Y420840D01*
X235697Y420794D01*
X235664Y420754D01*
X235638Y420687D01*
X235604Y420624D01*
X235594Y420573D01*
X235576Y420525D01*
X235573Y420453D01*
X235560Y420382D01*
X235567Y420331D01*
X235565Y420279D01*
X235585Y420210D01*
X235596Y420139D01*
X235619Y420093D01*
X235634Y420043D01*
X235675Y419984D01*
X235707Y419920D01*
X235744Y419883D01*
X235774Y419841D01*
X235832Y419798D01*
X235883Y419748D01*
X235946Y419713D01*
X235971Y419694D01*
X235994Y419687D01*
X236030Y419667D01*
X238478Y418652D01*
X242122Y415008D01*
X244095Y410247D01*
X244095Y405093D01*
X242122Y400332D01*
X238478Y396688D01*
X236030Y395673D01*
X235969Y395635D01*
X235903Y395606D01*
X235865Y395571D01*
X235821Y395544D01*
X235775Y395488D01*
X235722Y395440D01*
X235697Y395394D01*
X235664Y395354D01*
X235638Y395287D01*
X235604Y395224D01*
X235594Y395173D01*
X235576Y395125D01*
X235573Y395053D01*
X235560Y394982D01*
X235567Y394931D01*
X235565Y394879D01*
X235585Y394810D01*
X235596Y394739D01*
X235619Y394693D01*
X235634Y394643D01*
X235675Y394584D01*
X235707Y394520D01*
X235744Y394483D01*
X235774Y394441D01*
X235832Y394398D01*
X235883Y394348D01*
X235946Y394313D01*
X235971Y394294D01*
X235994Y394287D01*
X236030Y394267D01*
X238478Y393252D01*
X242122Y389608D01*
X242232Y389345D01*
X242293Y389245D01*
X242353Y389145D01*
X242358Y389141D01*
X242361Y389136D01*
X242452Y389061D01*
X242540Y388985D01*
X242546Y388983D01*
X242551Y388979D01*
X242659Y388937D01*
X242768Y388893D01*
X242776Y388892D01*
X242780Y388891D01*
X242799Y388890D01*
X242935Y388875D01*
X265474Y388875D01*
X267901Y387869D01*
X282459Y373311D01*
X283465Y370884D01*
X283465Y211331D01*
X283479Y211241D01*
X283487Y211150D01*
X283499Y211120D01*
X283504Y211088D01*
X283530Y211039D01*
X283531Y211039D01*
X283532Y211036D01*
X283547Y211008D01*
X283583Y210924D01*
X283609Y210892D01*
X283620Y210871D01*
X283643Y210849D01*
X283648Y210843D01*
X283657Y210828D01*
X283667Y210819D01*
X283688Y210793D01*
X295375Y199106D01*
X295449Y199053D01*
X295518Y198993D01*
X295548Y198981D01*
X295575Y198962D01*
X295662Y198935D01*
X295746Y198901D01*
X295787Y198897D01*
X295810Y198890D01*
X295842Y198891D01*
X295913Y198883D01*
X336090Y198883D01*
X336161Y198894D01*
X336232Y198896D01*
X336281Y198914D01*
X336333Y198922D01*
X336396Y198956D01*
X336463Y198981D01*
X336504Y199013D01*
X336550Y199038D01*
X336600Y199090D01*
X336656Y199134D01*
X336684Y199178D01*
X336720Y199216D01*
X336750Y199281D01*
X336789Y199341D01*
X336801Y199392D01*
X336823Y199439D01*
X336831Y199510D01*
X336849Y199580D01*
X336845Y199632D01*
X336850Y199683D01*
X336835Y199754D01*
X336829Y199825D01*
X336809Y199873D01*
X336798Y199924D01*
X336761Y199985D01*
X336733Y200051D01*
X336688Y200107D01*
X336672Y200135D01*
X336654Y200150D01*
X336628Y200182D01*
X332739Y204071D01*
X332739Y212489D01*
X338691Y218441D01*
X347109Y218441D01*
X353061Y212489D01*
X353061Y204071D01*
X349172Y200182D01*
X349130Y200124D01*
X349080Y200072D01*
X349059Y200025D01*
X349028Y199983D01*
X349007Y199914D01*
X348977Y199849D01*
X348971Y199797D01*
X348956Y199747D01*
X348958Y199676D01*
X348950Y199605D01*
X348961Y199554D01*
X348962Y199502D01*
X348987Y199434D01*
X349002Y199364D01*
X349029Y199319D01*
X349047Y199271D01*
X349091Y199215D01*
X349128Y199153D01*
X349168Y199119D01*
X349200Y199079D01*
X349261Y199040D01*
X349315Y198993D01*
X349363Y198974D01*
X349407Y198946D01*
X349477Y198928D01*
X349543Y198901D01*
X349615Y198893D01*
X349646Y198885D01*
X349669Y198887D01*
X349710Y198883D01*
X362927Y198883D01*
X362998Y198894D01*
X363069Y198896D01*
X363118Y198914D01*
X363170Y198922D01*
X363233Y198956D01*
X363300Y198981D01*
X363341Y199013D01*
X363387Y199038D01*
X363436Y199090D01*
X363492Y199134D01*
X363521Y199178D01*
X363556Y199216D01*
X363587Y199281D01*
X363625Y199341D01*
X363638Y199392D01*
X363660Y199439D01*
X363668Y199510D01*
X363685Y199580D01*
X363681Y199632D01*
X363687Y199683D01*
X363672Y199754D01*
X363666Y199825D01*
X363646Y199873D01*
X363635Y199924D01*
X363598Y199985D01*
X363570Y200051D01*
X363525Y200107D01*
X363509Y200135D01*
X363491Y200150D01*
X363465Y200182D01*
X359155Y204492D01*
X359155Y206757D01*
X367538Y206757D01*
X367558Y206760D01*
X367577Y206758D01*
X367679Y206780D01*
X367781Y206797D01*
X367798Y206806D01*
X367818Y206810D01*
X367907Y206863D01*
X367998Y206912D01*
X368012Y206926D01*
X368029Y206936D01*
X368096Y207015D01*
X368167Y207090D01*
X368176Y207108D01*
X368189Y207123D01*
X368227Y207219D01*
X368271Y207313D01*
X368273Y207333D01*
X368281Y207351D01*
X368299Y207518D01*
X368299Y208281D01*
X368301Y208281D01*
X368301Y207518D01*
X368304Y207498D01*
X368302Y207479D01*
X368324Y207377D01*
X368341Y207275D01*
X368350Y207258D01*
X368354Y207238D01*
X368407Y207149D01*
X368456Y207058D01*
X368470Y207044D01*
X368480Y207027D01*
X368559Y206960D01*
X368634Y206889D01*
X368652Y206880D01*
X368667Y206867D01*
X368763Y206828D01*
X368857Y206785D01*
X368877Y206783D01*
X368895Y206775D01*
X369062Y206757D01*
X377445Y206757D01*
X377445Y204492D01*
X373135Y200182D01*
X373093Y200124D01*
X373044Y200072D01*
X373022Y200025D01*
X372991Y199983D01*
X372970Y199914D01*
X372940Y199849D01*
X372934Y199797D01*
X372919Y199747D01*
X372921Y199676D01*
X372913Y199605D01*
X372924Y199554D01*
X372925Y199502D01*
X372950Y199434D01*
X372965Y199364D01*
X372992Y199319D01*
X373010Y199271D01*
X373055Y199215D01*
X373091Y199153D01*
X373131Y199119D01*
X373163Y199079D01*
X373224Y199040D01*
X373278Y198993D01*
X373327Y198974D01*
X373370Y198946D01*
X373440Y198928D01*
X373506Y198901D01*
X373578Y198893D01*
X373609Y198885D01*
X373632Y198887D01*
X373673Y198883D01*
X383537Y198883D01*
X383627Y198897D01*
X383718Y198905D01*
X383748Y198917D01*
X383780Y198922D01*
X383860Y198965D01*
X383944Y199001D01*
X383976Y199027D01*
X383997Y199038D01*
X384019Y199061D01*
X384075Y199106D01*
X423671Y238702D01*
X423724Y238776D01*
X423784Y238845D01*
X423796Y238875D01*
X423815Y238902D01*
X423842Y238989D01*
X423876Y239073D01*
X423880Y239114D01*
X423887Y239137D01*
X423886Y239169D01*
X423894Y239240D01*
X423894Y348770D01*
X423880Y348860D01*
X423872Y348951D01*
X423860Y348981D01*
X423855Y349013D01*
X423812Y349093D01*
X423776Y349177D01*
X423750Y349209D01*
X423740Y349230D01*
X423716Y349252D01*
X423671Y349308D01*
X386615Y386364D01*
X386541Y386417D01*
X386472Y386477D01*
X386442Y386489D01*
X386415Y386508D01*
X386328Y386535D01*
X386244Y386569D01*
X386203Y386573D01*
X386180Y386580D01*
X386148Y386579D01*
X386077Y386587D01*
X382082Y386587D01*
X376427Y392242D01*
X376427Y400238D01*
X382082Y405893D01*
X390078Y405893D01*
X395733Y400238D01*
X395733Y396243D01*
X395747Y396153D01*
X395755Y396062D01*
X395767Y396032D01*
X395772Y396000D01*
X395815Y395920D01*
X395851Y395836D01*
X395877Y395804D01*
X395888Y395783D01*
X395911Y395761D01*
X395956Y395705D01*
X436098Y355562D01*
X437104Y353135D01*
X437104Y234875D01*
X436098Y232448D01*
X392781Y189130D01*
X392739Y189072D01*
X392689Y189020D01*
X392667Y188973D01*
X392637Y188930D01*
X392616Y188862D01*
X392586Y188797D01*
X392580Y188745D01*
X392565Y188695D01*
X392567Y188624D01*
X392559Y188552D01*
X392570Y188502D01*
X392571Y188449D01*
X392596Y188382D01*
X392611Y188312D01*
X392638Y188267D01*
X392656Y188218D01*
X392700Y188162D01*
X392737Y188101D01*
X392777Y188067D01*
X392809Y188026D01*
X392870Y187988D01*
X392924Y187941D01*
X392972Y187922D01*
X393016Y187893D01*
X393086Y187876D01*
X393152Y187849D01*
X393224Y187841D01*
X393255Y187833D01*
X393278Y187835D01*
X393319Y187831D01*
X397171Y187831D01*
X397262Y187845D01*
X397352Y187852D01*
X397382Y187865D01*
X397414Y187870D01*
X397495Y187913D01*
X397579Y187949D01*
X397611Y187975D01*
X397632Y187985D01*
X397654Y188009D01*
X397710Y188054D01*
X399442Y189785D01*
X403153Y191323D01*
X407169Y191323D01*
X410880Y189785D01*
X413720Y186945D01*
X415258Y183234D01*
X415258Y179218D01*
X413720Y175507D01*
X410880Y172666D01*
X407169Y171129D01*
X403153Y171129D01*
X399442Y172666D01*
X397710Y174398D01*
X397636Y174451D01*
X397566Y174511D01*
X397536Y174523D01*
X397510Y174542D01*
X397423Y174569D01*
X397338Y174603D01*
X397297Y174607D01*
X397275Y174614D01*
X397243Y174613D01*
X397171Y174621D01*
X372958Y174621D01*
X370531Y175627D01*
X368566Y177592D01*
X360707Y185450D01*
X360633Y185503D01*
X360564Y185563D01*
X360534Y185575D01*
X360507Y185594D01*
X360421Y185621D01*
X360336Y185655D01*
X360295Y185659D01*
X360272Y185666D01*
X360240Y185665D01*
X360169Y185673D01*
X319317Y185673D01*
X319246Y185662D01*
X319175Y185660D01*
X319126Y185642D01*
X319074Y185634D01*
X319011Y185600D01*
X318944Y185575D01*
X318903Y185543D01*
X318857Y185518D01*
X318808Y185466D01*
X318752Y185422D01*
X318723Y185378D01*
X318688Y185340D01*
X318657Y185275D01*
X318619Y185215D01*
X318606Y185164D01*
X318584Y185117D01*
X318576Y185046D01*
X318559Y184976D01*
X318563Y184924D01*
X318557Y184873D01*
X318572Y184802D01*
X318578Y184731D01*
X318598Y184683D01*
X318609Y184632D01*
X318646Y184571D01*
X318674Y184505D01*
X318719Y184449D01*
X318735Y184421D01*
X318753Y184406D01*
X318779Y184374D01*
X320295Y182858D01*
X320295Y180593D01*
X311912Y180593D01*
X311892Y180590D01*
X311873Y180592D01*
X311771Y180570D01*
X311669Y180553D01*
X311652Y180544D01*
X311632Y180540D01*
X311543Y180487D01*
X311452Y180438D01*
X311438Y180424D01*
X311421Y180414D01*
X311354Y180335D01*
X311283Y180260D01*
X311274Y180242D01*
X311261Y180227D01*
X311223Y180131D01*
X311179Y180037D01*
X311177Y180017D01*
X311169Y179999D01*
X311151Y179832D01*
X311151Y179069D01*
X311149Y179069D01*
X311149Y179832D01*
X311146Y179852D01*
X311148Y179871D01*
X311126Y179973D01*
X311109Y180075D01*
X311100Y180092D01*
X311096Y180112D01*
X311043Y180201D01*
X310994Y180292D01*
X310980Y180306D01*
X310970Y180323D01*
X310891Y180390D01*
X310816Y180461D01*
X310798Y180470D01*
X310783Y180483D01*
X310687Y180522D01*
X310593Y180565D01*
X310573Y180567D01*
X310555Y180575D01*
X310388Y180593D01*
X302005Y180593D01*
X302005Y182858D01*
X303521Y184374D01*
X303563Y184432D01*
X303612Y184484D01*
X303634Y184531D01*
X303665Y184573D01*
X303686Y184642D01*
X303716Y184707D01*
X303722Y184759D01*
X303737Y184809D01*
X303735Y184880D01*
X303743Y184951D01*
X303732Y185002D01*
X303731Y185054D01*
X303706Y185122D01*
X303691Y185192D01*
X303664Y185237D01*
X303646Y185285D01*
X303601Y185341D01*
X303565Y185403D01*
X303525Y185437D01*
X303493Y185477D01*
X303432Y185516D01*
X303378Y185563D01*
X303329Y185582D01*
X303286Y185610D01*
X303216Y185628D01*
X303150Y185655D01*
X303078Y185663D01*
X303047Y185671D01*
X303024Y185669D01*
X302983Y185673D01*
X291548Y185673D01*
X289121Y186679D01*
X271261Y204539D01*
X270255Y206966D01*
X270255Y366519D01*
X270241Y366609D01*
X270233Y366700D01*
X270221Y366730D01*
X270216Y366762D01*
X270173Y366842D01*
X270137Y366926D01*
X270111Y366958D01*
X270100Y366979D01*
X270077Y367001D01*
X270032Y367057D01*
X261647Y375442D01*
X261573Y375495D01*
X261504Y375555D01*
X261474Y375567D01*
X261447Y375586D01*
X261360Y375613D01*
X261276Y375647D01*
X261235Y375651D01*
X261212Y375658D01*
X261180Y375657D01*
X261109Y375665D01*
X242935Y375665D01*
X242820Y375646D01*
X242704Y375629D01*
X242698Y375627D01*
X242692Y375626D01*
X242590Y375571D01*
X242485Y375518D01*
X242480Y375513D01*
X242475Y375510D01*
X242395Y375426D01*
X242313Y375342D01*
X242309Y375336D01*
X242305Y375332D01*
X242298Y375315D01*
X242232Y375195D01*
X242122Y374932D01*
X238478Y371288D01*
X236030Y370273D01*
X235969Y370235D01*
X235903Y370206D01*
X235865Y370171D01*
X235821Y370144D01*
X235775Y370088D01*
X235722Y370040D01*
X235697Y369994D01*
X235664Y369954D01*
X235638Y369887D01*
X235604Y369824D01*
X235594Y369773D01*
X235576Y369725D01*
X235573Y369653D01*
X235560Y369582D01*
X235567Y369531D01*
X235565Y369479D01*
X235585Y369410D01*
X235596Y369339D01*
X235619Y369293D01*
X235634Y369243D01*
X235675Y369184D01*
X235707Y369120D01*
X235744Y369083D01*
X235774Y369041D01*
X235832Y368998D01*
X235883Y368948D01*
X235946Y368913D01*
X235971Y368894D01*
X235994Y368887D01*
X236030Y368867D01*
X238478Y367852D01*
X242122Y364208D01*
X244095Y359447D01*
X244095Y354293D01*
X242122Y349532D01*
X238478Y345888D01*
X234636Y344296D01*
X234550Y344243D01*
X234461Y344194D01*
X234446Y344178D01*
X234427Y344167D01*
X234363Y344088D01*
X234294Y344014D01*
X234285Y343994D01*
X234270Y343977D01*
X234234Y343883D01*
X234192Y343790D01*
X234190Y343768D01*
X234182Y343747D01*
X234178Y343646D01*
X234168Y343546D01*
X234173Y343524D01*
X234172Y343502D01*
X234200Y343404D01*
X234223Y343306D01*
X234234Y343287D01*
X234240Y343265D01*
X234298Y343182D01*
X234351Y343096D01*
X234368Y343082D01*
X234381Y343063D01*
X234462Y343003D01*
X234540Y342938D01*
X234565Y342927D01*
X234578Y342917D01*
X234609Y342907D01*
X234692Y342869D01*
X235723Y342534D01*
X237397Y341681D01*
X238918Y340576D01*
X240246Y339248D01*
X241351Y337727D01*
X242204Y336053D01*
X242785Y334266D01*
X242986Y332993D01*
X231902Y332993D01*
X231882Y332990D01*
X231863Y332992D01*
X231761Y332970D01*
X231659Y332953D01*
X231642Y332944D01*
X231622Y332940D01*
X231533Y332887D01*
X231442Y332838D01*
X231428Y332824D01*
X231411Y332814D01*
X231344Y332735D01*
X231273Y332660D01*
X231264Y332642D01*
X231251Y332627D01*
X231213Y332531D01*
X231169Y332437D01*
X231167Y332417D01*
X231159Y332399D01*
X231141Y332232D01*
X231141Y330708D01*
X231144Y330688D01*
X231142Y330669D01*
X231164Y330567D01*
X231181Y330465D01*
X231190Y330448D01*
X231194Y330428D01*
X231247Y330339D01*
X231296Y330248D01*
X231310Y330234D01*
X231320Y330217D01*
X231399Y330150D01*
X231474Y330079D01*
X231492Y330070D01*
X231507Y330057D01*
X231603Y330018D01*
X231697Y329975D01*
X231717Y329973D01*
X231735Y329965D01*
X231902Y329947D01*
X242986Y329947D01*
X242785Y328674D01*
X242204Y326887D01*
X241351Y325213D01*
X240246Y323692D01*
X238918Y322364D01*
X237397Y321259D01*
X235723Y320406D01*
X234692Y320071D01*
X234602Y320025D01*
X234510Y319984D01*
X234494Y319969D01*
X234474Y319958D01*
X234403Y319886D01*
X234329Y319817D01*
X234318Y319798D01*
X234303Y319782D01*
X234259Y319690D01*
X234210Y319602D01*
X234206Y319580D01*
X234197Y319560D01*
X234185Y319459D01*
X234167Y319360D01*
X234170Y319338D01*
X234167Y319316D01*
X234188Y319216D01*
X234202Y319116D01*
X234212Y319097D01*
X234217Y319075D01*
X234268Y318987D01*
X234314Y318897D01*
X234330Y318881D01*
X234341Y318862D01*
X234417Y318796D01*
X234489Y318725D01*
X234513Y318712D01*
X234526Y318700D01*
X234556Y318688D01*
X234636Y318644D01*
X238478Y317052D01*
X242122Y313408D01*
X244095Y308647D01*
X244095Y303493D01*
X242122Y298732D01*
X238478Y295088D01*
X236030Y294073D01*
X235969Y294035D01*
X235903Y294006D01*
X235865Y293971D01*
X235821Y293944D01*
X235775Y293888D01*
X235722Y293840D01*
X235697Y293794D01*
X235664Y293754D01*
X235638Y293687D01*
X235604Y293624D01*
X235594Y293573D01*
X235576Y293525D01*
X235573Y293453D01*
X235560Y293382D01*
X235567Y293331D01*
X235565Y293279D01*
X235585Y293210D01*
X235596Y293139D01*
X235619Y293093D01*
X235634Y293043D01*
X235675Y292984D01*
X235707Y292920D01*
X235744Y292883D01*
X235774Y292841D01*
X235832Y292798D01*
X235883Y292748D01*
X235946Y292713D01*
X235971Y292694D01*
X235994Y292687D01*
X236030Y292667D01*
X238478Y291652D01*
X242122Y288008D01*
X244095Y283247D01*
X244095Y278093D01*
X242122Y273332D01*
X238478Y269688D01*
X236030Y268673D01*
X235969Y268635D01*
X235903Y268606D01*
X235865Y268571D01*
X235821Y268544D01*
X235775Y268488D01*
X235722Y268440D01*
X235697Y268394D01*
X235664Y268354D01*
X235638Y268287D01*
X235604Y268224D01*
X235594Y268173D01*
X235576Y268125D01*
X235573Y268053D01*
X235560Y267982D01*
X235567Y267931D01*
X235565Y267879D01*
X235585Y267810D01*
X235596Y267739D01*
X235619Y267693D01*
X235634Y267643D01*
X235675Y267584D01*
X235707Y267520D01*
X235744Y267483D01*
X235774Y267441D01*
X235832Y267398D01*
X235883Y267348D01*
X235946Y267313D01*
X235971Y267294D01*
X235994Y267287D01*
X236030Y267267D01*
X238478Y266252D01*
X242122Y262608D01*
X244095Y257847D01*
X244095Y252693D01*
X242122Y247932D01*
X238478Y244288D01*
X236030Y243273D01*
X235969Y243235D01*
X235903Y243206D01*
X235865Y243171D01*
X235821Y243144D01*
X235775Y243088D01*
X235722Y243040D01*
X235697Y242994D01*
X235664Y242954D01*
X235638Y242887D01*
X235604Y242824D01*
X235594Y242773D01*
X235576Y242725D01*
X235573Y242653D01*
X235560Y242582D01*
X235567Y242531D01*
X235565Y242479D01*
X235585Y242410D01*
X235596Y242339D01*
X235619Y242293D01*
X235634Y242243D01*
X235675Y242184D01*
X235707Y242120D01*
X235744Y242083D01*
X235774Y242041D01*
X235832Y241998D01*
X235883Y241948D01*
X235946Y241913D01*
X235971Y241894D01*
X235994Y241887D01*
X236030Y241867D01*
X238478Y240852D01*
X242122Y237208D01*
X244095Y232447D01*
X244095Y227293D01*
X242122Y222532D01*
X238478Y218888D01*
X236030Y217873D01*
X235969Y217835D01*
X235903Y217806D01*
X235865Y217771D01*
X235821Y217744D01*
X235775Y217688D01*
X235722Y217640D01*
X235697Y217594D01*
X235664Y217554D01*
X235638Y217487D01*
X235604Y217424D01*
X235594Y217373D01*
X235576Y217325D01*
X235573Y217253D01*
X235560Y217182D01*
X235567Y217131D01*
X235565Y217079D01*
X235585Y217010D01*
X235596Y216939D01*
X235619Y216893D01*
X235634Y216843D01*
X235675Y216784D01*
X235707Y216720D01*
X235744Y216683D01*
X235774Y216641D01*
X235832Y216598D01*
X235883Y216548D01*
X235946Y216513D01*
X235971Y216494D01*
X235994Y216487D01*
X236030Y216467D01*
X238478Y215452D01*
X242122Y211808D01*
X244095Y207047D01*
X244095Y201893D01*
X242122Y197132D01*
X238478Y193488D01*
X236030Y192473D01*
X235969Y192435D01*
X235903Y192406D01*
X235865Y192371D01*
X235821Y192344D01*
X235775Y192288D01*
X235722Y192240D01*
X235697Y192194D01*
X235664Y192154D01*
X235638Y192087D01*
X235604Y192024D01*
X235594Y191973D01*
X235576Y191925D01*
X235573Y191853D01*
X235560Y191782D01*
X235567Y191731D01*
X235565Y191679D01*
X235585Y191610D01*
X235596Y191539D01*
X235619Y191493D01*
X235634Y191443D01*
X235675Y191384D01*
X235707Y191320D01*
X235744Y191283D01*
X235774Y191241D01*
X235832Y191198D01*
X235883Y191148D01*
X235946Y191113D01*
X235971Y191094D01*
X235994Y191087D01*
X236030Y191067D01*
X238478Y190052D01*
X242122Y186408D01*
X244095Y181647D01*
X244095Y176493D01*
X242122Y171732D01*
X238478Y168088D01*
X236030Y167073D01*
X235969Y167035D01*
X235903Y167006D01*
X235865Y166971D01*
X235821Y166944D01*
X235775Y166888D01*
X235722Y166840D01*
X235697Y166794D01*
X235664Y166754D01*
X235638Y166687D01*
X235604Y166624D01*
X235594Y166573D01*
X235576Y166525D01*
X235573Y166453D01*
X235560Y166382D01*
X235567Y166331D01*
X235565Y166279D01*
X235585Y166210D01*
X235596Y166139D01*
X235619Y166093D01*
X235634Y166043D01*
X235675Y165984D01*
X235707Y165920D01*
X235744Y165883D01*
X235774Y165841D01*
X235832Y165798D01*
X235883Y165748D01*
X235946Y165713D01*
X235971Y165694D01*
X235994Y165687D01*
X236030Y165667D01*
X238478Y164652D01*
X242122Y161008D01*
X244095Y156247D01*
X244095Y151093D01*
X242122Y146332D01*
X238478Y142688D01*
X233717Y140715D01*
X228563Y140715D01*
X223802Y142688D01*
X220158Y146332D01*
X218185Y151093D01*
X218185Y156247D01*
X220158Y161008D01*
X223802Y164652D01*
X226250Y165667D01*
X226311Y165705D01*
X226377Y165734D01*
X226415Y165769D01*
X226459Y165796D01*
X226505Y165852D01*
X226558Y165900D01*
X226583Y165946D01*
X226616Y165986D01*
X226642Y166053D01*
X226676Y166116D01*
X226686Y166167D01*
X226704Y166215D01*
X226707Y166287D01*
X226720Y166358D01*
X226713Y166409D01*
X226715Y166461D01*
X226695Y166530D01*
X226684Y166601D01*
X226661Y166647D01*
X226646Y166697D01*
X226605Y166756D01*
X226573Y166820D01*
X226536Y166857D01*
X226506Y166899D01*
X226448Y166942D01*
X226397Y166992D01*
X226334Y167027D01*
X226309Y167046D01*
X226286Y167053D01*
X226250Y167073D01*
X223802Y168088D01*
X220158Y171732D01*
X218185Y176493D01*
X218185Y181647D01*
X220158Y186408D01*
X223802Y190052D01*
X226250Y191067D01*
X226311Y191105D01*
X226377Y191134D01*
X226415Y191169D01*
X226459Y191196D01*
X226505Y191252D01*
X226558Y191300D01*
X226583Y191346D01*
X226616Y191386D01*
X226642Y191453D01*
X226676Y191516D01*
X226686Y191567D01*
X226704Y191615D01*
X226707Y191687D01*
X226720Y191758D01*
X226713Y191809D01*
X226715Y191861D01*
X226695Y191930D01*
X226684Y192001D01*
X226661Y192047D01*
X226646Y192097D01*
X226605Y192156D01*
X226573Y192220D01*
X226536Y192257D01*
X226506Y192299D01*
X226448Y192342D01*
X226397Y192392D01*
X226334Y192427D01*
X226309Y192446D01*
X226286Y192453D01*
X226250Y192473D01*
X223802Y193488D01*
X220158Y197132D01*
X218185Y201893D01*
X218185Y207047D01*
X220158Y211808D01*
X223802Y215452D01*
X226250Y216467D01*
X226311Y216505D01*
X226377Y216534D01*
X226415Y216569D01*
X226459Y216596D01*
X226505Y216652D01*
X226558Y216700D01*
X226583Y216746D01*
X226616Y216786D01*
X226642Y216853D01*
X226676Y216916D01*
X226686Y216967D01*
X226704Y217015D01*
X226707Y217087D01*
X226720Y217158D01*
X226713Y217209D01*
X226715Y217261D01*
X226695Y217330D01*
X226684Y217401D01*
X226661Y217447D01*
X226646Y217497D01*
X226605Y217556D01*
X226573Y217620D01*
X226536Y217657D01*
X226506Y217699D01*
X226448Y217742D01*
X226397Y217792D01*
X226334Y217827D01*
X226309Y217846D01*
X226286Y217853D01*
X226250Y217873D01*
X223802Y218888D01*
X220158Y222532D01*
X218185Y227293D01*
X218185Y232447D01*
X220158Y237208D01*
X223802Y240852D01*
X226250Y241867D01*
X226311Y241905D01*
X226377Y241934D01*
X226415Y241969D01*
X226459Y241996D01*
X226505Y242052D01*
X226558Y242100D01*
X226583Y242146D01*
X226616Y242186D01*
X226642Y242253D01*
X226676Y242316D01*
X226686Y242367D01*
X226704Y242415D01*
X226707Y242487D01*
X226720Y242558D01*
X226713Y242609D01*
X226715Y242661D01*
X226695Y242730D01*
X226684Y242801D01*
X226661Y242847D01*
X226646Y242897D01*
X226605Y242956D01*
X226573Y243020D01*
X226536Y243057D01*
X226506Y243099D01*
X226448Y243142D01*
X226397Y243192D01*
X226334Y243227D01*
X226309Y243246D01*
X226286Y243253D01*
X226250Y243273D01*
X223802Y244288D01*
X220158Y247932D01*
X218185Y252693D01*
X218185Y257847D01*
X220158Y262608D01*
X223802Y266252D01*
X226250Y267267D01*
X226311Y267305D01*
X226377Y267334D01*
X226415Y267369D01*
X226459Y267396D01*
X226505Y267452D01*
X226558Y267500D01*
X226583Y267546D01*
X226616Y267586D01*
X226642Y267653D01*
X226676Y267716D01*
X226686Y267767D01*
X226704Y267815D01*
X226707Y267887D01*
X226720Y267958D01*
X226713Y268009D01*
X226715Y268061D01*
X226695Y268130D01*
X226684Y268201D01*
X226661Y268247D01*
X226646Y268297D01*
X226605Y268356D01*
X226573Y268420D01*
X226536Y268457D01*
X226506Y268499D01*
X226448Y268542D01*
X226397Y268592D01*
X226334Y268627D01*
X226309Y268646D01*
X226286Y268653D01*
X226250Y268673D01*
X223802Y269688D01*
X220158Y273332D01*
X218185Y278093D01*
X218185Y283247D01*
X220158Y288008D01*
X223802Y291652D01*
X226250Y292667D01*
X226311Y292705D01*
X226377Y292734D01*
X226415Y292769D01*
X226459Y292796D01*
X226505Y292852D01*
X226558Y292900D01*
X226583Y292946D01*
X226616Y292986D01*
X226642Y293053D01*
X226676Y293116D01*
X226686Y293167D01*
X226704Y293215D01*
X226707Y293287D01*
X226720Y293358D01*
X226713Y293409D01*
X226715Y293461D01*
X226695Y293530D01*
X226684Y293601D01*
X226661Y293647D01*
X226646Y293697D01*
X226605Y293756D01*
X226573Y293820D01*
X226536Y293857D01*
X226506Y293899D01*
X226448Y293942D01*
X226397Y293992D01*
X226334Y294027D01*
X226309Y294046D01*
X226286Y294053D01*
X226250Y294073D01*
X223802Y295088D01*
X220158Y298732D01*
X218185Y303493D01*
X218185Y308647D01*
X220158Y313408D01*
X223802Y317052D01*
X227644Y318644D01*
X227729Y318697D01*
X227819Y318745D01*
X227834Y318762D01*
X227853Y318773D01*
X227917Y318851D01*
X227986Y318926D01*
X227995Y318946D01*
X228009Y318963D01*
X228046Y319057D01*
X228088Y319150D01*
X228090Y319172D01*
X228098Y319193D01*
X228102Y319294D01*
X228112Y319394D01*
X228107Y319416D01*
X228108Y319438D01*
X228080Y319535D01*
X228057Y319634D01*
X228046Y319653D01*
X228040Y319675D01*
X227982Y319758D01*
X227929Y319844D01*
X227912Y319858D01*
X227899Y319877D01*
X227818Y319937D01*
X227740Y320002D01*
X227715Y320013D01*
X227702Y320023D01*
X227671Y320033D01*
X227588Y320071D01*
X226557Y320406D01*
X224883Y321259D01*
X223362Y322364D01*
X222034Y323692D01*
X220929Y325213D01*
X220076Y326887D01*
X219495Y328674D01*
X219294Y329947D01*
X230378Y329947D01*
X230398Y329950D01*
X230417Y329948D01*
X230519Y329970D01*
X230621Y329987D01*
X230638Y329996D01*
X230658Y330000D01*
X230747Y330053D01*
X230838Y330102D01*
X230852Y330116D01*
X230869Y330126D01*
X230936Y330205D01*
X231007Y330280D01*
X231016Y330298D01*
X231029Y330313D01*
X231067Y330409D01*
X231111Y330503D01*
X231113Y330523D01*
X231121Y330541D01*
X231139Y330708D01*
X231139Y332232D01*
X231136Y332252D01*
X231138Y332271D01*
X231116Y332373D01*
X231099Y332475D01*
X231090Y332492D01*
X231086Y332512D01*
X231033Y332601D01*
X230984Y332692D01*
X230970Y332706D01*
X230960Y332723D01*
X230881Y332790D01*
X230806Y332861D01*
X230788Y332870D01*
X230773Y332883D01*
X230677Y332922D01*
X230583Y332965D01*
X230563Y332967D01*
X230545Y332975D01*
X230378Y332993D01*
X219294Y332993D01*
X219495Y334266D01*
X220076Y336053D01*
X220929Y337727D01*
X222034Y339248D01*
X223362Y340576D01*
X224883Y341681D01*
X226557Y342534D01*
X227588Y342869D01*
X227678Y342915D01*
X227770Y342956D01*
X227786Y342971D01*
X227806Y342982D01*
X227877Y343054D01*
X227951Y343123D01*
X227962Y343142D01*
X227977Y343158D01*
X228021Y343250D01*
X228070Y343338D01*
X228074Y343360D01*
X228083Y343380D01*
X228095Y343481D01*
X228113Y343580D01*
X228110Y343602D01*
X228113Y343624D01*
X228092Y343723D01*
X228078Y343824D01*
X228068Y343844D01*
X228063Y343865D01*
X228012Y343953D01*
X227966Y344043D01*
X227950Y344059D01*
X227939Y344078D01*
X227863Y344144D01*
X227791Y344215D01*
X227766Y344229D01*
X227754Y344240D01*
X227724Y344252D01*
X227644Y344296D01*
X223802Y345888D01*
X220158Y349532D01*
X218185Y354293D01*
X218185Y359447D01*
X220158Y364208D01*
X223802Y367852D01*
X226250Y368867D01*
X226311Y368905D01*
X226377Y368934D01*
X226415Y368969D01*
X226459Y368996D01*
X226505Y369052D01*
X226558Y369100D01*
X226583Y369146D01*
X226616Y369186D01*
X226642Y369253D01*
X226676Y369316D01*
X226686Y369367D01*
X226704Y369415D01*
X226707Y369487D01*
X226720Y369558D01*
X226713Y369609D01*
X226715Y369661D01*
X226695Y369730D01*
X226684Y369801D01*
X226661Y369847D01*
X226646Y369897D01*
X226605Y369956D01*
X226573Y370020D01*
X226536Y370057D01*
X226506Y370099D01*
X226448Y370142D01*
X226397Y370192D01*
X226334Y370227D01*
X226309Y370246D01*
X226286Y370253D01*
X226250Y370273D01*
X223802Y371288D01*
X220158Y374932D01*
X218185Y379693D01*
X218185Y384847D01*
X219788Y388716D01*
X219810Y388811D01*
X219839Y388904D01*
X219838Y388930D01*
X219844Y388956D01*
X219835Y389053D01*
X219833Y389150D01*
X219824Y389175D01*
X219821Y389201D01*
X219782Y389290D01*
X219748Y389381D01*
X219732Y389402D01*
X219721Y389425D01*
X219655Y389497D01*
X219594Y389573D01*
X219572Y389587D01*
X219555Y389607D01*
X219469Y389654D01*
X219388Y389706D01*
X219362Y389713D01*
X219339Y389725D01*
X219243Y389743D01*
X219149Y389766D01*
X219123Y389764D01*
X219097Y389769D01*
X219001Y389755D01*
X218904Y389747D01*
X218880Y389737D01*
X218854Y389733D01*
X218767Y389689D01*
X218677Y389651D01*
X218652Y389630D01*
X218635Y389622D01*
X218611Y389598D01*
X218547Y389546D01*
X216378Y387377D01*
X216325Y387303D01*
X216265Y387234D01*
X216253Y387204D01*
X216234Y387177D01*
X216207Y387090D01*
X216173Y387006D01*
X216169Y386965D01*
X216162Y386942D01*
X216163Y386910D01*
X216155Y386839D01*
X216155Y-45209D01*
X216169Y-45299D01*
X216177Y-45390D01*
X216189Y-45420D01*
X216194Y-45452D01*
X216237Y-45532D01*
X216273Y-45616D01*
X216299Y-45648D01*
X216310Y-45669D01*
X216333Y-45691D01*
X216340Y-45700D01*
X216348Y-45714D01*
X216357Y-45721D01*
X216378Y-45747D01*
X245629Y-74999D01*
X246635Y-77426D01*
X246635Y-202689D01*
X246649Y-202779D01*
X246657Y-202870D01*
X246669Y-202900D01*
X246674Y-202932D01*
X246717Y-203012D01*
X246753Y-203096D01*
X246779Y-203128D01*
X246790Y-203149D01*
X246813Y-203171D01*
X246858Y-203227D01*
X264133Y-220502D01*
X264207Y-220555D01*
X264276Y-220615D01*
X264306Y-220627D01*
X264333Y-220646D01*
X264420Y-220673D01*
X264504Y-220707D01*
X264545Y-220711D01*
X264568Y-220718D01*
X264600Y-220717D01*
X264671Y-220725D01*
X391852Y-220725D01*
X391967Y-220706D01*
X392083Y-220689D01*
X392089Y-220687D01*
X392095Y-220686D01*
X392197Y-220631D01*
X392302Y-220578D01*
X392307Y-220573D01*
X392312Y-220570D01*
X392392Y-220486D01*
X392474Y-220402D01*
X392478Y-220396D01*
X392481Y-220392D01*
X392489Y-220375D01*
X392555Y-220255D01*
X393633Y-217654D01*
X398438Y-212848D01*
X404717Y-210248D01*
X438563Y-210248D01*
X444842Y-212848D01*
X449647Y-217654D01*
X451067Y-221082D01*
X451115Y-221159D01*
X451157Y-221241D01*
X451180Y-221263D01*
X451197Y-221291D01*
X451267Y-221349D01*
X451332Y-221413D01*
X451368Y-221433D01*
X451386Y-221448D01*
X451416Y-221459D01*
X451479Y-221494D01*
X452051Y-221731D01*
X458882Y-228561D01*
X458940Y-228603D01*
X458992Y-228652D01*
X459039Y-228674D01*
X459081Y-228705D01*
X459150Y-228726D01*
X459215Y-228756D01*
X459267Y-228762D01*
X459317Y-228777D01*
X459388Y-228775D01*
X459459Y-228783D01*
X459510Y-228772D01*
X459562Y-228771D01*
X459630Y-228746D01*
X459700Y-228731D01*
X459745Y-228704D01*
X459793Y-228686D01*
X459849Y-228641D01*
X459911Y-228605D01*
X459945Y-228565D01*
X459985Y-228533D01*
X460024Y-228472D01*
X460071Y-228418D01*
X460090Y-228369D01*
X460118Y-228326D01*
X460136Y-228256D01*
X460163Y-228190D01*
X460171Y-228118D01*
X460179Y-228087D01*
X460177Y-228064D01*
X460181Y-228023D01*
X460181Y-144780D01*
X460178Y-144760D01*
X460180Y-144741D01*
X460158Y-144639D01*
X460142Y-144537D01*
X460132Y-144520D01*
X460128Y-144500D01*
X460075Y-144411D01*
X460026Y-144320D01*
X460012Y-144306D01*
X460002Y-144289D01*
X459923Y-144222D01*
X459848Y-144150D01*
X459830Y-144142D01*
X459815Y-144129D01*
X459719Y-144090D01*
X459625Y-144047D01*
X459605Y-144045D01*
X459587Y-144037D01*
X459420Y-144019D01*
X373811Y-144019D01*
X371281Y-141489D01*
X371281Y132089D01*
X373811Y134619D01*
X459420Y134619D01*
X459440Y134622D01*
X459459Y134620D01*
X459561Y134642D01*
X459663Y134658D01*
X459680Y134668D01*
X459700Y134672D01*
X459789Y134725D01*
X459880Y134774D01*
X459894Y134788D01*
X459911Y134798D01*
X459978Y134877D01*
X460050Y134952D01*
X460058Y134970D01*
X460071Y134985D01*
X460110Y135081D01*
X460153Y135175D01*
X460155Y135195D01*
X460163Y135213D01*
X460181Y135380D01*
X460181Y272000D01*
X460180Y272008D01*
X460181Y272020D01*
X459753Y288371D01*
X459749Y288392D01*
X459749Y288430D01*
X456331Y320953D01*
X456323Y320980D01*
X456318Y321032D01*
X449519Y353019D01*
X449509Y353044D01*
X449499Y353095D01*
X439393Y384197D01*
X439381Y384221D01*
X439365Y384271D01*
X426064Y414145D01*
X426049Y414168D01*
X426028Y414216D01*
X409677Y442537D01*
X409659Y442558D01*
X409633Y442604D01*
X390412Y469060D01*
X390392Y469079D01*
X390376Y469102D01*
X390370Y469112D01*
X390367Y469115D01*
X390362Y469122D01*
X368480Y493424D01*
X368458Y493441D01*
X368424Y493480D01*
X344122Y515362D01*
X344098Y515377D01*
X344060Y515412D01*
X317604Y534633D01*
X317579Y534646D01*
X317537Y534677D01*
X289216Y551028D01*
X289191Y551037D01*
X289145Y551064D01*
X259271Y564365D01*
X259244Y564372D01*
X259197Y564393D01*
X228096Y574499D01*
X228068Y574503D01*
X228019Y574519D01*
X196032Y581318D01*
X196004Y581320D01*
X195953Y581331D01*
X163430Y584749D01*
X163408Y584748D01*
X163371Y584753D01*
X147020Y585181D01*
X147012Y585180D01*
X147000Y585181D01*
X-147000Y585181D01*
X-147008Y585180D01*
X-147020Y585181D01*
X-163371Y584753D01*
X-163392Y584749D01*
X-163430Y584749D01*
X-195953Y581331D01*
X-195980Y581323D01*
X-196032Y581318D01*
X-228019Y574519D01*
X-228044Y574509D01*
X-228095Y574499D01*
X-259197Y564393D01*
X-259221Y564381D01*
X-259271Y564365D01*
X-289145Y551064D01*
X-289168Y551049D01*
X-289216Y551028D01*
X-317537Y534677D01*
X-317558Y534659D01*
X-317604Y534633D01*
X-344060Y515412D01*
X-344079Y515392D01*
X-344122Y515362D01*
X-368424Y493480D01*
X-368441Y493458D01*
X-368480Y493424D01*
X-390362Y469122D01*
X-390377Y469098D01*
X-390412Y469060D01*
X-409633Y442604D01*
X-409646Y442579D01*
X-409677Y442537D01*
X-426028Y414216D01*
X-426037Y414191D01*
X-426064Y414145D01*
X-439365Y384271D01*
X-439372Y384244D01*
X-439393Y384197D01*
X-449499Y353096D01*
X-449503Y353068D01*
X-449519Y353019D01*
X-456318Y321032D01*
X-456320Y321004D01*
X-456331Y320953D01*
X-459749Y288430D01*
X-459748Y288408D01*
X-459753Y288371D01*
X-460181Y272020D01*
X-460180Y272012D01*
X-460181Y272000D01*
X-460181Y135380D01*
X-460178Y135360D01*
X-460180Y135341D01*
X-460158Y135239D01*
X-460142Y135137D01*
X-460132Y135120D01*
X-460128Y135100D01*
X-460075Y135011D01*
X-460026Y134920D01*
X-460012Y134906D01*
X-460002Y134889D01*
X-459923Y134822D01*
X-459848Y134750D01*
X-459830Y134742D01*
X-459815Y134729D01*
X-459719Y134690D01*
X-459625Y134647D01*
X-459605Y134645D01*
X-459587Y134637D01*
X-459420Y134619D01*
X-373811Y134619D01*
X-371281Y132089D01*
X-371281Y-141489D01*
X-373811Y-144019D01*
X-459420Y-144019D01*
X-459440Y-144022D01*
X-459459Y-144020D01*
X-459561Y-144042D01*
X-459663Y-144058D01*
X-459680Y-144068D01*
X-459700Y-144072D01*
X-459789Y-144125D01*
X-459880Y-144174D01*
X-459894Y-144188D01*
X-459911Y-144198D01*
X-459978Y-144277D01*
X-460050Y-144352D01*
X-460058Y-144370D01*
X-460071Y-144385D01*
X-460110Y-144481D01*
X-460153Y-144575D01*
X-460155Y-144595D01*
X-460163Y-144613D01*
X-460181Y-144780D01*
X-460181Y-202623D01*
X-460170Y-202694D01*
X-460168Y-202765D01*
X-460150Y-202814D01*
X-460142Y-202866D01*
X-460108Y-202929D01*
X-460083Y-202996D01*
X-460051Y-203037D01*
X-460026Y-203083D01*
X-459974Y-203132D01*
X-459930Y-203188D01*
X-459886Y-203217D01*
X-459848Y-203252D01*
X-459783Y-203283D01*
X-459723Y-203321D01*
X-459672Y-203334D01*
X-459625Y-203356D01*
X-459554Y-203364D01*
X-459484Y-203381D01*
X-459432Y-203377D01*
X-459381Y-203383D01*
X-459310Y-203368D01*
X-459239Y-203362D01*
X-459191Y-203342D01*
X-459140Y-203331D01*
X-459079Y-203294D01*
X-459013Y-203266D01*
X-458957Y-203221D01*
X-458929Y-203205D01*
X-458914Y-203187D01*
X-458882Y-203161D01*
X-452746Y-197026D01*
X-450781Y-195061D01*
X-448354Y-194055D01*
X-371351Y-194055D01*
X-371261Y-194041D01*
X-371170Y-194033D01*
X-371140Y-194021D01*
X-371108Y-194016D01*
X-371028Y-193973D01*
X-370944Y-193937D01*
X-370912Y-193911D01*
X-370891Y-193900D01*
X-370869Y-193877D01*
X-370813Y-193832D01*
X-364968Y-187987D01*
X-364915Y-187913D01*
X-364855Y-187844D01*
X-364843Y-187814D01*
X-364824Y-187787D01*
X-364797Y-187700D01*
X-364763Y-187616D01*
X-364759Y-187575D01*
X-364752Y-187552D01*
X-364753Y-187520D01*
X-364745Y-187449D01*
X-364745Y102914D01*
X-363739Y105341D01*
X-334488Y134593D01*
X-334435Y134667D01*
X-334375Y134736D01*
X-334363Y134766D01*
X-334344Y134793D01*
X-334317Y134880D01*
X-334283Y134964D01*
X-334279Y135005D01*
X-334272Y135028D01*
X-334273Y135060D01*
X-334265Y135131D01*
X-334265Y159512D01*
X-334268Y159532D01*
X-334266Y159551D01*
X-334288Y159653D01*
X-334304Y159755D01*
X-334314Y159772D01*
X-334318Y159792D01*
X-334371Y159881D01*
X-334420Y159972D01*
X-334434Y159986D01*
X-334444Y160003D01*
X-334523Y160070D01*
X-334598Y160142D01*
X-334616Y160150D01*
X-334631Y160163D01*
X-334727Y160202D01*
X-334821Y160245D01*
X-334841Y160247D01*
X-334859Y160255D01*
X-335026Y160273D01*
X-339646Y160273D01*
X-339717Y160262D01*
X-339788Y160260D01*
X-339837Y160242D01*
X-339889Y160234D01*
X-339952Y160200D01*
X-340019Y160175D01*
X-340060Y160143D01*
X-340106Y160118D01*
X-340156Y160066D01*
X-340212Y160022D01*
X-340240Y159978D01*
X-340276Y159940D01*
X-340306Y159875D01*
X-340345Y159815D01*
X-340357Y159764D01*
X-340379Y159717D01*
X-340387Y159646D01*
X-340405Y159576D01*
X-340401Y159524D01*
X-340406Y159473D01*
X-340391Y159402D01*
X-340385Y159331D01*
X-340365Y159283D01*
X-340354Y159232D01*
X-340317Y159171D01*
X-340289Y159105D01*
X-340244Y159049D01*
X-340228Y159021D01*
X-340210Y159006D01*
X-340184Y158974D01*
X-339089Y157879D01*
X-339089Y149461D01*
X-345041Y143509D01*
X-353459Y143509D01*
X-359411Y149461D01*
X-359411Y157879D01*
X-358316Y158974D01*
X-358274Y159032D01*
X-358224Y159084D01*
X-358203Y159131D01*
X-358172Y159173D01*
X-358151Y159242D01*
X-358121Y159307D01*
X-358115Y159359D01*
X-358100Y159409D01*
X-358102Y159480D01*
X-358094Y159551D01*
X-358105Y159602D01*
X-358106Y159654D01*
X-358131Y159722D01*
X-358146Y159792D01*
X-358173Y159837D01*
X-358191Y159885D01*
X-358235Y159941D01*
X-358272Y160003D01*
X-358312Y160037D01*
X-358344Y160077D01*
X-358405Y160116D01*
X-358459Y160163D01*
X-358507Y160182D01*
X-358551Y160210D01*
X-358621Y160228D01*
X-358687Y160255D01*
X-358759Y160263D01*
X-358790Y160271D01*
X-358813Y160269D01*
X-358854Y160273D01*
X-362506Y160273D01*
X-362577Y160262D01*
X-362648Y160260D01*
X-362697Y160242D01*
X-362749Y160234D01*
X-362812Y160200D01*
X-362879Y160175D01*
X-362920Y160143D01*
X-362966Y160118D01*
X-363016Y160066D01*
X-363072Y160022D01*
X-363100Y159978D01*
X-363136Y159940D01*
X-363166Y159875D01*
X-363205Y159815D01*
X-363217Y159764D01*
X-363239Y159717D01*
X-363247Y159646D01*
X-363265Y159576D01*
X-363261Y159524D01*
X-363266Y159473D01*
X-363251Y159402D01*
X-363245Y159331D01*
X-363225Y159283D01*
X-363214Y159232D01*
X-363177Y159171D01*
X-363149Y159105D01*
X-363104Y159049D01*
X-363088Y159021D01*
X-363070Y159006D01*
X-363044Y158974D01*
X-361949Y157879D01*
X-361949Y149461D01*
X-367901Y143509D01*
X-376319Y143509D01*
X-382271Y149461D01*
X-382271Y153921D01*
X-382282Y153992D01*
X-382284Y154063D01*
X-382302Y154112D01*
X-382310Y154164D01*
X-382344Y154227D01*
X-382369Y154294D01*
X-382401Y154335D01*
X-382426Y154381D01*
X-382478Y154430D01*
X-382522Y154486D01*
X-382566Y154515D01*
X-382604Y154550D01*
X-382669Y154581D01*
X-382729Y154619D01*
X-382780Y154632D01*
X-382827Y154654D01*
X-382898Y154662D01*
X-382968Y154679D01*
X-383020Y154675D01*
X-383071Y154681D01*
X-383142Y154666D01*
X-383213Y154660D01*
X-383261Y154640D01*
X-383312Y154629D01*
X-383373Y154592D01*
X-383439Y154564D01*
X-383495Y154519D01*
X-383523Y154503D01*
X-383538Y154485D01*
X-383570Y154459D01*
X-383609Y154421D01*
X-386036Y153415D01*
X-425494Y153415D01*
X-427921Y154421D01*
X-429886Y156386D01*
X-436098Y162598D01*
X-437104Y165025D01*
X-437104Y171465D01*
X-437119Y171555D01*
X-437126Y171646D01*
X-437138Y171675D01*
X-437144Y171707D01*
X-437186Y171788D01*
X-437222Y171872D01*
X-437248Y171904D01*
X-437259Y171925D01*
X-437282Y171947D01*
X-437327Y172003D01*
X-439059Y173735D01*
X-440596Y177446D01*
X-440596Y181462D01*
X-439059Y185173D01*
X-436218Y188014D01*
X-432507Y189551D01*
X-428491Y189551D01*
X-424780Y188014D01*
X-421939Y185173D01*
X-420402Y181462D01*
X-420402Y177446D01*
X-421939Y173735D01*
X-423671Y172003D01*
X-423724Y171929D01*
X-423784Y171859D01*
X-423796Y171829D01*
X-423815Y171803D01*
X-423842Y171716D01*
X-423876Y171631D01*
X-423880Y171590D01*
X-423887Y171568D01*
X-423886Y171536D01*
X-423894Y171465D01*
X-423894Y169390D01*
X-423880Y169300D01*
X-423872Y169209D01*
X-423860Y169179D01*
X-423855Y169147D01*
X-423812Y169067D01*
X-423776Y168983D01*
X-423750Y168951D01*
X-423740Y168930D01*
X-423716Y168908D01*
X-423671Y168852D01*
X-421667Y166848D01*
X-421593Y166795D01*
X-421524Y166735D01*
X-421494Y166723D01*
X-421467Y166704D01*
X-421380Y166677D01*
X-421296Y166643D01*
X-421255Y166639D01*
X-421232Y166632D01*
X-421200Y166633D01*
X-421129Y166625D01*
X-390401Y166625D01*
X-390311Y166639D01*
X-390220Y166647D01*
X-390190Y166659D01*
X-390158Y166664D01*
X-390078Y166707D01*
X-389994Y166743D01*
X-389962Y166769D01*
X-389941Y166780D01*
X-389919Y166803D01*
X-389863Y166848D01*
X-384233Y172477D01*
X-381806Y173483D01*
X-338331Y173483D01*
X-338241Y173497D01*
X-338150Y173505D01*
X-338120Y173517D01*
X-338088Y173522D01*
X-338008Y173565D01*
X-337924Y173601D01*
X-337892Y173627D01*
X-337871Y173638D01*
X-337849Y173661D01*
X-337793Y173706D01*
X-334488Y177011D01*
X-334435Y177085D01*
X-334375Y177154D01*
X-334363Y177184D01*
X-334344Y177211D01*
X-334317Y177298D01*
X-334283Y177382D01*
X-334279Y177423D01*
X-334272Y177446D01*
X-334273Y177478D01*
X-334265Y177549D01*
X-334265Y202145D01*
X-334276Y202216D01*
X-334278Y202287D01*
X-334296Y202336D01*
X-334304Y202388D01*
X-334338Y202451D01*
X-334363Y202518D01*
X-334395Y202559D01*
X-334420Y202605D01*
X-334472Y202654D01*
X-334516Y202710D01*
X-334560Y202739D01*
X-334598Y202774D01*
X-334663Y202805D01*
X-334723Y202843D01*
X-334774Y202856D01*
X-334821Y202878D01*
X-334892Y202886D01*
X-334962Y202903D01*
X-335014Y202899D01*
X-335065Y202905D01*
X-335136Y202890D01*
X-335207Y202884D01*
X-335255Y202864D01*
X-335306Y202853D01*
X-335367Y202816D01*
X-335433Y202788D01*
X-335489Y202743D01*
X-335517Y202727D01*
X-335532Y202709D01*
X-335564Y202683D01*
X-339112Y199135D01*
X-341377Y199135D01*
X-341377Y207518D01*
X-341380Y207535D01*
X-341378Y207552D01*
X-341378Y207554D01*
X-341378Y207557D01*
X-341400Y207659D01*
X-341417Y207761D01*
X-341426Y207778D01*
X-341430Y207798D01*
X-341483Y207887D01*
X-341532Y207978D01*
X-341546Y207992D01*
X-341556Y208009D01*
X-341635Y208076D01*
X-341710Y208147D01*
X-341728Y208156D01*
X-341743Y208169D01*
X-341839Y208207D01*
X-341933Y208251D01*
X-341953Y208253D01*
X-341971Y208261D01*
X-342138Y208279D01*
X-342901Y208279D01*
X-342901Y208281D01*
X-342138Y208281D01*
X-342118Y208284D01*
X-342099Y208282D01*
X-341997Y208304D01*
X-341895Y208321D01*
X-341878Y208330D01*
X-341858Y208334D01*
X-341769Y208387D01*
X-341678Y208436D01*
X-341664Y208450D01*
X-341647Y208460D01*
X-341580Y208539D01*
X-341509Y208614D01*
X-341500Y208632D01*
X-341487Y208647D01*
X-341448Y208743D01*
X-341405Y208837D01*
X-341403Y208857D01*
X-341395Y208875D01*
X-341377Y209042D01*
X-341377Y217425D01*
X-339112Y217425D01*
X-335564Y213877D01*
X-335506Y213835D01*
X-335454Y213786D01*
X-335407Y213764D01*
X-335365Y213733D01*
X-335296Y213712D01*
X-335231Y213682D01*
X-335179Y213676D01*
X-335129Y213661D01*
X-335058Y213663D01*
X-334987Y213655D01*
X-334936Y213666D01*
X-334884Y213667D01*
X-334816Y213692D01*
X-334746Y213707D01*
X-334701Y213734D01*
X-334653Y213752D01*
X-334597Y213797D01*
X-334535Y213833D01*
X-334501Y213873D01*
X-334461Y213905D01*
X-334422Y213966D01*
X-334375Y214020D01*
X-334356Y214069D01*
X-334328Y214112D01*
X-334310Y214182D01*
X-334283Y214248D01*
X-334275Y214320D01*
X-334267Y214351D01*
X-334269Y214374D01*
X-334265Y214415D01*
X-334265Y442004D01*
X-333259Y444431D01*
X-331294Y446396D01*
X-300346Y477344D01*
X-298381Y479309D01*
X-295954Y480315D01*
X-52581Y480315D01*
X-52491Y480329D01*
X-52400Y480337D01*
X-52370Y480349D01*
X-52338Y480354D01*
X-52258Y480397D01*
X-52174Y480433D01*
X-52142Y480459D01*
X-52121Y480470D01*
X-52099Y480493D01*
X-52043Y480538D01*
X-34221Y498359D01*
X-31794Y499365D01*
X-29213Y499365D01*
X-29142Y499376D01*
X-29071Y499378D01*
X-29022Y499396D01*
X-28970Y499404D01*
X-28907Y499438D01*
X-28840Y499463D01*
X-28799Y499495D01*
X-28753Y499520D01*
X-28704Y499571D01*
X-28648Y499616D01*
X-28619Y499660D01*
X-28584Y499698D01*
X-28553Y499763D01*
X-28515Y499823D01*
X-28502Y499874D01*
X-28480Y499921D01*
X-28472Y499992D01*
X-28455Y500062D01*
X-28459Y500114D01*
X-28453Y500165D01*
X-28468Y500236D01*
X-28474Y500307D01*
X-28494Y500355D01*
X-28505Y500406D01*
X-28542Y500467D01*
X-28570Y500533D01*
X-28615Y500589D01*
X-28631Y500617D01*
X-28649Y500632D01*
X-28675Y500664D01*
X-29614Y501604D01*
X-29688Y501657D01*
X-29758Y501716D01*
X-29788Y501728D01*
X-29814Y501747D01*
X-29901Y501774D01*
X-29986Y501808D01*
X-30027Y501813D01*
X-30049Y501820D01*
X-30081Y501819D01*
X-30153Y501827D01*
X-36460Y501827D01*
X-36551Y501812D01*
X-36641Y501805D01*
X-36671Y501792D01*
X-36703Y501787D01*
X-36784Y501744D01*
X-36868Y501709D01*
X-36900Y501683D01*
X-36921Y501672D01*
X-36943Y501649D01*
X-36999Y501604D01*
X-38731Y499872D01*
X-42442Y498335D01*
X-46458Y498335D01*
X-50169Y499872D01*
X-53010Y502712D01*
X-54547Y506423D01*
X-54547Y510440D01*
X-53010Y514151D01*
X-50169Y516991D01*
X-46458Y518528D01*
X-42442Y518528D01*
X-38731Y516991D01*
X-36999Y515259D01*
X-36925Y515206D01*
X-36855Y515147D01*
X-36825Y515134D01*
X-36799Y515116D01*
X-36712Y515089D01*
X-36627Y515055D01*
X-36586Y515050D01*
X-36564Y515043D01*
X-36532Y515044D01*
X-36460Y515036D01*
X-25788Y515036D01*
X-23360Y514031D01*
X-21395Y512066D01*
X-8917Y499588D01*
X-8843Y499535D01*
X-8774Y499475D01*
X-8744Y499463D01*
X-8717Y499444D01*
X-8631Y499417D01*
X-8546Y499383D01*
X-8505Y499379D01*
X-8482Y499372D01*
X-8450Y499373D01*
X-8379Y499365D01*
X36707Y499365D01*
X36802Y499380D01*
X36897Y499389D01*
X36922Y499400D01*
X36950Y499404D01*
X37034Y499449D01*
X37122Y499487D01*
X37143Y499506D01*
X37168Y499520D01*
X37233Y499589D01*
X37304Y499653D01*
X37318Y499677D01*
X37337Y499698D01*
X37377Y499784D01*
X37424Y499868D01*
X37429Y499895D01*
X37441Y499921D01*
X37451Y500016D01*
X37469Y500109D01*
X37465Y500137D01*
X37468Y500165D01*
X37447Y500259D01*
X37434Y500353D01*
X37420Y500385D01*
X37415Y500406D01*
X37399Y500434D01*
X37367Y500507D01*
X31699Y510323D01*
X32462Y513169D01*
X46341Y521182D01*
X49187Y520419D01*
X57201Y506540D01*
X56438Y503694D01*
X51400Y500785D01*
X51363Y500755D01*
X51320Y500732D01*
X51268Y500677D01*
X51209Y500629D01*
X51184Y500589D01*
X51151Y500554D01*
X51119Y500485D01*
X51079Y500421D01*
X51067Y500374D01*
X51047Y500331D01*
X51039Y500256D01*
X51021Y500182D01*
X51025Y500134D01*
X51020Y500087D01*
X51036Y500012D01*
X51043Y499937D01*
X51062Y499893D01*
X51072Y499846D01*
X51111Y499781D01*
X51142Y499712D01*
X51174Y499676D01*
X51199Y499635D01*
X51256Y499586D01*
X51307Y499530D01*
X51349Y499506D01*
X51385Y499475D01*
X51456Y499447D01*
X51522Y499410D01*
X51569Y499401D01*
X51614Y499383D01*
X51742Y499369D01*
X51764Y499365D01*
X51770Y499366D01*
X51780Y499365D01*
X73704Y499365D01*
X76131Y498359D01*
X92683Y481808D01*
X92757Y481755D01*
X92826Y481695D01*
X92856Y481683D01*
X92883Y481664D01*
X92970Y481637D01*
X93054Y481603D01*
X93095Y481599D01*
X93118Y481592D01*
X93150Y481593D01*
X93221Y481585D01*
X130887Y481585D01*
X130911Y481589D01*
X130935Y481586D01*
X131032Y481608D01*
X131130Y481624D01*
X131151Y481636D01*
X131174Y481641D01*
X131259Y481693D01*
X131347Y481740D01*
X131364Y481757D01*
X131384Y481770D01*
X131387Y481773D01*
X131408Y481750D01*
X131450Y481726D01*
X131487Y481695D01*
X131557Y481667D01*
X131623Y481630D01*
X131670Y481621D01*
X131715Y481603D01*
X131843Y481589D01*
X131865Y481585D01*
X131872Y481586D01*
X131882Y481585D01*
X308654Y481585D01*
X311081Y480579D01*
X336015Y455646D01*
X336089Y455593D01*
X336158Y455533D01*
X336188Y455521D01*
X336215Y455502D01*
X336302Y455475D01*
X336386Y455441D01*
X336427Y455437D01*
X336450Y455430D01*
X336482Y455431D01*
X336553Y455423D01*
X340548Y455423D01*
X346203Y449768D01*
X346203Y441772D01*
X340548Y436117D01*
X332552Y436117D01*
X326897Y441772D01*
X326897Y445767D01*
X326883Y445857D01*
X326875Y445948D01*
X326863Y445978D01*
X326858Y446010D01*
X326815Y446090D01*
X326779Y446174D01*
X326753Y446206D01*
X326742Y446227D01*
X326719Y446249D01*
X326708Y446263D01*
X326701Y446274D01*
X326694Y446281D01*
X326674Y446305D01*
X304827Y468152D01*
X304753Y468205D01*
X304684Y468265D01*
X304654Y468277D01*
X304627Y468296D01*
X304540Y468323D01*
X304456Y468357D01*
X304415Y468361D01*
X304392Y468368D01*
X304360Y468367D01*
X304289Y468375D01*
X175148Y468375D01*
X175124Y468371D01*
X175100Y468374D01*
X175055Y468363D01*
X174986Y468371D01*
X174964Y468375D01*
X174958Y468374D01*
X174948Y468375D01*
X139652Y468375D01*
X139581Y468364D01*
X139510Y468362D01*
X139461Y468344D01*
X139409Y468336D01*
X139346Y468302D01*
X139279Y468277D01*
X139238Y468245D01*
X139192Y468220D01*
X139142Y468168D01*
X139086Y468124D01*
X139058Y468080D01*
X139022Y468042D01*
X138992Y467977D01*
X138953Y467917D01*
X138941Y467866D01*
X138919Y467819D01*
X138911Y467748D01*
X138893Y467678D01*
X138897Y467626D01*
X138892Y467575D01*
X138907Y467504D01*
X138913Y467433D01*
X138933Y467385D01*
X138944Y467334D01*
X138981Y467273D01*
X139009Y467207D01*
X139054Y467151D01*
X139070Y467123D01*
X139088Y467108D01*
X139114Y467076D01*
X144781Y461409D01*
X144781Y452991D01*
X138829Y447039D01*
X130411Y447039D01*
X124459Y452991D01*
X124459Y461409D01*
X130126Y467076D01*
X130168Y467134D01*
X130218Y467186D01*
X130239Y467233D01*
X130270Y467275D01*
X130291Y467344D01*
X130321Y467409D01*
X130327Y467461D01*
X130342Y467511D01*
X130340Y467582D01*
X130348Y467653D01*
X130337Y467704D01*
X130336Y467756D01*
X130311Y467824D01*
X130296Y467894D01*
X130269Y467939D01*
X130251Y467987D01*
X130207Y468043D01*
X130170Y468105D01*
X130130Y468139D01*
X130098Y468179D01*
X130037Y468218D01*
X129983Y468265D01*
X129935Y468284D01*
X129891Y468312D01*
X129821Y468330D01*
X129755Y468357D01*
X129683Y468365D01*
X129652Y468373D01*
X129629Y468371D01*
X129588Y468375D01*
X107953Y468375D01*
X107882Y468364D01*
X107811Y468362D01*
X107762Y468344D01*
X107710Y468336D01*
X107647Y468302D01*
X107580Y468277D01*
X107539Y468245D01*
X107493Y468220D01*
X107444Y468168D01*
X107388Y468124D01*
X107359Y468080D01*
X107324Y468042D01*
X107293Y467977D01*
X107255Y467917D01*
X107242Y467866D01*
X107220Y467819D01*
X107212Y467748D01*
X107195Y467678D01*
X107199Y467626D01*
X107193Y467575D01*
X107208Y467504D01*
X107214Y467433D01*
X107234Y467385D01*
X107245Y467334D01*
X107282Y467273D01*
X107310Y467207D01*
X107355Y467151D01*
X107371Y467123D01*
X107389Y467108D01*
X107415Y467076D01*
X157999Y416491D01*
X159005Y414064D01*
X159005Y405398D01*
X159008Y405378D01*
X159006Y405359D01*
X159028Y405257D01*
X159044Y405155D01*
X159054Y405138D01*
X159058Y405118D01*
X159111Y405029D01*
X159160Y404938D01*
X159174Y404924D01*
X159184Y404907D01*
X159263Y404840D01*
X159338Y404768D01*
X159356Y404760D01*
X159371Y404747D01*
X159467Y404708D01*
X159561Y404665D01*
X159581Y404663D01*
X159599Y404655D01*
X159766Y404637D01*
X168873Y404637D01*
X170957Y402553D01*
X170957Y369607D01*
X168873Y367523D01*
X135927Y367523D01*
X133843Y369607D01*
X133843Y402553D01*
X135927Y404637D01*
X145034Y404637D01*
X145054Y404640D01*
X145073Y404638D01*
X145175Y404660D01*
X145277Y404676D01*
X145294Y404686D01*
X145314Y404690D01*
X145403Y404743D01*
X145494Y404792D01*
X145508Y404806D01*
X145525Y404816D01*
X145592Y404895D01*
X145664Y404970D01*
X145672Y404988D01*
X145685Y405003D01*
X145724Y405099D01*
X145767Y405193D01*
X145769Y405213D01*
X145777Y405231D01*
X145795Y405398D01*
X145795Y409699D01*
X145781Y409789D01*
X145773Y409880D01*
X145761Y409910D01*
X145756Y409942D01*
X145713Y410022D01*
X145677Y410106D01*
X145651Y410138D01*
X145640Y410159D01*
X145617Y410181D01*
X145572Y410237D01*
X69877Y485932D01*
X69803Y485985D01*
X69734Y486045D01*
X69704Y486057D01*
X69677Y486076D01*
X69590Y486103D01*
X69506Y486137D01*
X69465Y486141D01*
X69442Y486148D01*
X69410Y486147D01*
X69339Y486155D01*
X6302Y486155D01*
X6231Y486144D01*
X6160Y486142D01*
X6111Y486124D01*
X6059Y486116D01*
X5996Y486082D01*
X5929Y486057D01*
X5888Y486025D01*
X5842Y486000D01*
X5792Y485948D01*
X5736Y485904D01*
X5708Y485860D01*
X5672Y485822D01*
X5642Y485757D01*
X5603Y485697D01*
X5591Y485646D01*
X5569Y485599D01*
X5561Y485528D01*
X5543Y485458D01*
X5547Y485406D01*
X5542Y485355D01*
X5557Y485284D01*
X5563Y485213D01*
X5583Y485165D01*
X5594Y485114D01*
X5631Y485053D01*
X5659Y484987D01*
X5704Y484931D01*
X5720Y484903D01*
X5738Y484888D01*
X5744Y484880D01*
X5746Y484878D01*
X5747Y484876D01*
X5764Y484856D01*
X10161Y480459D01*
X10161Y472041D01*
X4209Y466089D01*
X-4209Y466089D01*
X-10161Y472041D01*
X-10161Y480459D01*
X-5764Y484856D01*
X-5722Y484914D01*
X-5672Y484966D01*
X-5651Y485013D01*
X-5620Y485055D01*
X-5599Y485124D01*
X-5569Y485189D01*
X-5563Y485241D01*
X-5548Y485291D01*
X-5550Y485362D01*
X-5542Y485433D01*
X-5553Y485484D01*
X-5554Y485536D01*
X-5579Y485604D01*
X-5594Y485674D01*
X-5621Y485719D01*
X-5639Y485767D01*
X-5683Y485823D01*
X-5720Y485885D01*
X-5760Y485919D01*
X-5792Y485959D01*
X-5853Y485998D01*
X-5907Y486045D01*
X-5955Y486064D01*
X-5999Y486092D01*
X-6069Y486110D01*
X-6135Y486137D01*
X-6207Y486145D01*
X-6238Y486153D01*
X-6261Y486151D01*
X-6302Y486155D01*
X-27429Y486155D01*
X-27519Y486141D01*
X-27610Y486133D01*
X-27640Y486121D01*
X-27672Y486116D01*
X-27752Y486073D01*
X-27836Y486037D01*
X-27868Y486011D01*
X-27889Y486000D01*
X-27911Y485977D01*
X-27913Y485976D01*
X-27915Y485975D01*
X-27917Y485973D01*
X-27967Y485932D01*
X-45789Y468111D01*
X-48216Y467105D01*
X-52118Y467105D01*
X-52189Y467094D01*
X-52260Y467092D01*
X-52309Y467074D01*
X-52361Y467066D01*
X-52424Y467032D01*
X-52491Y467007D01*
X-52532Y466975D01*
X-52578Y466950D01*
X-52628Y466898D01*
X-52684Y466854D01*
X-52712Y466810D01*
X-52748Y466772D01*
X-52778Y466707D01*
X-52817Y466647D01*
X-52829Y466596D01*
X-52851Y466549D01*
X-52859Y466478D01*
X-52877Y466408D01*
X-52873Y466356D01*
X-52878Y466305D01*
X-52863Y466234D01*
X-52857Y466163D01*
X-52837Y466115D01*
X-52826Y466064D01*
X-52789Y466003D01*
X-52761Y465937D01*
X-52716Y465881D01*
X-52700Y465853D01*
X-52694Y465848D01*
X-52693Y465846D01*
X-52680Y465835D01*
X-52656Y465806D01*
X-48259Y461409D01*
X-48259Y452991D01*
X-54211Y447039D01*
X-62629Y447039D01*
X-68581Y452991D01*
X-68581Y461409D01*
X-64184Y465806D01*
X-64142Y465864D01*
X-64092Y465916D01*
X-64071Y465963D01*
X-64040Y466005D01*
X-64019Y466074D01*
X-63989Y466139D01*
X-63983Y466191D01*
X-63968Y466241D01*
X-63970Y466312D01*
X-63962Y466383D01*
X-63973Y466434D01*
X-63974Y466486D01*
X-63999Y466554D01*
X-64014Y466624D01*
X-64041Y466669D01*
X-64059Y466717D01*
X-64103Y466773D01*
X-64140Y466835D01*
X-64180Y466869D01*
X-64212Y466909D01*
X-64273Y466948D01*
X-64327Y466995D01*
X-64375Y467014D01*
X-64419Y467042D01*
X-64489Y467060D01*
X-64555Y467087D01*
X-64627Y467095D01*
X-64658Y467103D01*
X-64681Y467101D01*
X-64722Y467105D01*
X-128318Y467105D01*
X-128389Y467094D01*
X-128460Y467092D01*
X-128509Y467074D01*
X-128561Y467066D01*
X-128624Y467032D01*
X-128691Y467007D01*
X-128732Y466975D01*
X-128778Y466950D01*
X-128828Y466898D01*
X-128884Y466854D01*
X-128912Y466810D01*
X-128948Y466772D01*
X-128978Y466707D01*
X-129017Y466647D01*
X-129029Y466596D01*
X-129051Y466549D01*
X-129059Y466478D01*
X-129077Y466408D01*
X-129073Y466356D01*
X-129078Y466305D01*
X-129063Y466234D01*
X-129057Y466163D01*
X-129037Y466115D01*
X-129026Y466064D01*
X-128989Y466003D01*
X-128961Y465937D01*
X-128916Y465881D01*
X-128900Y465853D01*
X-128894Y465848D01*
X-128893Y465846D01*
X-128880Y465835D01*
X-128856Y465806D01*
X-124459Y461409D01*
X-124459Y452991D01*
X-130411Y447039D01*
X-138829Y447039D01*
X-144781Y452991D01*
X-144781Y461409D01*
X-140384Y465806D01*
X-140342Y465864D01*
X-140292Y465916D01*
X-140271Y465963D01*
X-140240Y466005D01*
X-140219Y466074D01*
X-140189Y466139D01*
X-140183Y466191D01*
X-140168Y466241D01*
X-140170Y466312D01*
X-140162Y466383D01*
X-140173Y466434D01*
X-140174Y466486D01*
X-140199Y466554D01*
X-140214Y466624D01*
X-140241Y466669D01*
X-140259Y466717D01*
X-140303Y466773D01*
X-140340Y466835D01*
X-140380Y466869D01*
X-140412Y466909D01*
X-140473Y466948D01*
X-140527Y466995D01*
X-140575Y467014D01*
X-140619Y467042D01*
X-140689Y467060D01*
X-140755Y467087D01*
X-140827Y467095D01*
X-140858Y467103D01*
X-140881Y467101D01*
X-140922Y467105D01*
X-172748Y467105D01*
X-172795Y467098D01*
X-172843Y467099D01*
X-172916Y467078D01*
X-172991Y467066D01*
X-173033Y467043D01*
X-173079Y467029D01*
X-173141Y466986D01*
X-173208Y466950D01*
X-173241Y466916D01*
X-173281Y466888D01*
X-173325Y466827D01*
X-173378Y466772D01*
X-173398Y466729D01*
X-173426Y466690D01*
X-173449Y466618D01*
X-173481Y466549D01*
X-173487Y466501D01*
X-173501Y466456D01*
X-173500Y466380D01*
X-173508Y466305D01*
X-173498Y466258D01*
X-173497Y466210D01*
X-173472Y466138D01*
X-173456Y466064D01*
X-173431Y466023D01*
X-173415Y465978D01*
X-173369Y465918D01*
X-173330Y465853D01*
X-173294Y465822D01*
X-173264Y465784D01*
X-173160Y465708D01*
X-173143Y465693D01*
X-173137Y465691D01*
X-173133Y465688D01*
X-173131Y465686D01*
X-173129Y465685D01*
X-167829Y462625D01*
X-165651Y454494D01*
X-169859Y447205D01*
X-177990Y445026D01*
X-185280Y449235D01*
X-187458Y457366D01*
X-183250Y464655D01*
X-179691Y465609D01*
X-179678Y465615D01*
X-179670Y465616D01*
X-179663Y465620D01*
X-179645Y465623D01*
X-179557Y465669D01*
X-179467Y465710D01*
X-179449Y465726D01*
X-179428Y465738D01*
X-179359Y465810D01*
X-179286Y465877D01*
X-179275Y465898D01*
X-179258Y465916D01*
X-179217Y466006D01*
X-179169Y466093D01*
X-179165Y466117D01*
X-179155Y466139D01*
X-179144Y466238D01*
X-179127Y466336D01*
X-179130Y466360D01*
X-179128Y466383D01*
X-179149Y466481D01*
X-179164Y466579D01*
X-179175Y466600D01*
X-179180Y466624D01*
X-179231Y466709D01*
X-179276Y466798D01*
X-179294Y466814D01*
X-179306Y466835D01*
X-179382Y466900D01*
X-179453Y466969D01*
X-179475Y466979D01*
X-179493Y466995D01*
X-179586Y467032D01*
X-179675Y467075D01*
X-179699Y467078D01*
X-179721Y467087D01*
X-179888Y467105D01*
X-291589Y467105D01*
X-291679Y467091D01*
X-291770Y467083D01*
X-291800Y467071D01*
X-291832Y467066D01*
X-291912Y467023D01*
X-291996Y466987D01*
X-292028Y466961D01*
X-292049Y466950D01*
X-292055Y466944D01*
X-292056Y466944D01*
X-292073Y466926D01*
X-292127Y466882D01*
X-320832Y438177D01*
X-320885Y438103D01*
X-320945Y438034D01*
X-320957Y438004D01*
X-320976Y437977D01*
X-321003Y437891D01*
X-321037Y437806D01*
X-321041Y437765D01*
X-321048Y437742D01*
X-321047Y437710D01*
X-321055Y437639D01*
X-321055Y261572D01*
X-321044Y261501D01*
X-321042Y261430D01*
X-321024Y261381D01*
X-321016Y261329D01*
X-320982Y261266D01*
X-320957Y261199D01*
X-320925Y261158D01*
X-320900Y261112D01*
X-320848Y261062D01*
X-320804Y261006D01*
X-320760Y260978D01*
X-320722Y260942D01*
X-320657Y260912D01*
X-320597Y260873D01*
X-320546Y260861D01*
X-320499Y260839D01*
X-320428Y260831D01*
X-320358Y260813D01*
X-320306Y260817D01*
X-320255Y260812D01*
X-320184Y260827D01*
X-320113Y260833D01*
X-320065Y260853D01*
X-320014Y260864D01*
X-319953Y260901D01*
X-319887Y260929D01*
X-319831Y260974D01*
X-319803Y260990D01*
X-319788Y261008D01*
X-319756Y261034D01*
X-315359Y265431D01*
X-306941Y265431D01*
X-300989Y259479D01*
X-300989Y251061D01*
X-306941Y245109D01*
X-315359Y245109D01*
X-319756Y249506D01*
X-319814Y249548D01*
X-319866Y249598D01*
X-319913Y249619D01*
X-319955Y249650D01*
X-320024Y249671D01*
X-320089Y249701D01*
X-320141Y249707D01*
X-320191Y249722D01*
X-320262Y249720D01*
X-320333Y249728D01*
X-320384Y249717D01*
X-320436Y249716D01*
X-320504Y249691D01*
X-320574Y249676D01*
X-320619Y249649D01*
X-320667Y249631D01*
X-320723Y249587D01*
X-320785Y249550D01*
X-320819Y249510D01*
X-320859Y249478D01*
X-320898Y249417D01*
X-320945Y249363D01*
X-320964Y249315D01*
X-320992Y249271D01*
X-321010Y249201D01*
X-321037Y249135D01*
X-321045Y249063D01*
X-321053Y249032D01*
X-321051Y249009D01*
X-321055Y248968D01*
X-321055Y183935D01*
X-321044Y183864D01*
X-321042Y183793D01*
X-321024Y183744D01*
X-321016Y183692D01*
X-320982Y183629D01*
X-320957Y183562D01*
X-320925Y183521D01*
X-320900Y183475D01*
X-320848Y183426D01*
X-320804Y183370D01*
X-320760Y183341D01*
X-320722Y183306D01*
X-320657Y183275D01*
X-320597Y183237D01*
X-320546Y183224D01*
X-320499Y183202D01*
X-320428Y183194D01*
X-320358Y183177D01*
X-320306Y183181D01*
X-320255Y183175D01*
X-320184Y183190D01*
X-320113Y183196D01*
X-320065Y183216D01*
X-320014Y183227D01*
X-319953Y183264D01*
X-319887Y183292D01*
X-319831Y183337D01*
X-319803Y183353D01*
X-319788Y183371D01*
X-319756Y183397D01*
X-314938Y188215D01*
X-312673Y188215D01*
X-312673Y179832D01*
X-312670Y179812D01*
X-312672Y179793D01*
X-312650Y179691D01*
X-312633Y179589D01*
X-312624Y179572D01*
X-312620Y179552D01*
X-312567Y179463D01*
X-312518Y179372D01*
X-312504Y179358D01*
X-312494Y179341D01*
X-312415Y179274D01*
X-312340Y179203D01*
X-312322Y179194D01*
X-312307Y179181D01*
X-312211Y179143D01*
X-312117Y179099D01*
X-312097Y179097D01*
X-312079Y179089D01*
X-311912Y179071D01*
X-311149Y179071D01*
X-311149Y179069D01*
X-311912Y179069D01*
X-311932Y179066D01*
X-311951Y179068D01*
X-312053Y179046D01*
X-312155Y179029D01*
X-312172Y179020D01*
X-312192Y179016D01*
X-312281Y178963D01*
X-312372Y178914D01*
X-312386Y178900D01*
X-312403Y178890D01*
X-312470Y178811D01*
X-312541Y178736D01*
X-312550Y178718D01*
X-312563Y178703D01*
X-312602Y178607D01*
X-312645Y178513D01*
X-312647Y178493D01*
X-312655Y178475D01*
X-312673Y178308D01*
X-312673Y169925D01*
X-314938Y169925D01*
X-319756Y174743D01*
X-319814Y174785D01*
X-319866Y174834D01*
X-319913Y174856D01*
X-319955Y174887D01*
X-320024Y174908D01*
X-320089Y174938D01*
X-320141Y174944D01*
X-320191Y174959D01*
X-320262Y174957D01*
X-320333Y174965D01*
X-320384Y174954D01*
X-320436Y174953D01*
X-320504Y174928D01*
X-320574Y174913D01*
X-320619Y174886D01*
X-320667Y174868D01*
X-320723Y174823D01*
X-320785Y174787D01*
X-320819Y174747D01*
X-320859Y174715D01*
X-320898Y174654D01*
X-320945Y174600D01*
X-320964Y174551D01*
X-320992Y174508D01*
X-321010Y174438D01*
X-321037Y174372D01*
X-321045Y174300D01*
X-321053Y174269D01*
X-321051Y174246D01*
X-321055Y174205D01*
X-321055Y130766D01*
X-322061Y128339D01*
X-351312Y99087D01*
X-351365Y99013D01*
X-351425Y98944D01*
X-351437Y98914D01*
X-351456Y98887D01*
X-351483Y98800D01*
X-351517Y98716D01*
X-351521Y98675D01*
X-351528Y98652D01*
X-351527Y98620D01*
X-351535Y98549D01*
X-351535Y-191814D01*
X-352541Y-194241D01*
X-354506Y-196206D01*
X-362594Y-204294D01*
X-364559Y-206259D01*
X-366986Y-207265D01*
X-443989Y-207265D01*
X-444079Y-207279D01*
X-444170Y-207287D01*
X-444200Y-207299D01*
X-444232Y-207304D01*
X-444312Y-207347D01*
X-444396Y-207383D01*
X-444428Y-207409D01*
X-444449Y-207420D01*
X-444469Y-207441D01*
X-444472Y-207442D01*
X-444476Y-207447D01*
X-444527Y-207488D01*
X-451322Y-214283D01*
X-451375Y-214357D01*
X-451435Y-214426D01*
X-451447Y-214456D01*
X-451466Y-214483D01*
X-451493Y-214570D01*
X-451527Y-214654D01*
X-451531Y-214695D01*
X-451538Y-214718D01*
X-451537Y-214750D01*
X-451545Y-214821D01*
X-451545Y-218409D01*
X-451530Y-218505D01*
X-451520Y-218602D01*
X-451510Y-218626D01*
X-451506Y-218652D01*
X-451460Y-218738D01*
X-451420Y-218827D01*
X-451403Y-218846D01*
X-451390Y-218869D01*
X-451320Y-218936D01*
X-451254Y-219008D01*
X-451231Y-219021D01*
X-451212Y-219039D01*
X-451124Y-219080D01*
X-451038Y-219127D01*
X-451013Y-219131D01*
X-450989Y-219142D01*
X-450892Y-219153D01*
X-450796Y-219170D01*
X-450770Y-219167D01*
X-450745Y-219169D01*
X-450650Y-219149D01*
X-450553Y-219135D01*
X-450530Y-219123D01*
X-450504Y-219117D01*
X-450420Y-219067D01*
X-450334Y-219023D01*
X-450316Y-219004D01*
X-450293Y-218991D01*
X-450230Y-218917D01*
X-450162Y-218847D01*
X-450146Y-218819D01*
X-450133Y-218804D01*
X-450121Y-218773D01*
X-450081Y-218701D01*
X-449647Y-217654D01*
X-444842Y-212848D01*
X-438563Y-210248D01*
X-404717Y-210248D01*
X-398438Y-212848D01*
X-393633Y-217654D01*
X-392555Y-220255D01*
X-392494Y-220355D01*
X-392434Y-220455D01*
X-392429Y-220459D01*
X-392426Y-220464D01*
X-392336Y-220539D01*
X-392247Y-220615D01*
X-392241Y-220617D01*
X-392236Y-220621D01*
X-392128Y-220663D01*
X-392019Y-220707D01*
X-392011Y-220708D01*
X-392007Y-220709D01*
X-391988Y-220710D01*
X-391852Y-220725D01*
X-315471Y-220725D01*
X-315381Y-220711D01*
X-315290Y-220703D01*
X-315260Y-220691D01*
X-315228Y-220686D01*
X-315148Y-220643D01*
X-315064Y-220607D01*
X-315032Y-220581D01*
X-315011Y-220570D01*
X-314989Y-220547D01*
X-314933Y-220502D01*
X-287498Y-193067D01*
X-287445Y-192993D01*
X-287385Y-192924D01*
X-287373Y-192894D01*
X-287354Y-192867D01*
X-287327Y-192780D01*
X-287293Y-192696D01*
X-287289Y-192655D01*
X-287282Y-192632D01*
X-287283Y-192600D01*
X-287275Y-192529D01*
X-287275Y55924D01*
X-286269Y58351D01*
X-192248Y152373D01*
X-192195Y152447D01*
X-192135Y152516D01*
X-192123Y152546D01*
X-192104Y152573D01*
X-192077Y152660D01*
X-192043Y152744D01*
X-192039Y152785D01*
X-192032Y152808D01*
X-192033Y152840D01*
X-192025Y152911D01*
X-192025Y354374D01*
X-191019Y356801D01*
X-189054Y358766D01*
X-171180Y376641D01*
X-171127Y376715D01*
X-171067Y376784D01*
X-171055Y376814D01*
X-171036Y376841D01*
X-171009Y376927D01*
X-170975Y377012D01*
X-170971Y377053D01*
X-170964Y377076D01*
X-170965Y377108D01*
X-170957Y377179D01*
X-170957Y402553D01*
X-168873Y404637D01*
X-135927Y404637D01*
X-133843Y402553D01*
X-133843Y369607D01*
X-135927Y367523D01*
X-161301Y367523D01*
X-161391Y367509D01*
X-161482Y367501D01*
X-161512Y367489D01*
X-161544Y367484D01*
X-161624Y367441D01*
X-161708Y367405D01*
X-161740Y367379D01*
X-161761Y367368D01*
X-161783Y367345D01*
X-161839Y367300D01*
X-178592Y350547D01*
X-178645Y350473D01*
X-178705Y350404D01*
X-178717Y350374D01*
X-178736Y350347D01*
X-178763Y350260D01*
X-178797Y350176D01*
X-178801Y350135D01*
X-178808Y350112D01*
X-178807Y350080D01*
X-178815Y350009D01*
X-178815Y148546D01*
X-179821Y146119D01*
X-273842Y52097D01*
X-273895Y52023D01*
X-273955Y51954D01*
X-273967Y51924D01*
X-273986Y51897D01*
X-274013Y51810D01*
X-274047Y51726D01*
X-274051Y51685D01*
X-274058Y51662D01*
X-274057Y51630D01*
X-274065Y51559D01*
X-274065Y-196894D01*
X-275071Y-199321D01*
X-308679Y-232929D01*
X-311106Y-233935D01*
X-391852Y-233935D01*
X-391967Y-233954D01*
X-392083Y-233971D01*
X-392089Y-233973D01*
X-392095Y-233974D01*
X-392197Y-234029D01*
X-392302Y-234082D01*
X-392307Y-234087D01*
X-392312Y-234090D01*
X-392392Y-234174D01*
X-392474Y-234258D01*
X-392478Y-234264D01*
X-392481Y-234268D01*
X-392489Y-234285D01*
X-392555Y-234405D01*
X-393633Y-237006D01*
X-398438Y-241812D01*
X-402251Y-243391D01*
X-402333Y-243442D01*
X-402419Y-243488D01*
X-402437Y-243507D01*
X-402460Y-243520D01*
X-402522Y-243595D01*
X-402589Y-243666D01*
X-402600Y-243690D01*
X-402616Y-243710D01*
X-402651Y-243801D01*
X-402692Y-243889D01*
X-402695Y-243915D01*
X-402705Y-243939D01*
X-402709Y-244037D01*
X-402719Y-244133D01*
X-402714Y-244159D01*
X-402715Y-244185D01*
X-402688Y-244279D01*
X-402667Y-244374D01*
X-402654Y-244396D01*
X-402646Y-244421D01*
X-402591Y-244501D01*
X-402541Y-244585D01*
X-402521Y-244602D01*
X-402506Y-244623D01*
X-402428Y-244682D01*
X-402354Y-244745D01*
X-402330Y-244755D01*
X-402309Y-244770D01*
X-402216Y-244800D01*
X-402126Y-244837D01*
X-402093Y-244840D01*
X-402075Y-244846D01*
X-402042Y-244846D01*
X-401959Y-244855D01*
X-107191Y-244855D01*
X-107101Y-244841D01*
X-107010Y-244833D01*
X-106980Y-244821D01*
X-106948Y-244816D01*
X-106868Y-244773D01*
X-106784Y-244737D01*
X-106752Y-244711D01*
X-106731Y-244700D01*
X-106709Y-244677D01*
X-106653Y-244632D01*
X-76678Y-214657D01*
X-76633Y-214595D01*
X-76606Y-214567D01*
X-76601Y-214556D01*
X-76565Y-214514D01*
X-76553Y-214484D01*
X-76534Y-214457D01*
X-76507Y-214370D01*
X-76473Y-214286D01*
X-76469Y-214245D01*
X-76462Y-214222D01*
X-76463Y-214190D01*
X-76455Y-214119D01*
X-76455Y49574D01*
X-75449Y52001D01*
X-60891Y66559D01*
X-58464Y67565D01*
X50289Y67565D01*
X50379Y67579D01*
X50470Y67587D01*
X50500Y67599D01*
X50532Y67604D01*
X50612Y67647D01*
X50696Y67683D01*
X50728Y67709D01*
X50749Y67720D01*
X50771Y67743D01*
X50827Y67788D01*
X56672Y73633D01*
X56725Y73707D01*
X56785Y73776D01*
X56797Y73806D01*
X56816Y73833D01*
X56843Y73920D01*
X56877Y74004D01*
X56881Y74045D01*
X56888Y74068D01*
X56887Y74100D01*
X56895Y74171D01*
X56895Y75686D01*
X56881Y75776D01*
X56873Y75867D01*
X56861Y75897D01*
X56856Y75929D01*
X56813Y76010D01*
X56777Y76094D01*
X56751Y76126D01*
X56740Y76146D01*
X56717Y76169D01*
X56672Y76225D01*
X52403Y80494D01*
X52403Y89686D01*
X58904Y96187D01*
X68096Y96187D01*
X74597Y89686D01*
X74597Y80494D01*
X70328Y76225D01*
X70275Y76151D01*
X70215Y76081D01*
X70203Y76051D01*
X70184Y76025D01*
X70157Y75938D01*
X70123Y75853D01*
X70119Y75812D01*
X70112Y75790D01*
X70113Y75758D01*
X70105Y75686D01*
X70105Y69806D01*
X69099Y67379D01*
X57081Y55361D01*
X54654Y54355D01*
X-54099Y54355D01*
X-54189Y54341D01*
X-54280Y54333D01*
X-54310Y54321D01*
X-54342Y54316D01*
X-54422Y54273D01*
X-54506Y54237D01*
X-54538Y54211D01*
X-54559Y54200D01*
X-54581Y54177D01*
X-54637Y54132D01*
X-63022Y45747D01*
X-63075Y45673D01*
X-63135Y45604D01*
X-63147Y45574D01*
X-63166Y45547D01*
X-63193Y45460D01*
X-63227Y45376D01*
X-63231Y45335D01*
X-63238Y45312D01*
X-63237Y45280D01*
X-63245Y45209D01*
X-63245Y-218484D01*
X-64251Y-220911D01*
X-98434Y-255094D01*
X-100399Y-257059D01*
X-102826Y-258065D01*
X-398893Y-258065D01*
X-398989Y-258080D01*
X-399086Y-258090D01*
X-399110Y-258100D01*
X-399136Y-258104D01*
X-399222Y-258150D01*
X-399311Y-258190D01*
X-399330Y-258207D01*
X-399353Y-258220D01*
X-399420Y-258290D01*
X-399492Y-258356D01*
X-399505Y-258379D01*
X-399523Y-258398D01*
X-399564Y-258486D01*
X-399611Y-258572D01*
X-399615Y-258597D01*
X-399626Y-258621D01*
X-399637Y-258718D01*
X-399654Y-258814D01*
X-399650Y-258840D01*
X-399653Y-258865D01*
X-399633Y-258960D01*
X-399619Y-259057D01*
X-399607Y-259080D01*
X-399601Y-259106D01*
X-399551Y-259190D01*
X-399507Y-259276D01*
X-399488Y-259294D01*
X-399475Y-259317D01*
X-399401Y-259380D01*
X-399331Y-259448D01*
X-399303Y-259464D01*
X-399288Y-259477D01*
X-399257Y-259489D01*
X-399184Y-259529D01*
X-398438Y-259838D01*
X-393633Y-264644D01*
X-392555Y-267245D01*
X-392494Y-267345D01*
X-392434Y-267445D01*
X-392429Y-267449D01*
X-392426Y-267454D01*
X-392336Y-267529D01*
X-392247Y-267605D01*
X-392241Y-267607D01*
X-392236Y-267611D01*
X-392128Y-267653D01*
X-392019Y-267697D01*
X-392011Y-267698D01*
X-392007Y-267699D01*
X-391988Y-267700D01*
X-391852Y-267715D01*
X-77426Y-267715D01*
X-74999Y-268721D01*
X-29237Y-314482D01*
X-29163Y-314535D01*
X-29094Y-314595D01*
X-29064Y-314607D01*
X-29037Y-314626D01*
X-28950Y-314653D01*
X-28866Y-314687D01*
X-28825Y-314691D01*
X-28802Y-314698D01*
X-28770Y-314697D01*
X-28699Y-314705D01*
X23619Y-314705D01*
X23709Y-314691D01*
X23800Y-314683D01*
X23830Y-314671D01*
X23862Y-314666D01*
X23942Y-314623D01*
X24026Y-314587D01*
X24058Y-314561D01*
X24079Y-314550D01*
X24101Y-314527D01*
X24157Y-314482D01*
X44519Y-294121D01*
X46946Y-293115D01*
X445259Y-293115D01*
X445349Y-293101D01*
X445440Y-293093D01*
X445470Y-293081D01*
X445502Y-293076D01*
X445582Y-293033D01*
X445666Y-292997D01*
X445698Y-292971D01*
X445719Y-292960D01*
X445741Y-292937D01*
X445797Y-292892D01*
X450372Y-288317D01*
X450425Y-288243D01*
X450485Y-288174D01*
X450497Y-288144D01*
X450516Y-288117D01*
X450543Y-288030D01*
X450577Y-287946D01*
X450581Y-287905D01*
X450588Y-287882D01*
X450587Y-287850D01*
X450595Y-287779D01*
X450595Y-284886D01*
X450584Y-284815D01*
X450582Y-284744D01*
X450564Y-284695D01*
X450556Y-284643D01*
X450522Y-284580D01*
X450497Y-284513D01*
X450465Y-284472D01*
X450440Y-284426D01*
X450388Y-284376D01*
X450344Y-284320D01*
X450300Y-284292D01*
X450262Y-284256D01*
X450197Y-284226D01*
X450137Y-284187D01*
X450086Y-284175D01*
X450039Y-284153D01*
X449968Y-284145D01*
X449898Y-284127D01*
X449846Y-284131D01*
X449795Y-284126D01*
X449724Y-284141D01*
X449653Y-284147D01*
X449605Y-284167D01*
X449554Y-284178D01*
X449493Y-284215D01*
X449427Y-284243D01*
X449371Y-284288D01*
X449343Y-284304D01*
X449328Y-284322D01*
X449296Y-284348D01*
X444842Y-288802D01*
X438563Y-291402D01*
X404717Y-291402D01*
X398438Y-288802D01*
X393633Y-283996D01*
X392555Y-281395D01*
X392494Y-281295D01*
X392434Y-281195D01*
X392429Y-281191D01*
X392426Y-281186D01*
X392336Y-281111D01*
X392247Y-281035D01*
X392241Y-281033D01*
X392236Y-281029D01*
X392128Y-280987D01*
X392019Y-280943D01*
X392011Y-280942D01*
X392007Y-280941D01*
X391988Y-280940D01*
X391852Y-280925D01*
X100490Y-280925D01*
X98063Y-279919D01*
X96098Y-277954D01*
X-19354Y-162502D01*
X-19448Y-162435D01*
X-19543Y-162364D01*
X-19549Y-162362D01*
X-19554Y-162359D01*
X-19665Y-162324D01*
X-19777Y-162288D01*
X-19783Y-162288D01*
X-19789Y-162286D01*
X-19906Y-162289D01*
X-20023Y-162290D01*
X-20030Y-162292D01*
X-20035Y-162293D01*
X-20052Y-162299D01*
X-20184Y-162337D01*
X-23177Y-163577D01*
X-27623Y-163577D01*
X-31731Y-161875D01*
X-34875Y-158731D01*
X-36577Y-154623D01*
X-36577Y-134937D01*
X-34875Y-130829D01*
X-31731Y-127685D01*
X-27623Y-125983D01*
X-23177Y-125983D01*
X-19069Y-127685D01*
X-17904Y-128849D01*
X-17846Y-128891D01*
X-17794Y-128941D01*
X-17747Y-128963D01*
X-17705Y-128993D01*
X-17636Y-129014D01*
X-17571Y-129044D01*
X-17519Y-129050D01*
X-17469Y-129065D01*
X-17398Y-129063D01*
X-17327Y-129071D01*
X-17276Y-129060D01*
X-17224Y-129059D01*
X-17156Y-129034D01*
X-17086Y-129019D01*
X-17041Y-128992D01*
X-16993Y-128975D01*
X-16937Y-128930D01*
X-16875Y-128893D01*
X-16841Y-128853D01*
X-16801Y-128821D01*
X-16762Y-128761D01*
X-16715Y-128706D01*
X-16696Y-128658D01*
X-16668Y-128614D01*
X-16650Y-128544D01*
X-16623Y-128478D01*
X-16615Y-128407D01*
X-16607Y-128375D01*
X-16609Y-128352D01*
X-16605Y-128311D01*
X-16605Y29946D01*
X-16619Y30036D01*
X-16627Y30127D01*
X-16639Y30157D01*
X-16644Y30188D01*
X-16687Y30269D01*
X-16723Y30353D01*
X-16749Y30385D01*
X-16760Y30406D01*
X-16783Y30428D01*
X-16828Y30484D01*
X-19797Y33454D01*
X-21557Y37701D01*
X-21557Y42299D01*
X-19797Y46546D01*
X-16546Y49797D01*
X-12299Y51557D01*
X-7701Y51557D01*
X-3454Y49797D01*
X-203Y46546D01*
X-22Y46110D01*
X33Y46021D01*
X84Y45929D01*
X98Y45917D01*
X107Y45901D01*
X188Y45834D01*
X266Y45764D01*
X283Y45756D01*
X297Y45745D01*
X395Y45707D01*
X491Y45665D01*
X510Y45663D01*
X527Y45656D01*
X632Y45652D01*
X736Y45643D01*
X754Y45647D01*
X772Y45646D01*
X873Y45675D01*
X976Y45700D01*
X991Y45709D01*
X1009Y45715D01*
X1095Y45774D01*
X1184Y45830D01*
X1199Y45847D01*
X1211Y45855D01*
X1229Y45880D01*
X1297Y45954D01*
X1960Y46867D01*
X3133Y48040D01*
X4475Y49015D01*
X5954Y49768D01*
X7532Y50281D01*
X8477Y50431D01*
X8477Y40762D01*
X8480Y40742D01*
X8478Y40723D01*
X8500Y40621D01*
X8517Y40519D01*
X8526Y40502D01*
X8530Y40482D01*
X8583Y40393D01*
X8632Y40302D01*
X8646Y40288D01*
X8656Y40271D01*
X8735Y40204D01*
X8810Y40133D01*
X8828Y40124D01*
X8843Y40111D01*
X8939Y40073D01*
X9033Y40029D01*
X9053Y40027D01*
X9071Y40019D01*
X9238Y40001D01*
X10001Y40001D01*
X10001Y39999D01*
X9238Y39999D01*
X9218Y39996D01*
X9199Y39998D01*
X9097Y39976D01*
X8995Y39959D01*
X8978Y39950D01*
X8958Y39946D01*
X8869Y39893D01*
X8778Y39844D01*
X8764Y39830D01*
X8747Y39820D01*
X8680Y39741D01*
X8609Y39666D01*
X8600Y39648D01*
X8587Y39633D01*
X8548Y39537D01*
X8505Y39443D01*
X8503Y39423D01*
X8495Y39405D01*
X8477Y39238D01*
X8477Y29569D01*
X7532Y29719D01*
X5954Y30232D01*
X4475Y30985D01*
X3133Y31960D01*
X1960Y33133D01*
X1297Y34046D01*
X1222Y34120D01*
X1151Y34197D01*
X1135Y34206D01*
X1122Y34219D01*
X1028Y34265D01*
X936Y34316D01*
X918Y34319D01*
X901Y34327D01*
X797Y34341D01*
X694Y34359D01*
X676Y34357D01*
X658Y34359D01*
X554Y34339D01*
X450Y34324D01*
X434Y34315D01*
X416Y34312D01*
X325Y34260D01*
X231Y34212D01*
X218Y34199D01*
X202Y34190D01*
X132Y34112D01*
X59Y34036D01*
X48Y34017D01*
X39Y34006D01*
X26Y33978D01*
X-22Y33890D01*
X-203Y33454D01*
X-3172Y30484D01*
X-3225Y30410D01*
X-3285Y30341D01*
X-3297Y30311D01*
X-3316Y30284D01*
X-3343Y30197D01*
X-3377Y30112D01*
X-3381Y30072D01*
X-3388Y30049D01*
X-3387Y30017D01*
X-3395Y29946D01*
X-3395Y-125329D01*
X-3388Y-125375D01*
X-3390Y-125421D01*
X-3368Y-125495D01*
X-3356Y-125572D01*
X-3334Y-125613D01*
X-3321Y-125657D01*
X-3277Y-125721D01*
X-3240Y-125790D01*
X-3207Y-125821D01*
X-3181Y-125859D01*
X-3118Y-125905D01*
X-3062Y-125959D01*
X-3020Y-125978D01*
X-2984Y-126006D01*
X-2910Y-126030D01*
X-2839Y-126063D01*
X-2793Y-126068D01*
X-2750Y-126082D01*
X-2672Y-126081D01*
X-2595Y-126090D01*
X-2550Y-126080D01*
X-2504Y-126080D01*
X-2372Y-126041D01*
X-2354Y-126037D01*
X-2350Y-126035D01*
X-2343Y-126033D01*
X-2223Y-125983D01*
X2223Y-125983D01*
X6331Y-127685D01*
X9475Y-130829D01*
X11177Y-134937D01*
X11177Y-154623D01*
X9475Y-158731D01*
X6331Y-161875D01*
X2213Y-163581D01*
X2169Y-163588D01*
X2097Y-163590D01*
X2048Y-163608D01*
X1996Y-163616D01*
X1933Y-163650D01*
X1866Y-163675D01*
X1825Y-163707D01*
X1779Y-163732D01*
X1730Y-163784D01*
X1674Y-163828D01*
X1646Y-163872D01*
X1610Y-163910D01*
X1580Y-163975D01*
X1541Y-164035D01*
X1528Y-164086D01*
X1506Y-164133D01*
X1498Y-164204D01*
X1481Y-164274D01*
X1485Y-164326D01*
X1479Y-164377D01*
X1494Y-164448D01*
X1500Y-164519D01*
X1520Y-164567D01*
X1531Y-164618D01*
X1568Y-164679D01*
X1596Y-164745D01*
X1641Y-164801D01*
X1657Y-164829D01*
X1675Y-164844D01*
X1701Y-164876D01*
X104317Y-267492D01*
X104391Y-267545D01*
X104460Y-267605D01*
X104491Y-267617D01*
X104517Y-267636D01*
X104604Y-267663D01*
X104689Y-267697D01*
X104730Y-267701D01*
X104752Y-267708D01*
X104784Y-267707D01*
X104855Y-267715D01*
G37*
G36*
X411686Y-386167D02*
X411686Y-386167D01*
X411777Y-386159D01*
X411807Y-386147D01*
X411839Y-386142D01*
X411919Y-386099D01*
X412003Y-386063D01*
X412035Y-386037D01*
X412056Y-386026D01*
X412078Y-386003D01*
X412134Y-385958D01*
X459958Y-338134D01*
X460011Y-338060D01*
X460071Y-337991D01*
X460083Y-337961D01*
X460102Y-337934D01*
X460129Y-337847D01*
X460163Y-337763D01*
X460167Y-337722D01*
X460174Y-337699D01*
X460173Y-337667D01*
X460181Y-337596D01*
X460181Y-299027D01*
X460170Y-298956D01*
X460168Y-298885D01*
X460150Y-298836D01*
X460142Y-298784D01*
X460108Y-298721D01*
X460083Y-298654D01*
X460051Y-298613D01*
X460026Y-298567D01*
X459974Y-298518D01*
X459930Y-298462D01*
X459886Y-298433D01*
X459848Y-298398D01*
X459783Y-298367D01*
X459723Y-298329D01*
X459672Y-298316D01*
X459625Y-298294D01*
X459554Y-298286D01*
X459484Y-298269D01*
X459432Y-298273D01*
X459381Y-298267D01*
X459310Y-298282D01*
X459239Y-298288D01*
X459191Y-298308D01*
X459140Y-298319D01*
X459079Y-298356D01*
X459013Y-298384D01*
X458957Y-298429D01*
X458929Y-298445D01*
X458914Y-298463D01*
X458882Y-298489D01*
X454016Y-303354D01*
X452051Y-305319D01*
X449624Y-306325D01*
X446176Y-306325D01*
X446105Y-306336D01*
X446034Y-306338D01*
X445985Y-306356D01*
X445933Y-306364D01*
X445870Y-306398D01*
X445803Y-306423D01*
X445762Y-306455D01*
X445716Y-306480D01*
X445666Y-306532D01*
X445610Y-306576D01*
X445582Y-306620D01*
X445546Y-306658D01*
X445516Y-306723D01*
X445477Y-306783D01*
X445465Y-306834D01*
X445443Y-306881D01*
X445435Y-306952D01*
X445417Y-307022D01*
X445421Y-307074D01*
X445416Y-307125D01*
X445431Y-307196D01*
X445437Y-307267D01*
X445457Y-307315D01*
X445468Y-307366D01*
X445505Y-307427D01*
X445533Y-307493D01*
X445578Y-307549D01*
X445594Y-307577D01*
X445612Y-307592D01*
X445638Y-307624D01*
X449647Y-311634D01*
X452248Y-317912D01*
X452248Y-324708D01*
X449647Y-330986D01*
X444842Y-335792D01*
X438563Y-338392D01*
X404717Y-338392D01*
X398438Y-335792D01*
X393633Y-330986D01*
X391032Y-324708D01*
X391032Y-317912D01*
X393633Y-311634D01*
X397642Y-307624D01*
X397684Y-307566D01*
X397734Y-307514D01*
X397755Y-307467D01*
X397786Y-307425D01*
X397807Y-307356D01*
X397837Y-307291D01*
X397843Y-307239D01*
X397858Y-307189D01*
X397856Y-307118D01*
X397864Y-307047D01*
X397853Y-306996D01*
X397852Y-306944D01*
X397827Y-306876D01*
X397812Y-306806D01*
X397785Y-306761D01*
X397767Y-306713D01*
X397723Y-306657D01*
X397686Y-306595D01*
X397646Y-306561D01*
X397614Y-306521D01*
X397553Y-306482D01*
X397499Y-306435D01*
X397451Y-306416D01*
X397407Y-306388D01*
X397337Y-306370D01*
X397271Y-306343D01*
X397199Y-306335D01*
X397168Y-306327D01*
X397145Y-306329D01*
X397104Y-306325D01*
X51311Y-306325D01*
X51221Y-306339D01*
X51130Y-306347D01*
X51100Y-306359D01*
X51068Y-306364D01*
X50988Y-306407D01*
X50904Y-306443D01*
X50872Y-306469D01*
X50851Y-306480D01*
X50829Y-306503D01*
X50773Y-306548D01*
X30411Y-326909D01*
X27984Y-327915D01*
X-33064Y-327915D01*
X-35491Y-326909D01*
X-81253Y-281148D01*
X-81327Y-281095D01*
X-81396Y-281035D01*
X-81426Y-281023D01*
X-81453Y-281004D01*
X-81540Y-280977D01*
X-81624Y-280943D01*
X-81665Y-280939D01*
X-81688Y-280932D01*
X-81720Y-280933D01*
X-81791Y-280925D01*
X-391852Y-280925D01*
X-391967Y-280944D01*
X-392083Y-280961D01*
X-392089Y-280963D01*
X-392095Y-280964D01*
X-392197Y-281019D01*
X-392302Y-281072D01*
X-392307Y-281077D01*
X-392312Y-281080D01*
X-392392Y-281164D01*
X-392474Y-281248D01*
X-392478Y-281254D01*
X-392481Y-281258D01*
X-392489Y-281275D01*
X-392555Y-281395D01*
X-393633Y-283996D01*
X-398438Y-288802D01*
X-404717Y-291402D01*
X-438563Y-291402D01*
X-444842Y-288802D01*
X-449647Y-283996D01*
X-452248Y-277718D01*
X-452248Y-270922D01*
X-449647Y-264644D01*
X-444842Y-259838D01*
X-444096Y-259529D01*
X-444013Y-259478D01*
X-443927Y-259432D01*
X-443909Y-259413D01*
X-443887Y-259400D01*
X-443824Y-259325D01*
X-443757Y-259254D01*
X-443746Y-259230D01*
X-443730Y-259210D01*
X-443695Y-259119D01*
X-443654Y-259031D01*
X-443651Y-259005D01*
X-443641Y-258981D01*
X-443637Y-258883D01*
X-443627Y-258787D01*
X-443632Y-258761D01*
X-443631Y-258735D01*
X-443658Y-258641D01*
X-443679Y-258546D01*
X-443692Y-258524D01*
X-443700Y-258499D01*
X-443755Y-258419D01*
X-443805Y-258335D01*
X-443825Y-258318D01*
X-443840Y-258297D01*
X-443918Y-258238D01*
X-443992Y-258175D01*
X-444016Y-258165D01*
X-444037Y-258150D01*
X-444130Y-258120D01*
X-444220Y-258083D01*
X-444253Y-258080D01*
X-444271Y-258074D01*
X-444304Y-258074D01*
X-444387Y-258065D01*
X-449624Y-258065D01*
X-452051Y-257059D01*
X-454016Y-255094D01*
X-458882Y-250229D01*
X-458940Y-250187D01*
X-458992Y-250138D01*
X-459039Y-250116D01*
X-459081Y-250085D01*
X-459150Y-250064D01*
X-459215Y-250034D01*
X-459267Y-250028D01*
X-459317Y-250013D01*
X-459388Y-250015D01*
X-459459Y-250007D01*
X-459510Y-250018D01*
X-459562Y-250019D01*
X-459630Y-250044D01*
X-459700Y-250059D01*
X-459744Y-250086D01*
X-459793Y-250104D01*
X-459849Y-250149D01*
X-459911Y-250185D01*
X-459945Y-250225D01*
X-459985Y-250257D01*
X-460024Y-250318D01*
X-460071Y-250372D01*
X-460090Y-250421D01*
X-460118Y-250464D01*
X-460136Y-250534D01*
X-460163Y-250600D01*
X-460171Y-250672D01*
X-460179Y-250703D01*
X-460177Y-250726D01*
X-460181Y-250767D01*
X-460181Y-337596D01*
X-460167Y-337686D01*
X-460159Y-337777D01*
X-460147Y-337807D01*
X-460142Y-337839D01*
X-460099Y-337919D01*
X-460063Y-338003D01*
X-460037Y-338035D01*
X-460026Y-338056D01*
X-460003Y-338078D01*
X-459958Y-338134D01*
X-412134Y-385958D01*
X-412060Y-386011D01*
X-411991Y-386071D01*
X-411961Y-386083D01*
X-411934Y-386102D01*
X-411847Y-386129D01*
X-411763Y-386163D01*
X-411722Y-386167D01*
X-411699Y-386174D01*
X-411667Y-386173D01*
X-411596Y-386181D01*
X411596Y-386181D01*
X411686Y-386167D01*
G37*
%LPC*%
G36*
X-233717Y140715D02*
X-233717Y140715D01*
X-238478Y142688D01*
X-242122Y146332D01*
X-244095Y151093D01*
X-244095Y156247D01*
X-242122Y161008D01*
X-238478Y164652D01*
X-234636Y166244D01*
X-234550Y166297D01*
X-234461Y166346D01*
X-234446Y166362D01*
X-234427Y166373D01*
X-234363Y166452D01*
X-234294Y166526D01*
X-234285Y166546D01*
X-234270Y166563D01*
X-234234Y166657D01*
X-234192Y166750D01*
X-234190Y166772D01*
X-234182Y166793D01*
X-234178Y166894D01*
X-234168Y166994D01*
X-234173Y167016D01*
X-234172Y167038D01*
X-234200Y167136D01*
X-234223Y167234D01*
X-234234Y167253D01*
X-234240Y167275D01*
X-234298Y167358D01*
X-234351Y167444D01*
X-234368Y167458D01*
X-234381Y167477D01*
X-234462Y167537D01*
X-234540Y167602D01*
X-234565Y167613D01*
X-234578Y167623D01*
X-234609Y167633D01*
X-234692Y167671D01*
X-235723Y168006D01*
X-237397Y168859D01*
X-238918Y169964D01*
X-240246Y171292D01*
X-241351Y172813D01*
X-242204Y174487D01*
X-242785Y176274D01*
X-242986Y177547D01*
X-231902Y177547D01*
X-231882Y177550D01*
X-231863Y177548D01*
X-231761Y177570D01*
X-231659Y177587D01*
X-231642Y177596D01*
X-231622Y177600D01*
X-231533Y177653D01*
X-231442Y177702D01*
X-231428Y177716D01*
X-231411Y177726D01*
X-231344Y177805D01*
X-231273Y177880D01*
X-231264Y177898D01*
X-231251Y177913D01*
X-231213Y178009D01*
X-231169Y178103D01*
X-231167Y178123D01*
X-231159Y178141D01*
X-231141Y178308D01*
X-231141Y179832D01*
X-231144Y179852D01*
X-231142Y179871D01*
X-231164Y179973D01*
X-231181Y180075D01*
X-231190Y180092D01*
X-231194Y180112D01*
X-231247Y180201D01*
X-231296Y180292D01*
X-231310Y180306D01*
X-231320Y180323D01*
X-231399Y180390D01*
X-231474Y180461D01*
X-231492Y180470D01*
X-231507Y180483D01*
X-231603Y180522D01*
X-231697Y180565D01*
X-231717Y180567D01*
X-231735Y180575D01*
X-231902Y180593D01*
X-242986Y180593D01*
X-242785Y181866D01*
X-242204Y183653D01*
X-241351Y185327D01*
X-240246Y186848D01*
X-238918Y188176D01*
X-237397Y189281D01*
X-235723Y190134D01*
X-234692Y190469D01*
X-234602Y190515D01*
X-234510Y190556D01*
X-234494Y190571D01*
X-234474Y190582D01*
X-234403Y190654D01*
X-234329Y190723D01*
X-234318Y190742D01*
X-234303Y190758D01*
X-234259Y190850D01*
X-234210Y190938D01*
X-234206Y190960D01*
X-234197Y190980D01*
X-234185Y191081D01*
X-234167Y191180D01*
X-234170Y191202D01*
X-234167Y191224D01*
X-234188Y191323D01*
X-234202Y191424D01*
X-234212Y191444D01*
X-234217Y191465D01*
X-234268Y191553D01*
X-234314Y191643D01*
X-234330Y191659D01*
X-234341Y191678D01*
X-234417Y191744D01*
X-234489Y191815D01*
X-234514Y191829D01*
X-234526Y191840D01*
X-234556Y191852D01*
X-234636Y191896D01*
X-238478Y193488D01*
X-242122Y197132D01*
X-244095Y201893D01*
X-244095Y207047D01*
X-242122Y211808D01*
X-238478Y215452D01*
X-236030Y216467D01*
X-235969Y216505D01*
X-235903Y216534D01*
X-235865Y216569D01*
X-235821Y216596D01*
X-235775Y216652D01*
X-235722Y216700D01*
X-235697Y216746D01*
X-235664Y216786D01*
X-235638Y216853D01*
X-235604Y216916D01*
X-235594Y216967D01*
X-235576Y217015D01*
X-235573Y217087D01*
X-235560Y217158D01*
X-235567Y217209D01*
X-235565Y217261D01*
X-235585Y217330D01*
X-235596Y217401D01*
X-235619Y217447D01*
X-235634Y217497D01*
X-235675Y217556D01*
X-235707Y217620D01*
X-235744Y217657D01*
X-235774Y217699D01*
X-235832Y217742D01*
X-235883Y217792D01*
X-235946Y217827D01*
X-235971Y217846D01*
X-235994Y217853D01*
X-236030Y217873D01*
X-238478Y218888D01*
X-242122Y222532D01*
X-244095Y227293D01*
X-244095Y232447D01*
X-242122Y237208D01*
X-238478Y240852D01*
X-236030Y241867D01*
X-235969Y241905D01*
X-235903Y241934D01*
X-235865Y241969D01*
X-235821Y241996D01*
X-235775Y242052D01*
X-235722Y242100D01*
X-235697Y242146D01*
X-235664Y242186D01*
X-235638Y242253D01*
X-235604Y242316D01*
X-235594Y242367D01*
X-235576Y242415D01*
X-235573Y242487D01*
X-235560Y242558D01*
X-235567Y242609D01*
X-235565Y242661D01*
X-235585Y242730D01*
X-235596Y242801D01*
X-235619Y242847D01*
X-235634Y242897D01*
X-235675Y242956D01*
X-235707Y243020D01*
X-235744Y243057D01*
X-235774Y243099D01*
X-235832Y243142D01*
X-235883Y243192D01*
X-235946Y243227D01*
X-235971Y243246D01*
X-235994Y243253D01*
X-236030Y243273D01*
X-238478Y244288D01*
X-242122Y247932D01*
X-244095Y252693D01*
X-244095Y257847D01*
X-242122Y262608D01*
X-238478Y266252D01*
X-236030Y267267D01*
X-235969Y267305D01*
X-235903Y267334D01*
X-235865Y267369D01*
X-235821Y267396D01*
X-235775Y267452D01*
X-235722Y267500D01*
X-235697Y267546D01*
X-235664Y267586D01*
X-235638Y267653D01*
X-235604Y267716D01*
X-235594Y267767D01*
X-235576Y267815D01*
X-235573Y267887D01*
X-235560Y267958D01*
X-235567Y268009D01*
X-235565Y268061D01*
X-235585Y268130D01*
X-235596Y268201D01*
X-235619Y268247D01*
X-235634Y268297D01*
X-235675Y268356D01*
X-235707Y268420D01*
X-235744Y268457D01*
X-235774Y268499D01*
X-235832Y268542D01*
X-235883Y268592D01*
X-235946Y268627D01*
X-235971Y268646D01*
X-235994Y268653D01*
X-236030Y268673D01*
X-238478Y269688D01*
X-242122Y273332D01*
X-244095Y278093D01*
X-244095Y283247D01*
X-242122Y288008D01*
X-238478Y291652D01*
X-236030Y292667D01*
X-235969Y292705D01*
X-235903Y292734D01*
X-235865Y292769D01*
X-235821Y292796D01*
X-235775Y292852D01*
X-235722Y292900D01*
X-235697Y292946D01*
X-235664Y292986D01*
X-235638Y293053D01*
X-235604Y293116D01*
X-235594Y293167D01*
X-235576Y293215D01*
X-235573Y293287D01*
X-235560Y293358D01*
X-235567Y293409D01*
X-235565Y293461D01*
X-235585Y293530D01*
X-235596Y293601D01*
X-235619Y293647D01*
X-235634Y293697D01*
X-235675Y293756D01*
X-235707Y293820D01*
X-235744Y293857D01*
X-235774Y293899D01*
X-235832Y293942D01*
X-235883Y293992D01*
X-235946Y294027D01*
X-235971Y294046D01*
X-235994Y294053D01*
X-236030Y294073D01*
X-238478Y295088D01*
X-242122Y298732D01*
X-244095Y303493D01*
X-244095Y308647D01*
X-242122Y313408D01*
X-238478Y317052D01*
X-236030Y318067D01*
X-235969Y318105D01*
X-235903Y318134D01*
X-235865Y318169D01*
X-235821Y318196D01*
X-235775Y318252D01*
X-235722Y318300D01*
X-235697Y318346D01*
X-235664Y318386D01*
X-235638Y318453D01*
X-235604Y318516D01*
X-235594Y318567D01*
X-235576Y318615D01*
X-235573Y318687D01*
X-235560Y318758D01*
X-235567Y318809D01*
X-235565Y318861D01*
X-235585Y318930D01*
X-235596Y319001D01*
X-235619Y319047D01*
X-235634Y319097D01*
X-235675Y319156D01*
X-235707Y319220D01*
X-235744Y319257D01*
X-235774Y319299D01*
X-235832Y319342D01*
X-235883Y319392D01*
X-235946Y319427D01*
X-235971Y319446D01*
X-235994Y319453D01*
X-236030Y319473D01*
X-238478Y320488D01*
X-242122Y324132D01*
X-244095Y328893D01*
X-244095Y334047D01*
X-242122Y338808D01*
X-238478Y342452D01*
X-236030Y343467D01*
X-235969Y343505D01*
X-235903Y343534D01*
X-235865Y343569D01*
X-235821Y343596D01*
X-235775Y343652D01*
X-235722Y343700D01*
X-235697Y343746D01*
X-235664Y343786D01*
X-235638Y343853D01*
X-235604Y343916D01*
X-235594Y343967D01*
X-235576Y344015D01*
X-235573Y344087D01*
X-235560Y344158D01*
X-235567Y344209D01*
X-235565Y344261D01*
X-235585Y344330D01*
X-235596Y344401D01*
X-235619Y344447D01*
X-235634Y344497D01*
X-235675Y344556D01*
X-235707Y344620D01*
X-235744Y344657D01*
X-235774Y344699D01*
X-235832Y344742D01*
X-235883Y344792D01*
X-235946Y344827D01*
X-235971Y344846D01*
X-235994Y344853D01*
X-236030Y344873D01*
X-238478Y345888D01*
X-242122Y349532D01*
X-244095Y354293D01*
X-244095Y359447D01*
X-242122Y364208D01*
X-238478Y367852D01*
X-234636Y369444D01*
X-234551Y369497D01*
X-234461Y369545D01*
X-234446Y369562D01*
X-234427Y369573D01*
X-234363Y369651D01*
X-234294Y369726D01*
X-234285Y369746D01*
X-234271Y369763D01*
X-234234Y369857D01*
X-234192Y369950D01*
X-234190Y369972D01*
X-234182Y369993D01*
X-234178Y370094D01*
X-234168Y370194D01*
X-234173Y370216D01*
X-234172Y370238D01*
X-234200Y370335D01*
X-234223Y370434D01*
X-234234Y370453D01*
X-234240Y370475D01*
X-234298Y370558D01*
X-234351Y370644D01*
X-234368Y370658D01*
X-234381Y370677D01*
X-234462Y370737D01*
X-234540Y370802D01*
X-234565Y370813D01*
X-234578Y370823D01*
X-234609Y370833D01*
X-234692Y370871D01*
X-235723Y371206D01*
X-237397Y372059D01*
X-238918Y373164D01*
X-240246Y374492D01*
X-241351Y376013D01*
X-242204Y377687D01*
X-242785Y379474D01*
X-242986Y380747D01*
X-231902Y380747D01*
X-231882Y380750D01*
X-231863Y380748D01*
X-231761Y380770D01*
X-231659Y380787D01*
X-231642Y380796D01*
X-231622Y380800D01*
X-231533Y380853D01*
X-231442Y380902D01*
X-231428Y380916D01*
X-231411Y380926D01*
X-231344Y381005D01*
X-231273Y381080D01*
X-231264Y381098D01*
X-231251Y381113D01*
X-231213Y381209D01*
X-231169Y381303D01*
X-231167Y381323D01*
X-231159Y381341D01*
X-231141Y381508D01*
X-231141Y383032D01*
X-231144Y383052D01*
X-231142Y383071D01*
X-231164Y383173D01*
X-231181Y383275D01*
X-231190Y383292D01*
X-231194Y383312D01*
X-231247Y383401D01*
X-231296Y383492D01*
X-231310Y383506D01*
X-231320Y383523D01*
X-231399Y383590D01*
X-231474Y383661D01*
X-231492Y383670D01*
X-231507Y383683D01*
X-231603Y383722D01*
X-231697Y383765D01*
X-231717Y383767D01*
X-231735Y383775D01*
X-231902Y383793D01*
X-242986Y383793D01*
X-242785Y385066D01*
X-242204Y386853D01*
X-241351Y388527D01*
X-240246Y390048D01*
X-238918Y391376D01*
X-237397Y392481D01*
X-235723Y393334D01*
X-234692Y393669D01*
X-234602Y393715D01*
X-234510Y393756D01*
X-234494Y393771D01*
X-234474Y393782D01*
X-234403Y393854D01*
X-234329Y393923D01*
X-234318Y393942D01*
X-234303Y393958D01*
X-234259Y394050D01*
X-234210Y394138D01*
X-234206Y394160D01*
X-234197Y394180D01*
X-234185Y394281D01*
X-234167Y394380D01*
X-234170Y394402D01*
X-234167Y394424D01*
X-234188Y394523D01*
X-234202Y394624D01*
X-234212Y394644D01*
X-234217Y394665D01*
X-234268Y394753D01*
X-234314Y394843D01*
X-234330Y394859D01*
X-234341Y394878D01*
X-234417Y394944D01*
X-234489Y395015D01*
X-234514Y395029D01*
X-234526Y395040D01*
X-234556Y395052D01*
X-234636Y395096D01*
X-238478Y396688D01*
X-242122Y400332D01*
X-244095Y405093D01*
X-244095Y410247D01*
X-242122Y415008D01*
X-238478Y418652D01*
X-236030Y419667D01*
X-235969Y419705D01*
X-235903Y419734D01*
X-235865Y419769D01*
X-235821Y419796D01*
X-235775Y419852D01*
X-235722Y419900D01*
X-235697Y419946D01*
X-235664Y419986D01*
X-235638Y420053D01*
X-235604Y420116D01*
X-235594Y420167D01*
X-235576Y420215D01*
X-235573Y420287D01*
X-235560Y420358D01*
X-235567Y420409D01*
X-235565Y420461D01*
X-235585Y420530D01*
X-235596Y420601D01*
X-235619Y420647D01*
X-235634Y420697D01*
X-235675Y420756D01*
X-235707Y420820D01*
X-235744Y420857D01*
X-235774Y420899D01*
X-235832Y420942D01*
X-235883Y420992D01*
X-235946Y421027D01*
X-235971Y421046D01*
X-235994Y421053D01*
X-236030Y421073D01*
X-238478Y422088D01*
X-242122Y425732D01*
X-244095Y430493D01*
X-244095Y435647D01*
X-242122Y440408D01*
X-238478Y444052D01*
X-233717Y446025D01*
X-228563Y446025D01*
X-223802Y444052D01*
X-220158Y440408D01*
X-218185Y435647D01*
X-218185Y430493D01*
X-220158Y425732D01*
X-223802Y422088D01*
X-226250Y421073D01*
X-226311Y421035D01*
X-226377Y421006D01*
X-226415Y420971D01*
X-226459Y420944D01*
X-226505Y420888D01*
X-226558Y420840D01*
X-226583Y420794D01*
X-226616Y420754D01*
X-226642Y420687D01*
X-226676Y420624D01*
X-226686Y420573D01*
X-226704Y420525D01*
X-226707Y420453D01*
X-226720Y420382D01*
X-226713Y420331D01*
X-226715Y420279D01*
X-226695Y420210D01*
X-226684Y420139D01*
X-226661Y420093D01*
X-226646Y420043D01*
X-226605Y419984D01*
X-226573Y419920D01*
X-226536Y419883D01*
X-226506Y419841D01*
X-226448Y419798D01*
X-226397Y419748D01*
X-226334Y419713D01*
X-226309Y419694D01*
X-226286Y419687D01*
X-226250Y419667D01*
X-223802Y418652D01*
X-220158Y415008D01*
X-218185Y410247D01*
X-218185Y405093D01*
X-220158Y400332D01*
X-223802Y396688D01*
X-227644Y395096D01*
X-227729Y395043D01*
X-227819Y394995D01*
X-227834Y394978D01*
X-227853Y394967D01*
X-227917Y394889D01*
X-227986Y394814D01*
X-227995Y394794D01*
X-228009Y394777D01*
X-228046Y394683D01*
X-228088Y394590D01*
X-228090Y394568D01*
X-228098Y394547D01*
X-228102Y394446D01*
X-228112Y394346D01*
X-228107Y394324D01*
X-228108Y394302D01*
X-228080Y394205D01*
X-228057Y394106D01*
X-228046Y394087D01*
X-228040Y394065D01*
X-227982Y393982D01*
X-227929Y393896D01*
X-227912Y393882D01*
X-227899Y393863D01*
X-227818Y393803D01*
X-227740Y393738D01*
X-227715Y393727D01*
X-227702Y393717D01*
X-227671Y393707D01*
X-227588Y393669D01*
X-226557Y393334D01*
X-224883Y392481D01*
X-223362Y391376D01*
X-222034Y390048D01*
X-220929Y388527D01*
X-220076Y386853D01*
X-219495Y385066D01*
X-219294Y383793D01*
X-230378Y383793D01*
X-230398Y383790D01*
X-230417Y383792D01*
X-230519Y383770D01*
X-230621Y383753D01*
X-230638Y383744D01*
X-230658Y383740D01*
X-230747Y383687D01*
X-230838Y383638D01*
X-230852Y383624D01*
X-230869Y383614D01*
X-230936Y383535D01*
X-231007Y383460D01*
X-231016Y383442D01*
X-231029Y383427D01*
X-231067Y383331D01*
X-231111Y383237D01*
X-231113Y383217D01*
X-231121Y383199D01*
X-231139Y383032D01*
X-231139Y381508D01*
X-231136Y381488D01*
X-231138Y381469D01*
X-231116Y381367D01*
X-231099Y381265D01*
X-231090Y381248D01*
X-231086Y381228D01*
X-231033Y381139D01*
X-230984Y381048D01*
X-230970Y381034D01*
X-230960Y381017D01*
X-230881Y380950D01*
X-230806Y380879D01*
X-230788Y380870D01*
X-230773Y380857D01*
X-230677Y380818D01*
X-230583Y380775D01*
X-230563Y380773D01*
X-230545Y380765D01*
X-230378Y380747D01*
X-219294Y380747D01*
X-219495Y379474D01*
X-220076Y377687D01*
X-220929Y376013D01*
X-222034Y374492D01*
X-223362Y373164D01*
X-224883Y372059D01*
X-226557Y371206D01*
X-227588Y370871D01*
X-227678Y370825D01*
X-227770Y370784D01*
X-227786Y370769D01*
X-227806Y370758D01*
X-227877Y370686D01*
X-227951Y370617D01*
X-227962Y370598D01*
X-227977Y370582D01*
X-228021Y370490D01*
X-228070Y370402D01*
X-228074Y370380D01*
X-228083Y370360D01*
X-228095Y370259D01*
X-228113Y370160D01*
X-228110Y370138D01*
X-228113Y370116D01*
X-228092Y370017D01*
X-228078Y369916D01*
X-228068Y369896D01*
X-228063Y369875D01*
X-228012Y369787D01*
X-227966Y369697D01*
X-227950Y369681D01*
X-227939Y369662D01*
X-227863Y369596D01*
X-227791Y369525D01*
X-227766Y369511D01*
X-227754Y369500D01*
X-227724Y369488D01*
X-227644Y369444D01*
X-223802Y367852D01*
X-220158Y364208D01*
X-218185Y359447D01*
X-218185Y354293D01*
X-220158Y349532D01*
X-223802Y345888D01*
X-226250Y344873D01*
X-226311Y344835D01*
X-226377Y344806D01*
X-226415Y344771D01*
X-226459Y344744D01*
X-226505Y344688D01*
X-226558Y344640D01*
X-226583Y344594D01*
X-226616Y344554D01*
X-226642Y344487D01*
X-226676Y344424D01*
X-226686Y344373D01*
X-226704Y344325D01*
X-226707Y344253D01*
X-226720Y344182D01*
X-226713Y344131D01*
X-226715Y344079D01*
X-226695Y344010D01*
X-226684Y343939D01*
X-226661Y343893D01*
X-226646Y343843D01*
X-226605Y343784D01*
X-226573Y343720D01*
X-226536Y343683D01*
X-226506Y343641D01*
X-226448Y343598D01*
X-226397Y343548D01*
X-226334Y343513D01*
X-226309Y343494D01*
X-226286Y343487D01*
X-226250Y343467D01*
X-223802Y342452D01*
X-220158Y338808D01*
X-218185Y334047D01*
X-218185Y328893D01*
X-220158Y324132D01*
X-223802Y320488D01*
X-226250Y319473D01*
X-226311Y319435D01*
X-226377Y319406D01*
X-226415Y319371D01*
X-226459Y319344D01*
X-226505Y319288D01*
X-226558Y319240D01*
X-226583Y319194D01*
X-226616Y319154D01*
X-226642Y319087D01*
X-226676Y319024D01*
X-226686Y318973D01*
X-226704Y318925D01*
X-226707Y318853D01*
X-226720Y318782D01*
X-226713Y318731D01*
X-226715Y318679D01*
X-226695Y318610D01*
X-226684Y318539D01*
X-226661Y318493D01*
X-226646Y318443D01*
X-226605Y318384D01*
X-226573Y318320D01*
X-226536Y318283D01*
X-226506Y318241D01*
X-226448Y318198D01*
X-226397Y318148D01*
X-226334Y318113D01*
X-226309Y318094D01*
X-226286Y318087D01*
X-226250Y318067D01*
X-223802Y317052D01*
X-220158Y313408D01*
X-218185Y308647D01*
X-218185Y303493D01*
X-220158Y298732D01*
X-223802Y295088D01*
X-226250Y294073D01*
X-226311Y294035D01*
X-226377Y294006D01*
X-226415Y293971D01*
X-226459Y293944D01*
X-226505Y293888D01*
X-226558Y293840D01*
X-226583Y293794D01*
X-226616Y293754D01*
X-226642Y293687D01*
X-226676Y293624D01*
X-226686Y293573D01*
X-226704Y293525D01*
X-226707Y293453D01*
X-226720Y293382D01*
X-226713Y293331D01*
X-226715Y293279D01*
X-226695Y293210D01*
X-226684Y293139D01*
X-226661Y293093D01*
X-226646Y293043D01*
X-226605Y292984D01*
X-226573Y292920D01*
X-226536Y292883D01*
X-226506Y292841D01*
X-226448Y292798D01*
X-226397Y292748D01*
X-226334Y292713D01*
X-226309Y292694D01*
X-226286Y292687D01*
X-226250Y292667D01*
X-223802Y291652D01*
X-220158Y288008D01*
X-218185Y283247D01*
X-218185Y278093D01*
X-220158Y273332D01*
X-223802Y269688D01*
X-226250Y268673D01*
X-226311Y268635D01*
X-226377Y268606D01*
X-226415Y268571D01*
X-226459Y268544D01*
X-226505Y268488D01*
X-226558Y268440D01*
X-226583Y268394D01*
X-226616Y268354D01*
X-226642Y268287D01*
X-226676Y268224D01*
X-226686Y268173D01*
X-226704Y268125D01*
X-226707Y268053D01*
X-226720Y267982D01*
X-226713Y267931D01*
X-226715Y267879D01*
X-226695Y267810D01*
X-226684Y267739D01*
X-226661Y267693D01*
X-226646Y267643D01*
X-226605Y267584D01*
X-226573Y267520D01*
X-226536Y267483D01*
X-226506Y267441D01*
X-226448Y267398D01*
X-226397Y267348D01*
X-226334Y267313D01*
X-226309Y267294D01*
X-226286Y267287D01*
X-226250Y267267D01*
X-223802Y266252D01*
X-220158Y262608D01*
X-218185Y257847D01*
X-218185Y252693D01*
X-220158Y247932D01*
X-223802Y244288D01*
X-226250Y243273D01*
X-226311Y243235D01*
X-226377Y243206D01*
X-226415Y243171D01*
X-226459Y243144D01*
X-226505Y243088D01*
X-226558Y243040D01*
X-226583Y242994D01*
X-226616Y242954D01*
X-226642Y242887D01*
X-226676Y242824D01*
X-226686Y242773D01*
X-226704Y242725D01*
X-226707Y242653D01*
X-226720Y242582D01*
X-226713Y242531D01*
X-226715Y242479D01*
X-226695Y242410D01*
X-226684Y242339D01*
X-226661Y242293D01*
X-226646Y242243D01*
X-226605Y242184D01*
X-226573Y242120D01*
X-226536Y242083D01*
X-226506Y242041D01*
X-226448Y241998D01*
X-226397Y241948D01*
X-226334Y241913D01*
X-226309Y241894D01*
X-226286Y241887D01*
X-226250Y241867D01*
X-223802Y240852D01*
X-220158Y237208D01*
X-218185Y232447D01*
X-218185Y227293D01*
X-220158Y222532D01*
X-223802Y218888D01*
X-226250Y217873D01*
X-226311Y217835D01*
X-226377Y217806D01*
X-226415Y217771D01*
X-226459Y217744D01*
X-226505Y217688D01*
X-226558Y217640D01*
X-226583Y217594D01*
X-226616Y217554D01*
X-226642Y217487D01*
X-226676Y217424D01*
X-226686Y217373D01*
X-226704Y217325D01*
X-226707Y217253D01*
X-226720Y217182D01*
X-226713Y217131D01*
X-226715Y217079D01*
X-226695Y217010D01*
X-226684Y216939D01*
X-226661Y216893D01*
X-226646Y216843D01*
X-226605Y216784D01*
X-226573Y216720D01*
X-226536Y216683D01*
X-226506Y216641D01*
X-226448Y216598D01*
X-226397Y216548D01*
X-226334Y216513D01*
X-226309Y216494D01*
X-226286Y216487D01*
X-226250Y216467D01*
X-223802Y215452D01*
X-220158Y211808D01*
X-218185Y207047D01*
X-218185Y201893D01*
X-220158Y197132D01*
X-223802Y193488D01*
X-227644Y191896D01*
X-227729Y191843D01*
X-227819Y191795D01*
X-227834Y191778D01*
X-227853Y191767D01*
X-227917Y191689D01*
X-227986Y191614D01*
X-227995Y191594D01*
X-228009Y191577D01*
X-228046Y191483D01*
X-228088Y191390D01*
X-228090Y191368D01*
X-228098Y191347D01*
X-228102Y191246D01*
X-228112Y191146D01*
X-228107Y191124D01*
X-228108Y191102D01*
X-228080Y191005D01*
X-228057Y190906D01*
X-228046Y190887D01*
X-228040Y190865D01*
X-227982Y190782D01*
X-227929Y190696D01*
X-227912Y190682D01*
X-227899Y190663D01*
X-227818Y190603D01*
X-227740Y190538D01*
X-227715Y190527D01*
X-227702Y190517D01*
X-227671Y190507D01*
X-227588Y190469D01*
X-226557Y190134D01*
X-224883Y189281D01*
X-223362Y188176D01*
X-222034Y186848D01*
X-220929Y185327D01*
X-220076Y183653D01*
X-219495Y181866D01*
X-219294Y180593D01*
X-230378Y180593D01*
X-230398Y180590D01*
X-230417Y180592D01*
X-230519Y180570D01*
X-230621Y180553D01*
X-230638Y180544D01*
X-230658Y180540D01*
X-230747Y180487D01*
X-230838Y180438D01*
X-230852Y180424D01*
X-230869Y180414D01*
X-230936Y180335D01*
X-231007Y180260D01*
X-231016Y180242D01*
X-231029Y180227D01*
X-231067Y180131D01*
X-231111Y180037D01*
X-231113Y180017D01*
X-231121Y179999D01*
X-231139Y179832D01*
X-231139Y178308D01*
X-231136Y178288D01*
X-231138Y178269D01*
X-231116Y178167D01*
X-231099Y178065D01*
X-231090Y178048D01*
X-231086Y178028D01*
X-231033Y177939D01*
X-230984Y177848D01*
X-230970Y177834D01*
X-230960Y177817D01*
X-230881Y177750D01*
X-230806Y177679D01*
X-230788Y177670D01*
X-230773Y177657D01*
X-230677Y177618D01*
X-230583Y177575D01*
X-230563Y177573D01*
X-230545Y177565D01*
X-230378Y177547D01*
X-219294Y177547D01*
X-219495Y176274D01*
X-220076Y174487D01*
X-220929Y172813D01*
X-222034Y171292D01*
X-223362Y169964D01*
X-224883Y168859D01*
X-226557Y168006D01*
X-227588Y167671D01*
X-227678Y167625D01*
X-227770Y167584D01*
X-227786Y167569D01*
X-227806Y167558D01*
X-227877Y167486D01*
X-227951Y167417D01*
X-227962Y167398D01*
X-227977Y167382D01*
X-228021Y167290D01*
X-228070Y167202D01*
X-228074Y167180D01*
X-228083Y167160D01*
X-228095Y167059D01*
X-228113Y166960D01*
X-228110Y166938D01*
X-228113Y166916D01*
X-228092Y166817D01*
X-228078Y166716D01*
X-228068Y166696D01*
X-228063Y166675D01*
X-228012Y166587D01*
X-227966Y166497D01*
X-227950Y166481D01*
X-227939Y166462D01*
X-227863Y166396D01*
X-227791Y166325D01*
X-227766Y166311D01*
X-227754Y166300D01*
X-227724Y166288D01*
X-227644Y166244D01*
X-223802Y164652D01*
X-220158Y161008D01*
X-218185Y156247D01*
X-218185Y151093D01*
X-220158Y146332D01*
X-223802Y142688D01*
X-228563Y140715D01*
X-233717Y140715D01*
G37*
%LPD*%
%LPC*%
G36*
X-438563Y-338392D02*
X-438563Y-338392D01*
X-444842Y-335792D01*
X-449647Y-330986D01*
X-452248Y-324708D01*
X-452248Y-317912D01*
X-449647Y-311634D01*
X-444842Y-306828D01*
X-438563Y-304228D01*
X-404717Y-304228D01*
X-398438Y-306828D01*
X-393633Y-311634D01*
X-391032Y-317912D01*
X-391032Y-324708D01*
X-393633Y-330986D01*
X-398438Y-335792D01*
X-404717Y-338392D01*
X-438563Y-338392D01*
G37*
%LPD*%
%LPC*%
G36*
X-339456Y68618D02*
X-339456Y68618D01*
X-345409Y73978D01*
X-348667Y81295D01*
X-348667Y89305D01*
X-345409Y96622D01*
X-339456Y101982D01*
X-331839Y104457D01*
X-323872Y103620D01*
X-316936Y99615D01*
X-312228Y93135D01*
X-310562Y85300D01*
X-312228Y77465D01*
X-316936Y70985D01*
X-323872Y66980D01*
X-331838Y66143D01*
X-339456Y68618D01*
G37*
%LPD*%
%LPC*%
G36*
X320194Y-111382D02*
X320194Y-111382D01*
X314241Y-106022D01*
X310983Y-98705D01*
X310983Y-90695D01*
X314241Y-83378D01*
X320194Y-78018D01*
X327811Y-75543D01*
X335778Y-76380D01*
X342714Y-80385D01*
X347422Y-86865D01*
X349088Y-94700D01*
X347422Y-102535D01*
X342714Y-109015D01*
X335778Y-113020D01*
X327811Y-113857D01*
X320194Y-111382D01*
G37*
%LPD*%
%LPC*%
G36*
X-339456Y-111382D02*
X-339456Y-111382D01*
X-345409Y-106022D01*
X-348667Y-98705D01*
X-348667Y-90695D01*
X-345409Y-83378D01*
X-339456Y-78018D01*
X-331839Y-75543D01*
X-323872Y-76380D01*
X-316936Y-80385D01*
X-312228Y-86865D01*
X-310562Y-94700D01*
X-312228Y-102535D01*
X-316936Y-109015D01*
X-323872Y-113020D01*
X-331839Y-113857D01*
X-339456Y-111382D01*
G37*
%LPD*%
%LPC*%
G36*
X320194Y68618D02*
X320194Y68618D01*
X314241Y73978D01*
X310983Y81295D01*
X310983Y89305D01*
X314241Y96622D01*
X320194Y101982D01*
X327811Y104457D01*
X335778Y103620D01*
X342714Y99615D01*
X347422Y93135D01*
X349088Y85300D01*
X347422Y77465D01*
X342714Y70985D01*
X335778Y66980D01*
X327811Y66143D01*
X320194Y68618D01*
G37*
%LPD*%
%LPC*%
G36*
X-3691Y-304307D02*
X-3691Y-304307D01*
X-10512Y-301482D01*
X-15732Y-296262D01*
X-18557Y-289441D01*
X-18557Y-282059D01*
X-15732Y-275238D01*
X-10512Y-270018D01*
X-3691Y-267193D01*
X3691Y-267193D01*
X10512Y-270018D01*
X15732Y-275238D01*
X18557Y-282059D01*
X18557Y-289441D01*
X15732Y-296262D01*
X10512Y-301482D01*
X3691Y-304307D01*
X-3691Y-304307D01*
G37*
%LPD*%
%LPC*%
G36*
X-17296Y73993D02*
X-17296Y73993D01*
X-23797Y80494D01*
X-23797Y89686D01*
X-17296Y96187D01*
X-8104Y96187D01*
X-1603Y89686D01*
X-1603Y80494D01*
X-8104Y73993D01*
X-17296Y73993D01*
G37*
%LPD*%
%LPC*%
G36*
X33504Y73993D02*
X33504Y73993D01*
X27003Y80494D01*
X27003Y89686D01*
X33504Y96187D01*
X42696Y96187D01*
X49197Y89686D01*
X49197Y80494D01*
X42696Y73993D01*
X33504Y73993D01*
G37*
%LPD*%
%LPC*%
G36*
X-42696Y73993D02*
X-42696Y73993D01*
X-49197Y80494D01*
X-49197Y89686D01*
X-42696Y96187D01*
X-33504Y96187D01*
X-27003Y89686D01*
X-27003Y80494D01*
X-33504Y73993D01*
X-42696Y73993D01*
G37*
%LPD*%
%LPC*%
G36*
X8104Y73993D02*
X8104Y73993D01*
X1603Y80494D01*
X1603Y89686D01*
X8104Y96187D01*
X17296Y96187D01*
X23797Y89686D01*
X23797Y80494D01*
X17296Y73993D01*
X8104Y73993D01*
G37*
%LPD*%
%LPC*%
G36*
X-68096Y208613D02*
X-68096Y208613D01*
X-74597Y215114D01*
X-74597Y224306D01*
X-68096Y230807D01*
X-58904Y230807D01*
X-52403Y224306D01*
X-52403Y215114D01*
X-58904Y208613D01*
X-68096Y208613D01*
G37*
%LPD*%
%LPC*%
G36*
X-42696Y208613D02*
X-42696Y208613D01*
X-49197Y215114D01*
X-49197Y224306D01*
X-42696Y230807D01*
X-33504Y230807D01*
X-27003Y224306D01*
X-27003Y215114D01*
X-33504Y208613D01*
X-42696Y208613D01*
G37*
%LPD*%
%LPC*%
G36*
X-17296Y208613D02*
X-17296Y208613D01*
X-23797Y215114D01*
X-23797Y224306D01*
X-17296Y230807D01*
X-8104Y230807D01*
X-1603Y224306D01*
X-1603Y215114D01*
X-8104Y208613D01*
X-17296Y208613D01*
G37*
%LPD*%
%LPC*%
G36*
X8104Y208613D02*
X8104Y208613D01*
X1603Y215114D01*
X1603Y224306D01*
X8104Y230807D01*
X17296Y230807D01*
X23797Y224306D01*
X23797Y215114D01*
X17296Y208613D01*
X8104Y208613D01*
G37*
%LPD*%
%LPC*%
G36*
X33504Y208613D02*
X33504Y208613D01*
X27003Y215114D01*
X27003Y224306D01*
X33504Y230807D01*
X42696Y230807D01*
X49197Y224306D01*
X49197Y215114D01*
X42696Y208613D01*
X33504Y208613D01*
G37*
%LPD*%
%LPC*%
G36*
X58904Y208613D02*
X58904Y208613D01*
X52403Y215114D01*
X52403Y224306D01*
X58904Y230807D01*
X68096Y230807D01*
X74597Y224306D01*
X74597Y215114D01*
X68096Y208613D01*
X58904Y208613D01*
G37*
%LPD*%
%LPC*%
G36*
X-93496Y208613D02*
X-93496Y208613D01*
X-99997Y215114D01*
X-99997Y224306D01*
X-93496Y230807D01*
X-84304Y230807D01*
X-77803Y224306D01*
X-77803Y215114D01*
X-84304Y208613D01*
X-93496Y208613D01*
G37*
%LPD*%
%LPC*%
G36*
X131357Y482932D02*
X131357Y482932D01*
X131282Y482997D01*
X131259Y483006D01*
X131240Y483020D01*
X131084Y483081D01*
X128613Y483743D01*
X120599Y497623D01*
X121362Y500469D01*
X135241Y508482D01*
X138087Y507719D01*
X146101Y493840D01*
X145338Y490994D01*
X131501Y483005D01*
X131464Y482975D01*
X131421Y482952D01*
X131383Y482912D01*
X131357Y482932D01*
G37*
%LPD*%
%LPC*%
G36*
X-132638Y512991D02*
X-132638Y512991D01*
X-133401Y515837D01*
X-125387Y529717D01*
X-122541Y530479D01*
X-108662Y522466D01*
X-107899Y519620D01*
X-115913Y505740D01*
X-118759Y504978D01*
X-132638Y512991D01*
G37*
%LPD*%
%LPC*%
G36*
X-414674Y172528D02*
X-414674Y172528D01*
X-415792Y188515D01*
X-413859Y190739D01*
X-397872Y191857D01*
X-395648Y189924D01*
X-394530Y173937D01*
X-396463Y171713D01*
X-412450Y170595D01*
X-414674Y172528D01*
G37*
%LPD*%
%LPC*%
G36*
X421801Y169941D02*
X421801Y169941D01*
X419868Y172165D01*
X420986Y188152D01*
X423210Y190085D01*
X439197Y188967D01*
X441130Y186743D01*
X440012Y170756D01*
X437788Y168823D01*
X421801Y169941D01*
G37*
%LPD*%
%LPC*%
G36*
X-363874Y248728D02*
X-363874Y248728D01*
X-364992Y264715D01*
X-363059Y266939D01*
X-347072Y268057D01*
X-344848Y266124D01*
X-343730Y250137D01*
X-345663Y247913D01*
X-361650Y246795D01*
X-363874Y248728D01*
G37*
%LPD*%
%LPC*%
G36*
X371001Y246141D02*
X371001Y246141D01*
X369068Y248365D01*
X370186Y264352D01*
X372410Y266285D01*
X388397Y265167D01*
X390330Y262943D01*
X389212Y246956D01*
X386988Y245023D01*
X371001Y246141D01*
G37*
%LPD*%
%LPC*%
G36*
X306941Y245109D02*
X306941Y245109D01*
X300989Y251061D01*
X300989Y259479D01*
X306941Y265431D01*
X315359Y265431D01*
X321311Y259479D01*
X321311Y251061D01*
X315359Y245109D01*
X306941Y245109D01*
G37*
%LPD*%
%LPC*%
G36*
X-372509Y198119D02*
X-372509Y198119D01*
X-378461Y204071D01*
X-378461Y212489D01*
X-372509Y218441D01*
X-364091Y218441D01*
X-358139Y212489D01*
X-358139Y204071D01*
X-364091Y198119D01*
X-372509Y198119D01*
G37*
%LPD*%
%LPC*%
G36*
X-16909Y447039D02*
X-16909Y447039D01*
X-22861Y452991D01*
X-22861Y461409D01*
X-16909Y467361D01*
X-8491Y467361D01*
X-2539Y461409D01*
X-2539Y452991D01*
X-8491Y447039D01*
X-16909Y447039D01*
G37*
%LPD*%
%LPC*%
G36*
X54211Y447039D02*
X54211Y447039D01*
X48259Y452991D01*
X48259Y461409D01*
X54211Y467361D01*
X62629Y467361D01*
X68581Y461409D01*
X68581Y452991D01*
X62629Y447039D01*
X54211Y447039D01*
G37*
%LPD*%
%LPC*%
G36*
X-452519Y143509D02*
X-452519Y143509D01*
X-458471Y149461D01*
X-458471Y157879D01*
X-452519Y163831D01*
X-444101Y163831D01*
X-438149Y157879D01*
X-438149Y149461D01*
X-444101Y143509D01*
X-452519Y143509D01*
G37*
%LPD*%
%LPC*%
G36*
X-277259Y143509D02*
X-277259Y143509D01*
X-283211Y149461D01*
X-283211Y157879D01*
X-277259Y163831D01*
X-268841Y163831D01*
X-262889Y157879D01*
X-262889Y149461D01*
X-268841Y143509D01*
X-277259Y143509D01*
G37*
%LPD*%
%LPC*%
G36*
X268841Y143509D02*
X268841Y143509D01*
X262889Y149461D01*
X262889Y157879D01*
X268841Y163831D01*
X277259Y163831D01*
X283211Y157879D01*
X283211Y149461D01*
X277259Y143509D01*
X268841Y143509D01*
G37*
%LPD*%
%LPC*%
G36*
X367901Y143509D02*
X367901Y143509D01*
X361949Y149461D01*
X361949Y157879D01*
X367901Y163831D01*
X376319Y163831D01*
X382271Y157879D01*
X382271Y149461D01*
X376319Y143509D01*
X367901Y143509D01*
G37*
%LPD*%
%LPC*%
G36*
X351391Y217169D02*
X351391Y217169D01*
X345439Y223121D01*
X345439Y231539D01*
X351391Y237491D01*
X359809Y237491D01*
X365761Y231539D01*
X365761Y223121D01*
X359809Y217169D01*
X351391Y217169D01*
G37*
%LPD*%
%LPC*%
G36*
X-359809Y217169D02*
X-359809Y217169D01*
X-365761Y223121D01*
X-365761Y231539D01*
X-359809Y237491D01*
X-351391Y237491D01*
X-345439Y231539D01*
X-345439Y223121D01*
X-351391Y217169D01*
X-359809Y217169D01*
G37*
%LPD*%
%LPC*%
G36*
X444101Y143509D02*
X444101Y143509D01*
X438149Y149461D01*
X438149Y157879D01*
X444101Y163831D01*
X452519Y163831D01*
X458471Y157879D01*
X458471Y149461D01*
X452519Y143509D01*
X444101Y143509D01*
G37*
%LPD*%
%LPC*%
G36*
X345041Y143509D02*
X345041Y143509D01*
X339089Y149461D01*
X339089Y157879D01*
X345041Y163831D01*
X353459Y163831D01*
X359411Y157879D01*
X359411Y149461D01*
X353459Y143509D01*
X345041Y143509D01*
G37*
%LPD*%
%LPC*%
G36*
X169859Y447205D02*
X169859Y447205D01*
X165651Y454494D01*
X167829Y462625D01*
X175119Y466834D01*
X183250Y464655D01*
X187458Y457366D01*
X185280Y449235D01*
X177990Y445026D01*
X169859Y447205D01*
G37*
%LPD*%
%LPC*%
G36*
X153923Y311403D02*
X153923Y311403D01*
X153923Y327421D01*
X167734Y327421D01*
X168381Y327248D01*
X168960Y326913D01*
X169433Y326440D01*
X169768Y325861D01*
X169941Y325214D01*
X169941Y311403D01*
X153923Y311403D01*
G37*
%LPD*%
%LPC*%
G36*
X-169941Y311403D02*
X-169941Y311403D01*
X-169941Y325214D01*
X-169768Y325861D01*
X-169433Y326440D01*
X-168960Y326913D01*
X-168381Y327248D01*
X-167734Y327421D01*
X-153923Y327421D01*
X-153923Y311403D01*
X-169941Y311403D01*
G37*
%LPD*%
%LPC*%
G36*
X153923Y292339D02*
X153923Y292339D01*
X153923Y308357D01*
X169941Y308357D01*
X169941Y294546D01*
X169768Y293899D01*
X169433Y293320D01*
X168960Y292847D01*
X168381Y292512D01*
X167734Y292339D01*
X153923Y292339D01*
G37*
%LPD*%
%LPC*%
G36*
X-167734Y292339D02*
X-167734Y292339D01*
X-168381Y292512D01*
X-168960Y292847D01*
X-169433Y293320D01*
X-169768Y293899D01*
X-169941Y294546D01*
X-169941Y308357D01*
X-153923Y308357D01*
X-153923Y292339D01*
X-167734Y292339D01*
G37*
%LPD*%
%LPC*%
G36*
X134859Y311403D02*
X134859Y311403D01*
X134859Y325214D01*
X135032Y325861D01*
X135367Y326440D01*
X135840Y326913D01*
X136419Y327248D01*
X137066Y327421D01*
X150877Y327421D01*
X150877Y311403D01*
X134859Y311403D01*
G37*
%LPD*%
%LPC*%
G36*
X-150877Y311403D02*
X-150877Y311403D01*
X-150877Y327421D01*
X-137066Y327421D01*
X-136419Y327248D01*
X-135840Y326913D01*
X-135367Y326440D01*
X-135032Y325861D01*
X-134859Y325214D01*
X-134859Y311403D01*
X-150877Y311403D01*
G37*
%LPD*%
%LPC*%
G36*
X-150877Y292339D02*
X-150877Y292339D01*
X-150877Y308357D01*
X-134859Y308357D01*
X-134859Y294546D01*
X-135032Y293899D01*
X-135367Y293320D01*
X-135840Y292847D01*
X-136419Y292512D01*
X-137066Y292339D01*
X-150877Y292339D01*
G37*
%LPD*%
%LPC*%
G36*
X137066Y292339D02*
X137066Y292339D01*
X136419Y292512D01*
X135840Y292847D01*
X135367Y293320D01*
X135032Y293899D01*
X134859Y294546D01*
X134859Y308357D01*
X150877Y308357D01*
X150877Y292339D01*
X137066Y292339D01*
G37*
%LPD*%
%LPC*%
G36*
X-68148Y491743D02*
X-68148Y491743D01*
X-70232Y493827D01*
X-70232Y503123D01*
X-68148Y505207D01*
X-58852Y505207D01*
X-56768Y503123D01*
X-56768Y493827D01*
X-58852Y491743D01*
X-68148Y491743D01*
G37*
%LPD*%
%LPC*%
G36*
X26923Y-146303D02*
X26923Y-146303D01*
X35561Y-146303D01*
X35561Y-153200D01*
X35311Y-154779D01*
X34816Y-156300D01*
X34090Y-157725D01*
X33150Y-159019D01*
X32019Y-160150D01*
X30725Y-161090D01*
X29300Y-161816D01*
X27779Y-162311D01*
X26923Y-162446D01*
X26923Y-146303D01*
G37*
%LPD*%
%LPC*%
G36*
X27779Y-127249D02*
X27779Y-127249D01*
X29300Y-127744D01*
X30725Y-128470D01*
X32019Y-129410D01*
X33150Y-130541D01*
X34090Y-131835D01*
X34816Y-133260D01*
X35311Y-134781D01*
X35561Y-136360D01*
X35561Y-143257D01*
X26923Y-143257D01*
X26923Y-127114D01*
X27779Y-127249D01*
G37*
%LPD*%
%LPC*%
G36*
X23021Y-162311D02*
X23021Y-162311D01*
X21500Y-161816D01*
X20075Y-161090D01*
X18781Y-160150D01*
X17650Y-159019D01*
X16710Y-157725D01*
X15984Y-156300D01*
X15489Y-154779D01*
X15239Y-153200D01*
X15239Y-146303D01*
X23877Y-146303D01*
X23877Y-162446D01*
X23021Y-162311D01*
G37*
%LPD*%
%LPC*%
G36*
X15239Y-143257D02*
X15239Y-143257D01*
X15239Y-136360D01*
X15489Y-134781D01*
X15984Y-133260D01*
X16710Y-131835D01*
X17650Y-130541D01*
X18781Y-129410D01*
X20075Y-128470D01*
X21500Y-127744D01*
X23021Y-127249D01*
X23877Y-127114D01*
X23877Y-143257D01*
X15239Y-143257D01*
G37*
%LPD*%
%LPC*%
G36*
X-197106Y-144995D02*
X-197106Y-144995D01*
X-198893Y-144414D01*
X-200567Y-143561D01*
X-202088Y-142456D01*
X-203416Y-141128D01*
X-204521Y-139607D01*
X-205374Y-137933D01*
X-205955Y-136146D01*
X-206156Y-134873D01*
X-195833Y-134873D01*
X-195833Y-145196D01*
X-197106Y-144995D01*
G37*
%LPD*%
%LPC*%
G36*
X140714Y-144995D02*
X140714Y-144995D01*
X138927Y-144414D01*
X137253Y-143561D01*
X135732Y-142456D01*
X134404Y-141128D01*
X133299Y-139607D01*
X132446Y-137933D01*
X131865Y-136146D01*
X131664Y-134873D01*
X141987Y-134873D01*
X141987Y-145196D01*
X140714Y-144995D01*
G37*
%LPD*%
%LPC*%
G36*
X90423Y221233D02*
X90423Y221233D01*
X90423Y229791D01*
X96774Y229791D01*
X97421Y229618D01*
X98000Y229283D01*
X98473Y228810D01*
X98808Y228231D01*
X98981Y227584D01*
X98981Y221233D01*
X90423Y221233D01*
G37*
%LPD*%
%LPC*%
G36*
X-98981Y86613D02*
X-98981Y86613D01*
X-98981Y92964D01*
X-98808Y93611D01*
X-98473Y94190D01*
X-98000Y94663D01*
X-97421Y94998D01*
X-96774Y95171D01*
X-90423Y95171D01*
X-90423Y86613D01*
X-98981Y86613D01*
G37*
%LPD*%
%LPC*%
G36*
X90423Y86613D02*
X90423Y86613D01*
X90423Y95171D01*
X96774Y95171D01*
X97421Y94998D01*
X98000Y94663D01*
X98473Y94190D01*
X98808Y93611D01*
X98981Y92964D01*
X98981Y86613D01*
X90423Y86613D01*
G37*
%LPD*%
%LPC*%
G36*
X-96774Y75009D02*
X-96774Y75009D01*
X-97421Y75182D01*
X-98000Y75517D01*
X-98473Y75990D01*
X-98808Y76569D01*
X-98981Y77216D01*
X-98981Y83567D01*
X-90423Y83567D01*
X-90423Y75009D01*
X-96774Y75009D01*
G37*
%LPD*%
%LPC*%
G36*
X90423Y209629D02*
X90423Y209629D01*
X90423Y218187D01*
X98981Y218187D01*
X98981Y211836D01*
X98808Y211189D01*
X98473Y210610D01*
X98000Y210137D01*
X97421Y209802D01*
X96774Y209629D01*
X90423Y209629D01*
G37*
%LPD*%
%LPC*%
G36*
X90423Y75009D02*
X90423Y75009D01*
X90423Y83567D01*
X98981Y83567D01*
X98981Y77216D01*
X98808Y76569D01*
X98473Y75990D01*
X98000Y75517D01*
X97421Y75182D01*
X96774Y75009D01*
X90423Y75009D01*
G37*
%LPD*%
%LPC*%
G36*
X78819Y86613D02*
X78819Y86613D01*
X78819Y92964D01*
X78992Y93611D01*
X79327Y94190D01*
X79800Y94663D01*
X80379Y94998D01*
X81026Y95171D01*
X87377Y95171D01*
X87377Y86613D01*
X78819Y86613D01*
G37*
%LPD*%
%LPC*%
G36*
X-87377Y86613D02*
X-87377Y86613D01*
X-87377Y95171D01*
X-81026Y95171D01*
X-80379Y94998D01*
X-79800Y94663D01*
X-79327Y94190D01*
X-78992Y93611D01*
X-78819Y92964D01*
X-78819Y86613D01*
X-87377Y86613D01*
G37*
%LPD*%
%LPC*%
G36*
X78819Y221233D02*
X78819Y221233D01*
X78819Y227584D01*
X78992Y228231D01*
X79327Y228810D01*
X79800Y229283D01*
X80379Y229618D01*
X81026Y229791D01*
X87377Y229791D01*
X87377Y221233D01*
X78819Y221233D01*
G37*
%LPD*%
%LPC*%
G36*
X81026Y75009D02*
X81026Y75009D01*
X80379Y75182D01*
X79800Y75517D01*
X79327Y75990D01*
X78992Y76569D01*
X78819Y77216D01*
X78819Y83567D01*
X87377Y83567D01*
X87377Y75009D01*
X81026Y75009D01*
G37*
%LPD*%
%LPC*%
G36*
X81026Y209629D02*
X81026Y209629D01*
X80379Y209802D01*
X79800Y210137D01*
X79327Y210610D01*
X78992Y211189D01*
X78819Y211836D01*
X78819Y218187D01*
X87377Y218187D01*
X87377Y209629D01*
X81026Y209629D01*
G37*
%LPD*%
%LPC*%
G36*
X-87377Y75009D02*
X-87377Y75009D01*
X-87377Y83567D01*
X-78819Y83567D01*
X-78819Y77216D01*
X-78992Y76569D01*
X-79327Y75990D01*
X-79800Y75517D01*
X-80379Y75182D01*
X-81026Y75009D01*
X-87377Y75009D01*
G37*
%LPD*%
%LPC*%
G36*
X11523Y41523D02*
X11523Y41523D01*
X11523Y50431D01*
X12468Y50281D01*
X14046Y49768D01*
X15525Y49015D01*
X16867Y48040D01*
X18040Y46867D01*
X19015Y45525D01*
X19768Y44046D01*
X20281Y42468D01*
X20431Y41523D01*
X11523Y41523D01*
G37*
%LPD*%
%LPC*%
G36*
X11523Y38477D02*
X11523Y38477D01*
X20431Y38477D01*
X20281Y37532D01*
X19768Y35954D01*
X19015Y34475D01*
X18040Y33133D01*
X16867Y31960D01*
X15525Y30985D01*
X14046Y30232D01*
X12468Y29719D01*
X11523Y29569D01*
X11523Y38477D01*
G37*
%LPD*%
%LPC*%
G36*
X-352045Y209803D02*
X-352045Y209803D01*
X-352045Y212068D01*
X-346688Y217425D01*
X-344423Y217425D01*
X-344423Y209803D01*
X-352045Y209803D01*
G37*
%LPD*%
%LPC*%
G36*
X369823Y209803D02*
X369823Y209803D01*
X369823Y217425D01*
X372088Y217425D01*
X377445Y212068D01*
X377445Y209803D01*
X369823Y209803D01*
G37*
%LPD*%
%LPC*%
G36*
X14223Y458723D02*
X14223Y458723D01*
X14223Y466345D01*
X16488Y466345D01*
X21845Y460988D01*
X21845Y458723D01*
X14223Y458723D01*
G37*
%LPD*%
%LPC*%
G36*
X3555Y458723D02*
X3555Y458723D01*
X3555Y460988D01*
X8912Y466345D01*
X11177Y466345D01*
X11177Y458723D01*
X3555Y458723D01*
G37*
%LPD*%
%LPC*%
G36*
X359155Y209803D02*
X359155Y209803D01*
X359155Y212068D01*
X364512Y217425D01*
X366777Y217425D01*
X366777Y209803D01*
X359155Y209803D01*
G37*
%LPD*%
%LPC*%
G36*
X239292Y502711D02*
X239292Y502711D01*
X241254Y503843D01*
X248571Y501883D01*
X249703Y499921D01*
X243103Y496111D01*
X239292Y502711D01*
G37*
%LPD*%
%LPC*%
G36*
X-249703Y499921D02*
X-249703Y499921D01*
X-248571Y501883D01*
X-241254Y503843D01*
X-239292Y502711D01*
X-243103Y496111D01*
X-249703Y499921D01*
G37*
%LPD*%
%LPC*%
G36*
X-346688Y199135D02*
X-346688Y199135D01*
X-352045Y204492D01*
X-352045Y206757D01*
X-344423Y206757D01*
X-344423Y199135D01*
X-346688Y199135D01*
G37*
%LPD*%
%LPC*%
G36*
X312673Y169925D02*
X312673Y169925D01*
X312673Y177547D01*
X320295Y177547D01*
X320295Y175282D01*
X314938Y169925D01*
X312673Y169925D01*
G37*
%LPD*%
%LPC*%
G36*
X-309627Y180593D02*
X-309627Y180593D01*
X-309627Y188215D01*
X-307362Y188215D01*
X-302005Y182858D01*
X-302005Y180593D01*
X-309627Y180593D01*
G37*
%LPD*%
%LPC*%
G36*
X14223Y448055D02*
X14223Y448055D01*
X14223Y455677D01*
X21845Y455677D01*
X21845Y453412D01*
X16488Y448055D01*
X14223Y448055D01*
G37*
%LPD*%
%LPC*%
G36*
X244626Y493472D02*
X244626Y493472D01*
X251227Y497283D01*
X252359Y495322D01*
X250398Y488004D01*
X248437Y486872D01*
X244626Y493472D01*
G37*
%LPD*%
%LPC*%
G36*
X-250398Y488004D02*
X-250398Y488004D01*
X-252359Y495322D01*
X-251227Y497283D01*
X-244626Y493472D01*
X-248437Y486872D01*
X-250398Y488004D01*
G37*
%LPD*%
%LPC*%
G36*
X307362Y169925D02*
X307362Y169925D01*
X302005Y175282D01*
X302005Y177547D01*
X309627Y177547D01*
X309627Y169925D01*
X307362Y169925D01*
G37*
%LPD*%
%LPC*%
G36*
X8912Y448055D02*
X8912Y448055D01*
X3555Y453412D01*
X3555Y455677D01*
X11177Y455677D01*
X11177Y448055D01*
X8912Y448055D01*
G37*
%LPD*%
%LPC*%
G36*
X-309627Y169925D02*
X-309627Y169925D01*
X-309627Y177547D01*
X-302005Y177547D01*
X-302005Y175282D01*
X-307362Y169925D01*
X-309627Y169925D01*
G37*
%LPD*%
%LPC*%
G36*
X236520Y486177D02*
X236520Y486177D01*
X235388Y488139D01*
X241988Y491949D01*
X245799Y485349D01*
X243838Y484217D01*
X236520Y486177D01*
G37*
%LPD*%
%LPC*%
G36*
X232732Y492738D02*
X232732Y492738D01*
X234693Y500056D01*
X236654Y501188D01*
X240465Y494588D01*
X233864Y490777D01*
X232732Y492738D01*
G37*
%LPD*%
%LPC*%
G36*
X-240465Y494588D02*
X-240465Y494588D01*
X-236654Y501188D01*
X-234693Y500056D01*
X-232732Y492738D01*
X-233864Y490777D01*
X-240465Y494588D01*
G37*
%LPD*%
%LPC*%
G36*
X-245799Y485349D02*
X-245799Y485349D01*
X-241988Y491949D01*
X-235388Y488139D01*
X-236520Y486177D01*
X-243838Y484217D01*
X-245799Y485349D01*
G37*
%LPD*%
G36*
X-441225Y-244840D02*
X-441225Y-244840D01*
X-441128Y-244830D01*
X-441104Y-244820D01*
X-441078Y-244816D01*
X-440992Y-244770D01*
X-440903Y-244730D01*
X-440884Y-244713D01*
X-440861Y-244700D01*
X-440794Y-244630D01*
X-440722Y-244564D01*
X-440709Y-244541D01*
X-440691Y-244522D01*
X-440650Y-244434D01*
X-440603Y-244348D01*
X-440599Y-244323D01*
X-440588Y-244299D01*
X-440577Y-244202D01*
X-440560Y-244106D01*
X-440563Y-244080D01*
X-440561Y-244055D01*
X-440581Y-243959D01*
X-440595Y-243863D01*
X-440607Y-243840D01*
X-440613Y-243814D01*
X-440663Y-243731D01*
X-440707Y-243644D01*
X-440726Y-243625D01*
X-440739Y-243603D01*
X-440813Y-243540D01*
X-440883Y-243472D01*
X-440911Y-243456D01*
X-440926Y-243443D01*
X-440957Y-243431D01*
X-441029Y-243391D01*
X-444842Y-241812D01*
X-449647Y-237006D01*
X-450081Y-235959D01*
X-450132Y-235877D01*
X-450178Y-235791D01*
X-450197Y-235773D01*
X-450210Y-235750D01*
X-450285Y-235688D01*
X-450356Y-235621D01*
X-450380Y-235610D01*
X-450400Y-235594D01*
X-450491Y-235559D01*
X-450579Y-235518D01*
X-450605Y-235515D01*
X-450629Y-235505D01*
X-450727Y-235501D01*
X-450823Y-235491D01*
X-450849Y-235496D01*
X-450875Y-235495D01*
X-450969Y-235522D01*
X-451064Y-235543D01*
X-451086Y-235556D01*
X-451111Y-235564D01*
X-451191Y-235619D01*
X-451275Y-235669D01*
X-451292Y-235689D01*
X-451313Y-235704D01*
X-451372Y-235782D01*
X-451435Y-235856D01*
X-451445Y-235880D01*
X-451460Y-235901D01*
X-451490Y-235994D01*
X-451527Y-236084D01*
X-451530Y-236117D01*
X-451536Y-236135D01*
X-451536Y-236168D01*
X-451545Y-236251D01*
X-451545Y-238569D01*
X-451531Y-238659D01*
X-451523Y-238750D01*
X-451511Y-238780D01*
X-451506Y-238812D01*
X-451463Y-238892D01*
X-451427Y-238976D01*
X-451401Y-239008D01*
X-451390Y-239029D01*
X-451367Y-239051D01*
X-451322Y-239107D01*
X-445797Y-244632D01*
X-445723Y-244685D01*
X-445654Y-244745D01*
X-445624Y-244757D01*
X-445597Y-244776D01*
X-445510Y-244803D01*
X-445426Y-244837D01*
X-445385Y-244841D01*
X-445362Y-244848D01*
X-445330Y-244847D01*
X-445259Y-244855D01*
X-441321Y-244855D01*
X-441225Y-244840D01*
G37*
G36*
X-11848Y-148574D02*
X-11848Y-148574D01*
X-11796Y-148573D01*
X-11728Y-148548D01*
X-11658Y-148533D01*
X-11614Y-148506D01*
X-11565Y-148488D01*
X-11509Y-148443D01*
X-11447Y-148407D01*
X-11413Y-148367D01*
X-11373Y-148335D01*
X-11334Y-148274D01*
X-11287Y-148220D01*
X-11268Y-148171D01*
X-11240Y-148128D01*
X-11222Y-148058D01*
X-11195Y-147992D01*
X-11187Y-147920D01*
X-11179Y-147889D01*
X-11181Y-147866D01*
X-11177Y-147825D01*
X-11177Y-143259D01*
X-11191Y-143169D01*
X-11199Y-143078D01*
X-11211Y-143048D01*
X-11216Y-143016D01*
X-11259Y-142936D01*
X-11295Y-142852D01*
X-11321Y-142820D01*
X-11332Y-142799D01*
X-11355Y-142777D01*
X-11400Y-142721D01*
X-12924Y-141197D01*
X-12982Y-141155D01*
X-13034Y-141106D01*
X-13081Y-141084D01*
X-13123Y-141053D01*
X-13192Y-141032D01*
X-13257Y-141002D01*
X-13309Y-140996D01*
X-13359Y-140981D01*
X-13430Y-140983D01*
X-13501Y-140975D01*
X-13552Y-140986D01*
X-13604Y-140987D01*
X-13672Y-141012D01*
X-13742Y-141027D01*
X-13786Y-141054D01*
X-13835Y-141072D01*
X-13891Y-141117D01*
X-13953Y-141153D01*
X-13987Y-141193D01*
X-14027Y-141225D01*
X-14066Y-141286D01*
X-14113Y-141340D01*
X-14132Y-141389D01*
X-14160Y-141432D01*
X-14178Y-141502D01*
X-14205Y-141568D01*
X-14213Y-141640D01*
X-14221Y-141671D01*
X-14219Y-141694D01*
X-14223Y-141735D01*
X-14223Y-146301D01*
X-14209Y-146391D01*
X-14201Y-146482D01*
X-14189Y-146512D01*
X-14184Y-146544D01*
X-14141Y-146624D01*
X-14105Y-146708D01*
X-14079Y-146740D01*
X-14068Y-146761D01*
X-14045Y-146783D01*
X-14000Y-146839D01*
X-12476Y-148363D01*
X-12418Y-148405D01*
X-12366Y-148454D01*
X-12319Y-148476D01*
X-12277Y-148507D01*
X-12208Y-148528D01*
X-12143Y-148558D01*
X-12091Y-148564D01*
X-12041Y-148579D01*
X-11970Y-148577D01*
X-11899Y-148585D01*
X-11848Y-148574D01*
G37*
%LPC*%
G36*
X-88901Y85089D02*
X-88901Y85089D01*
X-88901Y85091D01*
X-88899Y85091D01*
X-88899Y85089D01*
X-88901Y85089D01*
G37*
%LPD*%
%LPC*%
G36*
X88899Y85089D02*
X88899Y85089D01*
X88899Y85091D01*
X88901Y85091D01*
X88901Y85089D01*
X88899Y85089D01*
G37*
%LPD*%
%LPC*%
G36*
X25399Y-144781D02*
X25399Y-144781D01*
X25399Y-144779D01*
X25401Y-144779D01*
X25401Y-144781D01*
X25399Y-144781D01*
G37*
%LPD*%
%LPC*%
G36*
X88899Y219709D02*
X88899Y219709D01*
X88899Y219711D01*
X88901Y219711D01*
X88901Y219709D01*
X88899Y219709D01*
G37*
%LPD*%
%LPC*%
G36*
X-152401Y309879D02*
X-152401Y309879D01*
X-152401Y309881D01*
X-152399Y309881D01*
X-152399Y309879D01*
X-152401Y309879D01*
G37*
%LPD*%
%LPC*%
G36*
X152399Y309879D02*
X152399Y309879D01*
X152399Y309881D01*
X152401Y309881D01*
X152401Y309879D01*
X152399Y309879D01*
G37*
%LPD*%
%LPC*%
G36*
X12699Y457199D02*
X12699Y457199D01*
X12699Y457201D01*
X12701Y457201D01*
X12701Y457199D01*
X12699Y457199D01*
G37*
%LPD*%
%LPC*%
G36*
X242544Y494030D02*
X242544Y494030D01*
X242546Y494031D01*
X242547Y494030D01*
X242545Y494029D01*
X242544Y494030D01*
G37*
%LPD*%
%LPC*%
G36*
X-242547Y494030D02*
X-242547Y494030D01*
X-242546Y494031D01*
X-242544Y494030D01*
X-242545Y494029D01*
X-242547Y494030D01*
G37*
%LPD*%
D10*
X-430499Y179454D03*
D11*
G36*
X-398181Y175159D02*
X-411228Y174246D01*
X-412141Y187293D01*
X-399094Y188206D01*
X-398181Y175159D01*
G37*
D10*
X405161Y181226D03*
D11*
G36*
X436566Y172474D02*
X423519Y173387D01*
X424432Y186434D01*
X437479Y185521D01*
X436566Y172474D01*
G37*
D10*
X-379699Y255654D03*
D11*
G36*
X-347381Y251359D02*
X-360428Y250446D01*
X-361341Y263493D01*
X-348294Y264406D01*
X-347381Y251359D01*
G37*
D10*
X354361Y257426D03*
D11*
G36*
X385766Y248674D02*
X372719Y249587D01*
X373632Y262634D01*
X386679Y261721D01*
X385766Y248674D01*
G37*
D10*
X-44450Y508431D03*
D11*
G36*
X-22817Y532822D02*
X-29357Y521496D01*
X-40683Y528036D01*
X-34143Y539362D01*
X-22817Y532822D01*
G37*
D10*
X31750Y530429D03*
D11*
G36*
X42057Y499498D02*
X35517Y510824D01*
X46843Y517364D01*
X53383Y506038D01*
X42057Y499498D01*
G37*
D10*
X-133350Y495731D03*
D11*
G36*
X-111717Y520122D02*
X-118257Y508796D01*
X-129583Y515336D01*
X-123043Y526662D01*
X-111717Y520122D01*
G37*
D10*
X120650Y517729D03*
D11*
G36*
X130957Y486798D02*
X124417Y498124D01*
X135743Y504664D01*
X142283Y493338D01*
X130957Y486798D01*
G37*
D12*
X58420Y457200D03*
X134620Y457200D03*
D13*
X-372110Y153670D03*
X-448310Y153670D03*
D12*
X372110Y153670D03*
X448310Y153670D03*
D14*
X-311150Y179070D03*
X-311150Y255270D03*
D15*
X-242546Y494030D03*
X-176554Y455930D03*
D16*
X242546Y494030D03*
X176554Y455930D03*
D14*
X311150Y179070D03*
X311150Y255270D03*
D12*
X-349250Y153670D03*
X-273050Y153670D03*
D13*
X-58420Y457200D03*
X-134620Y457200D03*
X349250Y153670D03*
X273050Y153670D03*
D17*
X152400Y386080D03*
X152400Y309880D03*
X-152400Y309880D03*
X-152400Y386080D03*
D12*
X-342900Y208280D03*
X-355600Y227330D03*
X-368300Y208280D03*
X12700Y457200D03*
X0Y476250D03*
X-12700Y457200D03*
X368300Y208280D03*
X355600Y227330D03*
X342900Y208280D03*
D18*
X-194310Y-133350D03*
X-194310Y-107950D03*
X-168910Y-133350D03*
X-168910Y-107950D03*
X-143510Y-133350D03*
X-143510Y-107950D03*
X143510Y-133350D03*
X143510Y-107950D03*
X168910Y-133350D03*
X168910Y-107950D03*
X194310Y-133350D03*
X194310Y-107950D03*
D19*
X-408115Y-227330D02*
X-435166Y-227330D01*
X-435166Y-274320D02*
X-408115Y-274320D01*
X-408115Y-321310D02*
X-435166Y-321310D01*
D18*
X-231140Y153670D03*
X-231140Y179070D03*
X-231140Y204470D03*
X-231140Y229870D03*
X-231140Y255270D03*
X-231140Y280670D03*
X-231140Y306070D03*
X-231140Y331470D03*
X-231140Y356870D03*
X-231140Y382270D03*
X-231140Y407670D03*
X-231140Y433070D03*
X231140Y153670D03*
X231140Y179070D03*
X231140Y204470D03*
X231140Y229870D03*
X231140Y255270D03*
X231140Y280670D03*
X231140Y306070D03*
X231140Y331470D03*
X231140Y356870D03*
X231140Y382270D03*
X231140Y407670D03*
X231140Y433070D03*
D20*
X-88900Y85090D03*
D21*
X-63500Y85090D03*
X-38100Y85090D03*
X-12700Y85090D03*
X12700Y85090D03*
X38100Y85090D03*
X63500Y85090D03*
D20*
X88900Y85090D03*
D21*
X-88900Y219710D03*
X-63500Y219710D03*
X-38100Y219710D03*
X-12700Y219710D03*
X12700Y219710D03*
X38100Y219710D03*
X63500Y219710D03*
D20*
X88900Y219710D03*
D19*
X408115Y-227330D02*
X435166Y-227330D01*
X435166Y-274320D02*
X408115Y-274320D01*
X408115Y-321310D02*
X435166Y-321310D01*
D22*
X25400Y-152400D02*
X25400Y-137160D01*
X0Y-137160D02*
X0Y-152400D01*
X-25400Y-152400D02*
X-25400Y-137160D01*
D23*
X10000Y40000D03*
X-10000Y40000D03*
D24*
X-280670Y54610D02*
X-280670Y-195580D01*
X-312420Y-227330D01*
X-421640Y-227330D01*
X-185420Y353060D02*
X-152400Y386080D01*
X-185420Y149860D02*
X-280670Y54610D01*
X-185420Y149860D02*
X-185420Y353060D01*
X-379699Y415321D02*
X-379699Y255654D01*
X92279Y546100D02*
X269240Y546100D01*
X92279Y546100D02*
X-183719Y546100D01*
X-248920Y546100D01*
X-379699Y415321D01*
X294640Y458470D02*
X355600Y397510D01*
X355600Y459740D01*
X269240Y546100D01*
X-133350Y495731D02*
X-183719Y546100D01*
X92279Y546100D02*
X120650Y517729D01*
X189230Y435610D02*
X189230Y170180D01*
X171450Y152400D01*
X-168910Y134620D02*
X-168910Y-107950D01*
X241300Y458470D02*
X294640Y458470D01*
X241300Y458470D02*
X212090Y458470D01*
X189230Y435610D01*
X171450Y152400D02*
X-86360Y152400D01*
X-151130Y152400D01*
X-168910Y134620D01*
X231140Y433070D02*
X231140Y448310D01*
X241300Y458470D01*
X-63500Y129540D02*
X-63500Y85090D01*
X-63500Y129540D02*
X-86360Y152400D01*
X189230Y170180D02*
X189230Y-87630D01*
X168910Y-107950D01*
X355600Y258665D02*
X355600Y397510D01*
X355600Y258665D02*
X354361Y257426D01*
X421640Y-227330D02*
X261620Y-227330D01*
X209550Y-48260D02*
X209550Y389890D01*
X227330Y407670D01*
X231140Y407670D01*
X240030Y-205740D02*
X261620Y-227330D01*
X240030Y-205740D02*
X240030Y-78740D01*
X209550Y-48260D01*
X421640Y-227330D02*
X448310Y-227330D01*
X457200Y-236220D01*
X457200Y-290830D01*
X448310Y-299720D01*
X-31750Y-321310D02*
X-78740Y-274320D01*
X-421640Y-274320D01*
X48260Y-299720D02*
X448310Y-299720D01*
X48260Y-299720D02*
X26670Y-321310D01*
X-31750Y-321310D01*
X152400Y386080D02*
X152400Y412750D01*
X90170Y474980D01*
X72390Y492760D01*
X-11430Y492760D01*
X-30480Y492760D01*
X-49530Y473710D01*
X-327660Y440690D02*
X-327660Y174498D01*
X-294640Y473710D02*
X-49530Y473710D01*
X-294640Y473710D02*
X-327660Y440690D01*
X-430499Y179454D02*
X-430499Y166339D01*
X-424180Y160020D01*
X-387350Y160020D01*
X-335280Y166878D02*
X-327660Y174498D01*
X-335280Y166878D02*
X-380492Y166878D01*
X-387350Y160020D01*
X-327660Y174498D02*
X-327660Y132080D01*
X-358140Y101600D01*
X-358140Y-190500D02*
X-368300Y-200660D01*
X-358140Y-190500D02*
X-358140Y101600D01*
X-447040Y-200660D02*
X-458150Y-211770D01*
X-458150Y-241620D02*
X-448310Y-251460D01*
X-447040Y-200660D02*
X-368300Y-200660D01*
X-458150Y-211770D02*
X-458150Y-241620D01*
X-69850Y-217170D02*
X-69850Y48260D01*
X-57150Y60960D01*
X53340Y60960D01*
X63500Y71120D01*
X63500Y85090D01*
X-69850Y-217170D02*
X-104140Y-251460D01*
X90170Y474980D02*
X307340Y474980D01*
X336550Y445770D01*
D25*
X336550Y445770D03*
X386080Y396240D03*
D24*
X430499Y351821D01*
X430499Y236189D01*
X264160Y382270D02*
X231140Y382270D01*
X-104140Y-251460D02*
X-448310Y-251460D01*
X386588Y192278D02*
X430499Y236189D01*
X386588Y192278D02*
X363220Y192278D01*
X292862Y192278D01*
X276860Y208280D01*
X276860Y369570D01*
X264160Y382270D01*
X374272Y181226D02*
X405161Y181226D01*
X374272Y181226D02*
X363220Y192278D01*
X-11430Y492760D02*
X-27101Y508431D01*
X-44450Y508431D01*
X-10000Y40000D02*
X-10000Y-134780D01*
X0Y-144780D01*
X-14224Y-155956D02*
X-25400Y-144780D01*
X-14224Y-155956D02*
X-14224Y-158292D01*
X101804Y-274320D01*
X421640Y-274320D01*
M02*
