G04 EAGLE Gerber RS-274X export*
G75*
%MOMM*%
%FSLAX34Y34*%
%LPD*%
%INSilk screen CMP*%
%IPPOS*%
%AMOC8*
5,1,8,0,0,1.08239X$1,22.5*%
G01*
%ADD10C,0.152400*%
%ADD11C,0.000000*%
%ADD12C,0.203200*%
%ADD13C,0.100000*%
%ADD14R,0.381000X0.508000*%
%ADD15R,0.508000X0.381000*%
%ADD16C,0.127000*%
%ADD17C,0.101600*%
%ADD18C,0.254000*%
%ADD19C,0.508000*%
%ADD20R,10.668000X0.762000*%
%ADD21R,1.905000X0.508000*%
%ADD22R,0.762000X0.508000*%


D10*
X-464500Y-139700D02*
X-464500Y-339700D01*
X-413700Y-390500D01*
X-464500Y272000D02*
X-464407Y279672D01*
X-464129Y287339D01*
X-463666Y294998D01*
X-463018Y302643D01*
X-462185Y310270D01*
X-461168Y317875D01*
X-459968Y325453D01*
X-458585Y333000D01*
X-457020Y340511D01*
X-455274Y347983D01*
X-453348Y355410D01*
X-451243Y362788D01*
X-448960Y370113D01*
X-446502Y377381D01*
X-443868Y384587D01*
X-441060Y391728D01*
X-438082Y398798D01*
X-434933Y405795D01*
X-431616Y412713D01*
X-428132Y419550D01*
X-424485Y426300D01*
X-420675Y432960D01*
X-416706Y439526D01*
X-412579Y445994D01*
X-408297Y452361D01*
X-403863Y458622D01*
X-399278Y464774D01*
X-394547Y470814D01*
X-389670Y476737D01*
X-384652Y482541D01*
X-379495Y488223D01*
X-374203Y493777D01*
X-368777Y499203D01*
X-363223Y504495D01*
X-357541Y509652D01*
X-351737Y514670D01*
X-345814Y519547D01*
X-339774Y524278D01*
X-333622Y528863D01*
X-327361Y533297D01*
X-320994Y537579D01*
X-314526Y541706D01*
X-307960Y545675D01*
X-301300Y549485D01*
X-294550Y553132D01*
X-287713Y556616D01*
X-280795Y559933D01*
X-273798Y563082D01*
X-266728Y566060D01*
X-259587Y568868D01*
X-252381Y571502D01*
X-245113Y573960D01*
X-237788Y576243D01*
X-230410Y578348D01*
X-222983Y580274D01*
X-215511Y582020D01*
X-208000Y583585D01*
X-200453Y584968D01*
X-192875Y586168D01*
X-185270Y587185D01*
X-177643Y588018D01*
X-169998Y588666D01*
X-162339Y589129D01*
X-154672Y589407D01*
X-147000Y589500D01*
X147000Y589500D01*
X154672Y589407D01*
X162339Y589129D01*
X169998Y588666D01*
X177643Y588018D01*
X185270Y587185D01*
X192875Y586168D01*
X200453Y584968D01*
X208000Y583585D01*
X215511Y582020D01*
X222983Y580274D01*
X230410Y578348D01*
X237788Y576243D01*
X245113Y573960D01*
X252381Y571502D01*
X259587Y568868D01*
X266728Y566060D01*
X273798Y563082D01*
X280795Y559933D01*
X287713Y556616D01*
X294550Y553132D01*
X301300Y549485D01*
X307960Y545675D01*
X314526Y541706D01*
X320994Y537579D01*
X327361Y533297D01*
X333622Y528863D01*
X339774Y524278D01*
X345814Y519547D01*
X351737Y514670D01*
X357541Y509652D01*
X363223Y504495D01*
X368777Y499203D01*
X374203Y493777D01*
X379495Y488223D01*
X384652Y482541D01*
X389670Y476737D01*
X394547Y470814D01*
X399278Y464774D01*
X403863Y458622D01*
X408297Y452361D01*
X412579Y445994D01*
X416706Y439526D01*
X420675Y432960D01*
X424485Y426300D01*
X428132Y419550D01*
X431616Y412713D01*
X434933Y405795D01*
X438082Y398798D01*
X441060Y391728D01*
X443868Y384587D01*
X446502Y377381D01*
X448960Y370113D01*
X451243Y362788D01*
X453348Y355410D01*
X455274Y347983D01*
X457020Y340511D01*
X458585Y333000D01*
X459968Y325453D01*
X461168Y317875D01*
X462185Y310270D01*
X463018Y302643D01*
X463666Y294998D01*
X464129Y287339D01*
X464407Y279672D01*
X464500Y272000D01*
X-464500Y272000D02*
X-464500Y130300D01*
X-375600Y130300D01*
X-375600Y-139700D01*
X-464500Y-139700D01*
X375600Y-139700D02*
X464500Y-139700D01*
X375600Y-139700D02*
X375600Y130300D01*
X464500Y130300D01*
X464500Y272000D01*
X413700Y-390500D02*
X-413700Y-390500D01*
X413700Y-390500D02*
X464500Y-339700D01*
X464500Y-139700D01*
D11*
X-339825Y85300D02*
X-339822Y85545D01*
X-339813Y85791D01*
X-339798Y86036D01*
X-339777Y86280D01*
X-339750Y86524D01*
X-339717Y86767D01*
X-339678Y87010D01*
X-339633Y87251D01*
X-339582Y87491D01*
X-339525Y87730D01*
X-339463Y87967D01*
X-339394Y88203D01*
X-339320Y88437D01*
X-339240Y88669D01*
X-339155Y88899D01*
X-339064Y89127D01*
X-338967Y89352D01*
X-338865Y89576D01*
X-338757Y89796D01*
X-338644Y90014D01*
X-338526Y90229D01*
X-338402Y90441D01*
X-338274Y90650D01*
X-338140Y90856D01*
X-338001Y91058D01*
X-337857Y91257D01*
X-337708Y91452D01*
X-337555Y91644D01*
X-337397Y91832D01*
X-337235Y92016D01*
X-337067Y92195D01*
X-336896Y92371D01*
X-336720Y92542D01*
X-336541Y92710D01*
X-336357Y92872D01*
X-336169Y93030D01*
X-335977Y93183D01*
X-335782Y93332D01*
X-335583Y93476D01*
X-335381Y93615D01*
X-335175Y93749D01*
X-334966Y93877D01*
X-334754Y94001D01*
X-334539Y94119D01*
X-334321Y94232D01*
X-334101Y94340D01*
X-333877Y94442D01*
X-333652Y94539D01*
X-333424Y94630D01*
X-333194Y94715D01*
X-332962Y94795D01*
X-332728Y94869D01*
X-332492Y94938D01*
X-332255Y95000D01*
X-332016Y95057D01*
X-331776Y95108D01*
X-331535Y95153D01*
X-331292Y95192D01*
X-331049Y95225D01*
X-330805Y95252D01*
X-330561Y95273D01*
X-330316Y95288D01*
X-330070Y95297D01*
X-329825Y95300D01*
X-329580Y95297D01*
X-329334Y95288D01*
X-329089Y95273D01*
X-328845Y95252D01*
X-328601Y95225D01*
X-328358Y95192D01*
X-328115Y95153D01*
X-327874Y95108D01*
X-327634Y95057D01*
X-327395Y95000D01*
X-327158Y94938D01*
X-326922Y94869D01*
X-326688Y94795D01*
X-326456Y94715D01*
X-326226Y94630D01*
X-325998Y94539D01*
X-325773Y94442D01*
X-325549Y94340D01*
X-325329Y94232D01*
X-325111Y94119D01*
X-324896Y94001D01*
X-324684Y93877D01*
X-324475Y93749D01*
X-324269Y93615D01*
X-324067Y93476D01*
X-323868Y93332D01*
X-323673Y93183D01*
X-323481Y93030D01*
X-323293Y92872D01*
X-323109Y92710D01*
X-322930Y92542D01*
X-322754Y92371D01*
X-322583Y92195D01*
X-322415Y92016D01*
X-322253Y91832D01*
X-322095Y91644D01*
X-321942Y91452D01*
X-321793Y91257D01*
X-321649Y91058D01*
X-321510Y90856D01*
X-321376Y90650D01*
X-321248Y90441D01*
X-321124Y90229D01*
X-321006Y90014D01*
X-320893Y89796D01*
X-320785Y89576D01*
X-320683Y89352D01*
X-320586Y89127D01*
X-320495Y88899D01*
X-320410Y88669D01*
X-320330Y88437D01*
X-320256Y88203D01*
X-320187Y87967D01*
X-320125Y87730D01*
X-320068Y87491D01*
X-320017Y87251D01*
X-319972Y87010D01*
X-319933Y86767D01*
X-319900Y86524D01*
X-319873Y86280D01*
X-319852Y86036D01*
X-319837Y85791D01*
X-319828Y85545D01*
X-319825Y85300D01*
X-319828Y85055D01*
X-319837Y84809D01*
X-319852Y84564D01*
X-319873Y84320D01*
X-319900Y84076D01*
X-319933Y83833D01*
X-319972Y83590D01*
X-320017Y83349D01*
X-320068Y83109D01*
X-320125Y82870D01*
X-320187Y82633D01*
X-320256Y82397D01*
X-320330Y82163D01*
X-320410Y81931D01*
X-320495Y81701D01*
X-320586Y81473D01*
X-320683Y81248D01*
X-320785Y81024D01*
X-320893Y80804D01*
X-321006Y80586D01*
X-321124Y80371D01*
X-321248Y80159D01*
X-321376Y79950D01*
X-321510Y79744D01*
X-321649Y79542D01*
X-321793Y79343D01*
X-321942Y79148D01*
X-322095Y78956D01*
X-322253Y78768D01*
X-322415Y78584D01*
X-322583Y78405D01*
X-322754Y78229D01*
X-322930Y78058D01*
X-323109Y77890D01*
X-323293Y77728D01*
X-323481Y77570D01*
X-323673Y77417D01*
X-323868Y77268D01*
X-324067Y77124D01*
X-324269Y76985D01*
X-324475Y76851D01*
X-324684Y76723D01*
X-324896Y76599D01*
X-325111Y76481D01*
X-325329Y76368D01*
X-325549Y76260D01*
X-325773Y76158D01*
X-325998Y76061D01*
X-326226Y75970D01*
X-326456Y75885D01*
X-326688Y75805D01*
X-326922Y75731D01*
X-327158Y75662D01*
X-327395Y75600D01*
X-327634Y75543D01*
X-327874Y75492D01*
X-328115Y75447D01*
X-328358Y75408D01*
X-328601Y75375D01*
X-328845Y75348D01*
X-329089Y75327D01*
X-329334Y75312D01*
X-329580Y75303D01*
X-329825Y75300D01*
X-330070Y75303D01*
X-330316Y75312D01*
X-330561Y75327D01*
X-330805Y75348D01*
X-331049Y75375D01*
X-331292Y75408D01*
X-331535Y75447D01*
X-331776Y75492D01*
X-332016Y75543D01*
X-332255Y75600D01*
X-332492Y75662D01*
X-332728Y75731D01*
X-332962Y75805D01*
X-333194Y75885D01*
X-333424Y75970D01*
X-333652Y76061D01*
X-333877Y76158D01*
X-334101Y76260D01*
X-334321Y76368D01*
X-334539Y76481D01*
X-334754Y76599D01*
X-334966Y76723D01*
X-335175Y76851D01*
X-335381Y76985D01*
X-335583Y77124D01*
X-335782Y77268D01*
X-335977Y77417D01*
X-336169Y77570D01*
X-336357Y77728D01*
X-336541Y77890D01*
X-336720Y78058D01*
X-336896Y78229D01*
X-337067Y78405D01*
X-337235Y78584D01*
X-337397Y78768D01*
X-337555Y78956D01*
X-337708Y79148D01*
X-337857Y79343D01*
X-338001Y79542D01*
X-338140Y79744D01*
X-338274Y79950D01*
X-338402Y80159D01*
X-338526Y80371D01*
X-338644Y80586D01*
X-338757Y80804D01*
X-338865Y81024D01*
X-338967Y81248D01*
X-339064Y81473D01*
X-339155Y81701D01*
X-339240Y81931D01*
X-339320Y82163D01*
X-339394Y82397D01*
X-339463Y82633D01*
X-339525Y82870D01*
X-339582Y83109D01*
X-339633Y83349D01*
X-339678Y83590D01*
X-339717Y83833D01*
X-339750Y84076D01*
X-339777Y84320D01*
X-339798Y84564D01*
X-339813Y84809D01*
X-339822Y85055D01*
X-339825Y85300D01*
X-339825Y-94700D02*
X-339822Y-94455D01*
X-339813Y-94209D01*
X-339798Y-93964D01*
X-339777Y-93720D01*
X-339750Y-93476D01*
X-339717Y-93233D01*
X-339678Y-92990D01*
X-339633Y-92749D01*
X-339582Y-92509D01*
X-339525Y-92270D01*
X-339463Y-92033D01*
X-339394Y-91797D01*
X-339320Y-91563D01*
X-339240Y-91331D01*
X-339155Y-91101D01*
X-339064Y-90873D01*
X-338967Y-90648D01*
X-338865Y-90424D01*
X-338757Y-90204D01*
X-338644Y-89986D01*
X-338526Y-89771D01*
X-338402Y-89559D01*
X-338274Y-89350D01*
X-338140Y-89144D01*
X-338001Y-88942D01*
X-337857Y-88743D01*
X-337708Y-88548D01*
X-337555Y-88356D01*
X-337397Y-88168D01*
X-337235Y-87984D01*
X-337067Y-87805D01*
X-336896Y-87629D01*
X-336720Y-87458D01*
X-336541Y-87290D01*
X-336357Y-87128D01*
X-336169Y-86970D01*
X-335977Y-86817D01*
X-335782Y-86668D01*
X-335583Y-86524D01*
X-335381Y-86385D01*
X-335175Y-86251D01*
X-334966Y-86123D01*
X-334754Y-85999D01*
X-334539Y-85881D01*
X-334321Y-85768D01*
X-334101Y-85660D01*
X-333877Y-85558D01*
X-333652Y-85461D01*
X-333424Y-85370D01*
X-333194Y-85285D01*
X-332962Y-85205D01*
X-332728Y-85131D01*
X-332492Y-85062D01*
X-332255Y-85000D01*
X-332016Y-84943D01*
X-331776Y-84892D01*
X-331535Y-84847D01*
X-331292Y-84808D01*
X-331049Y-84775D01*
X-330805Y-84748D01*
X-330561Y-84727D01*
X-330316Y-84712D01*
X-330070Y-84703D01*
X-329825Y-84700D01*
X-329580Y-84703D01*
X-329334Y-84712D01*
X-329089Y-84727D01*
X-328845Y-84748D01*
X-328601Y-84775D01*
X-328358Y-84808D01*
X-328115Y-84847D01*
X-327874Y-84892D01*
X-327634Y-84943D01*
X-327395Y-85000D01*
X-327158Y-85062D01*
X-326922Y-85131D01*
X-326688Y-85205D01*
X-326456Y-85285D01*
X-326226Y-85370D01*
X-325998Y-85461D01*
X-325773Y-85558D01*
X-325549Y-85660D01*
X-325329Y-85768D01*
X-325111Y-85881D01*
X-324896Y-85999D01*
X-324684Y-86123D01*
X-324475Y-86251D01*
X-324269Y-86385D01*
X-324067Y-86524D01*
X-323868Y-86668D01*
X-323673Y-86817D01*
X-323481Y-86970D01*
X-323293Y-87128D01*
X-323109Y-87290D01*
X-322930Y-87458D01*
X-322754Y-87629D01*
X-322583Y-87805D01*
X-322415Y-87984D01*
X-322253Y-88168D01*
X-322095Y-88356D01*
X-321942Y-88548D01*
X-321793Y-88743D01*
X-321649Y-88942D01*
X-321510Y-89144D01*
X-321376Y-89350D01*
X-321248Y-89559D01*
X-321124Y-89771D01*
X-321006Y-89986D01*
X-320893Y-90204D01*
X-320785Y-90424D01*
X-320683Y-90648D01*
X-320586Y-90873D01*
X-320495Y-91101D01*
X-320410Y-91331D01*
X-320330Y-91563D01*
X-320256Y-91797D01*
X-320187Y-92033D01*
X-320125Y-92270D01*
X-320068Y-92509D01*
X-320017Y-92749D01*
X-319972Y-92990D01*
X-319933Y-93233D01*
X-319900Y-93476D01*
X-319873Y-93720D01*
X-319852Y-93964D01*
X-319837Y-94209D01*
X-319828Y-94455D01*
X-319825Y-94700D01*
X-319828Y-94945D01*
X-319837Y-95191D01*
X-319852Y-95436D01*
X-319873Y-95680D01*
X-319900Y-95924D01*
X-319933Y-96167D01*
X-319972Y-96410D01*
X-320017Y-96651D01*
X-320068Y-96891D01*
X-320125Y-97130D01*
X-320187Y-97367D01*
X-320256Y-97603D01*
X-320330Y-97837D01*
X-320410Y-98069D01*
X-320495Y-98299D01*
X-320586Y-98527D01*
X-320683Y-98752D01*
X-320785Y-98976D01*
X-320893Y-99196D01*
X-321006Y-99414D01*
X-321124Y-99629D01*
X-321248Y-99841D01*
X-321376Y-100050D01*
X-321510Y-100256D01*
X-321649Y-100458D01*
X-321793Y-100657D01*
X-321942Y-100852D01*
X-322095Y-101044D01*
X-322253Y-101232D01*
X-322415Y-101416D01*
X-322583Y-101595D01*
X-322754Y-101771D01*
X-322930Y-101942D01*
X-323109Y-102110D01*
X-323293Y-102272D01*
X-323481Y-102430D01*
X-323673Y-102583D01*
X-323868Y-102732D01*
X-324067Y-102876D01*
X-324269Y-103015D01*
X-324475Y-103149D01*
X-324684Y-103277D01*
X-324896Y-103401D01*
X-325111Y-103519D01*
X-325329Y-103632D01*
X-325549Y-103740D01*
X-325773Y-103842D01*
X-325998Y-103939D01*
X-326226Y-104030D01*
X-326456Y-104115D01*
X-326688Y-104195D01*
X-326922Y-104269D01*
X-327158Y-104338D01*
X-327395Y-104400D01*
X-327634Y-104457D01*
X-327874Y-104508D01*
X-328115Y-104553D01*
X-328358Y-104592D01*
X-328601Y-104625D01*
X-328845Y-104652D01*
X-329089Y-104673D01*
X-329334Y-104688D01*
X-329580Y-104697D01*
X-329825Y-104700D01*
X-330070Y-104697D01*
X-330316Y-104688D01*
X-330561Y-104673D01*
X-330805Y-104652D01*
X-331049Y-104625D01*
X-331292Y-104592D01*
X-331535Y-104553D01*
X-331776Y-104508D01*
X-332016Y-104457D01*
X-332255Y-104400D01*
X-332492Y-104338D01*
X-332728Y-104269D01*
X-332962Y-104195D01*
X-333194Y-104115D01*
X-333424Y-104030D01*
X-333652Y-103939D01*
X-333877Y-103842D01*
X-334101Y-103740D01*
X-334321Y-103632D01*
X-334539Y-103519D01*
X-334754Y-103401D01*
X-334966Y-103277D01*
X-335175Y-103149D01*
X-335381Y-103015D01*
X-335583Y-102876D01*
X-335782Y-102732D01*
X-335977Y-102583D01*
X-336169Y-102430D01*
X-336357Y-102272D01*
X-336541Y-102110D01*
X-336720Y-101942D01*
X-336896Y-101771D01*
X-337067Y-101595D01*
X-337235Y-101416D01*
X-337397Y-101232D01*
X-337555Y-101044D01*
X-337708Y-100852D01*
X-337857Y-100657D01*
X-338001Y-100458D01*
X-338140Y-100256D01*
X-338274Y-100050D01*
X-338402Y-99841D01*
X-338526Y-99629D01*
X-338644Y-99414D01*
X-338757Y-99196D01*
X-338865Y-98976D01*
X-338967Y-98752D01*
X-339064Y-98527D01*
X-339155Y-98299D01*
X-339240Y-98069D01*
X-339320Y-97837D01*
X-339394Y-97603D01*
X-339463Y-97367D01*
X-339525Y-97130D01*
X-339582Y-96891D01*
X-339633Y-96651D01*
X-339678Y-96410D01*
X-339717Y-96167D01*
X-339750Y-95924D01*
X-339777Y-95680D01*
X-339798Y-95436D01*
X-339813Y-95191D01*
X-339822Y-94945D01*
X-339825Y-94700D01*
X319825Y-94700D02*
X319828Y-94455D01*
X319837Y-94209D01*
X319852Y-93964D01*
X319873Y-93720D01*
X319900Y-93476D01*
X319933Y-93233D01*
X319972Y-92990D01*
X320017Y-92749D01*
X320068Y-92509D01*
X320125Y-92270D01*
X320187Y-92033D01*
X320256Y-91797D01*
X320330Y-91563D01*
X320410Y-91331D01*
X320495Y-91101D01*
X320586Y-90873D01*
X320683Y-90648D01*
X320785Y-90424D01*
X320893Y-90204D01*
X321006Y-89986D01*
X321124Y-89771D01*
X321248Y-89559D01*
X321376Y-89350D01*
X321510Y-89144D01*
X321649Y-88942D01*
X321793Y-88743D01*
X321942Y-88548D01*
X322095Y-88356D01*
X322253Y-88168D01*
X322415Y-87984D01*
X322583Y-87805D01*
X322754Y-87629D01*
X322930Y-87458D01*
X323109Y-87290D01*
X323293Y-87128D01*
X323481Y-86970D01*
X323673Y-86817D01*
X323868Y-86668D01*
X324067Y-86524D01*
X324269Y-86385D01*
X324475Y-86251D01*
X324684Y-86123D01*
X324896Y-85999D01*
X325111Y-85881D01*
X325329Y-85768D01*
X325549Y-85660D01*
X325773Y-85558D01*
X325998Y-85461D01*
X326226Y-85370D01*
X326456Y-85285D01*
X326688Y-85205D01*
X326922Y-85131D01*
X327158Y-85062D01*
X327395Y-85000D01*
X327634Y-84943D01*
X327874Y-84892D01*
X328115Y-84847D01*
X328358Y-84808D01*
X328601Y-84775D01*
X328845Y-84748D01*
X329089Y-84727D01*
X329334Y-84712D01*
X329580Y-84703D01*
X329825Y-84700D01*
X330070Y-84703D01*
X330316Y-84712D01*
X330561Y-84727D01*
X330805Y-84748D01*
X331049Y-84775D01*
X331292Y-84808D01*
X331535Y-84847D01*
X331776Y-84892D01*
X332016Y-84943D01*
X332255Y-85000D01*
X332492Y-85062D01*
X332728Y-85131D01*
X332962Y-85205D01*
X333194Y-85285D01*
X333424Y-85370D01*
X333652Y-85461D01*
X333877Y-85558D01*
X334101Y-85660D01*
X334321Y-85768D01*
X334539Y-85881D01*
X334754Y-85999D01*
X334966Y-86123D01*
X335175Y-86251D01*
X335381Y-86385D01*
X335583Y-86524D01*
X335782Y-86668D01*
X335977Y-86817D01*
X336169Y-86970D01*
X336357Y-87128D01*
X336541Y-87290D01*
X336720Y-87458D01*
X336896Y-87629D01*
X337067Y-87805D01*
X337235Y-87984D01*
X337397Y-88168D01*
X337555Y-88356D01*
X337708Y-88548D01*
X337857Y-88743D01*
X338001Y-88942D01*
X338140Y-89144D01*
X338274Y-89350D01*
X338402Y-89559D01*
X338526Y-89771D01*
X338644Y-89986D01*
X338757Y-90204D01*
X338865Y-90424D01*
X338967Y-90648D01*
X339064Y-90873D01*
X339155Y-91101D01*
X339240Y-91331D01*
X339320Y-91563D01*
X339394Y-91797D01*
X339463Y-92033D01*
X339525Y-92270D01*
X339582Y-92509D01*
X339633Y-92749D01*
X339678Y-92990D01*
X339717Y-93233D01*
X339750Y-93476D01*
X339777Y-93720D01*
X339798Y-93964D01*
X339813Y-94209D01*
X339822Y-94455D01*
X339825Y-94700D01*
X339822Y-94945D01*
X339813Y-95191D01*
X339798Y-95436D01*
X339777Y-95680D01*
X339750Y-95924D01*
X339717Y-96167D01*
X339678Y-96410D01*
X339633Y-96651D01*
X339582Y-96891D01*
X339525Y-97130D01*
X339463Y-97367D01*
X339394Y-97603D01*
X339320Y-97837D01*
X339240Y-98069D01*
X339155Y-98299D01*
X339064Y-98527D01*
X338967Y-98752D01*
X338865Y-98976D01*
X338757Y-99196D01*
X338644Y-99414D01*
X338526Y-99629D01*
X338402Y-99841D01*
X338274Y-100050D01*
X338140Y-100256D01*
X338001Y-100458D01*
X337857Y-100657D01*
X337708Y-100852D01*
X337555Y-101044D01*
X337397Y-101232D01*
X337235Y-101416D01*
X337067Y-101595D01*
X336896Y-101771D01*
X336720Y-101942D01*
X336541Y-102110D01*
X336357Y-102272D01*
X336169Y-102430D01*
X335977Y-102583D01*
X335782Y-102732D01*
X335583Y-102876D01*
X335381Y-103015D01*
X335175Y-103149D01*
X334966Y-103277D01*
X334754Y-103401D01*
X334539Y-103519D01*
X334321Y-103632D01*
X334101Y-103740D01*
X333877Y-103842D01*
X333652Y-103939D01*
X333424Y-104030D01*
X333194Y-104115D01*
X332962Y-104195D01*
X332728Y-104269D01*
X332492Y-104338D01*
X332255Y-104400D01*
X332016Y-104457D01*
X331776Y-104508D01*
X331535Y-104553D01*
X331292Y-104592D01*
X331049Y-104625D01*
X330805Y-104652D01*
X330561Y-104673D01*
X330316Y-104688D01*
X330070Y-104697D01*
X329825Y-104700D01*
X329580Y-104697D01*
X329334Y-104688D01*
X329089Y-104673D01*
X328845Y-104652D01*
X328601Y-104625D01*
X328358Y-104592D01*
X328115Y-104553D01*
X327874Y-104508D01*
X327634Y-104457D01*
X327395Y-104400D01*
X327158Y-104338D01*
X326922Y-104269D01*
X326688Y-104195D01*
X326456Y-104115D01*
X326226Y-104030D01*
X325998Y-103939D01*
X325773Y-103842D01*
X325549Y-103740D01*
X325329Y-103632D01*
X325111Y-103519D01*
X324896Y-103401D01*
X324684Y-103277D01*
X324475Y-103149D01*
X324269Y-103015D01*
X324067Y-102876D01*
X323868Y-102732D01*
X323673Y-102583D01*
X323481Y-102430D01*
X323293Y-102272D01*
X323109Y-102110D01*
X322930Y-101942D01*
X322754Y-101771D01*
X322583Y-101595D01*
X322415Y-101416D01*
X322253Y-101232D01*
X322095Y-101044D01*
X321942Y-100852D01*
X321793Y-100657D01*
X321649Y-100458D01*
X321510Y-100256D01*
X321376Y-100050D01*
X321248Y-99841D01*
X321124Y-99629D01*
X321006Y-99414D01*
X320893Y-99196D01*
X320785Y-98976D01*
X320683Y-98752D01*
X320586Y-98527D01*
X320495Y-98299D01*
X320410Y-98069D01*
X320330Y-97837D01*
X320256Y-97603D01*
X320187Y-97367D01*
X320125Y-97130D01*
X320068Y-96891D01*
X320017Y-96651D01*
X319972Y-96410D01*
X319933Y-96167D01*
X319900Y-95924D01*
X319873Y-95680D01*
X319852Y-95436D01*
X319837Y-95191D01*
X319828Y-94945D01*
X319825Y-94700D01*
X319825Y85300D02*
X319828Y85545D01*
X319837Y85791D01*
X319852Y86036D01*
X319873Y86280D01*
X319900Y86524D01*
X319933Y86767D01*
X319972Y87010D01*
X320017Y87251D01*
X320068Y87491D01*
X320125Y87730D01*
X320187Y87967D01*
X320256Y88203D01*
X320330Y88437D01*
X320410Y88669D01*
X320495Y88899D01*
X320586Y89127D01*
X320683Y89352D01*
X320785Y89576D01*
X320893Y89796D01*
X321006Y90014D01*
X321124Y90229D01*
X321248Y90441D01*
X321376Y90650D01*
X321510Y90856D01*
X321649Y91058D01*
X321793Y91257D01*
X321942Y91452D01*
X322095Y91644D01*
X322253Y91832D01*
X322415Y92016D01*
X322583Y92195D01*
X322754Y92371D01*
X322930Y92542D01*
X323109Y92710D01*
X323293Y92872D01*
X323481Y93030D01*
X323673Y93183D01*
X323868Y93332D01*
X324067Y93476D01*
X324269Y93615D01*
X324475Y93749D01*
X324684Y93877D01*
X324896Y94001D01*
X325111Y94119D01*
X325329Y94232D01*
X325549Y94340D01*
X325773Y94442D01*
X325998Y94539D01*
X326226Y94630D01*
X326456Y94715D01*
X326688Y94795D01*
X326922Y94869D01*
X327158Y94938D01*
X327395Y95000D01*
X327634Y95057D01*
X327874Y95108D01*
X328115Y95153D01*
X328358Y95192D01*
X328601Y95225D01*
X328845Y95252D01*
X329089Y95273D01*
X329334Y95288D01*
X329580Y95297D01*
X329825Y95300D01*
X330070Y95297D01*
X330316Y95288D01*
X330561Y95273D01*
X330805Y95252D01*
X331049Y95225D01*
X331292Y95192D01*
X331535Y95153D01*
X331776Y95108D01*
X332016Y95057D01*
X332255Y95000D01*
X332492Y94938D01*
X332728Y94869D01*
X332962Y94795D01*
X333194Y94715D01*
X333424Y94630D01*
X333652Y94539D01*
X333877Y94442D01*
X334101Y94340D01*
X334321Y94232D01*
X334539Y94119D01*
X334754Y94001D01*
X334966Y93877D01*
X335175Y93749D01*
X335381Y93615D01*
X335583Y93476D01*
X335782Y93332D01*
X335977Y93183D01*
X336169Y93030D01*
X336357Y92872D01*
X336541Y92710D01*
X336720Y92542D01*
X336896Y92371D01*
X337067Y92195D01*
X337235Y92016D01*
X337397Y91832D01*
X337555Y91644D01*
X337708Y91452D01*
X337857Y91257D01*
X338001Y91058D01*
X338140Y90856D01*
X338274Y90650D01*
X338402Y90441D01*
X338526Y90229D01*
X338644Y90014D01*
X338757Y89796D01*
X338865Y89576D01*
X338967Y89352D01*
X339064Y89127D01*
X339155Y88899D01*
X339240Y88669D01*
X339320Y88437D01*
X339394Y88203D01*
X339463Y87967D01*
X339525Y87730D01*
X339582Y87491D01*
X339633Y87251D01*
X339678Y87010D01*
X339717Y86767D01*
X339750Y86524D01*
X339777Y86280D01*
X339798Y86036D01*
X339813Y85791D01*
X339822Y85545D01*
X339825Y85300D01*
X339822Y85055D01*
X339813Y84809D01*
X339798Y84564D01*
X339777Y84320D01*
X339750Y84076D01*
X339717Y83833D01*
X339678Y83590D01*
X339633Y83349D01*
X339582Y83109D01*
X339525Y82870D01*
X339463Y82633D01*
X339394Y82397D01*
X339320Y82163D01*
X339240Y81931D01*
X339155Y81701D01*
X339064Y81473D01*
X338967Y81248D01*
X338865Y81024D01*
X338757Y80804D01*
X338644Y80586D01*
X338526Y80371D01*
X338402Y80159D01*
X338274Y79950D01*
X338140Y79744D01*
X338001Y79542D01*
X337857Y79343D01*
X337708Y79148D01*
X337555Y78956D01*
X337397Y78768D01*
X337235Y78584D01*
X337067Y78405D01*
X336896Y78229D01*
X336720Y78058D01*
X336541Y77890D01*
X336357Y77728D01*
X336169Y77570D01*
X335977Y77417D01*
X335782Y77268D01*
X335583Y77124D01*
X335381Y76985D01*
X335175Y76851D01*
X334966Y76723D01*
X334754Y76599D01*
X334539Y76481D01*
X334321Y76368D01*
X334101Y76260D01*
X333877Y76158D01*
X333652Y76061D01*
X333424Y75970D01*
X333194Y75885D01*
X332962Y75805D01*
X332728Y75731D01*
X332492Y75662D01*
X332255Y75600D01*
X332016Y75543D01*
X331776Y75492D01*
X331535Y75447D01*
X331292Y75408D01*
X331049Y75375D01*
X330805Y75348D01*
X330561Y75327D01*
X330316Y75312D01*
X330070Y75303D01*
X329825Y75300D01*
X329580Y75303D01*
X329334Y75312D01*
X329089Y75327D01*
X328845Y75348D01*
X328601Y75375D01*
X328358Y75408D01*
X328115Y75447D01*
X327874Y75492D01*
X327634Y75543D01*
X327395Y75600D01*
X327158Y75662D01*
X326922Y75731D01*
X326688Y75805D01*
X326456Y75885D01*
X326226Y75970D01*
X325998Y76061D01*
X325773Y76158D01*
X325549Y76260D01*
X325329Y76368D01*
X325111Y76481D01*
X324896Y76599D01*
X324684Y76723D01*
X324475Y76851D01*
X324269Y76985D01*
X324067Y77124D01*
X323868Y77268D01*
X323673Y77417D01*
X323481Y77570D01*
X323293Y77728D01*
X323109Y77890D01*
X322930Y78058D01*
X322754Y78229D01*
X322583Y78405D01*
X322415Y78584D01*
X322253Y78768D01*
X322095Y78956D01*
X321942Y79148D01*
X321793Y79343D01*
X321649Y79542D01*
X321510Y79744D01*
X321376Y79950D01*
X321248Y80159D01*
X321124Y80371D01*
X321006Y80586D01*
X320893Y80804D01*
X320785Y81024D01*
X320683Y81248D01*
X320586Y81473D01*
X320495Y81701D01*
X320410Y81931D01*
X320330Y82163D01*
X320256Y82397D01*
X320187Y82633D01*
X320125Y82870D01*
X320068Y83109D01*
X320017Y83349D01*
X319972Y83590D01*
X319933Y83833D01*
X319900Y84076D01*
X319873Y84320D01*
X319852Y84564D01*
X319837Y84809D01*
X319828Y85055D01*
X319825Y85300D01*
D12*
X-6968Y-27937D02*
X-12392Y-27937D01*
X-9680Y-30648D02*
X-9680Y-25225D01*
X7608Y-27937D02*
X13032Y-27937D01*
X-425912Y-195319D02*
X-428623Y-195319D01*
X-429979Y-196675D01*
X-429979Y-202098D01*
X-428623Y-203454D01*
X-425912Y-203454D01*
X-424556Y-202098D01*
X-424556Y-196675D01*
X-425912Y-195319D01*
X-420624Y-195319D02*
X-420624Y-203454D01*
X-415201Y-203454D02*
X-420624Y-195319D01*
X-415201Y-195319D02*
X-415201Y-203454D01*
X-430589Y-345179D02*
X-433301Y-345179D01*
X-434657Y-346535D01*
X-434657Y-351958D01*
X-433301Y-353314D01*
X-430589Y-353314D01*
X-429234Y-351958D01*
X-429234Y-346535D01*
X-430589Y-345179D01*
X-425302Y-345179D02*
X-425302Y-353314D01*
X-425302Y-345179D02*
X-419878Y-345179D01*
X-422590Y-349247D02*
X-425302Y-349247D01*
X-415946Y-353314D02*
X-415946Y-345179D01*
X-410523Y-345179D01*
X-413235Y-349247D02*
X-415946Y-349247D01*
X414657Y-195319D02*
X417368Y-195319D01*
X414657Y-195319D02*
X413301Y-196675D01*
X413301Y-202098D01*
X414657Y-203454D01*
X417368Y-203454D01*
X418724Y-202098D01*
X418724Y-196675D01*
X417368Y-195319D01*
X422656Y-195319D02*
X422656Y-203454D01*
X428079Y-203454D02*
X422656Y-195319D01*
X428079Y-195319D02*
X428079Y-203454D01*
X412691Y-345179D02*
X409979Y-345179D01*
X408623Y-346535D01*
X408623Y-351958D01*
X409979Y-353314D01*
X412691Y-353314D01*
X414047Y-351958D01*
X414047Y-346535D01*
X412691Y-345179D01*
X417978Y-345179D02*
X417978Y-353314D01*
X417978Y-345179D02*
X423402Y-345179D01*
X420690Y-349247D02*
X417978Y-349247D01*
X427334Y-353314D02*
X427334Y-345179D01*
X432757Y-345179D01*
X430045Y-349247D02*
X427334Y-349247D01*
X-444500Y-163830D02*
X-444331Y-163988D01*
X-444165Y-164150D01*
X-444004Y-164316D01*
X-443846Y-164486D01*
X-443693Y-164659D01*
X-443544Y-164837D01*
X-443400Y-165018D01*
X-443260Y-165202D01*
X-443125Y-165390D01*
X-442994Y-165581D01*
X-442868Y-165775D01*
X-442747Y-165973D01*
X-442630Y-166173D01*
X-442519Y-166376D01*
X-442413Y-166581D01*
X-442311Y-166790D01*
X-442215Y-167000D01*
X-442124Y-167213D01*
X-442038Y-167428D01*
X-441958Y-167645D01*
X-441883Y-167864D01*
X-441813Y-168085D01*
X-441749Y-168308D01*
X-441690Y-168532D01*
X-441637Y-168757D01*
X-441589Y-168984D01*
X-441547Y-169211D01*
X-441511Y-169440D01*
X-441480Y-169669D01*
X-441454Y-169900D01*
X-441435Y-170130D01*
X-441421Y-170361D01*
X-441413Y-170593D01*
X-441410Y-170824D01*
X-441413Y-171056D01*
X-441422Y-171287D01*
X-441436Y-171518D01*
X-441456Y-171749D01*
X-441482Y-171979D01*
X-441513Y-172208D01*
X-441550Y-172437D01*
X-441593Y-172665D01*
X-441641Y-172891D01*
X-441695Y-173116D01*
X-441754Y-173340D01*
X-441819Y-173562D01*
X-441889Y-173783D01*
X-441964Y-174002D01*
X-442045Y-174219D01*
X-442131Y-174434D01*
X-442223Y-174647D01*
X-442319Y-174857D01*
X-442421Y-175065D01*
X-442528Y-175271D01*
X-442639Y-175473D01*
X-442756Y-175673D01*
X-442878Y-175870D01*
X-443004Y-176064D01*
X-443135Y-176255D01*
X-443271Y-176443D01*
X-443411Y-176627D01*
X-443556Y-176808D01*
X-443705Y-176985D01*
X-443859Y-177158D01*
X-444016Y-177328D01*
X-444178Y-177493D01*
X-444344Y-177655D01*
X-444514Y-177812D01*
X-444687Y-177966D01*
X-444864Y-178115D01*
X-445045Y-178259D01*
X-445230Y-178400D01*
X-445417Y-178535D01*
X-445608Y-178666D01*
X-445802Y-178792D01*
X-446000Y-178914D01*
X-446200Y-179030D01*
X-446403Y-179142D01*
X-446608Y-179248D01*
X-446816Y-179350D01*
X-447027Y-179446D01*
X-447240Y-179537D01*
X-447455Y-179623D01*
X-447672Y-179704D01*
X-447891Y-179779D01*
X-448111Y-179849D01*
X-448334Y-179913D01*
X-448558Y-179972D01*
X-448783Y-180026D01*
X-449009Y-180074D01*
X-449237Y-180116D01*
X-449466Y-180153D01*
X-449695Y-180184D01*
X-449925Y-180210D01*
X-450156Y-180229D01*
X-450387Y-180244D01*
X-450618Y-180252D01*
X-450850Y-180255D01*
X-451082Y-180252D01*
X-451313Y-180244D01*
X-451544Y-180229D01*
X-451775Y-180210D01*
X-452005Y-180184D01*
X-452234Y-180153D01*
X-452463Y-180116D01*
X-452691Y-180074D01*
X-452917Y-180026D01*
X-453142Y-179972D01*
X-453366Y-179913D01*
X-453589Y-179849D01*
X-453809Y-179779D01*
X-454028Y-179704D01*
X-454245Y-179623D01*
X-454460Y-179537D01*
X-454673Y-179446D01*
X-454884Y-179350D01*
X-455092Y-179248D01*
X-455297Y-179142D01*
X-455500Y-179030D01*
X-455700Y-178914D01*
X-455898Y-178792D01*
X-456092Y-178666D01*
X-456283Y-178535D01*
X-456470Y-178400D01*
X-456655Y-178259D01*
X-456836Y-178115D01*
X-457013Y-177966D01*
X-457186Y-177812D01*
X-457356Y-177655D01*
X-457522Y-177493D01*
X-457684Y-177328D01*
X-457841Y-177158D01*
X-457995Y-176985D01*
X-458144Y-176808D01*
X-458289Y-176627D01*
X-458429Y-176443D01*
X-458565Y-176255D01*
X-458696Y-176064D01*
X-458822Y-175870D01*
X-458944Y-175673D01*
X-459061Y-175473D01*
X-459172Y-175271D01*
X-459279Y-175065D01*
X-459381Y-174857D01*
X-459477Y-174647D01*
X-459569Y-174434D01*
X-459655Y-174219D01*
X-459736Y-174002D01*
X-459811Y-173783D01*
X-459881Y-173562D01*
X-459946Y-173340D01*
X-460005Y-173116D01*
X-460059Y-172891D01*
X-460107Y-172665D01*
X-460150Y-172437D01*
X-460187Y-172208D01*
X-460218Y-171979D01*
X-460244Y-171749D01*
X-460264Y-171518D01*
X-460278Y-171287D01*
X-460287Y-171056D01*
X-460290Y-170824D01*
X-460287Y-170593D01*
X-460279Y-170361D01*
X-460265Y-170130D01*
X-460246Y-169900D01*
X-460220Y-169669D01*
X-460189Y-169440D01*
X-460153Y-169211D01*
X-460111Y-168984D01*
X-460063Y-168757D01*
X-460010Y-168532D01*
X-459951Y-168308D01*
X-459887Y-168085D01*
X-459817Y-167864D01*
X-459742Y-167645D01*
X-459662Y-167428D01*
X-459576Y-167213D01*
X-459485Y-167000D01*
X-459389Y-166790D01*
X-459287Y-166581D01*
X-459181Y-166376D01*
X-459070Y-166173D01*
X-458953Y-165973D01*
X-458832Y-165775D01*
X-458706Y-165581D01*
X-458575Y-165390D01*
X-458440Y-165202D01*
X-458300Y-165018D01*
X-458156Y-164837D01*
X-458007Y-164659D01*
X-457854Y-164486D01*
X-457696Y-164316D01*
X-457535Y-164150D01*
X-457369Y-163988D01*
X-457200Y-163830D01*
X-450850Y-167640D02*
X-450850Y-158750D01*
X-437134Y-167379D02*
X-437134Y-175514D01*
X-434422Y-170091D02*
X-437134Y-167379D01*
X-434422Y-170091D02*
X-431711Y-167379D01*
X-431711Y-175514D01*
X-426423Y-167379D02*
X-423711Y-167379D01*
X-426423Y-167379D02*
X-427779Y-168735D01*
X-427779Y-174158D01*
X-426423Y-175514D01*
X-423711Y-175514D01*
X-422356Y-174158D01*
X-422356Y-168735D01*
X-423711Y-167379D01*
X-415712Y-167379D02*
X-415712Y-175514D01*
X-418424Y-167379D02*
X-413000Y-167379D01*
X-407713Y-167379D02*
X-405001Y-167379D01*
X-407713Y-167379D02*
X-409068Y-168735D01*
X-409068Y-174158D01*
X-407713Y-175514D01*
X-405001Y-175514D01*
X-403645Y-174158D01*
X-403645Y-168735D01*
X-405001Y-167379D01*
X-399713Y-167379D02*
X-399713Y-175514D01*
X-399713Y-167379D02*
X-395646Y-167379D01*
X-394290Y-168735D01*
X-394290Y-171447D01*
X-395646Y-172802D01*
X-399713Y-172802D01*
X-397002Y-172802D02*
X-394290Y-175514D01*
X-386291Y-167379D02*
X-384935Y-168735D01*
X-386291Y-167379D02*
X-389002Y-167379D01*
X-390358Y-168735D01*
X-390358Y-170091D01*
X-389002Y-171447D01*
X-386291Y-171447D01*
X-384935Y-172802D01*
X-384935Y-174158D01*
X-386291Y-175514D01*
X-389002Y-175514D01*
X-390358Y-174158D01*
X396240Y-162560D02*
X396071Y-162718D01*
X395905Y-162880D01*
X395744Y-163046D01*
X395586Y-163216D01*
X395433Y-163389D01*
X395284Y-163567D01*
X395140Y-163748D01*
X395000Y-163932D01*
X394865Y-164120D01*
X394734Y-164311D01*
X394608Y-164505D01*
X394487Y-164703D01*
X394370Y-164903D01*
X394259Y-165106D01*
X394153Y-165311D01*
X394051Y-165520D01*
X393955Y-165730D01*
X393864Y-165943D01*
X393778Y-166158D01*
X393698Y-166375D01*
X393623Y-166594D01*
X393553Y-166815D01*
X393489Y-167038D01*
X393430Y-167262D01*
X393377Y-167487D01*
X393329Y-167714D01*
X393287Y-167941D01*
X393251Y-168170D01*
X393220Y-168399D01*
X393194Y-168630D01*
X393175Y-168860D01*
X393161Y-169091D01*
X393153Y-169323D01*
X393150Y-169554D01*
X393153Y-169786D01*
X393162Y-170017D01*
X393176Y-170248D01*
X393196Y-170479D01*
X393222Y-170709D01*
X393253Y-170938D01*
X393290Y-171167D01*
X393333Y-171395D01*
X393381Y-171621D01*
X393435Y-171846D01*
X393494Y-172070D01*
X393559Y-172292D01*
X393629Y-172513D01*
X393704Y-172732D01*
X393785Y-172949D01*
X393871Y-173164D01*
X393963Y-173377D01*
X394059Y-173587D01*
X394161Y-173795D01*
X394268Y-174001D01*
X394379Y-174203D01*
X394496Y-174403D01*
X394618Y-174600D01*
X394744Y-174794D01*
X394875Y-174985D01*
X395011Y-175173D01*
X395151Y-175357D01*
X395296Y-175538D01*
X395445Y-175715D01*
X395599Y-175888D01*
X395756Y-176058D01*
X395918Y-176223D01*
X396084Y-176385D01*
X396254Y-176542D01*
X396427Y-176696D01*
X396604Y-176845D01*
X396785Y-176989D01*
X396970Y-177130D01*
X397157Y-177265D01*
X397348Y-177396D01*
X397542Y-177522D01*
X397740Y-177644D01*
X397940Y-177760D01*
X398143Y-177872D01*
X398348Y-177978D01*
X398556Y-178080D01*
X398767Y-178176D01*
X398980Y-178267D01*
X399195Y-178353D01*
X399412Y-178434D01*
X399631Y-178509D01*
X399851Y-178579D01*
X400074Y-178643D01*
X400298Y-178702D01*
X400523Y-178756D01*
X400749Y-178804D01*
X400977Y-178846D01*
X401206Y-178883D01*
X401435Y-178914D01*
X401665Y-178940D01*
X401896Y-178959D01*
X402127Y-178974D01*
X402358Y-178982D01*
X402590Y-178985D01*
X402822Y-178982D01*
X403053Y-178974D01*
X403284Y-178959D01*
X403515Y-178940D01*
X403745Y-178914D01*
X403974Y-178883D01*
X404203Y-178846D01*
X404431Y-178804D01*
X404657Y-178756D01*
X404882Y-178702D01*
X405106Y-178643D01*
X405329Y-178579D01*
X405549Y-178509D01*
X405768Y-178434D01*
X405985Y-178353D01*
X406200Y-178267D01*
X406413Y-178176D01*
X406624Y-178080D01*
X406832Y-177978D01*
X407037Y-177872D01*
X407240Y-177760D01*
X407440Y-177644D01*
X407638Y-177522D01*
X407832Y-177396D01*
X408023Y-177265D01*
X408210Y-177130D01*
X408395Y-176989D01*
X408576Y-176845D01*
X408753Y-176696D01*
X408926Y-176542D01*
X409096Y-176385D01*
X409262Y-176223D01*
X409424Y-176058D01*
X409581Y-175888D01*
X409735Y-175715D01*
X409884Y-175538D01*
X410029Y-175357D01*
X410169Y-175173D01*
X410305Y-174985D01*
X410436Y-174794D01*
X410562Y-174600D01*
X410684Y-174403D01*
X410801Y-174203D01*
X410912Y-174001D01*
X411019Y-173795D01*
X411121Y-173587D01*
X411217Y-173377D01*
X411309Y-173164D01*
X411395Y-172949D01*
X411476Y-172732D01*
X411551Y-172513D01*
X411621Y-172292D01*
X411686Y-172070D01*
X411745Y-171846D01*
X411799Y-171621D01*
X411847Y-171395D01*
X411890Y-171167D01*
X411927Y-170938D01*
X411958Y-170709D01*
X411984Y-170479D01*
X412004Y-170248D01*
X412018Y-170017D01*
X412027Y-169786D01*
X412030Y-169554D01*
X412027Y-169323D01*
X412019Y-169091D01*
X412005Y-168860D01*
X411986Y-168630D01*
X411960Y-168399D01*
X411929Y-168170D01*
X411893Y-167941D01*
X411851Y-167714D01*
X411803Y-167487D01*
X411750Y-167262D01*
X411691Y-167038D01*
X411627Y-166815D01*
X411557Y-166594D01*
X411482Y-166375D01*
X411402Y-166158D01*
X411316Y-165943D01*
X411225Y-165730D01*
X411129Y-165520D01*
X411027Y-165311D01*
X410921Y-165106D01*
X410810Y-164903D01*
X410693Y-164703D01*
X410572Y-164505D01*
X410446Y-164311D01*
X410315Y-164120D01*
X410180Y-163932D01*
X410040Y-163748D01*
X409896Y-163567D01*
X409747Y-163389D01*
X409594Y-163216D01*
X409436Y-163046D01*
X409275Y-162880D01*
X409109Y-162718D01*
X408940Y-162560D01*
X402590Y-166370D02*
X402590Y-157480D01*
X416306Y-167379D02*
X416306Y-175514D01*
X416306Y-167379D02*
X420373Y-167379D01*
X421729Y-168735D01*
X421729Y-170091D01*
X420373Y-171447D01*
X421729Y-172802D01*
X421729Y-174158D01*
X420373Y-175514D01*
X416306Y-175514D01*
X416306Y-171447D02*
X420373Y-171447D01*
X425661Y-170091D02*
X425661Y-175514D01*
X425661Y-170091D02*
X428373Y-167379D01*
X431084Y-170091D01*
X431084Y-175514D01*
X431084Y-171447D02*
X425661Y-171447D01*
X437728Y-175514D02*
X437728Y-167379D01*
X435016Y-167379D02*
X440440Y-167379D01*
X447083Y-167379D02*
X447083Y-175514D01*
X444372Y-167379D02*
X449795Y-167379D01*
D13*
X-421351Y219245D02*
X-421349Y219301D01*
X-421343Y219358D01*
X-421333Y219413D01*
X-421319Y219468D01*
X-421302Y219522D01*
X-421280Y219574D01*
X-421255Y219624D01*
X-421227Y219673D01*
X-421195Y219720D01*
X-421160Y219764D01*
X-421122Y219806D01*
X-421081Y219845D01*
X-421037Y219880D01*
X-420991Y219913D01*
X-420943Y219942D01*
X-420893Y219968D01*
X-420841Y219991D01*
X-420787Y220009D01*
X-420733Y220024D01*
X-420678Y220035D01*
X-420622Y220042D01*
X-420565Y220045D01*
X-420509Y220044D01*
X-420452Y220039D01*
X-420397Y220030D01*
X-420342Y220017D01*
X-420288Y220000D01*
X-420235Y219980D01*
X-420184Y219956D01*
X-420135Y219928D01*
X-420088Y219897D01*
X-420043Y219863D01*
X-420000Y219825D01*
X-419961Y219785D01*
X-419924Y219742D01*
X-419891Y219697D01*
X-419861Y219649D01*
X-419834Y219599D01*
X-419811Y219548D01*
X-419791Y219495D01*
X-419775Y219441D01*
X-419763Y219385D01*
X-419755Y219330D01*
X-419751Y219273D01*
X-419751Y219217D01*
X-419755Y219160D01*
X-419763Y219105D01*
X-419775Y219049D01*
X-419791Y218995D01*
X-419811Y218942D01*
X-419834Y218891D01*
X-419861Y218841D01*
X-419891Y218793D01*
X-419924Y218748D01*
X-419961Y218705D01*
X-420000Y218665D01*
X-420043Y218627D01*
X-420088Y218593D01*
X-420135Y218562D01*
X-420184Y218534D01*
X-420235Y218510D01*
X-420288Y218490D01*
X-420342Y218473D01*
X-420397Y218460D01*
X-420452Y218451D01*
X-420509Y218446D01*
X-420565Y218445D01*
X-420622Y218448D01*
X-420678Y218455D01*
X-420733Y218466D01*
X-420787Y218481D01*
X-420841Y218499D01*
X-420893Y218522D01*
X-420943Y218548D01*
X-420991Y218577D01*
X-421037Y218610D01*
X-421081Y218645D01*
X-421122Y218684D01*
X-421160Y218726D01*
X-421195Y218770D01*
X-421227Y218817D01*
X-421255Y218866D01*
X-421280Y218916D01*
X-421302Y218968D01*
X-421319Y219022D01*
X-421333Y219077D01*
X-421343Y219132D01*
X-421349Y219189D01*
X-421351Y219245D01*
X-393379Y189067D02*
X-448245Y185230D01*
X-443885Y194557D02*
X-394007Y198045D01*
X-393379Y189067D01*
X-443885Y194557D02*
X-447024Y239447D01*
X-447059Y240050D01*
X-447079Y240654D01*
X-447085Y241258D01*
X-447076Y241862D01*
X-447052Y242466D01*
X-447014Y243069D01*
X-446962Y243671D01*
X-446895Y244271D01*
X-446813Y244870D01*
X-446717Y245466D01*
X-446606Y246060D01*
X-446481Y246651D01*
X-446342Y247239D01*
X-446189Y247823D01*
X-446022Y248404D01*
X-445841Y248980D01*
X-445645Y249552D01*
X-445437Y250119D01*
X-445214Y250681D01*
X-444978Y251237D01*
X-444728Y251787D01*
X-444466Y252331D01*
X-444190Y252868D01*
X-443902Y253399D01*
X-443600Y253923D01*
X-443286Y254439D01*
X-442960Y254947D01*
X-442621Y255448D01*
X-442271Y255940D01*
X-441909Y256423D01*
X-441535Y256898D01*
X-441150Y257363D01*
X-440753Y257819D01*
X-440346Y258265D01*
X-439928Y258702D01*
X-439500Y259128D01*
X-439061Y259543D01*
X-438613Y259948D01*
X-438155Y260342D01*
X-437687Y260725D01*
X-437211Y261096D01*
X-436725Y261456D01*
X-436231Y261804D01*
X-435729Y262139D01*
X-435219Y262463D01*
X-434701Y262774D01*
X-434176Y263073D01*
X-433644Y263359D01*
X-433105Y263631D01*
X-432559Y263891D01*
X-432008Y264138D01*
X-431450Y264371D01*
X-430887Y264590D01*
X-430319Y264796D01*
X-429747Y264988D01*
X-429169Y265166D01*
X-428588Y265330D01*
X-428003Y265481D01*
X-427414Y265616D01*
X-426822Y265738D01*
X-426228Y265845D01*
X-425631Y265938D01*
X-425032Y266017D01*
X-424431Y266081D01*
X-423829Y266130D01*
X-423226Y266165D01*
X-422622Y266185D01*
X-422018Y266191D01*
X-421414Y266182D01*
X-420810Y266158D01*
X-420207Y266120D01*
X-419605Y266068D01*
X-419005Y266001D01*
X-418406Y265919D01*
X-417810Y265823D01*
X-417216Y265712D01*
X-416625Y265587D01*
X-416037Y265448D01*
X-415453Y265295D01*
X-414872Y265128D01*
X-414296Y264947D01*
X-413724Y264751D01*
X-413157Y264543D01*
X-412595Y264320D01*
X-412039Y264084D01*
X-411489Y263834D01*
X-410945Y263572D01*
X-410408Y263296D01*
X-409877Y263007D01*
X-409353Y262706D01*
X-408837Y262392D01*
X-408329Y262066D01*
X-407828Y261727D01*
X-407336Y261377D01*
X-406853Y261015D01*
X-406378Y260641D01*
X-405913Y260256D01*
X-405457Y259859D01*
X-405011Y259452D01*
X-404574Y259034D01*
X-404148Y258606D01*
X-403733Y258167D01*
X-403328Y257719D01*
X-402934Y257261D01*
X-402551Y256793D01*
X-402180Y256317D01*
X-401820Y255831D01*
X-401472Y255337D01*
X-401137Y254835D01*
X-400813Y254325D01*
X-400502Y253807D01*
X-400203Y253282D01*
X-399917Y252750D01*
X-399645Y252211D01*
X-399385Y251665D01*
X-399138Y251114D01*
X-398905Y250556D01*
X-398686Y249993D01*
X-398480Y249425D01*
X-398288Y248853D01*
X-398110Y248275D01*
X-397946Y247694D01*
X-397795Y247109D01*
X-397660Y246520D01*
X-397538Y245928D01*
X-397431Y245334D01*
X-397338Y244737D01*
X-397259Y244138D01*
X-397195Y243537D01*
X-397146Y242935D01*
X-394007Y198045D01*
X-443885Y194557D02*
X-448873Y194208D01*
X-448245Y185230D01*
D12*
X-446987Y179583D02*
X-446609Y174173D01*
X-446987Y179583D02*
X-444472Y182478D01*
X-441577Y179962D01*
X-441199Y174552D01*
X-441483Y178609D02*
X-446893Y178231D01*
X-396700Y185818D02*
X-396132Y177703D01*
X-396321Y180408D02*
X-391290Y186196D01*
X-395064Y181855D02*
X-390722Y178081D01*
X-432062Y271450D02*
X-432629Y279565D01*
X-432062Y271450D02*
X-428004Y271733D01*
X-426746Y273181D01*
X-427125Y278591D01*
X-428572Y279849D01*
X-432629Y279565D01*
X-423108Y277512D02*
X-420592Y280407D01*
X-420024Y272291D01*
X-422729Y272102D02*
X-417319Y272481D01*
D13*
X419751Y219245D02*
X419753Y219301D01*
X419759Y219358D01*
X419769Y219413D01*
X419783Y219468D01*
X419800Y219522D01*
X419822Y219574D01*
X419847Y219624D01*
X419875Y219673D01*
X419907Y219720D01*
X419942Y219764D01*
X419980Y219806D01*
X420021Y219845D01*
X420065Y219880D01*
X420111Y219913D01*
X420159Y219942D01*
X420209Y219968D01*
X420261Y219991D01*
X420315Y220009D01*
X420369Y220024D01*
X420424Y220035D01*
X420480Y220042D01*
X420537Y220045D01*
X420593Y220044D01*
X420650Y220039D01*
X420705Y220030D01*
X420760Y220017D01*
X420814Y220000D01*
X420867Y219980D01*
X420918Y219956D01*
X420967Y219928D01*
X421014Y219897D01*
X421059Y219863D01*
X421102Y219825D01*
X421141Y219785D01*
X421178Y219742D01*
X421211Y219697D01*
X421241Y219649D01*
X421268Y219599D01*
X421291Y219548D01*
X421311Y219495D01*
X421327Y219441D01*
X421339Y219385D01*
X421347Y219330D01*
X421351Y219273D01*
X421351Y219217D01*
X421347Y219160D01*
X421339Y219105D01*
X421327Y219049D01*
X421311Y218995D01*
X421291Y218942D01*
X421268Y218891D01*
X421241Y218841D01*
X421211Y218793D01*
X421178Y218748D01*
X421141Y218705D01*
X421102Y218665D01*
X421059Y218627D01*
X421014Y218593D01*
X420967Y218562D01*
X420918Y218534D01*
X420867Y218510D01*
X420814Y218490D01*
X420760Y218473D01*
X420705Y218460D01*
X420650Y218451D01*
X420593Y218446D01*
X420537Y218445D01*
X420480Y218448D01*
X420424Y218455D01*
X420369Y218466D01*
X420315Y218481D01*
X420261Y218499D01*
X420209Y218522D01*
X420159Y218548D01*
X420111Y218577D01*
X420065Y218610D01*
X420021Y218645D01*
X419980Y218684D01*
X419942Y218726D01*
X419907Y218770D01*
X419875Y218817D01*
X419847Y218866D01*
X419822Y218916D01*
X419800Y218968D01*
X419783Y219022D01*
X419769Y219077D01*
X419759Y219132D01*
X419753Y219189D01*
X419751Y219245D01*
X443257Y185579D02*
X388391Y189416D01*
X394007Y198045D02*
X443885Y194557D01*
X443257Y185579D01*
X394007Y198045D02*
X397146Y242935D01*
X397196Y243546D01*
X397262Y244157D01*
X397342Y244765D01*
X397437Y245371D01*
X397547Y245975D01*
X397672Y246575D01*
X397811Y247173D01*
X397965Y247767D01*
X398134Y248357D01*
X398317Y248942D01*
X398514Y249523D01*
X398726Y250099D01*
X398952Y250670D01*
X399191Y251235D01*
X399445Y251794D01*
X399712Y252346D01*
X399992Y252892D01*
X400286Y253430D01*
X400593Y253962D01*
X400913Y254485D01*
X401245Y255001D01*
X401591Y255508D01*
X401948Y256007D01*
X402318Y256496D01*
X402699Y256977D01*
X403093Y257448D01*
X403497Y257909D01*
X403913Y258360D01*
X404340Y258801D01*
X404777Y259231D01*
X405225Y259651D01*
X405684Y260059D01*
X406151Y260456D01*
X406629Y260841D01*
X407116Y261214D01*
X407612Y261576D01*
X408116Y261925D01*
X408630Y262261D01*
X409151Y262585D01*
X409680Y262896D01*
X410216Y263194D01*
X410760Y263479D01*
X411310Y263750D01*
X411867Y264007D01*
X412430Y264251D01*
X412999Y264481D01*
X413573Y264697D01*
X414152Y264899D01*
X414737Y265087D01*
X415325Y265260D01*
X415918Y265418D01*
X416514Y265562D01*
X417114Y265692D01*
X417717Y265806D01*
X418322Y265906D01*
X418930Y265991D01*
X419540Y266061D01*
X420151Y266116D01*
X420763Y266156D01*
X421376Y266181D01*
X421990Y266191D01*
X422603Y266186D01*
X423216Y266165D01*
X423829Y266130D01*
X424431Y266081D01*
X425032Y266017D01*
X425631Y265938D01*
X426228Y265845D01*
X426822Y265738D01*
X427414Y265616D01*
X428003Y265481D01*
X428588Y265330D01*
X429169Y265166D01*
X429747Y264988D01*
X430319Y264796D01*
X430887Y264590D01*
X431450Y264371D01*
X432008Y264138D01*
X432559Y263891D01*
X433105Y263631D01*
X433644Y263359D01*
X434176Y263073D01*
X434701Y262774D01*
X435219Y262463D01*
X435729Y262139D01*
X436231Y261804D01*
X436725Y261456D01*
X437211Y261096D01*
X437687Y260725D01*
X438155Y260342D01*
X438613Y259948D01*
X439061Y259543D01*
X439500Y259128D01*
X439928Y258702D01*
X440346Y258265D01*
X440753Y257819D01*
X441150Y257363D01*
X441535Y256898D01*
X441909Y256423D01*
X442271Y255940D01*
X442621Y255448D01*
X442960Y254947D01*
X443286Y254439D01*
X443600Y253923D01*
X443902Y253399D01*
X444190Y252868D01*
X444466Y252331D01*
X444728Y251787D01*
X444978Y251237D01*
X445214Y250681D01*
X445437Y250119D01*
X445645Y249552D01*
X445841Y248980D01*
X446022Y248404D01*
X446189Y247823D01*
X446342Y247239D01*
X446481Y246651D01*
X446606Y246060D01*
X446717Y245466D01*
X446813Y244870D01*
X446895Y244271D01*
X446962Y243671D01*
X447014Y243069D01*
X447052Y242466D01*
X447076Y241862D01*
X447085Y241258D01*
X447079Y240654D01*
X447059Y240050D01*
X447024Y239447D01*
X443885Y194557D01*
X394007Y198045D02*
X389019Y198394D01*
X388391Y189416D01*
D12*
X388851Y183649D02*
X388473Y178239D01*
X388851Y183649D02*
X391745Y186165D01*
X394261Y183270D01*
X393883Y177860D01*
X394166Y181918D02*
X388756Y182296D01*
X439517Y182824D02*
X438949Y174709D01*
X439139Y177414D02*
X444927Y182446D01*
X440586Y178672D02*
X444359Y174331D01*
X417456Y272613D02*
X418023Y280728D01*
X417456Y272613D02*
X421513Y272329D01*
X422961Y273587D01*
X423339Y278997D01*
X422081Y280445D01*
X418023Y280728D01*
X431413Y279792D02*
X430846Y271677D01*
X427072Y276018D02*
X431413Y279792D01*
X432482Y275640D02*
X427072Y276018D01*
D13*
X-370551Y295445D02*
X-370549Y295501D01*
X-370543Y295558D01*
X-370533Y295613D01*
X-370519Y295668D01*
X-370502Y295722D01*
X-370480Y295774D01*
X-370455Y295824D01*
X-370427Y295873D01*
X-370395Y295920D01*
X-370360Y295964D01*
X-370322Y296006D01*
X-370281Y296045D01*
X-370237Y296080D01*
X-370191Y296113D01*
X-370143Y296142D01*
X-370093Y296168D01*
X-370041Y296191D01*
X-369987Y296209D01*
X-369933Y296224D01*
X-369878Y296235D01*
X-369822Y296242D01*
X-369765Y296245D01*
X-369709Y296244D01*
X-369652Y296239D01*
X-369597Y296230D01*
X-369542Y296217D01*
X-369488Y296200D01*
X-369435Y296180D01*
X-369384Y296156D01*
X-369335Y296128D01*
X-369288Y296097D01*
X-369243Y296063D01*
X-369200Y296025D01*
X-369161Y295985D01*
X-369124Y295942D01*
X-369091Y295897D01*
X-369061Y295849D01*
X-369034Y295799D01*
X-369011Y295748D01*
X-368991Y295695D01*
X-368975Y295641D01*
X-368963Y295585D01*
X-368955Y295530D01*
X-368951Y295473D01*
X-368951Y295417D01*
X-368955Y295360D01*
X-368963Y295305D01*
X-368975Y295249D01*
X-368991Y295195D01*
X-369011Y295142D01*
X-369034Y295091D01*
X-369061Y295041D01*
X-369091Y294993D01*
X-369124Y294948D01*
X-369161Y294905D01*
X-369200Y294865D01*
X-369243Y294827D01*
X-369288Y294793D01*
X-369335Y294762D01*
X-369384Y294734D01*
X-369435Y294710D01*
X-369488Y294690D01*
X-369542Y294673D01*
X-369597Y294660D01*
X-369652Y294651D01*
X-369709Y294646D01*
X-369765Y294645D01*
X-369822Y294648D01*
X-369878Y294655D01*
X-369933Y294666D01*
X-369987Y294681D01*
X-370041Y294699D01*
X-370093Y294722D01*
X-370143Y294748D01*
X-370191Y294777D01*
X-370237Y294810D01*
X-370281Y294845D01*
X-370322Y294884D01*
X-370360Y294926D01*
X-370395Y294970D01*
X-370427Y295017D01*
X-370455Y295066D01*
X-370480Y295116D01*
X-370502Y295168D01*
X-370519Y295222D01*
X-370533Y295277D01*
X-370543Y295332D01*
X-370549Y295389D01*
X-370551Y295445D01*
X-342579Y265267D02*
X-397445Y261430D01*
X-393085Y270757D02*
X-343207Y274245D01*
X-342579Y265267D01*
X-393085Y270757D02*
X-396224Y315647D01*
X-396259Y316250D01*
X-396279Y316854D01*
X-396285Y317458D01*
X-396276Y318062D01*
X-396252Y318666D01*
X-396214Y319269D01*
X-396162Y319871D01*
X-396095Y320471D01*
X-396013Y321070D01*
X-395917Y321666D01*
X-395806Y322260D01*
X-395681Y322851D01*
X-395542Y323439D01*
X-395389Y324023D01*
X-395222Y324604D01*
X-395041Y325180D01*
X-394845Y325752D01*
X-394637Y326319D01*
X-394414Y326881D01*
X-394178Y327437D01*
X-393928Y327987D01*
X-393666Y328531D01*
X-393390Y329068D01*
X-393102Y329599D01*
X-392800Y330123D01*
X-392486Y330639D01*
X-392160Y331147D01*
X-391821Y331648D01*
X-391471Y332140D01*
X-391109Y332623D01*
X-390735Y333098D01*
X-390350Y333563D01*
X-389953Y334019D01*
X-389546Y334465D01*
X-389128Y334902D01*
X-388700Y335328D01*
X-388261Y335743D01*
X-387813Y336148D01*
X-387355Y336542D01*
X-386887Y336925D01*
X-386411Y337296D01*
X-385925Y337656D01*
X-385431Y338004D01*
X-384929Y338339D01*
X-384419Y338663D01*
X-383901Y338974D01*
X-383376Y339273D01*
X-382844Y339559D01*
X-382305Y339831D01*
X-381759Y340091D01*
X-381208Y340338D01*
X-380650Y340571D01*
X-380087Y340790D01*
X-379519Y340996D01*
X-378947Y341188D01*
X-378369Y341366D01*
X-377788Y341530D01*
X-377203Y341681D01*
X-376614Y341816D01*
X-376022Y341938D01*
X-375428Y342045D01*
X-374831Y342138D01*
X-374232Y342217D01*
X-373631Y342281D01*
X-373029Y342330D01*
X-372426Y342365D01*
X-371822Y342385D01*
X-371218Y342391D01*
X-370614Y342382D01*
X-370010Y342358D01*
X-369407Y342320D01*
X-368805Y342268D01*
X-368205Y342201D01*
X-367606Y342119D01*
X-367010Y342023D01*
X-366416Y341912D01*
X-365825Y341787D01*
X-365237Y341648D01*
X-364653Y341495D01*
X-364072Y341328D01*
X-363496Y341147D01*
X-362924Y340951D01*
X-362357Y340743D01*
X-361795Y340520D01*
X-361239Y340284D01*
X-360689Y340034D01*
X-360145Y339772D01*
X-359608Y339496D01*
X-359077Y339207D01*
X-358553Y338906D01*
X-358037Y338592D01*
X-357529Y338266D01*
X-357028Y337927D01*
X-356536Y337577D01*
X-356053Y337215D01*
X-355578Y336841D01*
X-355113Y336456D01*
X-354657Y336059D01*
X-354211Y335652D01*
X-353774Y335234D01*
X-353348Y334806D01*
X-352933Y334367D01*
X-352528Y333919D01*
X-352134Y333461D01*
X-351751Y332993D01*
X-351380Y332517D01*
X-351020Y332031D01*
X-350672Y331537D01*
X-350337Y331035D01*
X-350013Y330525D01*
X-349702Y330007D01*
X-349403Y329482D01*
X-349117Y328950D01*
X-348845Y328411D01*
X-348585Y327865D01*
X-348338Y327314D01*
X-348105Y326756D01*
X-347886Y326193D01*
X-347680Y325625D01*
X-347488Y325053D01*
X-347310Y324475D01*
X-347146Y323894D01*
X-346995Y323309D01*
X-346860Y322720D01*
X-346738Y322128D01*
X-346631Y321534D01*
X-346538Y320937D01*
X-346459Y320338D01*
X-346395Y319737D01*
X-346346Y319135D01*
X-343207Y274245D01*
X-393085Y270757D02*
X-398073Y270408D01*
X-397445Y261430D01*
D12*
X-392319Y258772D02*
X-390872Y257514D01*
X-392319Y258772D02*
X-395024Y258583D01*
X-396282Y257136D01*
X-395904Y251726D01*
X-394457Y250468D01*
X-391752Y250657D01*
X-390494Y252104D01*
X-345900Y262018D02*
X-340490Y262396D01*
X-345900Y262018D02*
X-345332Y253903D01*
X-339922Y254281D01*
X-342911Y258150D02*
X-345616Y257961D01*
X-382118Y349002D02*
X-382497Y354412D01*
X-381239Y355859D01*
X-378534Y356049D01*
X-377087Y354791D01*
X-376708Y349381D01*
X-377966Y347933D01*
X-380671Y347744D01*
X-382118Y349002D01*
X-379508Y350544D02*
X-376614Y348028D01*
X-373070Y353712D02*
X-370554Y356607D01*
X-369986Y348491D01*
X-372691Y348302D02*
X-367281Y348681D01*
D13*
X368951Y295445D02*
X368953Y295501D01*
X368959Y295558D01*
X368969Y295613D01*
X368983Y295668D01*
X369000Y295722D01*
X369022Y295774D01*
X369047Y295824D01*
X369075Y295873D01*
X369107Y295920D01*
X369142Y295964D01*
X369180Y296006D01*
X369221Y296045D01*
X369265Y296080D01*
X369311Y296113D01*
X369359Y296142D01*
X369409Y296168D01*
X369461Y296191D01*
X369515Y296209D01*
X369569Y296224D01*
X369624Y296235D01*
X369680Y296242D01*
X369737Y296245D01*
X369793Y296244D01*
X369850Y296239D01*
X369905Y296230D01*
X369960Y296217D01*
X370014Y296200D01*
X370067Y296180D01*
X370118Y296156D01*
X370167Y296128D01*
X370214Y296097D01*
X370259Y296063D01*
X370302Y296025D01*
X370341Y295985D01*
X370378Y295942D01*
X370411Y295897D01*
X370441Y295849D01*
X370468Y295799D01*
X370491Y295748D01*
X370511Y295695D01*
X370527Y295641D01*
X370539Y295585D01*
X370547Y295530D01*
X370551Y295473D01*
X370551Y295417D01*
X370547Y295360D01*
X370539Y295305D01*
X370527Y295249D01*
X370511Y295195D01*
X370491Y295142D01*
X370468Y295091D01*
X370441Y295041D01*
X370411Y294993D01*
X370378Y294948D01*
X370341Y294905D01*
X370302Y294865D01*
X370259Y294827D01*
X370214Y294793D01*
X370167Y294762D01*
X370118Y294734D01*
X370067Y294710D01*
X370014Y294690D01*
X369960Y294673D01*
X369905Y294660D01*
X369850Y294651D01*
X369793Y294646D01*
X369737Y294645D01*
X369680Y294648D01*
X369624Y294655D01*
X369569Y294666D01*
X369515Y294681D01*
X369461Y294699D01*
X369409Y294722D01*
X369359Y294748D01*
X369311Y294777D01*
X369265Y294810D01*
X369221Y294845D01*
X369180Y294884D01*
X369142Y294926D01*
X369107Y294970D01*
X369075Y295017D01*
X369047Y295066D01*
X369022Y295116D01*
X369000Y295168D01*
X368983Y295222D01*
X368969Y295277D01*
X368959Y295332D01*
X368953Y295389D01*
X368951Y295445D01*
X392457Y261779D02*
X337591Y265616D01*
X343207Y274245D02*
X393085Y270757D01*
X392457Y261779D01*
X343207Y274245D02*
X346346Y319135D01*
X346396Y319746D01*
X346462Y320357D01*
X346542Y320965D01*
X346637Y321571D01*
X346747Y322175D01*
X346872Y322775D01*
X347011Y323373D01*
X347165Y323967D01*
X347334Y324557D01*
X347517Y325142D01*
X347714Y325723D01*
X347926Y326299D01*
X348152Y326870D01*
X348391Y327435D01*
X348645Y327994D01*
X348912Y328546D01*
X349192Y329092D01*
X349486Y329630D01*
X349793Y330162D01*
X350113Y330685D01*
X350445Y331201D01*
X350791Y331708D01*
X351148Y332207D01*
X351518Y332696D01*
X351899Y333177D01*
X352293Y333648D01*
X352697Y334109D01*
X353113Y334560D01*
X353540Y335001D01*
X353977Y335431D01*
X354425Y335851D01*
X354884Y336259D01*
X355351Y336656D01*
X355829Y337041D01*
X356316Y337414D01*
X356812Y337776D01*
X357316Y338125D01*
X357830Y338461D01*
X358351Y338785D01*
X358880Y339096D01*
X359416Y339394D01*
X359960Y339679D01*
X360510Y339950D01*
X361067Y340207D01*
X361630Y340451D01*
X362199Y340681D01*
X362773Y340897D01*
X363352Y341099D01*
X363937Y341287D01*
X364525Y341460D01*
X365118Y341618D01*
X365714Y341762D01*
X366314Y341892D01*
X366917Y342006D01*
X367522Y342106D01*
X368130Y342191D01*
X368740Y342261D01*
X369351Y342316D01*
X369963Y342356D01*
X370576Y342381D01*
X371190Y342391D01*
X371803Y342386D01*
X372416Y342365D01*
X373029Y342330D01*
X373631Y342281D01*
X374232Y342217D01*
X374831Y342138D01*
X375428Y342045D01*
X376022Y341938D01*
X376614Y341816D01*
X377203Y341681D01*
X377788Y341530D01*
X378369Y341366D01*
X378947Y341188D01*
X379519Y340996D01*
X380087Y340790D01*
X380650Y340571D01*
X381208Y340338D01*
X381759Y340091D01*
X382305Y339831D01*
X382844Y339559D01*
X383376Y339273D01*
X383901Y338974D01*
X384419Y338663D01*
X384929Y338339D01*
X385431Y338004D01*
X385925Y337656D01*
X386411Y337296D01*
X386887Y336925D01*
X387355Y336542D01*
X387813Y336148D01*
X388261Y335743D01*
X388700Y335328D01*
X389128Y334902D01*
X389546Y334465D01*
X389953Y334019D01*
X390350Y333563D01*
X390735Y333098D01*
X391109Y332623D01*
X391471Y332140D01*
X391821Y331648D01*
X392160Y331147D01*
X392486Y330639D01*
X392800Y330123D01*
X393102Y329599D01*
X393390Y329068D01*
X393666Y328531D01*
X393928Y327987D01*
X394178Y327437D01*
X394414Y326881D01*
X394637Y326319D01*
X394845Y325752D01*
X395041Y325180D01*
X395222Y324604D01*
X395389Y324023D01*
X395542Y323439D01*
X395681Y322851D01*
X395806Y322260D01*
X395917Y321666D01*
X396013Y321070D01*
X396095Y320471D01*
X396162Y319871D01*
X396214Y319269D01*
X396252Y318666D01*
X396276Y318062D01*
X396285Y317458D01*
X396279Y316854D01*
X396259Y316250D01*
X396224Y315647D01*
X393085Y270757D01*
X343207Y274245D02*
X338219Y274594D01*
X337591Y265616D01*
D12*
X342298Y262270D02*
X343556Y260823D01*
X342298Y262270D02*
X339593Y262459D01*
X338146Y261201D01*
X337767Y255791D01*
X339025Y254344D01*
X341730Y254155D01*
X343177Y255413D01*
X388717Y259024D02*
X394127Y258646D01*
X388717Y259024D02*
X388149Y250909D01*
X393559Y250531D01*
X391138Y254777D02*
X388433Y254967D01*
X365735Y350166D02*
X366113Y355576D01*
X367560Y356834D01*
X370265Y356645D01*
X371523Y355197D01*
X371145Y349787D01*
X369697Y348529D01*
X366992Y348719D01*
X365735Y350166D01*
X368534Y351329D02*
X371050Y348435D01*
X379030Y347877D02*
X379597Y355992D01*
X375256Y352218D01*
X380666Y351840D01*
D13*
X-72675Y538930D02*
X-72673Y538986D01*
X-72667Y539043D01*
X-72657Y539098D01*
X-72643Y539153D01*
X-72626Y539207D01*
X-72604Y539259D01*
X-72579Y539309D01*
X-72551Y539358D01*
X-72519Y539405D01*
X-72484Y539449D01*
X-72446Y539491D01*
X-72405Y539530D01*
X-72361Y539565D01*
X-72315Y539598D01*
X-72267Y539627D01*
X-72217Y539653D01*
X-72165Y539676D01*
X-72111Y539694D01*
X-72057Y539709D01*
X-72002Y539720D01*
X-71946Y539727D01*
X-71889Y539730D01*
X-71833Y539729D01*
X-71776Y539724D01*
X-71721Y539715D01*
X-71666Y539702D01*
X-71612Y539685D01*
X-71559Y539665D01*
X-71508Y539641D01*
X-71459Y539613D01*
X-71412Y539582D01*
X-71367Y539548D01*
X-71324Y539510D01*
X-71285Y539470D01*
X-71248Y539427D01*
X-71215Y539382D01*
X-71185Y539334D01*
X-71158Y539284D01*
X-71135Y539233D01*
X-71115Y539180D01*
X-71099Y539126D01*
X-71087Y539070D01*
X-71079Y539015D01*
X-71075Y538958D01*
X-71075Y538902D01*
X-71079Y538845D01*
X-71087Y538790D01*
X-71099Y538734D01*
X-71115Y538680D01*
X-71135Y538627D01*
X-71158Y538576D01*
X-71185Y538526D01*
X-71215Y538478D01*
X-71248Y538433D01*
X-71285Y538390D01*
X-71324Y538350D01*
X-71367Y538312D01*
X-71412Y538278D01*
X-71459Y538247D01*
X-71508Y538219D01*
X-71559Y538195D01*
X-71612Y538175D01*
X-71666Y538158D01*
X-71721Y538145D01*
X-71776Y538136D01*
X-71833Y538131D01*
X-71889Y538130D01*
X-71946Y538133D01*
X-72002Y538140D01*
X-72057Y538151D01*
X-72111Y538166D01*
X-72165Y538184D01*
X-72217Y538207D01*
X-72267Y538233D01*
X-72315Y538262D01*
X-72361Y538295D01*
X-72405Y538330D01*
X-72446Y538369D01*
X-72484Y538411D01*
X-72519Y538455D01*
X-72551Y538502D01*
X-72579Y538551D01*
X-72604Y538601D01*
X-72626Y538653D01*
X-72643Y538707D01*
X-72657Y538762D01*
X-72667Y538817D01*
X-72673Y538874D01*
X-72675Y538930D01*
X-31662Y544581D02*
X-59162Y496949D01*
X-64456Y505779D02*
X-39456Y549081D01*
X-31662Y544581D01*
X-64456Y505779D02*
X-103428Y528279D01*
X-103948Y528588D01*
X-104459Y528909D01*
X-104963Y529242D01*
X-105459Y529587D01*
X-105947Y529944D01*
X-106425Y530313D01*
X-106895Y530693D01*
X-107355Y531084D01*
X-107805Y531487D01*
X-108246Y531900D01*
X-108677Y532324D01*
X-109097Y532758D01*
X-109507Y533202D01*
X-109905Y533656D01*
X-110293Y534119D01*
X-110670Y534591D01*
X-111034Y535073D01*
X-111388Y535563D01*
X-111729Y536062D01*
X-112058Y536568D01*
X-112374Y537083D01*
X-112679Y537605D01*
X-112970Y538134D01*
X-113249Y538670D01*
X-113514Y539213D01*
X-113767Y539762D01*
X-114006Y540316D01*
X-114231Y540877D01*
X-114443Y541443D01*
X-114641Y542013D01*
X-114826Y542589D01*
X-114996Y543168D01*
X-115153Y543752D01*
X-115295Y544339D01*
X-115423Y544929D01*
X-115536Y545523D01*
X-115636Y546119D01*
X-115721Y546717D01*
X-115791Y547317D01*
X-115847Y547918D01*
X-115888Y548521D01*
X-115915Y549125D01*
X-115927Y549729D01*
X-115925Y550333D01*
X-115908Y550937D01*
X-115876Y551540D01*
X-115830Y552142D01*
X-115769Y552743D01*
X-115694Y553343D01*
X-115604Y553940D01*
X-115500Y554535D01*
X-115382Y555128D01*
X-115249Y555717D01*
X-115102Y556303D01*
X-114941Y556885D01*
X-114766Y557464D01*
X-114577Y558037D01*
X-114374Y558607D01*
X-114158Y559171D01*
X-113927Y559729D01*
X-113684Y560282D01*
X-113427Y560829D01*
X-113157Y561369D01*
X-112874Y561903D01*
X-112579Y562430D01*
X-112270Y562950D01*
X-111949Y563461D01*
X-111616Y563965D01*
X-111271Y564461D01*
X-110914Y564949D01*
X-110545Y565427D01*
X-110165Y565897D01*
X-109774Y566357D01*
X-109371Y566807D01*
X-108958Y567248D01*
X-108534Y567679D01*
X-108100Y568099D01*
X-107656Y568509D01*
X-107202Y568907D01*
X-106739Y569295D01*
X-106267Y569672D01*
X-105785Y570036D01*
X-105295Y570390D01*
X-104796Y570731D01*
X-104290Y571060D01*
X-103775Y571376D01*
X-103253Y571681D01*
X-102724Y571972D01*
X-102188Y572251D01*
X-101645Y572516D01*
X-101096Y572769D01*
X-100542Y573008D01*
X-99981Y573233D01*
X-99415Y573445D01*
X-98845Y573643D01*
X-98269Y573828D01*
X-97690Y573998D01*
X-97106Y574155D01*
X-96519Y574297D01*
X-95929Y574425D01*
X-95335Y574538D01*
X-94739Y574638D01*
X-94141Y574723D01*
X-93541Y574793D01*
X-92940Y574849D01*
X-92337Y574890D01*
X-91733Y574917D01*
X-91129Y574929D01*
X-90525Y574927D01*
X-89921Y574910D01*
X-89318Y574878D01*
X-88716Y574832D01*
X-88115Y574771D01*
X-87515Y574696D01*
X-86918Y574606D01*
X-86323Y574502D01*
X-85730Y574384D01*
X-85141Y574251D01*
X-84555Y574104D01*
X-83973Y573943D01*
X-83394Y573768D01*
X-82821Y573579D01*
X-82251Y573376D01*
X-81687Y573160D01*
X-81129Y572929D01*
X-80576Y572686D01*
X-80029Y572429D01*
X-79489Y572159D01*
X-78955Y571876D01*
X-78428Y571581D01*
X-39456Y549081D01*
X-64456Y505779D02*
X-66956Y501449D01*
X-59162Y496949D01*
D12*
X-53777Y494834D02*
X-49081Y492123D01*
X-53777Y494834D02*
X-54770Y498538D01*
X-51066Y499531D01*
X-46369Y496819D01*
X-49892Y498853D02*
X-52603Y494156D01*
X-30826Y540011D02*
X-23781Y535944D01*
X-26129Y537299D02*
X-28114Y544708D01*
X-26625Y539151D02*
X-21069Y540640D01*
X-30555Y507894D02*
X-23510Y503826D01*
X-21476Y507349D01*
X-21973Y509201D01*
X-26669Y511912D01*
X-28521Y511416D01*
X-30555Y507894D01*
X-18832Y511928D02*
X-16121Y516625D01*
X-20817Y519336D02*
X-18832Y511928D01*
X-20817Y519336D02*
X-21992Y520014D01*
X-23844Y519518D01*
X-25200Y517169D01*
X-24703Y515317D01*
D13*
X71075Y538930D02*
X71077Y538986D01*
X71083Y539043D01*
X71093Y539098D01*
X71107Y539153D01*
X71124Y539207D01*
X71146Y539259D01*
X71171Y539309D01*
X71199Y539358D01*
X71231Y539405D01*
X71266Y539449D01*
X71304Y539491D01*
X71345Y539530D01*
X71389Y539565D01*
X71435Y539598D01*
X71483Y539627D01*
X71533Y539653D01*
X71585Y539676D01*
X71639Y539694D01*
X71693Y539709D01*
X71748Y539720D01*
X71804Y539727D01*
X71861Y539730D01*
X71917Y539729D01*
X71974Y539724D01*
X72029Y539715D01*
X72084Y539702D01*
X72138Y539685D01*
X72191Y539665D01*
X72242Y539641D01*
X72291Y539613D01*
X72338Y539582D01*
X72383Y539548D01*
X72426Y539510D01*
X72465Y539470D01*
X72502Y539427D01*
X72535Y539382D01*
X72565Y539334D01*
X72592Y539284D01*
X72615Y539233D01*
X72635Y539180D01*
X72651Y539126D01*
X72663Y539070D01*
X72671Y539015D01*
X72675Y538958D01*
X72675Y538902D01*
X72671Y538845D01*
X72663Y538790D01*
X72651Y538734D01*
X72635Y538680D01*
X72615Y538627D01*
X72592Y538576D01*
X72565Y538526D01*
X72535Y538478D01*
X72502Y538433D01*
X72465Y538390D01*
X72426Y538350D01*
X72383Y538312D01*
X72338Y538278D01*
X72291Y538247D01*
X72242Y538219D01*
X72191Y538195D01*
X72138Y538175D01*
X72084Y538158D01*
X72029Y538145D01*
X71974Y538136D01*
X71917Y538131D01*
X71861Y538130D01*
X71804Y538133D01*
X71748Y538140D01*
X71693Y538151D01*
X71639Y538166D01*
X71585Y538184D01*
X71533Y538207D01*
X71483Y538233D01*
X71435Y538262D01*
X71389Y538295D01*
X71345Y538330D01*
X71304Y538369D01*
X71266Y538411D01*
X71231Y538455D01*
X71199Y538502D01*
X71171Y538551D01*
X71146Y538601D01*
X71124Y538653D01*
X71107Y538707D01*
X71093Y538762D01*
X71083Y538817D01*
X71077Y538874D01*
X71075Y538930D01*
X56662Y501279D02*
X29162Y548911D01*
X39456Y549081D02*
X64456Y505779D01*
X56662Y501279D01*
X39456Y549081D02*
X78428Y571581D01*
X78955Y571876D01*
X79489Y572159D01*
X80029Y572429D01*
X80576Y572686D01*
X81129Y572929D01*
X81687Y573160D01*
X82251Y573376D01*
X82821Y573579D01*
X83394Y573768D01*
X83973Y573943D01*
X84555Y574104D01*
X85141Y574251D01*
X85730Y574384D01*
X86323Y574502D01*
X86918Y574606D01*
X87515Y574696D01*
X88115Y574771D01*
X88716Y574832D01*
X89318Y574878D01*
X89921Y574910D01*
X90525Y574927D01*
X91129Y574929D01*
X91733Y574917D01*
X92337Y574890D01*
X92940Y574849D01*
X93541Y574793D01*
X94141Y574723D01*
X94739Y574638D01*
X95335Y574538D01*
X95929Y574425D01*
X96519Y574297D01*
X97106Y574155D01*
X97690Y573998D01*
X98269Y573828D01*
X98845Y573643D01*
X99415Y573445D01*
X99981Y573233D01*
X100542Y573008D01*
X101096Y572769D01*
X101645Y572516D01*
X102188Y572251D01*
X102724Y571972D01*
X103253Y571681D01*
X103775Y571376D01*
X104290Y571060D01*
X104796Y570731D01*
X105295Y570390D01*
X105785Y570036D01*
X106267Y569672D01*
X106739Y569295D01*
X107202Y568907D01*
X107656Y568509D01*
X108100Y568099D01*
X108534Y567679D01*
X108958Y567248D01*
X109371Y566807D01*
X109774Y566357D01*
X110165Y565897D01*
X110545Y565427D01*
X110914Y564949D01*
X111271Y564461D01*
X111616Y563965D01*
X111949Y563461D01*
X112270Y562950D01*
X112579Y562430D01*
X112874Y561903D01*
X113157Y561369D01*
X113427Y560829D01*
X113684Y560282D01*
X113927Y559729D01*
X114158Y559171D01*
X114374Y558607D01*
X114577Y558037D01*
X114766Y557464D01*
X114941Y556885D01*
X115102Y556303D01*
X115249Y555717D01*
X115382Y555128D01*
X115500Y554535D01*
X115604Y553940D01*
X115694Y553343D01*
X115769Y552743D01*
X115830Y552142D01*
X115876Y551540D01*
X115908Y550937D01*
X115925Y550333D01*
X115927Y549729D01*
X115915Y549125D01*
X115888Y548521D01*
X115847Y547918D01*
X115791Y547317D01*
X115721Y546717D01*
X115636Y546119D01*
X115536Y545523D01*
X115423Y544929D01*
X115295Y544339D01*
X115153Y543752D01*
X114996Y543168D01*
X114826Y542589D01*
X114641Y542013D01*
X114443Y541443D01*
X114231Y540877D01*
X114006Y540316D01*
X113767Y539762D01*
X113514Y539213D01*
X113249Y538670D01*
X112970Y538134D01*
X112679Y537605D01*
X112374Y537083D01*
X112058Y536568D01*
X111729Y536062D01*
X111388Y535563D01*
X111034Y535073D01*
X110670Y534591D01*
X110293Y534119D01*
X109905Y533656D01*
X109507Y533202D01*
X109097Y532758D01*
X108677Y532324D01*
X108246Y531900D01*
X107805Y531487D01*
X107355Y531084D01*
X106895Y530693D01*
X106425Y530313D01*
X105947Y529944D01*
X105459Y529587D01*
X104963Y529242D01*
X104459Y528909D01*
X103948Y528588D01*
X103428Y528279D01*
X64456Y505779D01*
X39456Y549081D02*
X36956Y553411D01*
X29162Y548911D01*
D12*
X24638Y545305D02*
X19942Y542593D01*
X24638Y545305D02*
X28342Y544312D01*
X27350Y540608D01*
X22653Y537897D01*
X26176Y539930D02*
X23464Y544627D01*
X52287Y502840D02*
X45242Y498772D01*
X47590Y500128D02*
X54998Y498143D01*
X49442Y499632D02*
X47953Y494076D01*
X22216Y522337D02*
X15171Y518270D01*
X17205Y514747D01*
X19057Y514251D01*
X23753Y516963D01*
X24250Y518815D01*
X22216Y522337D01*
X25719Y513558D02*
X27571Y513061D01*
X28927Y510713D01*
X28431Y508861D01*
X27257Y508183D01*
X25405Y508679D01*
X24727Y509853D01*
X25405Y508679D02*
X24908Y506827D01*
X23734Y506149D01*
X21882Y506646D01*
X20526Y508994D01*
X21023Y510846D01*
D13*
X-161575Y526230D02*
X-161573Y526286D01*
X-161567Y526343D01*
X-161557Y526398D01*
X-161543Y526453D01*
X-161526Y526507D01*
X-161504Y526559D01*
X-161479Y526609D01*
X-161451Y526658D01*
X-161419Y526705D01*
X-161384Y526749D01*
X-161346Y526791D01*
X-161305Y526830D01*
X-161261Y526865D01*
X-161215Y526898D01*
X-161167Y526927D01*
X-161117Y526953D01*
X-161065Y526976D01*
X-161011Y526994D01*
X-160957Y527009D01*
X-160902Y527020D01*
X-160846Y527027D01*
X-160789Y527030D01*
X-160733Y527029D01*
X-160676Y527024D01*
X-160621Y527015D01*
X-160566Y527002D01*
X-160512Y526985D01*
X-160459Y526965D01*
X-160408Y526941D01*
X-160359Y526913D01*
X-160312Y526882D01*
X-160267Y526848D01*
X-160224Y526810D01*
X-160185Y526770D01*
X-160148Y526727D01*
X-160115Y526682D01*
X-160085Y526634D01*
X-160058Y526584D01*
X-160035Y526533D01*
X-160015Y526480D01*
X-159999Y526426D01*
X-159987Y526370D01*
X-159979Y526315D01*
X-159975Y526258D01*
X-159975Y526202D01*
X-159979Y526145D01*
X-159987Y526090D01*
X-159999Y526034D01*
X-160015Y525980D01*
X-160035Y525927D01*
X-160058Y525876D01*
X-160085Y525826D01*
X-160115Y525778D01*
X-160148Y525733D01*
X-160185Y525690D01*
X-160224Y525650D01*
X-160267Y525612D01*
X-160312Y525578D01*
X-160359Y525547D01*
X-160408Y525519D01*
X-160459Y525495D01*
X-160512Y525475D01*
X-160566Y525458D01*
X-160621Y525445D01*
X-160676Y525436D01*
X-160733Y525431D01*
X-160789Y525430D01*
X-160846Y525433D01*
X-160902Y525440D01*
X-160957Y525451D01*
X-161011Y525466D01*
X-161065Y525484D01*
X-161117Y525507D01*
X-161167Y525533D01*
X-161215Y525562D01*
X-161261Y525595D01*
X-161305Y525630D01*
X-161346Y525669D01*
X-161384Y525711D01*
X-161419Y525755D01*
X-161451Y525802D01*
X-161479Y525851D01*
X-161504Y525901D01*
X-161526Y525953D01*
X-161543Y526007D01*
X-161557Y526062D01*
X-161567Y526117D01*
X-161573Y526174D01*
X-161575Y526230D01*
X-120562Y531881D02*
X-148062Y484249D01*
X-153356Y493079D02*
X-128356Y536381D01*
X-120562Y531881D01*
X-153356Y493079D02*
X-192328Y515579D01*
X-192848Y515888D01*
X-193359Y516209D01*
X-193863Y516542D01*
X-194359Y516887D01*
X-194847Y517244D01*
X-195325Y517613D01*
X-195795Y517993D01*
X-196255Y518384D01*
X-196705Y518787D01*
X-197146Y519200D01*
X-197577Y519624D01*
X-197997Y520058D01*
X-198407Y520502D01*
X-198805Y520956D01*
X-199193Y521419D01*
X-199570Y521891D01*
X-199934Y522373D01*
X-200288Y522863D01*
X-200629Y523362D01*
X-200958Y523868D01*
X-201274Y524383D01*
X-201579Y524905D01*
X-201870Y525434D01*
X-202149Y525970D01*
X-202414Y526513D01*
X-202667Y527062D01*
X-202906Y527616D01*
X-203131Y528177D01*
X-203343Y528743D01*
X-203541Y529313D01*
X-203726Y529889D01*
X-203896Y530468D01*
X-204053Y531052D01*
X-204195Y531639D01*
X-204323Y532229D01*
X-204436Y532823D01*
X-204536Y533419D01*
X-204621Y534017D01*
X-204691Y534617D01*
X-204747Y535218D01*
X-204788Y535821D01*
X-204815Y536425D01*
X-204827Y537029D01*
X-204825Y537633D01*
X-204808Y538237D01*
X-204776Y538840D01*
X-204730Y539442D01*
X-204669Y540043D01*
X-204594Y540643D01*
X-204504Y541240D01*
X-204400Y541835D01*
X-204282Y542428D01*
X-204149Y543017D01*
X-204002Y543603D01*
X-203841Y544185D01*
X-203666Y544764D01*
X-203477Y545337D01*
X-203274Y545907D01*
X-203058Y546471D01*
X-202827Y547029D01*
X-202584Y547582D01*
X-202327Y548129D01*
X-202057Y548669D01*
X-201774Y549203D01*
X-201479Y549730D01*
X-201170Y550250D01*
X-200849Y550761D01*
X-200516Y551265D01*
X-200171Y551761D01*
X-199814Y552249D01*
X-199445Y552727D01*
X-199065Y553197D01*
X-198674Y553657D01*
X-198271Y554107D01*
X-197858Y554548D01*
X-197434Y554979D01*
X-197000Y555399D01*
X-196556Y555809D01*
X-196102Y556207D01*
X-195639Y556595D01*
X-195167Y556972D01*
X-194685Y557336D01*
X-194195Y557690D01*
X-193696Y558031D01*
X-193190Y558360D01*
X-192675Y558676D01*
X-192153Y558981D01*
X-191624Y559272D01*
X-191088Y559551D01*
X-190545Y559816D01*
X-189996Y560069D01*
X-189442Y560308D01*
X-188881Y560533D01*
X-188315Y560745D01*
X-187745Y560943D01*
X-187169Y561128D01*
X-186590Y561298D01*
X-186006Y561455D01*
X-185419Y561597D01*
X-184829Y561725D01*
X-184235Y561838D01*
X-183639Y561938D01*
X-183041Y562023D01*
X-182441Y562093D01*
X-181840Y562149D01*
X-181237Y562190D01*
X-180633Y562217D01*
X-180029Y562229D01*
X-179425Y562227D01*
X-178821Y562210D01*
X-178218Y562178D01*
X-177616Y562132D01*
X-177015Y562071D01*
X-176415Y561996D01*
X-175818Y561906D01*
X-175223Y561802D01*
X-174630Y561684D01*
X-174041Y561551D01*
X-173455Y561404D01*
X-172873Y561243D01*
X-172294Y561068D01*
X-171721Y560879D01*
X-171151Y560676D01*
X-170587Y560460D01*
X-170029Y560229D01*
X-169476Y559986D01*
X-168929Y559729D01*
X-168389Y559459D01*
X-167855Y559176D01*
X-167328Y558881D01*
X-128356Y536381D01*
X-153356Y493079D02*
X-155856Y488749D01*
X-148062Y484249D01*
D12*
X-142992Y487013D02*
X-141140Y487509D01*
X-142992Y487013D02*
X-144348Y484664D01*
X-143852Y482812D01*
X-139155Y480101D01*
X-137303Y480597D01*
X-135947Y482945D01*
X-136443Y484797D01*
X-119726Y527311D02*
X-117014Y532008D01*
X-119726Y527311D02*
X-112681Y523244D01*
X-109969Y527940D01*
X-114847Y527626D02*
X-116203Y525277D01*
X-119551Y493246D02*
X-114854Y490534D01*
X-119551Y493246D02*
X-120047Y495098D01*
X-118691Y497446D01*
X-116839Y497942D01*
X-112143Y495231D01*
X-111646Y493379D01*
X-113002Y491030D01*
X-114854Y490534D01*
X-114673Y493560D02*
X-110968Y494553D01*
X-109002Y497958D02*
X-106291Y502655D01*
X-110987Y505366D02*
X-109002Y497958D01*
X-110987Y505366D02*
X-112162Y506044D01*
X-114014Y505548D01*
X-115370Y503199D01*
X-114873Y501347D01*
D13*
X159975Y526230D02*
X159977Y526286D01*
X159983Y526343D01*
X159993Y526398D01*
X160007Y526453D01*
X160024Y526507D01*
X160046Y526559D01*
X160071Y526609D01*
X160099Y526658D01*
X160131Y526705D01*
X160166Y526749D01*
X160204Y526791D01*
X160245Y526830D01*
X160289Y526865D01*
X160335Y526898D01*
X160383Y526927D01*
X160433Y526953D01*
X160485Y526976D01*
X160539Y526994D01*
X160593Y527009D01*
X160648Y527020D01*
X160704Y527027D01*
X160761Y527030D01*
X160817Y527029D01*
X160874Y527024D01*
X160929Y527015D01*
X160984Y527002D01*
X161038Y526985D01*
X161091Y526965D01*
X161142Y526941D01*
X161191Y526913D01*
X161238Y526882D01*
X161283Y526848D01*
X161326Y526810D01*
X161365Y526770D01*
X161402Y526727D01*
X161435Y526682D01*
X161465Y526634D01*
X161492Y526584D01*
X161515Y526533D01*
X161535Y526480D01*
X161551Y526426D01*
X161563Y526370D01*
X161571Y526315D01*
X161575Y526258D01*
X161575Y526202D01*
X161571Y526145D01*
X161563Y526090D01*
X161551Y526034D01*
X161535Y525980D01*
X161515Y525927D01*
X161492Y525876D01*
X161465Y525826D01*
X161435Y525778D01*
X161402Y525733D01*
X161365Y525690D01*
X161326Y525650D01*
X161283Y525612D01*
X161238Y525578D01*
X161191Y525547D01*
X161142Y525519D01*
X161091Y525495D01*
X161038Y525475D01*
X160984Y525458D01*
X160929Y525445D01*
X160874Y525436D01*
X160817Y525431D01*
X160761Y525430D01*
X160704Y525433D01*
X160648Y525440D01*
X160593Y525451D01*
X160539Y525466D01*
X160485Y525484D01*
X160433Y525507D01*
X160383Y525533D01*
X160335Y525562D01*
X160289Y525595D01*
X160245Y525630D01*
X160204Y525669D01*
X160166Y525711D01*
X160131Y525755D01*
X160099Y525802D01*
X160071Y525851D01*
X160046Y525901D01*
X160024Y525953D01*
X160007Y526007D01*
X159993Y526062D01*
X159983Y526117D01*
X159977Y526174D01*
X159975Y526230D01*
X145562Y488579D02*
X118062Y536211D01*
X128356Y536381D02*
X153356Y493079D01*
X145562Y488579D01*
X128356Y536381D02*
X167328Y558881D01*
X167855Y559176D01*
X168389Y559459D01*
X168929Y559729D01*
X169476Y559986D01*
X170029Y560229D01*
X170587Y560460D01*
X171151Y560676D01*
X171721Y560879D01*
X172294Y561068D01*
X172873Y561243D01*
X173455Y561404D01*
X174041Y561551D01*
X174630Y561684D01*
X175223Y561802D01*
X175818Y561906D01*
X176415Y561996D01*
X177015Y562071D01*
X177616Y562132D01*
X178218Y562178D01*
X178821Y562210D01*
X179425Y562227D01*
X180029Y562229D01*
X180633Y562217D01*
X181237Y562190D01*
X181840Y562149D01*
X182441Y562093D01*
X183041Y562023D01*
X183639Y561938D01*
X184235Y561838D01*
X184829Y561725D01*
X185419Y561597D01*
X186006Y561455D01*
X186590Y561298D01*
X187169Y561128D01*
X187745Y560943D01*
X188315Y560745D01*
X188881Y560533D01*
X189442Y560308D01*
X189996Y560069D01*
X190545Y559816D01*
X191088Y559551D01*
X191624Y559272D01*
X192153Y558981D01*
X192675Y558676D01*
X193190Y558360D01*
X193696Y558031D01*
X194195Y557690D01*
X194685Y557336D01*
X195167Y556972D01*
X195639Y556595D01*
X196102Y556207D01*
X196556Y555809D01*
X197000Y555399D01*
X197434Y554979D01*
X197858Y554548D01*
X198271Y554107D01*
X198674Y553657D01*
X199065Y553197D01*
X199445Y552727D01*
X199814Y552249D01*
X200171Y551761D01*
X200516Y551265D01*
X200849Y550761D01*
X201170Y550250D01*
X201479Y549730D01*
X201774Y549203D01*
X202057Y548669D01*
X202327Y548129D01*
X202584Y547582D01*
X202827Y547029D01*
X203058Y546471D01*
X203274Y545907D01*
X203477Y545337D01*
X203666Y544764D01*
X203841Y544185D01*
X204002Y543603D01*
X204149Y543017D01*
X204282Y542428D01*
X204400Y541835D01*
X204504Y541240D01*
X204594Y540643D01*
X204669Y540043D01*
X204730Y539442D01*
X204776Y538840D01*
X204808Y538237D01*
X204825Y537633D01*
X204827Y537029D01*
X204815Y536425D01*
X204788Y535821D01*
X204747Y535218D01*
X204691Y534617D01*
X204621Y534017D01*
X204536Y533419D01*
X204436Y532823D01*
X204323Y532229D01*
X204195Y531639D01*
X204053Y531052D01*
X203896Y530468D01*
X203726Y529889D01*
X203541Y529313D01*
X203343Y528743D01*
X203131Y528177D01*
X202906Y527616D01*
X202667Y527062D01*
X202414Y526513D01*
X202149Y525970D01*
X201870Y525434D01*
X201579Y524905D01*
X201274Y524383D01*
X200958Y523868D01*
X200629Y523362D01*
X200288Y522863D01*
X199934Y522373D01*
X199570Y521891D01*
X199193Y521419D01*
X198805Y520956D01*
X198407Y520502D01*
X197997Y520058D01*
X197577Y519624D01*
X197146Y519200D01*
X196705Y518787D01*
X196255Y518384D01*
X195795Y517993D01*
X195325Y517613D01*
X194847Y517244D01*
X194359Y516887D01*
X193863Y516542D01*
X193359Y516209D01*
X192848Y515888D01*
X192328Y515579D01*
X153356Y493079D01*
X128356Y536381D02*
X125856Y540711D01*
X118062Y536211D01*
D12*
X117920Y530438D02*
X117424Y528586D01*
X117920Y530438D02*
X116565Y532787D01*
X114712Y533283D01*
X110016Y530571D01*
X109519Y528719D01*
X110875Y526371D01*
X112727Y525874D01*
X141187Y490140D02*
X143898Y485443D01*
X141187Y490140D02*
X134142Y486072D01*
X136853Y481376D01*
X139020Y485758D02*
X137664Y488106D01*
X111847Y508959D02*
X107150Y506248D01*
X111847Y508959D02*
X113699Y508463D01*
X115055Y506115D01*
X114558Y504263D01*
X109862Y501551D01*
X108010Y502047D01*
X106654Y504396D01*
X107150Y506248D01*
X109680Y504577D02*
X108687Y500873D01*
X116524Y500858D02*
X118376Y500361D01*
X119732Y498013D01*
X119236Y496161D01*
X118062Y495483D01*
X116210Y495979D01*
X115532Y497153D01*
X116210Y495979D02*
X115713Y494127D01*
X114539Y493449D01*
X112687Y493946D01*
X111331Y496294D01*
X111828Y498146D01*
D10*
X73660Y467360D02*
X73560Y467358D01*
X73461Y467352D01*
X73361Y467342D01*
X73263Y467329D01*
X73164Y467311D01*
X73067Y467290D01*
X72971Y467265D01*
X72875Y467236D01*
X72781Y467203D01*
X72688Y467167D01*
X72597Y467127D01*
X72507Y467083D01*
X72419Y467036D01*
X72333Y466986D01*
X72249Y466932D01*
X72167Y466875D01*
X72088Y466815D01*
X72010Y466751D01*
X71936Y466685D01*
X71864Y466616D01*
X71795Y466544D01*
X71729Y466470D01*
X71665Y466392D01*
X71605Y466313D01*
X71548Y466231D01*
X71494Y466147D01*
X71444Y466061D01*
X71397Y465973D01*
X71353Y465883D01*
X71313Y465792D01*
X71277Y465699D01*
X71244Y465605D01*
X71215Y465509D01*
X71190Y465413D01*
X71169Y465316D01*
X71151Y465217D01*
X71138Y465119D01*
X71128Y465019D01*
X71122Y464920D01*
X71120Y464820D01*
X71120Y449580D02*
X71122Y449480D01*
X71128Y449381D01*
X71138Y449281D01*
X71151Y449183D01*
X71169Y449084D01*
X71190Y448987D01*
X71215Y448891D01*
X71244Y448795D01*
X71277Y448701D01*
X71313Y448608D01*
X71353Y448517D01*
X71397Y448427D01*
X71444Y448339D01*
X71494Y448253D01*
X71548Y448169D01*
X71605Y448087D01*
X71665Y448008D01*
X71729Y447930D01*
X71795Y447856D01*
X71864Y447784D01*
X71936Y447715D01*
X72010Y447649D01*
X72088Y447585D01*
X72167Y447525D01*
X72249Y447468D01*
X72333Y447414D01*
X72419Y447364D01*
X72507Y447317D01*
X72597Y447273D01*
X72688Y447233D01*
X72781Y447197D01*
X72875Y447164D01*
X72971Y447135D01*
X73067Y447110D01*
X73164Y447089D01*
X73263Y447071D01*
X73361Y447058D01*
X73461Y447048D01*
X73560Y447042D01*
X73660Y447040D01*
X119380Y447040D02*
X119480Y447042D01*
X119579Y447048D01*
X119679Y447058D01*
X119777Y447071D01*
X119876Y447089D01*
X119973Y447110D01*
X120069Y447135D01*
X120165Y447164D01*
X120259Y447197D01*
X120352Y447233D01*
X120443Y447273D01*
X120533Y447317D01*
X120621Y447364D01*
X120707Y447414D01*
X120791Y447468D01*
X120873Y447525D01*
X120952Y447585D01*
X121030Y447649D01*
X121104Y447715D01*
X121176Y447784D01*
X121245Y447856D01*
X121311Y447930D01*
X121375Y448008D01*
X121435Y448087D01*
X121492Y448169D01*
X121546Y448253D01*
X121596Y448339D01*
X121643Y448427D01*
X121687Y448517D01*
X121727Y448608D01*
X121763Y448701D01*
X121796Y448795D01*
X121825Y448891D01*
X121850Y448987D01*
X121871Y449084D01*
X121889Y449183D01*
X121902Y449281D01*
X121912Y449381D01*
X121918Y449480D01*
X121920Y449580D01*
X121920Y464820D02*
X121918Y464920D01*
X121912Y465019D01*
X121902Y465119D01*
X121889Y465217D01*
X121871Y465316D01*
X121850Y465413D01*
X121825Y465509D01*
X121796Y465605D01*
X121763Y465699D01*
X121727Y465792D01*
X121687Y465883D01*
X121643Y465973D01*
X121596Y466061D01*
X121546Y466147D01*
X121492Y466231D01*
X121435Y466313D01*
X121375Y466392D01*
X121311Y466470D01*
X121245Y466544D01*
X121176Y466616D01*
X121104Y466685D01*
X121030Y466751D01*
X120952Y466815D01*
X120873Y466875D01*
X120791Y466932D01*
X120707Y466986D01*
X120621Y467036D01*
X120533Y467083D01*
X120443Y467127D01*
X120352Y467167D01*
X120259Y467203D01*
X120165Y467236D01*
X120069Y467265D01*
X119973Y467290D01*
X119876Y467311D01*
X119777Y467329D01*
X119679Y467342D01*
X119579Y467352D01*
X119480Y467358D01*
X119380Y467360D01*
X71120Y464820D02*
X71120Y449580D01*
X73660Y467360D02*
X77470Y467360D01*
X78740Y466090D01*
X77470Y447040D02*
X73660Y447040D01*
X77470Y447040D02*
X78740Y448310D01*
X114300Y466090D02*
X115570Y467360D01*
X114300Y466090D02*
X78740Y466090D01*
X114300Y448310D02*
X115570Y447040D01*
X114300Y448310D02*
X78740Y448310D01*
X115570Y467360D02*
X119380Y467360D01*
X119380Y447040D02*
X115570Y447040D01*
X121920Y449580D02*
X121920Y464820D01*
D14*
X123825Y457200D03*
X69215Y457200D03*
D12*
X83503Y470916D02*
X83503Y479051D01*
X87571Y479051D01*
X88927Y477695D01*
X88927Y474983D01*
X87571Y473628D01*
X83503Y473628D01*
X86215Y473628D02*
X88927Y470916D01*
X92858Y476339D02*
X95570Y479051D01*
X95570Y470916D01*
X92858Y470916D02*
X98282Y470916D01*
X102214Y476339D02*
X104925Y479051D01*
X104925Y470916D01*
X102214Y470916D02*
X107637Y470916D01*
D10*
X-384810Y146050D02*
X-384812Y145950D01*
X-384818Y145851D01*
X-384828Y145751D01*
X-384841Y145653D01*
X-384859Y145554D01*
X-384880Y145457D01*
X-384905Y145361D01*
X-384934Y145265D01*
X-384967Y145171D01*
X-385003Y145078D01*
X-385043Y144987D01*
X-385087Y144897D01*
X-385134Y144809D01*
X-385184Y144723D01*
X-385238Y144639D01*
X-385295Y144557D01*
X-385355Y144478D01*
X-385419Y144400D01*
X-385485Y144326D01*
X-385554Y144254D01*
X-385626Y144185D01*
X-385700Y144119D01*
X-385778Y144055D01*
X-385857Y143995D01*
X-385939Y143938D01*
X-386023Y143884D01*
X-386109Y143834D01*
X-386197Y143787D01*
X-386287Y143743D01*
X-386378Y143703D01*
X-386471Y143667D01*
X-386565Y143634D01*
X-386661Y143605D01*
X-386757Y143580D01*
X-386854Y143559D01*
X-386953Y143541D01*
X-387051Y143528D01*
X-387151Y143518D01*
X-387250Y143512D01*
X-387350Y143510D01*
X-384810Y161290D02*
X-384812Y161390D01*
X-384818Y161489D01*
X-384828Y161589D01*
X-384841Y161687D01*
X-384859Y161786D01*
X-384880Y161883D01*
X-384905Y161979D01*
X-384934Y162075D01*
X-384967Y162169D01*
X-385003Y162262D01*
X-385043Y162353D01*
X-385087Y162443D01*
X-385134Y162531D01*
X-385184Y162617D01*
X-385238Y162701D01*
X-385295Y162783D01*
X-385355Y162862D01*
X-385419Y162940D01*
X-385485Y163014D01*
X-385554Y163086D01*
X-385626Y163155D01*
X-385700Y163221D01*
X-385778Y163285D01*
X-385857Y163345D01*
X-385939Y163402D01*
X-386023Y163456D01*
X-386109Y163506D01*
X-386197Y163553D01*
X-386287Y163597D01*
X-386378Y163637D01*
X-386471Y163673D01*
X-386565Y163706D01*
X-386661Y163735D01*
X-386757Y163760D01*
X-386854Y163781D01*
X-386953Y163799D01*
X-387051Y163812D01*
X-387151Y163822D01*
X-387250Y163828D01*
X-387350Y163830D01*
X-433070Y163830D02*
X-433170Y163828D01*
X-433269Y163822D01*
X-433369Y163812D01*
X-433467Y163799D01*
X-433566Y163781D01*
X-433663Y163760D01*
X-433759Y163735D01*
X-433855Y163706D01*
X-433949Y163673D01*
X-434042Y163637D01*
X-434133Y163597D01*
X-434223Y163553D01*
X-434311Y163506D01*
X-434397Y163456D01*
X-434481Y163402D01*
X-434563Y163345D01*
X-434642Y163285D01*
X-434720Y163221D01*
X-434794Y163155D01*
X-434866Y163086D01*
X-434935Y163014D01*
X-435001Y162940D01*
X-435065Y162862D01*
X-435125Y162783D01*
X-435182Y162701D01*
X-435236Y162617D01*
X-435286Y162531D01*
X-435333Y162443D01*
X-435377Y162353D01*
X-435417Y162262D01*
X-435453Y162169D01*
X-435486Y162075D01*
X-435515Y161979D01*
X-435540Y161883D01*
X-435561Y161786D01*
X-435579Y161687D01*
X-435592Y161589D01*
X-435602Y161489D01*
X-435608Y161390D01*
X-435610Y161290D01*
X-435610Y146050D02*
X-435608Y145950D01*
X-435602Y145851D01*
X-435592Y145751D01*
X-435579Y145653D01*
X-435561Y145554D01*
X-435540Y145457D01*
X-435515Y145361D01*
X-435486Y145265D01*
X-435453Y145171D01*
X-435417Y145078D01*
X-435377Y144987D01*
X-435333Y144897D01*
X-435286Y144809D01*
X-435236Y144723D01*
X-435182Y144639D01*
X-435125Y144557D01*
X-435065Y144478D01*
X-435001Y144400D01*
X-434935Y144326D01*
X-434866Y144254D01*
X-434794Y144185D01*
X-434720Y144119D01*
X-434642Y144055D01*
X-434563Y143995D01*
X-434481Y143938D01*
X-434397Y143884D01*
X-434311Y143834D01*
X-434223Y143787D01*
X-434133Y143743D01*
X-434042Y143703D01*
X-433949Y143667D01*
X-433855Y143634D01*
X-433759Y143605D01*
X-433663Y143580D01*
X-433566Y143559D01*
X-433467Y143541D01*
X-433369Y143528D01*
X-433269Y143518D01*
X-433170Y143512D01*
X-433070Y143510D01*
X-384810Y146050D02*
X-384810Y161290D01*
X-387350Y143510D02*
X-391160Y143510D01*
X-392430Y144780D01*
X-391160Y163830D02*
X-387350Y163830D01*
X-391160Y163830D02*
X-392430Y162560D01*
X-427990Y144780D02*
X-429260Y143510D01*
X-427990Y144780D02*
X-392430Y144780D01*
X-427990Y162560D02*
X-429260Y163830D01*
X-427990Y162560D02*
X-392430Y162560D01*
X-429260Y143510D02*
X-433070Y143510D01*
X-433070Y163830D02*
X-429260Y163830D01*
X-435610Y161290D02*
X-435610Y146050D01*
D14*
X-437515Y153670D03*
X-382905Y153670D03*
D12*
X-381719Y142501D02*
X-381719Y134366D01*
X-381719Y142501D02*
X-377652Y142501D01*
X-376296Y141145D01*
X-376296Y138433D01*
X-377652Y137078D01*
X-381719Y137078D01*
X-379008Y137078D02*
X-376296Y134366D01*
X-372364Y135722D02*
X-371008Y134366D01*
X-368297Y134366D01*
X-366941Y135722D01*
X-366941Y141145D01*
X-368297Y142501D01*
X-371008Y142501D01*
X-372364Y141145D01*
X-372364Y139789D01*
X-371008Y138433D01*
X-366941Y138433D01*
D10*
X384810Y161290D02*
X384812Y161390D01*
X384818Y161489D01*
X384828Y161589D01*
X384841Y161687D01*
X384859Y161786D01*
X384880Y161883D01*
X384905Y161979D01*
X384934Y162075D01*
X384967Y162169D01*
X385003Y162262D01*
X385043Y162353D01*
X385087Y162443D01*
X385134Y162531D01*
X385184Y162617D01*
X385238Y162701D01*
X385295Y162783D01*
X385355Y162862D01*
X385419Y162940D01*
X385485Y163014D01*
X385554Y163086D01*
X385626Y163155D01*
X385700Y163221D01*
X385778Y163285D01*
X385857Y163345D01*
X385939Y163402D01*
X386023Y163456D01*
X386109Y163506D01*
X386197Y163553D01*
X386287Y163597D01*
X386378Y163637D01*
X386471Y163673D01*
X386565Y163706D01*
X386661Y163735D01*
X386757Y163760D01*
X386854Y163781D01*
X386953Y163799D01*
X387051Y163812D01*
X387151Y163822D01*
X387250Y163828D01*
X387350Y163830D01*
X384810Y146050D02*
X384812Y145950D01*
X384818Y145851D01*
X384828Y145751D01*
X384841Y145653D01*
X384859Y145554D01*
X384880Y145457D01*
X384905Y145361D01*
X384934Y145265D01*
X384967Y145171D01*
X385003Y145078D01*
X385043Y144987D01*
X385087Y144897D01*
X385134Y144809D01*
X385184Y144723D01*
X385238Y144639D01*
X385295Y144557D01*
X385355Y144478D01*
X385419Y144400D01*
X385485Y144326D01*
X385554Y144254D01*
X385626Y144185D01*
X385700Y144119D01*
X385778Y144055D01*
X385857Y143995D01*
X385939Y143938D01*
X386023Y143884D01*
X386109Y143834D01*
X386197Y143787D01*
X386287Y143743D01*
X386378Y143703D01*
X386471Y143667D01*
X386565Y143634D01*
X386661Y143605D01*
X386757Y143580D01*
X386854Y143559D01*
X386953Y143541D01*
X387051Y143528D01*
X387151Y143518D01*
X387250Y143512D01*
X387350Y143510D01*
X433070Y143510D02*
X433170Y143512D01*
X433269Y143518D01*
X433369Y143528D01*
X433467Y143541D01*
X433566Y143559D01*
X433663Y143580D01*
X433759Y143605D01*
X433855Y143634D01*
X433949Y143667D01*
X434042Y143703D01*
X434133Y143743D01*
X434223Y143787D01*
X434311Y143834D01*
X434397Y143884D01*
X434481Y143938D01*
X434563Y143995D01*
X434642Y144055D01*
X434720Y144119D01*
X434794Y144185D01*
X434866Y144254D01*
X434935Y144326D01*
X435001Y144400D01*
X435065Y144478D01*
X435125Y144557D01*
X435182Y144639D01*
X435236Y144723D01*
X435286Y144809D01*
X435333Y144897D01*
X435377Y144987D01*
X435417Y145078D01*
X435453Y145171D01*
X435486Y145265D01*
X435515Y145361D01*
X435540Y145457D01*
X435561Y145554D01*
X435579Y145653D01*
X435592Y145751D01*
X435602Y145851D01*
X435608Y145950D01*
X435610Y146050D01*
X435610Y161290D02*
X435608Y161390D01*
X435602Y161489D01*
X435592Y161589D01*
X435579Y161687D01*
X435561Y161786D01*
X435540Y161883D01*
X435515Y161979D01*
X435486Y162075D01*
X435453Y162169D01*
X435417Y162262D01*
X435377Y162353D01*
X435333Y162443D01*
X435286Y162531D01*
X435236Y162617D01*
X435182Y162701D01*
X435125Y162783D01*
X435065Y162862D01*
X435001Y162940D01*
X434935Y163014D01*
X434866Y163086D01*
X434794Y163155D01*
X434720Y163221D01*
X434642Y163285D01*
X434563Y163345D01*
X434481Y163402D01*
X434397Y163456D01*
X434311Y163506D01*
X434223Y163553D01*
X434133Y163597D01*
X434042Y163637D01*
X433949Y163673D01*
X433855Y163706D01*
X433759Y163735D01*
X433663Y163760D01*
X433566Y163781D01*
X433467Y163799D01*
X433369Y163812D01*
X433269Y163822D01*
X433170Y163828D01*
X433070Y163830D01*
X384810Y161290D02*
X384810Y146050D01*
X387350Y163830D02*
X391160Y163830D01*
X392430Y162560D01*
X391160Y143510D02*
X387350Y143510D01*
X391160Y143510D02*
X392430Y144780D01*
X427990Y162560D02*
X429260Y163830D01*
X427990Y162560D02*
X392430Y162560D01*
X427990Y144780D02*
X429260Y143510D01*
X427990Y144780D02*
X392430Y144780D01*
X429260Y163830D02*
X433070Y163830D01*
X433070Y143510D02*
X429260Y143510D01*
X435610Y146050D02*
X435610Y161290D01*
D14*
X437515Y153670D03*
X382905Y153670D03*
D12*
X436626Y143771D02*
X436626Y135636D01*
X436626Y143771D02*
X440693Y143771D01*
X442049Y142415D01*
X442049Y139703D01*
X440693Y138348D01*
X436626Y138348D01*
X439338Y138348D02*
X442049Y135636D01*
X445981Y141059D02*
X448693Y143771D01*
X448693Y135636D01*
X451404Y135636D02*
X445981Y135636D01*
X455336Y142415D02*
X456692Y143771D01*
X459404Y143771D01*
X460760Y142415D01*
X460760Y141059D01*
X459404Y139703D01*
X458048Y139703D01*
X459404Y139703D02*
X460760Y138348D01*
X460760Y136992D01*
X459404Y135636D01*
X456692Y135636D01*
X455336Y136992D01*
D10*
X-318770Y191770D02*
X-318870Y191772D01*
X-318969Y191778D01*
X-319069Y191788D01*
X-319167Y191801D01*
X-319266Y191819D01*
X-319363Y191840D01*
X-319459Y191865D01*
X-319555Y191894D01*
X-319649Y191927D01*
X-319742Y191963D01*
X-319833Y192003D01*
X-319923Y192047D01*
X-320011Y192094D01*
X-320097Y192144D01*
X-320181Y192198D01*
X-320263Y192255D01*
X-320342Y192315D01*
X-320420Y192379D01*
X-320494Y192445D01*
X-320566Y192514D01*
X-320635Y192586D01*
X-320701Y192660D01*
X-320765Y192738D01*
X-320825Y192817D01*
X-320882Y192899D01*
X-320936Y192983D01*
X-320986Y193069D01*
X-321033Y193157D01*
X-321077Y193247D01*
X-321117Y193338D01*
X-321153Y193431D01*
X-321186Y193525D01*
X-321215Y193621D01*
X-321240Y193717D01*
X-321261Y193814D01*
X-321279Y193913D01*
X-321292Y194011D01*
X-321302Y194111D01*
X-321308Y194210D01*
X-321310Y194310D01*
X-303530Y191770D02*
X-303430Y191772D01*
X-303331Y191778D01*
X-303231Y191788D01*
X-303133Y191801D01*
X-303034Y191819D01*
X-302937Y191840D01*
X-302841Y191865D01*
X-302745Y191894D01*
X-302651Y191927D01*
X-302558Y191963D01*
X-302467Y192003D01*
X-302377Y192047D01*
X-302289Y192094D01*
X-302203Y192144D01*
X-302119Y192198D01*
X-302037Y192255D01*
X-301958Y192315D01*
X-301880Y192379D01*
X-301806Y192445D01*
X-301734Y192514D01*
X-301665Y192586D01*
X-301599Y192660D01*
X-301535Y192738D01*
X-301475Y192817D01*
X-301418Y192899D01*
X-301364Y192983D01*
X-301314Y193069D01*
X-301267Y193157D01*
X-301223Y193247D01*
X-301183Y193338D01*
X-301147Y193431D01*
X-301114Y193525D01*
X-301085Y193621D01*
X-301060Y193717D01*
X-301039Y193814D01*
X-301021Y193913D01*
X-301008Y194011D01*
X-300998Y194111D01*
X-300992Y194210D01*
X-300990Y194310D01*
X-300990Y240030D02*
X-300992Y240130D01*
X-300998Y240229D01*
X-301008Y240329D01*
X-301021Y240427D01*
X-301039Y240526D01*
X-301060Y240623D01*
X-301085Y240719D01*
X-301114Y240815D01*
X-301147Y240909D01*
X-301183Y241002D01*
X-301223Y241093D01*
X-301267Y241183D01*
X-301314Y241271D01*
X-301364Y241357D01*
X-301418Y241441D01*
X-301475Y241523D01*
X-301535Y241602D01*
X-301599Y241680D01*
X-301665Y241754D01*
X-301734Y241826D01*
X-301806Y241895D01*
X-301880Y241961D01*
X-301958Y242025D01*
X-302037Y242085D01*
X-302119Y242142D01*
X-302203Y242196D01*
X-302289Y242246D01*
X-302377Y242293D01*
X-302467Y242337D01*
X-302558Y242377D01*
X-302651Y242413D01*
X-302745Y242446D01*
X-302841Y242475D01*
X-302937Y242500D01*
X-303034Y242521D01*
X-303133Y242539D01*
X-303231Y242552D01*
X-303331Y242562D01*
X-303430Y242568D01*
X-303530Y242570D01*
X-318770Y242570D02*
X-318870Y242568D01*
X-318969Y242562D01*
X-319069Y242552D01*
X-319167Y242539D01*
X-319266Y242521D01*
X-319363Y242500D01*
X-319459Y242475D01*
X-319555Y242446D01*
X-319649Y242413D01*
X-319742Y242377D01*
X-319833Y242337D01*
X-319923Y242293D01*
X-320011Y242246D01*
X-320097Y242196D01*
X-320181Y242142D01*
X-320263Y242085D01*
X-320342Y242025D01*
X-320420Y241961D01*
X-320494Y241895D01*
X-320566Y241826D01*
X-320635Y241754D01*
X-320701Y241680D01*
X-320765Y241602D01*
X-320825Y241523D01*
X-320882Y241441D01*
X-320936Y241357D01*
X-320986Y241271D01*
X-321033Y241183D01*
X-321077Y241093D01*
X-321117Y241002D01*
X-321153Y240909D01*
X-321186Y240815D01*
X-321215Y240719D01*
X-321240Y240623D01*
X-321261Y240526D01*
X-321279Y240427D01*
X-321292Y240329D01*
X-321302Y240229D01*
X-321308Y240130D01*
X-321310Y240030D01*
X-318770Y191770D02*
X-303530Y191770D01*
X-321310Y194310D02*
X-321310Y198120D01*
X-320040Y199390D01*
X-300990Y198120D02*
X-300990Y194310D01*
X-300990Y198120D02*
X-302260Y199390D01*
X-320040Y234950D02*
X-321310Y236220D01*
X-320040Y234950D02*
X-320040Y199390D01*
X-302260Y234950D02*
X-300990Y236220D01*
X-302260Y234950D02*
X-302260Y199390D01*
X-321310Y236220D02*
X-321310Y240030D01*
X-300990Y240030D02*
X-300990Y236220D01*
X-303530Y242570D02*
X-318770Y242570D01*
D15*
X-311150Y244475D03*
X-311150Y189865D03*
D12*
X-297434Y213106D02*
X-297434Y221241D01*
X-293367Y221241D01*
X-292011Y219885D01*
X-292011Y217173D01*
X-293367Y215818D01*
X-297434Y215818D01*
X-294722Y215818D02*
X-292011Y213106D01*
X-284011Y213106D02*
X-284011Y221241D01*
X-288079Y217173D01*
X-282656Y217173D01*
D10*
X-227737Y494279D02*
X-227685Y494364D01*
X-227630Y494448D01*
X-227572Y494529D01*
X-227511Y494607D01*
X-227447Y494684D01*
X-227379Y494757D01*
X-227309Y494828D01*
X-227237Y494897D01*
X-227161Y494962D01*
X-227083Y495024D01*
X-227003Y495083D01*
X-226920Y495139D01*
X-226836Y495192D01*
X-226749Y495241D01*
X-226660Y495287D01*
X-226570Y495329D01*
X-226478Y495368D01*
X-226385Y495403D01*
X-226290Y495435D01*
X-226194Y495462D01*
X-226098Y495486D01*
X-226000Y495506D01*
X-225901Y495523D01*
X-225803Y495535D01*
X-225703Y495544D01*
X-225603Y495548D01*
X-225504Y495549D01*
X-225404Y495546D01*
X-225305Y495538D01*
X-225205Y495527D01*
X-225107Y495512D01*
X-225009Y495493D01*
X-224912Y495471D01*
X-224816Y495444D01*
X-224721Y495414D01*
X-224627Y495380D01*
X-224534Y495343D01*
X-224444Y495302D01*
X-224354Y495257D01*
X-224267Y495209D01*
X-235357Y481081D02*
X-235405Y480994D01*
X-235450Y480904D01*
X-235491Y480814D01*
X-235528Y480721D01*
X-235562Y480627D01*
X-235592Y480532D01*
X-235619Y480436D01*
X-235641Y480339D01*
X-235660Y480241D01*
X-235675Y480143D01*
X-235686Y480043D01*
X-235694Y479944D01*
X-235697Y479844D01*
X-235696Y479745D01*
X-235692Y479645D01*
X-235683Y479545D01*
X-235671Y479447D01*
X-235654Y479348D01*
X-235634Y479250D01*
X-235610Y479154D01*
X-235583Y479058D01*
X-235551Y478963D01*
X-235516Y478870D01*
X-235477Y478778D01*
X-235435Y478688D01*
X-235389Y478599D01*
X-235340Y478512D01*
X-235287Y478428D01*
X-235231Y478345D01*
X-235172Y478265D01*
X-235110Y478187D01*
X-235045Y478111D01*
X-234976Y478039D01*
X-234905Y477969D01*
X-234832Y477901D01*
X-234755Y477837D01*
X-234677Y477776D01*
X-234596Y477718D01*
X-234512Y477663D01*
X-234427Y477611D01*
X-194833Y454751D02*
X-194746Y454703D01*
X-194656Y454658D01*
X-194566Y454617D01*
X-194473Y454580D01*
X-194379Y454546D01*
X-194284Y454516D01*
X-194188Y454489D01*
X-194091Y454467D01*
X-193993Y454448D01*
X-193895Y454433D01*
X-193795Y454422D01*
X-193696Y454414D01*
X-193596Y454411D01*
X-193497Y454412D01*
X-193397Y454416D01*
X-193297Y454425D01*
X-193199Y454437D01*
X-193100Y454454D01*
X-193002Y454474D01*
X-192906Y454498D01*
X-192810Y454525D01*
X-192715Y454557D01*
X-192622Y454592D01*
X-192530Y454631D01*
X-192440Y454673D01*
X-192351Y454719D01*
X-192264Y454768D01*
X-192180Y454821D01*
X-192097Y454877D01*
X-192017Y454936D01*
X-191939Y454998D01*
X-191863Y455063D01*
X-191791Y455132D01*
X-191721Y455203D01*
X-191653Y455276D01*
X-191589Y455353D01*
X-191528Y455431D01*
X-191470Y455512D01*
X-191415Y455596D01*
X-191363Y455681D01*
X-183743Y468879D02*
X-183695Y468966D01*
X-183650Y469056D01*
X-183609Y469146D01*
X-183572Y469239D01*
X-183538Y469333D01*
X-183508Y469428D01*
X-183481Y469524D01*
X-183459Y469621D01*
X-183440Y469719D01*
X-183425Y469817D01*
X-183414Y469917D01*
X-183406Y470016D01*
X-183403Y470116D01*
X-183404Y470215D01*
X-183408Y470315D01*
X-183417Y470415D01*
X-183429Y470513D01*
X-183446Y470612D01*
X-183466Y470710D01*
X-183490Y470806D01*
X-183517Y470902D01*
X-183549Y470997D01*
X-183584Y471090D01*
X-183623Y471182D01*
X-183665Y471272D01*
X-183711Y471361D01*
X-183760Y471448D01*
X-183813Y471532D01*
X-183869Y471615D01*
X-183928Y471695D01*
X-183990Y471773D01*
X-184055Y471849D01*
X-184124Y471921D01*
X-184195Y471991D01*
X-184268Y472059D01*
X-184345Y472123D01*
X-184423Y472184D01*
X-184504Y472242D01*
X-184588Y472297D01*
X-184673Y472349D01*
X-227737Y494279D02*
X-235357Y481081D01*
X-224267Y495209D02*
X-220968Y493304D01*
X-220503Y491569D01*
X-231128Y475706D02*
X-234427Y477611D01*
X-231128Y475706D02*
X-229393Y476171D01*
X-189707Y473789D02*
X-187972Y474254D01*
X-189707Y473789D02*
X-220503Y491569D01*
X-198597Y458391D02*
X-198132Y456656D01*
X-198597Y458391D02*
X-229393Y476171D01*
X-187972Y474254D02*
X-184673Y472349D01*
X-194833Y454751D02*
X-198132Y456656D01*
X-191363Y455681D02*
X-183743Y468879D01*
D14*
G36*
X-185524Y458176D02*
X-188822Y460081D01*
X-186282Y464480D01*
X-182984Y462575D01*
X-185524Y458176D01*
G37*
G36*
X-232818Y485481D02*
X-236116Y487386D01*
X-233576Y491785D01*
X-230278Y489880D01*
X-232818Y485481D01*
G37*
D12*
X-209914Y491028D02*
X-205846Y498073D01*
X-202324Y496039D01*
X-201828Y494187D01*
X-203183Y491839D01*
X-205036Y491343D01*
X-208558Y493376D01*
X-206210Y492020D02*
X-205217Y488316D01*
X-197745Y493395D02*
X-193048Y490684D01*
X-197745Y493395D02*
X-199778Y489873D01*
X-196752Y489691D01*
X-195578Y489013D01*
X-195082Y487161D01*
X-196437Y484813D01*
X-198290Y484317D01*
X-200638Y485672D01*
X-201134Y487525D01*
D10*
X234427Y477611D02*
X234512Y477663D01*
X234596Y477718D01*
X234677Y477776D01*
X234755Y477837D01*
X234832Y477901D01*
X234905Y477969D01*
X234976Y478039D01*
X235045Y478111D01*
X235110Y478187D01*
X235172Y478265D01*
X235231Y478345D01*
X235287Y478428D01*
X235340Y478512D01*
X235389Y478599D01*
X235435Y478688D01*
X235477Y478778D01*
X235516Y478870D01*
X235551Y478963D01*
X235583Y479058D01*
X235610Y479154D01*
X235634Y479250D01*
X235654Y479348D01*
X235671Y479447D01*
X235683Y479545D01*
X235692Y479645D01*
X235696Y479745D01*
X235697Y479844D01*
X235694Y479944D01*
X235686Y480043D01*
X235675Y480143D01*
X235660Y480241D01*
X235641Y480339D01*
X235619Y480436D01*
X235592Y480532D01*
X235562Y480627D01*
X235528Y480721D01*
X235491Y480814D01*
X235450Y480904D01*
X235405Y480994D01*
X235357Y481081D01*
X227737Y494279D02*
X227685Y494364D01*
X227630Y494448D01*
X227572Y494529D01*
X227511Y494607D01*
X227447Y494684D01*
X227379Y494757D01*
X227309Y494828D01*
X227237Y494897D01*
X227161Y494962D01*
X227083Y495024D01*
X227003Y495083D01*
X226920Y495139D01*
X226836Y495192D01*
X226749Y495241D01*
X226660Y495287D01*
X226570Y495329D01*
X226478Y495368D01*
X226385Y495403D01*
X226290Y495435D01*
X226194Y495462D01*
X226098Y495486D01*
X226000Y495506D01*
X225901Y495523D01*
X225803Y495535D01*
X225703Y495544D01*
X225603Y495548D01*
X225504Y495549D01*
X225404Y495546D01*
X225305Y495538D01*
X225205Y495527D01*
X225107Y495512D01*
X225009Y495493D01*
X224912Y495471D01*
X224816Y495444D01*
X224721Y495414D01*
X224627Y495380D01*
X224534Y495343D01*
X224444Y495302D01*
X224354Y495257D01*
X224267Y495209D01*
X184673Y472349D02*
X184588Y472297D01*
X184504Y472242D01*
X184423Y472184D01*
X184345Y472123D01*
X184268Y472059D01*
X184195Y471991D01*
X184124Y471921D01*
X184055Y471849D01*
X183990Y471773D01*
X183928Y471695D01*
X183869Y471615D01*
X183813Y471532D01*
X183760Y471448D01*
X183711Y471361D01*
X183665Y471272D01*
X183623Y471182D01*
X183584Y471090D01*
X183549Y470997D01*
X183517Y470902D01*
X183490Y470806D01*
X183466Y470710D01*
X183446Y470612D01*
X183429Y470513D01*
X183417Y470415D01*
X183408Y470315D01*
X183404Y470215D01*
X183403Y470116D01*
X183406Y470016D01*
X183414Y469917D01*
X183425Y469817D01*
X183440Y469719D01*
X183459Y469621D01*
X183481Y469524D01*
X183508Y469428D01*
X183538Y469333D01*
X183572Y469239D01*
X183609Y469146D01*
X183650Y469056D01*
X183695Y468966D01*
X183743Y468879D01*
X191363Y455681D02*
X191415Y455596D01*
X191470Y455512D01*
X191528Y455431D01*
X191589Y455353D01*
X191653Y455276D01*
X191721Y455203D01*
X191791Y455132D01*
X191863Y455063D01*
X191939Y454998D01*
X192017Y454936D01*
X192097Y454877D01*
X192180Y454821D01*
X192264Y454768D01*
X192351Y454719D01*
X192440Y454673D01*
X192530Y454631D01*
X192622Y454592D01*
X192715Y454557D01*
X192810Y454525D01*
X192906Y454498D01*
X193002Y454474D01*
X193100Y454454D01*
X193199Y454437D01*
X193297Y454425D01*
X193397Y454416D01*
X193497Y454412D01*
X193596Y454411D01*
X193696Y454414D01*
X193795Y454422D01*
X193895Y454433D01*
X193993Y454448D01*
X194091Y454467D01*
X194188Y454489D01*
X194284Y454516D01*
X194379Y454546D01*
X194473Y454580D01*
X194566Y454617D01*
X194656Y454658D01*
X194746Y454703D01*
X194833Y454751D01*
X235357Y481081D02*
X227737Y494279D01*
X234427Y477611D02*
X231128Y475706D01*
X229393Y476171D01*
X220968Y493304D02*
X224267Y495209D01*
X220968Y493304D02*
X220503Y491569D01*
X198597Y458391D02*
X198132Y456656D01*
X198597Y458391D02*
X229393Y476171D01*
X189707Y473789D02*
X187972Y474254D01*
X189707Y473789D02*
X220503Y491569D01*
X198132Y456656D02*
X194833Y454751D01*
X184673Y472349D02*
X187972Y474254D01*
X183743Y468879D02*
X191363Y455681D01*
D14*
G36*
X182984Y462575D02*
X186282Y464480D01*
X188822Y460081D01*
X185524Y458176D01*
X182984Y462575D01*
G37*
G36*
X230278Y489880D02*
X233576Y491785D01*
X236116Y487386D01*
X232818Y485481D01*
X230278Y489880D01*
G37*
D12*
X195470Y482689D02*
X191403Y489734D01*
X194925Y491768D01*
X196777Y491271D01*
X198133Y488923D01*
X197637Y487071D01*
X194114Y485037D01*
X196463Y486393D02*
X200167Y485400D01*
X202531Y494593D02*
X204201Y497123D01*
X202531Y494593D02*
X201538Y490889D01*
X202894Y488541D01*
X204746Y488044D01*
X207094Y489400D01*
X207591Y491252D01*
X206913Y492426D01*
X205061Y492923D01*
X201538Y490889D01*
D10*
X300990Y194310D02*
X300992Y194210D01*
X300998Y194111D01*
X301008Y194011D01*
X301021Y193913D01*
X301039Y193814D01*
X301060Y193717D01*
X301085Y193621D01*
X301114Y193525D01*
X301147Y193431D01*
X301183Y193338D01*
X301223Y193247D01*
X301267Y193157D01*
X301314Y193069D01*
X301364Y192983D01*
X301418Y192899D01*
X301475Y192817D01*
X301535Y192738D01*
X301599Y192660D01*
X301665Y192586D01*
X301734Y192514D01*
X301806Y192445D01*
X301880Y192379D01*
X301958Y192315D01*
X302037Y192255D01*
X302119Y192198D01*
X302203Y192144D01*
X302289Y192094D01*
X302377Y192047D01*
X302467Y192003D01*
X302558Y191963D01*
X302651Y191927D01*
X302745Y191894D01*
X302841Y191865D01*
X302937Y191840D01*
X303034Y191819D01*
X303133Y191801D01*
X303231Y191788D01*
X303331Y191778D01*
X303430Y191772D01*
X303530Y191770D01*
X318770Y191770D02*
X318870Y191772D01*
X318969Y191778D01*
X319069Y191788D01*
X319167Y191801D01*
X319266Y191819D01*
X319363Y191840D01*
X319459Y191865D01*
X319555Y191894D01*
X319649Y191927D01*
X319742Y191963D01*
X319833Y192003D01*
X319923Y192047D01*
X320011Y192094D01*
X320097Y192144D01*
X320181Y192198D01*
X320263Y192255D01*
X320342Y192315D01*
X320420Y192379D01*
X320494Y192445D01*
X320566Y192514D01*
X320635Y192586D01*
X320701Y192660D01*
X320765Y192738D01*
X320825Y192817D01*
X320882Y192899D01*
X320936Y192983D01*
X320986Y193069D01*
X321033Y193157D01*
X321077Y193247D01*
X321117Y193338D01*
X321153Y193431D01*
X321186Y193525D01*
X321215Y193621D01*
X321240Y193717D01*
X321261Y193814D01*
X321279Y193913D01*
X321292Y194011D01*
X321302Y194111D01*
X321308Y194210D01*
X321310Y194310D01*
X321310Y240030D02*
X321308Y240130D01*
X321302Y240229D01*
X321292Y240329D01*
X321279Y240427D01*
X321261Y240526D01*
X321240Y240623D01*
X321215Y240719D01*
X321186Y240815D01*
X321153Y240909D01*
X321117Y241002D01*
X321077Y241093D01*
X321033Y241183D01*
X320986Y241271D01*
X320936Y241357D01*
X320882Y241441D01*
X320825Y241523D01*
X320765Y241602D01*
X320701Y241680D01*
X320635Y241754D01*
X320566Y241826D01*
X320494Y241895D01*
X320420Y241961D01*
X320342Y242025D01*
X320263Y242085D01*
X320181Y242142D01*
X320097Y242196D01*
X320011Y242246D01*
X319923Y242293D01*
X319833Y242337D01*
X319742Y242377D01*
X319649Y242413D01*
X319555Y242446D01*
X319459Y242475D01*
X319363Y242500D01*
X319266Y242521D01*
X319167Y242539D01*
X319069Y242552D01*
X318969Y242562D01*
X318870Y242568D01*
X318770Y242570D01*
X303530Y242570D02*
X303430Y242568D01*
X303331Y242562D01*
X303231Y242552D01*
X303133Y242539D01*
X303034Y242521D01*
X302937Y242500D01*
X302841Y242475D01*
X302745Y242446D01*
X302651Y242413D01*
X302558Y242377D01*
X302467Y242337D01*
X302377Y242293D01*
X302289Y242246D01*
X302203Y242196D01*
X302119Y242142D01*
X302037Y242085D01*
X301958Y242025D01*
X301880Y241961D01*
X301806Y241895D01*
X301734Y241826D01*
X301665Y241754D01*
X301599Y241680D01*
X301535Y241602D01*
X301475Y241523D01*
X301418Y241441D01*
X301364Y241357D01*
X301314Y241271D01*
X301267Y241183D01*
X301223Y241093D01*
X301183Y241002D01*
X301147Y240909D01*
X301114Y240815D01*
X301085Y240719D01*
X301060Y240623D01*
X301039Y240526D01*
X301021Y240427D01*
X301008Y240329D01*
X300998Y240229D01*
X300992Y240130D01*
X300990Y240030D01*
X303530Y191770D02*
X318770Y191770D01*
X300990Y194310D02*
X300990Y198120D01*
X302260Y199390D01*
X321310Y198120D02*
X321310Y194310D01*
X321310Y198120D02*
X320040Y199390D01*
X302260Y234950D02*
X300990Y236220D01*
X302260Y234950D02*
X302260Y199390D01*
X320040Y234950D02*
X321310Y236220D01*
X320040Y234950D02*
X320040Y199390D01*
X300990Y236220D02*
X300990Y240030D01*
X321310Y240030D02*
X321310Y236220D01*
X318770Y242570D02*
X303530Y242570D01*
D15*
X311150Y244475D03*
X311150Y189865D03*
D12*
X282026Y213106D02*
X282026Y221241D01*
X286093Y221241D01*
X287449Y219885D01*
X287449Y217173D01*
X286093Y215818D01*
X282026Y215818D01*
X284737Y215818D02*
X287449Y213106D01*
X291381Y221241D02*
X296804Y221241D01*
X296804Y219885D01*
X291381Y214462D01*
X291381Y213106D01*
D10*
X-334010Y163830D02*
X-334110Y163828D01*
X-334209Y163822D01*
X-334309Y163812D01*
X-334407Y163799D01*
X-334506Y163781D01*
X-334603Y163760D01*
X-334699Y163735D01*
X-334795Y163706D01*
X-334889Y163673D01*
X-334982Y163637D01*
X-335073Y163597D01*
X-335163Y163553D01*
X-335251Y163506D01*
X-335337Y163456D01*
X-335421Y163402D01*
X-335503Y163345D01*
X-335582Y163285D01*
X-335660Y163221D01*
X-335734Y163155D01*
X-335806Y163086D01*
X-335875Y163014D01*
X-335941Y162940D01*
X-336005Y162862D01*
X-336065Y162783D01*
X-336122Y162701D01*
X-336176Y162617D01*
X-336226Y162531D01*
X-336273Y162443D01*
X-336317Y162353D01*
X-336357Y162262D01*
X-336393Y162169D01*
X-336426Y162075D01*
X-336455Y161979D01*
X-336480Y161883D01*
X-336501Y161786D01*
X-336519Y161687D01*
X-336532Y161589D01*
X-336542Y161489D01*
X-336548Y161390D01*
X-336550Y161290D01*
X-336550Y146050D02*
X-336548Y145950D01*
X-336542Y145851D01*
X-336532Y145751D01*
X-336519Y145653D01*
X-336501Y145554D01*
X-336480Y145457D01*
X-336455Y145361D01*
X-336426Y145265D01*
X-336393Y145171D01*
X-336357Y145078D01*
X-336317Y144987D01*
X-336273Y144897D01*
X-336226Y144809D01*
X-336176Y144723D01*
X-336122Y144639D01*
X-336065Y144557D01*
X-336005Y144478D01*
X-335941Y144400D01*
X-335875Y144326D01*
X-335806Y144254D01*
X-335734Y144185D01*
X-335660Y144119D01*
X-335582Y144055D01*
X-335503Y143995D01*
X-335421Y143938D01*
X-335337Y143884D01*
X-335251Y143834D01*
X-335163Y143787D01*
X-335073Y143743D01*
X-334982Y143703D01*
X-334889Y143667D01*
X-334795Y143634D01*
X-334699Y143605D01*
X-334603Y143580D01*
X-334506Y143559D01*
X-334407Y143541D01*
X-334309Y143528D01*
X-334209Y143518D01*
X-334110Y143512D01*
X-334010Y143510D01*
X-288290Y143510D02*
X-288190Y143512D01*
X-288091Y143518D01*
X-287991Y143528D01*
X-287893Y143541D01*
X-287794Y143559D01*
X-287697Y143580D01*
X-287601Y143605D01*
X-287505Y143634D01*
X-287411Y143667D01*
X-287318Y143703D01*
X-287227Y143743D01*
X-287137Y143787D01*
X-287049Y143834D01*
X-286963Y143884D01*
X-286879Y143938D01*
X-286797Y143995D01*
X-286718Y144055D01*
X-286640Y144119D01*
X-286566Y144185D01*
X-286494Y144254D01*
X-286425Y144326D01*
X-286359Y144400D01*
X-286295Y144478D01*
X-286235Y144557D01*
X-286178Y144639D01*
X-286124Y144723D01*
X-286074Y144809D01*
X-286027Y144897D01*
X-285983Y144987D01*
X-285943Y145078D01*
X-285907Y145171D01*
X-285874Y145265D01*
X-285845Y145361D01*
X-285820Y145457D01*
X-285799Y145554D01*
X-285781Y145653D01*
X-285768Y145751D01*
X-285758Y145851D01*
X-285752Y145950D01*
X-285750Y146050D01*
X-285750Y161290D02*
X-285752Y161390D01*
X-285758Y161489D01*
X-285768Y161589D01*
X-285781Y161687D01*
X-285799Y161786D01*
X-285820Y161883D01*
X-285845Y161979D01*
X-285874Y162075D01*
X-285907Y162169D01*
X-285943Y162262D01*
X-285983Y162353D01*
X-286027Y162443D01*
X-286074Y162531D01*
X-286124Y162617D01*
X-286178Y162701D01*
X-286235Y162783D01*
X-286295Y162862D01*
X-286359Y162940D01*
X-286425Y163014D01*
X-286494Y163086D01*
X-286566Y163155D01*
X-286640Y163221D01*
X-286718Y163285D01*
X-286797Y163345D01*
X-286879Y163402D01*
X-286963Y163456D01*
X-287049Y163506D01*
X-287137Y163553D01*
X-287227Y163597D01*
X-287318Y163637D01*
X-287411Y163673D01*
X-287505Y163706D01*
X-287601Y163735D01*
X-287697Y163760D01*
X-287794Y163781D01*
X-287893Y163799D01*
X-287991Y163812D01*
X-288091Y163822D01*
X-288190Y163828D01*
X-288290Y163830D01*
X-336550Y161290D02*
X-336550Y146050D01*
X-334010Y163830D02*
X-330200Y163830D01*
X-328930Y162560D01*
X-330200Y143510D02*
X-334010Y143510D01*
X-330200Y143510D02*
X-328930Y144780D01*
X-293370Y162560D02*
X-292100Y163830D01*
X-293370Y162560D02*
X-328930Y162560D01*
X-293370Y144780D02*
X-292100Y143510D01*
X-293370Y144780D02*
X-328930Y144780D01*
X-292100Y163830D02*
X-288290Y163830D01*
X-288290Y143510D02*
X-292100Y143510D01*
X-285750Y146050D02*
X-285750Y161290D01*
D14*
X-283845Y153670D03*
X-338455Y153670D03*
D12*
X-283929Y142501D02*
X-283929Y134366D01*
X-283929Y142501D02*
X-279862Y142501D01*
X-278506Y141145D01*
X-278506Y138433D01*
X-279862Y137078D01*
X-283929Y137078D01*
X-281218Y137078D02*
X-278506Y134366D01*
X-274574Y141145D02*
X-273218Y142501D01*
X-270507Y142501D01*
X-269151Y141145D01*
X-269151Y139789D01*
X-270507Y138433D01*
X-269151Y137078D01*
X-269151Y135722D01*
X-270507Y134366D01*
X-273218Y134366D01*
X-274574Y135722D01*
X-274574Y137078D01*
X-273218Y138433D01*
X-274574Y139789D01*
X-274574Y141145D01*
X-273218Y138433D02*
X-270507Y138433D01*
D10*
X-73660Y447040D02*
X-73560Y447042D01*
X-73461Y447048D01*
X-73361Y447058D01*
X-73263Y447071D01*
X-73164Y447089D01*
X-73067Y447110D01*
X-72971Y447135D01*
X-72875Y447164D01*
X-72781Y447197D01*
X-72688Y447233D01*
X-72597Y447273D01*
X-72507Y447317D01*
X-72419Y447364D01*
X-72333Y447414D01*
X-72249Y447468D01*
X-72167Y447525D01*
X-72088Y447585D01*
X-72010Y447649D01*
X-71936Y447715D01*
X-71864Y447784D01*
X-71795Y447856D01*
X-71729Y447930D01*
X-71665Y448008D01*
X-71605Y448087D01*
X-71548Y448169D01*
X-71494Y448253D01*
X-71444Y448339D01*
X-71397Y448427D01*
X-71353Y448517D01*
X-71313Y448608D01*
X-71277Y448701D01*
X-71244Y448795D01*
X-71215Y448891D01*
X-71190Y448987D01*
X-71169Y449084D01*
X-71151Y449183D01*
X-71138Y449281D01*
X-71128Y449381D01*
X-71122Y449480D01*
X-71120Y449580D01*
X-71120Y464820D02*
X-71122Y464920D01*
X-71128Y465019D01*
X-71138Y465119D01*
X-71151Y465217D01*
X-71169Y465316D01*
X-71190Y465413D01*
X-71215Y465509D01*
X-71244Y465605D01*
X-71277Y465699D01*
X-71313Y465792D01*
X-71353Y465883D01*
X-71397Y465973D01*
X-71444Y466061D01*
X-71494Y466147D01*
X-71548Y466231D01*
X-71605Y466313D01*
X-71665Y466392D01*
X-71729Y466470D01*
X-71795Y466544D01*
X-71864Y466616D01*
X-71936Y466685D01*
X-72010Y466751D01*
X-72088Y466815D01*
X-72167Y466875D01*
X-72249Y466932D01*
X-72333Y466986D01*
X-72419Y467036D01*
X-72507Y467083D01*
X-72597Y467127D01*
X-72688Y467167D01*
X-72781Y467203D01*
X-72875Y467236D01*
X-72971Y467265D01*
X-73067Y467290D01*
X-73164Y467311D01*
X-73263Y467329D01*
X-73361Y467342D01*
X-73461Y467352D01*
X-73560Y467358D01*
X-73660Y467360D01*
X-119380Y467360D02*
X-119480Y467358D01*
X-119579Y467352D01*
X-119679Y467342D01*
X-119777Y467329D01*
X-119876Y467311D01*
X-119973Y467290D01*
X-120069Y467265D01*
X-120165Y467236D01*
X-120259Y467203D01*
X-120352Y467167D01*
X-120443Y467127D01*
X-120533Y467083D01*
X-120621Y467036D01*
X-120707Y466986D01*
X-120791Y466932D01*
X-120873Y466875D01*
X-120952Y466815D01*
X-121030Y466751D01*
X-121104Y466685D01*
X-121176Y466616D01*
X-121245Y466544D01*
X-121311Y466470D01*
X-121375Y466392D01*
X-121435Y466313D01*
X-121492Y466231D01*
X-121546Y466147D01*
X-121596Y466061D01*
X-121643Y465973D01*
X-121687Y465883D01*
X-121727Y465792D01*
X-121763Y465699D01*
X-121796Y465605D01*
X-121825Y465509D01*
X-121850Y465413D01*
X-121871Y465316D01*
X-121889Y465217D01*
X-121902Y465119D01*
X-121912Y465019D01*
X-121918Y464920D01*
X-121920Y464820D01*
X-121920Y449580D02*
X-121918Y449480D01*
X-121912Y449381D01*
X-121902Y449281D01*
X-121889Y449183D01*
X-121871Y449084D01*
X-121850Y448987D01*
X-121825Y448891D01*
X-121796Y448795D01*
X-121763Y448701D01*
X-121727Y448608D01*
X-121687Y448517D01*
X-121643Y448427D01*
X-121596Y448339D01*
X-121546Y448253D01*
X-121492Y448169D01*
X-121435Y448087D01*
X-121375Y448008D01*
X-121311Y447930D01*
X-121245Y447856D01*
X-121176Y447784D01*
X-121104Y447715D01*
X-121030Y447649D01*
X-120952Y447585D01*
X-120873Y447525D01*
X-120791Y447468D01*
X-120707Y447414D01*
X-120621Y447364D01*
X-120533Y447317D01*
X-120443Y447273D01*
X-120352Y447233D01*
X-120259Y447197D01*
X-120165Y447164D01*
X-120069Y447135D01*
X-119973Y447110D01*
X-119876Y447089D01*
X-119777Y447071D01*
X-119679Y447058D01*
X-119579Y447048D01*
X-119480Y447042D01*
X-119380Y447040D01*
X-71120Y449580D02*
X-71120Y464820D01*
X-73660Y447040D02*
X-77470Y447040D01*
X-78740Y448310D01*
X-77470Y467360D02*
X-73660Y467360D01*
X-77470Y467360D02*
X-78740Y466090D01*
X-114300Y448310D02*
X-115570Y447040D01*
X-114300Y448310D02*
X-78740Y448310D01*
X-114300Y466090D02*
X-115570Y467360D01*
X-114300Y466090D02*
X-78740Y466090D01*
X-115570Y447040D02*
X-119380Y447040D01*
X-119380Y467360D02*
X-115570Y467360D01*
X-121920Y464820D02*
X-121920Y449580D01*
D14*
X-123825Y457200D03*
X-69215Y457200D03*
D12*
X-109537Y470916D02*
X-109537Y479051D01*
X-105469Y479051D01*
X-104114Y477695D01*
X-104114Y474983D01*
X-105469Y473628D01*
X-109537Y473628D01*
X-106825Y473628D02*
X-104114Y470916D01*
X-100182Y476339D02*
X-97470Y479051D01*
X-97470Y470916D01*
X-100182Y470916D02*
X-94758Y470916D01*
X-90826Y472272D02*
X-90826Y477695D01*
X-89471Y479051D01*
X-86759Y479051D01*
X-85403Y477695D01*
X-85403Y472272D01*
X-86759Y470916D01*
X-89471Y470916D01*
X-90826Y472272D01*
X-85403Y477695D01*
D10*
X334010Y143510D02*
X334110Y143512D01*
X334209Y143518D01*
X334309Y143528D01*
X334407Y143541D01*
X334506Y143559D01*
X334603Y143580D01*
X334699Y143605D01*
X334795Y143634D01*
X334889Y143667D01*
X334982Y143703D01*
X335073Y143743D01*
X335163Y143787D01*
X335251Y143834D01*
X335337Y143884D01*
X335421Y143938D01*
X335503Y143995D01*
X335582Y144055D01*
X335660Y144119D01*
X335734Y144185D01*
X335806Y144254D01*
X335875Y144326D01*
X335941Y144400D01*
X336005Y144478D01*
X336065Y144557D01*
X336122Y144639D01*
X336176Y144723D01*
X336226Y144809D01*
X336273Y144897D01*
X336317Y144987D01*
X336357Y145078D01*
X336393Y145171D01*
X336426Y145265D01*
X336455Y145361D01*
X336480Y145457D01*
X336501Y145554D01*
X336519Y145653D01*
X336532Y145751D01*
X336542Y145851D01*
X336548Y145950D01*
X336550Y146050D01*
X336550Y161290D02*
X336548Y161390D01*
X336542Y161489D01*
X336532Y161589D01*
X336519Y161687D01*
X336501Y161786D01*
X336480Y161883D01*
X336455Y161979D01*
X336426Y162075D01*
X336393Y162169D01*
X336357Y162262D01*
X336317Y162353D01*
X336273Y162443D01*
X336226Y162531D01*
X336176Y162617D01*
X336122Y162701D01*
X336065Y162783D01*
X336005Y162862D01*
X335941Y162940D01*
X335875Y163014D01*
X335806Y163086D01*
X335734Y163155D01*
X335660Y163221D01*
X335582Y163285D01*
X335503Y163345D01*
X335421Y163402D01*
X335337Y163456D01*
X335251Y163506D01*
X335163Y163553D01*
X335073Y163597D01*
X334982Y163637D01*
X334889Y163673D01*
X334795Y163706D01*
X334699Y163735D01*
X334603Y163760D01*
X334506Y163781D01*
X334407Y163799D01*
X334309Y163812D01*
X334209Y163822D01*
X334110Y163828D01*
X334010Y163830D01*
X288290Y163830D02*
X288190Y163828D01*
X288091Y163822D01*
X287991Y163812D01*
X287893Y163799D01*
X287794Y163781D01*
X287697Y163760D01*
X287601Y163735D01*
X287505Y163706D01*
X287411Y163673D01*
X287318Y163637D01*
X287227Y163597D01*
X287137Y163553D01*
X287049Y163506D01*
X286963Y163456D01*
X286879Y163402D01*
X286797Y163345D01*
X286718Y163285D01*
X286640Y163221D01*
X286566Y163155D01*
X286494Y163086D01*
X286425Y163014D01*
X286359Y162940D01*
X286295Y162862D01*
X286235Y162783D01*
X286178Y162701D01*
X286124Y162617D01*
X286074Y162531D01*
X286027Y162443D01*
X285983Y162353D01*
X285943Y162262D01*
X285907Y162169D01*
X285874Y162075D01*
X285845Y161979D01*
X285820Y161883D01*
X285799Y161786D01*
X285781Y161687D01*
X285768Y161589D01*
X285758Y161489D01*
X285752Y161390D01*
X285750Y161290D01*
X285750Y146050D02*
X285752Y145950D01*
X285758Y145851D01*
X285768Y145751D01*
X285781Y145653D01*
X285799Y145554D01*
X285820Y145457D01*
X285845Y145361D01*
X285874Y145265D01*
X285907Y145171D01*
X285943Y145078D01*
X285983Y144987D01*
X286027Y144897D01*
X286074Y144809D01*
X286124Y144723D01*
X286178Y144639D01*
X286235Y144557D01*
X286295Y144478D01*
X286359Y144400D01*
X286425Y144326D01*
X286494Y144254D01*
X286566Y144185D01*
X286640Y144119D01*
X286718Y144055D01*
X286797Y143995D01*
X286879Y143938D01*
X286963Y143884D01*
X287049Y143834D01*
X287137Y143787D01*
X287227Y143743D01*
X287318Y143703D01*
X287411Y143667D01*
X287505Y143634D01*
X287601Y143605D01*
X287697Y143580D01*
X287794Y143559D01*
X287893Y143541D01*
X287991Y143528D01*
X288091Y143518D01*
X288190Y143512D01*
X288290Y143510D01*
X336550Y146050D02*
X336550Y161290D01*
X334010Y143510D02*
X330200Y143510D01*
X328930Y144780D01*
X330200Y163830D02*
X334010Y163830D01*
X330200Y163830D02*
X328930Y162560D01*
X293370Y144780D02*
X292100Y143510D01*
X293370Y144780D02*
X328930Y144780D01*
X293370Y162560D02*
X292100Y163830D01*
X293370Y162560D02*
X328930Y162560D01*
X292100Y143510D02*
X288290Y143510D01*
X288290Y163830D02*
X292100Y163830D01*
X285750Y161290D02*
X285750Y146050D01*
D14*
X283845Y153670D03*
X338455Y153670D03*
D12*
X338201Y143771D02*
X338201Y135636D01*
X338201Y143771D02*
X342268Y143771D01*
X343624Y142415D01*
X343624Y139703D01*
X342268Y138348D01*
X338201Y138348D01*
X340913Y138348D02*
X343624Y135636D01*
X347556Y141059D02*
X350268Y143771D01*
X350268Y135636D01*
X352979Y135636D02*
X347556Y135636D01*
X356911Y135636D02*
X362335Y135636D01*
X362335Y141059D02*
X356911Y135636D01*
X362335Y141059D02*
X362335Y142415D01*
X360979Y143771D01*
X358267Y143771D01*
X356911Y142415D01*
D16*
X177800Y430530D02*
X-177800Y430530D01*
X177800Y430530D02*
X177800Y265430D01*
X-177800Y265430D01*
X-177800Y430530D01*
D17*
X158242Y342641D02*
X158242Y338743D01*
X158242Y340692D02*
X146548Y340692D01*
X146548Y338743D02*
X146548Y342641D01*
X146548Y346539D02*
X158242Y346539D01*
X158242Y354335D02*
X146548Y346539D01*
X146548Y354335D02*
X158242Y354335D01*
X-158252Y336794D02*
X-158252Y332896D01*
X-156303Y330947D01*
X-148507Y330947D01*
X-146558Y332896D01*
X-146558Y336794D01*
X-148507Y338743D01*
X-156303Y338743D01*
X-158252Y336794D01*
X-158252Y342641D02*
X-148507Y342641D01*
X-146558Y344590D01*
X-146558Y348488D01*
X-148507Y350437D01*
X-158252Y350437D01*
X-158252Y358233D02*
X-146558Y358233D01*
X-158252Y354335D02*
X-158252Y362131D01*
D18*
X152400Y290830D02*
X152400Y278130D01*
X146050Y411480D02*
X158750Y411480D01*
X-152400Y405130D02*
X-152400Y417830D01*
X152400Y417830D02*
X152400Y405130D01*
X-152400Y290830D02*
X-152400Y278130D01*
X-158750Y411480D02*
X-146050Y411480D01*
D12*
X158031Y437982D02*
X158031Y444761D01*
X158031Y437982D02*
X159387Y436626D01*
X162098Y436626D01*
X163454Y437982D01*
X163454Y444761D01*
X167386Y442049D02*
X170098Y444761D01*
X170098Y436626D01*
X172809Y436626D02*
X167386Y436626D01*
X-92536Y350781D02*
X-92536Y342646D01*
X-88468Y342646D01*
X-87113Y344002D01*
X-87113Y349425D01*
X-88468Y350781D01*
X-92536Y350781D01*
X-79113Y350781D02*
X-77757Y349425D01*
X-79113Y350781D02*
X-81825Y350781D01*
X-83181Y349425D01*
X-83181Y344002D01*
X-81825Y342646D01*
X-79113Y342646D01*
X-77757Y344002D01*
X-73826Y346713D02*
X-68402Y346713D01*
X-64470Y342646D02*
X-64470Y350781D01*
X-64470Y342646D02*
X-60403Y342646D01*
X-59047Y344002D01*
X-59047Y349425D01*
X-60403Y350781D01*
X-64470Y350781D01*
X-51048Y350781D02*
X-49692Y349425D01*
X-51048Y350781D02*
X-53759Y350781D01*
X-55115Y349425D01*
X-55115Y344002D01*
X-53759Y342646D01*
X-51048Y342646D01*
X-49692Y344002D01*
X-45760Y346713D02*
X-40337Y346713D01*
X-32337Y350781D02*
X-30982Y349425D01*
X-32337Y350781D02*
X-35049Y350781D01*
X-36405Y349425D01*
X-36405Y348069D01*
X-35049Y346713D01*
X-32337Y346713D01*
X-30982Y345358D01*
X-30982Y344002D01*
X-32337Y342646D01*
X-35049Y342646D01*
X-36405Y344002D01*
X-24338Y342646D02*
X-24338Y350781D01*
X-27050Y350781D02*
X-21626Y350781D01*
X-17694Y350781D02*
X-12271Y350781D01*
X-17694Y350781D02*
X-17694Y342646D01*
X-12271Y342646D01*
X-14983Y346713D02*
X-17694Y346713D01*
X-8339Y342646D02*
X-8339Y350781D01*
X-4272Y350781D01*
X-2916Y349425D01*
X-2916Y346713D01*
X-4272Y345358D01*
X-8339Y345358D01*
X1016Y346713D02*
X6439Y346713D01*
X10371Y344002D02*
X10371Y350781D01*
X10371Y344002D02*
X11727Y342646D01*
X14439Y342646D01*
X15794Y344002D01*
X15794Y350781D01*
X19726Y350781D02*
X19726Y342646D01*
X19726Y350781D02*
X23794Y350781D01*
X25150Y349425D01*
X25150Y346713D01*
X23794Y345358D01*
X19726Y345358D01*
X29082Y346713D02*
X34505Y346713D01*
X38437Y342646D02*
X38437Y350781D01*
X41148Y348069D01*
X43860Y350781D01*
X43860Y342646D01*
X50504Y342646D02*
X50504Y350781D01*
X53215Y350781D02*
X47792Y350781D01*
X57147Y349425D02*
X58503Y350781D01*
X61215Y350781D01*
X62570Y349425D01*
X62570Y348069D01*
X61215Y346713D01*
X59859Y346713D01*
X61215Y346713D02*
X62570Y345358D01*
X62570Y344002D01*
X61215Y342646D01*
X58503Y342646D01*
X57147Y344002D01*
X69214Y349425D02*
X71926Y350781D01*
X69214Y349425D02*
X66502Y346713D01*
X66502Y344002D01*
X67858Y342646D01*
X70570Y342646D01*
X71926Y344002D01*
X71926Y345358D01*
X70570Y346713D01*
X66502Y346713D01*
X75857Y344002D02*
X75857Y349425D01*
X77213Y350781D01*
X79925Y350781D01*
X81281Y349425D01*
X81281Y344002D01*
X79925Y342646D01*
X77213Y342646D01*
X75857Y344002D01*
X81281Y349425D01*
X85213Y349425D02*
X86568Y350781D01*
X89280Y350781D01*
X90636Y349425D01*
X90636Y348069D01*
X89280Y346713D01*
X90636Y345358D01*
X90636Y344002D01*
X89280Y342646D01*
X86568Y342646D01*
X85213Y344002D01*
X85213Y345358D01*
X86568Y346713D01*
X85213Y348069D01*
X85213Y349425D01*
X86568Y346713D02*
X89280Y346713D01*
D16*
X-376546Y191771D02*
X-376933Y192275D01*
X-377309Y192788D01*
X-377672Y193310D01*
X-378023Y193840D01*
X-378360Y194378D01*
X-378685Y194925D01*
X-378997Y195479D01*
X-379296Y196040D01*
X-379581Y196609D01*
X-379852Y197184D01*
X-380110Y197765D01*
X-380353Y198352D01*
X-380583Y198945D01*
X-380798Y199543D01*
X-380999Y200146D01*
X-381186Y200754D01*
X-381358Y201366D01*
X-381516Y201982D01*
X-381658Y202602D01*
X-381786Y203224D01*
X-381899Y203850D01*
X-381998Y204478D01*
X-382081Y205108D01*
X-382149Y205741D01*
X-382149Y205740D02*
X-382203Y206389D01*
X-382241Y207038D01*
X-382263Y207689D01*
X-382270Y208340D01*
X-382261Y208991D01*
X-382235Y209641D01*
X-382194Y210291D01*
X-382137Y210939D01*
X-382064Y211586D01*
X-381976Y212231D01*
X-381871Y212874D01*
X-381751Y213514D01*
X-381616Y214150D01*
X-381465Y214784D01*
X-381298Y215413D01*
X-381117Y216038D01*
X-380920Y216659D01*
X-380708Y217274D01*
X-380481Y217884D01*
X-380239Y218489D01*
X-379982Y219087D01*
X-379711Y219679D01*
X-379426Y220264D01*
X-379126Y220842D01*
X-378813Y221412D01*
X-378485Y221975D01*
X-378144Y222529D01*
X-377790Y223075D01*
X-377422Y223612D01*
X-377041Y224141D01*
X-376648Y224659D01*
X-376242Y225168D01*
X-375824Y225667D01*
X-375393Y226155D01*
X-374951Y226633D01*
X-374497Y227100D01*
X-374032Y227555D01*
X-373556Y227999D01*
X-373070Y228432D01*
X-372573Y228852D01*
X-372066Y229260D01*
X-371549Y229656D01*
X-371022Y230039D01*
X-370486Y230409D01*
X-369942Y230766D01*
X-369389Y231109D01*
X-368828Y231439D01*
X-368258Y231755D01*
X-367682Y232057D01*
X-367098Y232344D01*
X-366507Y232618D01*
X-365910Y232877D01*
X-365306Y233121D01*
X-364697Y233351D01*
X-364083Y233565D01*
X-363463Y233765D01*
X-347737Y233765D02*
X-347122Y233566D01*
X-346511Y233354D01*
X-345906Y233126D01*
X-345307Y232884D01*
X-344714Y232627D01*
X-344127Y232356D01*
X-343547Y232071D01*
X-342974Y231772D01*
X-342408Y231459D01*
X-341850Y231132D01*
X-341300Y230792D01*
X-340759Y230439D01*
X-340226Y230073D01*
X-339703Y229694D01*
X-339188Y229302D01*
X-338684Y228899D01*
X-338189Y228482D01*
X-337704Y228055D01*
X-337230Y227615D01*
X-336767Y227164D01*
X-336315Y226702D01*
X-335874Y226229D01*
X-335445Y225746D01*
X-335028Y225252D01*
X-334622Y224749D01*
X-334229Y224236D01*
X-333849Y223713D01*
X-333481Y223181D01*
X-333127Y222641D01*
X-332785Y222092D01*
X-332457Y221535D01*
X-332143Y220970D01*
X-331842Y220398D01*
X-331555Y219819D01*
X-331283Y219232D01*
X-331024Y218640D01*
X-330781Y218041D01*
X-330551Y217437D01*
X-330337Y216827D01*
X-330137Y216212D01*
X-329952Y215593D01*
X-329782Y214969D01*
X-329628Y214341D01*
X-329489Y213710D01*
X-329365Y213076D01*
X-329256Y212438D01*
X-329163Y211799D01*
X-329086Y211157D01*
X-329024Y210514D01*
X-328977Y209869D01*
X-328947Y209223D01*
X-328932Y208577D01*
X-328932Y207931D01*
X-328949Y207284D01*
X-328981Y206639D01*
X-329028Y205994D01*
X-329091Y205351D01*
X-329170Y204709D01*
X-329264Y204070D01*
X-329374Y203433D01*
X-329499Y202798D01*
X-329640Y202167D01*
X-329796Y201540D01*
X-329967Y200917D01*
X-330153Y200298D01*
X-330354Y199683D01*
X-330569Y199074D01*
X-330800Y198470D01*
X-331045Y197872D01*
X-331304Y197280D01*
X-331578Y196694D01*
X-331866Y196115D01*
X-332168Y195544D01*
X-332483Y194979D01*
X-332812Y194423D01*
X-333155Y193875D01*
X-333511Y193335D01*
X-333879Y192804D01*
X-334261Y192282D01*
X-334655Y191770D01*
X-376545Y191770D01*
X-378137Y205740D02*
X-382149Y205740D01*
X-358463Y205740D02*
X-352737Y205740D01*
X-333063Y205740D02*
X-329051Y205740D01*
D12*
X-344252Y188221D02*
X-344252Y180086D01*
X-341541Y188221D02*
X-346964Y188221D01*
X-337609Y185509D02*
X-334897Y188221D01*
X-334897Y180086D01*
X-332186Y180086D02*
X-337609Y180086D01*
D16*
X-20946Y440691D02*
X-21333Y441195D01*
X-21709Y441708D01*
X-22072Y442230D01*
X-22423Y442760D01*
X-22760Y443298D01*
X-23085Y443845D01*
X-23397Y444399D01*
X-23696Y444960D01*
X-23981Y445529D01*
X-24252Y446104D01*
X-24510Y446685D01*
X-24753Y447272D01*
X-24983Y447865D01*
X-25198Y448463D01*
X-25399Y449066D01*
X-25586Y449674D01*
X-25758Y450286D01*
X-25916Y450902D01*
X-26058Y451522D01*
X-26186Y452144D01*
X-26299Y452770D01*
X-26398Y453398D01*
X-26481Y454028D01*
X-26549Y454661D01*
X-26549Y454660D02*
X-26603Y455309D01*
X-26641Y455958D01*
X-26663Y456609D01*
X-26670Y457260D01*
X-26661Y457911D01*
X-26635Y458561D01*
X-26594Y459211D01*
X-26537Y459859D01*
X-26464Y460506D01*
X-26376Y461151D01*
X-26271Y461794D01*
X-26151Y462434D01*
X-26016Y463070D01*
X-25865Y463704D01*
X-25698Y464333D01*
X-25517Y464958D01*
X-25320Y465579D01*
X-25108Y466194D01*
X-24881Y466804D01*
X-24639Y467409D01*
X-24382Y468007D01*
X-24111Y468599D01*
X-23826Y469184D01*
X-23526Y469762D01*
X-23213Y470332D01*
X-22885Y470895D01*
X-22544Y471449D01*
X-22190Y471995D01*
X-21822Y472532D01*
X-21441Y473061D01*
X-21048Y473579D01*
X-20642Y474088D01*
X-20224Y474587D01*
X-19793Y475075D01*
X-19351Y475553D01*
X-18897Y476020D01*
X-18432Y476475D01*
X-17956Y476919D01*
X-17470Y477352D01*
X-16973Y477772D01*
X-16466Y478180D01*
X-15949Y478576D01*
X-15422Y478959D01*
X-14886Y479329D01*
X-14342Y479686D01*
X-13789Y480029D01*
X-13228Y480359D01*
X-12658Y480675D01*
X-12082Y480977D01*
X-11498Y481264D01*
X-10907Y481538D01*
X-10310Y481797D01*
X-9706Y482041D01*
X-9097Y482271D01*
X-8483Y482485D01*
X-7863Y482685D01*
X7863Y482685D02*
X8478Y482486D01*
X9089Y482274D01*
X9694Y482046D01*
X10293Y481804D01*
X10886Y481547D01*
X11473Y481276D01*
X12053Y480991D01*
X12626Y480692D01*
X13192Y480379D01*
X13750Y480052D01*
X14300Y479712D01*
X14841Y479359D01*
X15374Y478993D01*
X15897Y478614D01*
X16412Y478222D01*
X16916Y477819D01*
X17411Y477402D01*
X17896Y476975D01*
X18370Y476535D01*
X18833Y476084D01*
X19285Y475622D01*
X19726Y475149D01*
X20155Y474666D01*
X20572Y474172D01*
X20978Y473669D01*
X21371Y473156D01*
X21751Y472633D01*
X22119Y472101D01*
X22473Y471561D01*
X22815Y471012D01*
X23143Y470455D01*
X23457Y469890D01*
X23758Y469318D01*
X24045Y468739D01*
X24317Y468152D01*
X24576Y467560D01*
X24819Y466961D01*
X25049Y466357D01*
X25263Y465747D01*
X25463Y465132D01*
X25648Y464513D01*
X25818Y463889D01*
X25972Y463261D01*
X26111Y462630D01*
X26235Y461996D01*
X26344Y461358D01*
X26437Y460719D01*
X26514Y460077D01*
X26576Y459434D01*
X26623Y458789D01*
X26653Y458143D01*
X26668Y457497D01*
X26668Y456851D01*
X26651Y456204D01*
X26619Y455559D01*
X26572Y454914D01*
X26509Y454271D01*
X26430Y453629D01*
X26336Y452990D01*
X26226Y452353D01*
X26101Y451718D01*
X25960Y451087D01*
X25804Y450460D01*
X25633Y449837D01*
X25447Y449218D01*
X25246Y448603D01*
X25031Y447994D01*
X24800Y447390D01*
X24555Y446792D01*
X24296Y446200D01*
X24022Y445614D01*
X23734Y445035D01*
X23432Y444464D01*
X23117Y443899D01*
X22788Y443343D01*
X22445Y442795D01*
X22089Y442255D01*
X21721Y441724D01*
X21339Y441202D01*
X20945Y440690D01*
X-20945Y440690D01*
X-22537Y454660D02*
X-26549Y454660D01*
X-2863Y454660D02*
X2863Y454660D01*
X22537Y454660D02*
X26549Y454660D01*
D12*
X-5628Y489966D02*
X-5628Y498101D01*
X-8339Y498101D02*
X-2916Y498101D01*
X1016Y489966D02*
X6439Y489966D01*
X1016Y489966D02*
X6439Y495389D01*
X6439Y496745D01*
X5083Y498101D01*
X2372Y498101D01*
X1016Y496745D01*
D16*
X329051Y205741D02*
X329119Y205108D01*
X329202Y204478D01*
X329301Y203850D01*
X329414Y203224D01*
X329542Y202602D01*
X329684Y201982D01*
X329842Y201366D01*
X330014Y200754D01*
X330201Y200146D01*
X330402Y199543D01*
X330617Y198945D01*
X330847Y198352D01*
X331090Y197765D01*
X331348Y197184D01*
X331619Y196609D01*
X331904Y196040D01*
X332203Y195479D01*
X332515Y194925D01*
X332840Y194378D01*
X333177Y193840D01*
X333528Y193310D01*
X333891Y192788D01*
X334267Y192275D01*
X334654Y191771D01*
X329051Y205740D02*
X328997Y206389D01*
X328959Y207038D01*
X328937Y207689D01*
X328930Y208340D01*
X328939Y208991D01*
X328965Y209641D01*
X329006Y210291D01*
X329063Y210939D01*
X329136Y211586D01*
X329224Y212231D01*
X329329Y212874D01*
X329449Y213514D01*
X329584Y214150D01*
X329735Y214784D01*
X329902Y215413D01*
X330083Y216038D01*
X330280Y216659D01*
X330492Y217274D01*
X330719Y217884D01*
X330961Y218489D01*
X331218Y219087D01*
X331489Y219679D01*
X331774Y220264D01*
X332074Y220842D01*
X332387Y221412D01*
X332715Y221975D01*
X333056Y222529D01*
X333410Y223075D01*
X333778Y223612D01*
X334159Y224141D01*
X334552Y224659D01*
X334958Y225168D01*
X335376Y225667D01*
X335807Y226155D01*
X336249Y226633D01*
X336703Y227100D01*
X337168Y227555D01*
X337644Y227999D01*
X338130Y228432D01*
X338627Y228852D01*
X339134Y229260D01*
X339651Y229656D01*
X340178Y230039D01*
X340714Y230409D01*
X341258Y230766D01*
X341811Y231109D01*
X342372Y231439D01*
X342942Y231755D01*
X343518Y232057D01*
X344102Y232344D01*
X344693Y232618D01*
X345290Y232877D01*
X345894Y233121D01*
X346503Y233351D01*
X347117Y233565D01*
X347737Y233765D01*
X363463Y233765D02*
X364078Y233566D01*
X364689Y233354D01*
X365294Y233126D01*
X365893Y232884D01*
X366486Y232627D01*
X367073Y232356D01*
X367653Y232071D01*
X368226Y231772D01*
X368792Y231459D01*
X369350Y231132D01*
X369900Y230792D01*
X370441Y230439D01*
X370974Y230073D01*
X371497Y229694D01*
X372012Y229302D01*
X372516Y228899D01*
X373011Y228482D01*
X373496Y228055D01*
X373970Y227615D01*
X374433Y227164D01*
X374885Y226702D01*
X375326Y226229D01*
X375755Y225746D01*
X376172Y225252D01*
X376578Y224749D01*
X376971Y224236D01*
X377351Y223713D01*
X377719Y223181D01*
X378073Y222641D01*
X378415Y222092D01*
X378743Y221535D01*
X379057Y220970D01*
X379358Y220398D01*
X379645Y219819D01*
X379917Y219232D01*
X380176Y218640D01*
X380419Y218041D01*
X380649Y217437D01*
X380863Y216827D01*
X381063Y216212D01*
X381248Y215593D01*
X381418Y214969D01*
X381572Y214341D01*
X381711Y213710D01*
X381835Y213076D01*
X381944Y212438D01*
X382037Y211799D01*
X382114Y211157D01*
X382176Y210514D01*
X382223Y209869D01*
X382253Y209223D01*
X382268Y208577D01*
X382268Y207931D01*
X382251Y207284D01*
X382219Y206639D01*
X382172Y205994D01*
X382109Y205351D01*
X382030Y204709D01*
X381936Y204070D01*
X381826Y203433D01*
X381701Y202798D01*
X381560Y202167D01*
X381404Y201540D01*
X381233Y200917D01*
X381047Y200298D01*
X380846Y199683D01*
X380631Y199074D01*
X380400Y198470D01*
X380155Y197872D01*
X379896Y197280D01*
X379622Y196694D01*
X379334Y196115D01*
X379032Y195544D01*
X378717Y194979D01*
X378388Y194423D01*
X378045Y193875D01*
X377689Y193335D01*
X377321Y192804D01*
X376939Y192282D01*
X376545Y191770D01*
X334655Y191770D01*
X333063Y205740D02*
X329051Y205740D01*
X352737Y205740D02*
X358463Y205740D01*
X378137Y205740D02*
X382149Y205740D01*
D12*
X364408Y186951D02*
X364408Y178816D01*
X367119Y186951D02*
X361696Y186951D01*
X371051Y185595D02*
X372407Y186951D01*
X375119Y186951D01*
X376474Y185595D01*
X376474Y184239D01*
X375119Y182883D01*
X373763Y182883D01*
X375119Y182883D02*
X376474Y181528D01*
X376474Y180172D01*
X375119Y178816D01*
X372407Y178816D01*
X371051Y180172D01*
X-93310Y-75650D02*
X-244510Y-75650D01*
X-146910Y-165650D02*
X-93310Y-165650D01*
X-146910Y-165650D02*
X-190910Y-165650D01*
X-244510Y-165650D01*
X-244510Y-76650D01*
X-93310Y-75650D02*
X-93310Y-165650D01*
X-190910Y-165650D02*
X-190910Y-150650D01*
X-146910Y-150650D01*
X-146910Y-165650D01*
X-187960Y-147130D02*
X-200660Y-147130D01*
X-263989Y-165354D02*
X-265344Y-163998D01*
X-263989Y-165354D02*
X-262633Y-165354D01*
X-261277Y-163998D01*
X-261277Y-157219D01*
X-262633Y-157219D02*
X-259921Y-157219D01*
X-255989Y-158575D02*
X-254633Y-157219D01*
X-251922Y-157219D01*
X-250566Y-158575D01*
X-250566Y-159931D01*
X-251922Y-161287D01*
X-253278Y-161287D01*
X-251922Y-161287D02*
X-250566Y-162642D01*
X-250566Y-163998D01*
X-251922Y-165354D01*
X-254633Y-165354D01*
X-255989Y-163998D01*
X93310Y-75650D02*
X244510Y-75650D01*
X244510Y-165650D02*
X190910Y-165650D01*
X146910Y-165650D01*
X93310Y-165650D01*
X93310Y-76650D01*
X244510Y-75650D02*
X244510Y-165650D01*
X146910Y-165650D02*
X146910Y-150650D01*
X190910Y-150650D01*
X190910Y-165650D01*
X149860Y-147130D02*
X137160Y-147130D01*
X75101Y-165354D02*
X73746Y-163998D01*
X75101Y-165354D02*
X76457Y-165354D01*
X77813Y-163998D01*
X77813Y-157219D01*
X76457Y-157219D02*
X79169Y-157219D01*
X87168Y-157219D02*
X87168Y-165354D01*
X83101Y-161287D02*
X87168Y-157219D01*
X88524Y-161287D02*
X83101Y-161287D01*
X380000Y-180750D02*
X-380000Y-180750D01*
X380000Y-180750D02*
X380000Y-390750D01*
X-380000Y-390750D01*
X-380000Y-180750D01*
D11*
X-15000Y-285750D02*
X-14995Y-285382D01*
X-14982Y-285014D01*
X-14959Y-284647D01*
X-14928Y-284280D01*
X-14887Y-283914D01*
X-14838Y-283549D01*
X-14779Y-283186D01*
X-14712Y-282824D01*
X-14636Y-282463D01*
X-14550Y-282105D01*
X-14457Y-281749D01*
X-14354Y-281396D01*
X-14243Y-281045D01*
X-14123Y-280697D01*
X-13995Y-280352D01*
X-13858Y-280010D01*
X-13713Y-279671D01*
X-13560Y-279337D01*
X-13398Y-279006D01*
X-13229Y-278679D01*
X-13051Y-278357D01*
X-12866Y-278038D01*
X-12673Y-277725D01*
X-12472Y-277416D01*
X-12264Y-277113D01*
X-12048Y-276815D01*
X-11825Y-276522D01*
X-11595Y-276234D01*
X-11358Y-275952D01*
X-11114Y-275677D01*
X-10864Y-275407D01*
X-10607Y-275143D01*
X-10343Y-274886D01*
X-10073Y-274636D01*
X-9798Y-274392D01*
X-9516Y-274155D01*
X-9228Y-273925D01*
X-8935Y-273702D01*
X-8637Y-273486D01*
X-8334Y-273278D01*
X-8025Y-273077D01*
X-7712Y-272884D01*
X-7393Y-272699D01*
X-7071Y-272521D01*
X-6744Y-272352D01*
X-6413Y-272190D01*
X-6079Y-272037D01*
X-5740Y-271892D01*
X-5398Y-271755D01*
X-5053Y-271627D01*
X-4705Y-271507D01*
X-4354Y-271396D01*
X-4001Y-271293D01*
X-3645Y-271200D01*
X-3287Y-271114D01*
X-2926Y-271038D01*
X-2564Y-270971D01*
X-2201Y-270912D01*
X-1836Y-270863D01*
X-1470Y-270822D01*
X-1103Y-270791D01*
X-736Y-270768D01*
X-368Y-270755D01*
X0Y-270750D01*
X368Y-270755D01*
X736Y-270768D01*
X1103Y-270791D01*
X1470Y-270822D01*
X1836Y-270863D01*
X2201Y-270912D01*
X2564Y-270971D01*
X2926Y-271038D01*
X3287Y-271114D01*
X3645Y-271200D01*
X4001Y-271293D01*
X4354Y-271396D01*
X4705Y-271507D01*
X5053Y-271627D01*
X5398Y-271755D01*
X5740Y-271892D01*
X6079Y-272037D01*
X6413Y-272190D01*
X6744Y-272352D01*
X7071Y-272521D01*
X7393Y-272699D01*
X7712Y-272884D01*
X8025Y-273077D01*
X8334Y-273278D01*
X8637Y-273486D01*
X8935Y-273702D01*
X9228Y-273925D01*
X9516Y-274155D01*
X9798Y-274392D01*
X10073Y-274636D01*
X10343Y-274886D01*
X10607Y-275143D01*
X10864Y-275407D01*
X11114Y-275677D01*
X11358Y-275952D01*
X11595Y-276234D01*
X11825Y-276522D01*
X12048Y-276815D01*
X12264Y-277113D01*
X12472Y-277416D01*
X12673Y-277725D01*
X12866Y-278038D01*
X13051Y-278357D01*
X13229Y-278679D01*
X13398Y-279006D01*
X13560Y-279337D01*
X13713Y-279671D01*
X13858Y-280010D01*
X13995Y-280352D01*
X14123Y-280697D01*
X14243Y-281045D01*
X14354Y-281396D01*
X14457Y-281749D01*
X14550Y-282105D01*
X14636Y-282463D01*
X14712Y-282824D01*
X14779Y-283186D01*
X14838Y-283549D01*
X14887Y-283914D01*
X14928Y-284280D01*
X14959Y-284647D01*
X14982Y-285014D01*
X14995Y-285382D01*
X15000Y-285750D01*
X14995Y-286118D01*
X14982Y-286486D01*
X14959Y-286853D01*
X14928Y-287220D01*
X14887Y-287586D01*
X14838Y-287951D01*
X14779Y-288314D01*
X14712Y-288676D01*
X14636Y-289037D01*
X14550Y-289395D01*
X14457Y-289751D01*
X14354Y-290104D01*
X14243Y-290455D01*
X14123Y-290803D01*
X13995Y-291148D01*
X13858Y-291490D01*
X13713Y-291829D01*
X13560Y-292163D01*
X13398Y-292494D01*
X13229Y-292821D01*
X13051Y-293143D01*
X12866Y-293462D01*
X12673Y-293775D01*
X12472Y-294084D01*
X12264Y-294387D01*
X12048Y-294685D01*
X11825Y-294978D01*
X11595Y-295266D01*
X11358Y-295548D01*
X11114Y-295823D01*
X10864Y-296093D01*
X10607Y-296357D01*
X10343Y-296614D01*
X10073Y-296864D01*
X9798Y-297108D01*
X9516Y-297345D01*
X9228Y-297575D01*
X8935Y-297798D01*
X8637Y-298014D01*
X8334Y-298222D01*
X8025Y-298423D01*
X7712Y-298616D01*
X7393Y-298801D01*
X7071Y-298979D01*
X6744Y-299148D01*
X6413Y-299310D01*
X6079Y-299463D01*
X5740Y-299608D01*
X5398Y-299745D01*
X5053Y-299873D01*
X4705Y-299993D01*
X4354Y-300104D01*
X4001Y-300207D01*
X3645Y-300300D01*
X3287Y-300386D01*
X2926Y-300462D01*
X2564Y-300529D01*
X2201Y-300588D01*
X1836Y-300637D01*
X1470Y-300678D01*
X1103Y-300709D01*
X736Y-300732D01*
X368Y-300745D01*
X0Y-300750D01*
X-368Y-300745D01*
X-736Y-300732D01*
X-1103Y-300709D01*
X-1470Y-300678D01*
X-1836Y-300637D01*
X-2201Y-300588D01*
X-2564Y-300529D01*
X-2926Y-300462D01*
X-3287Y-300386D01*
X-3645Y-300300D01*
X-4001Y-300207D01*
X-4354Y-300104D01*
X-4705Y-299993D01*
X-5053Y-299873D01*
X-5398Y-299745D01*
X-5740Y-299608D01*
X-6079Y-299463D01*
X-6413Y-299310D01*
X-6744Y-299148D01*
X-7071Y-298979D01*
X-7393Y-298801D01*
X-7712Y-298616D01*
X-8025Y-298423D01*
X-8334Y-298222D01*
X-8637Y-298014D01*
X-8935Y-297798D01*
X-9228Y-297575D01*
X-9516Y-297345D01*
X-9798Y-297108D01*
X-10073Y-296864D01*
X-10343Y-296614D01*
X-10607Y-296357D01*
X-10864Y-296093D01*
X-11114Y-295823D01*
X-11358Y-295548D01*
X-11595Y-295266D01*
X-11825Y-294978D01*
X-12048Y-294685D01*
X-12264Y-294387D01*
X-12472Y-294084D01*
X-12673Y-293775D01*
X-12866Y-293462D01*
X-13051Y-293143D01*
X-13229Y-292821D01*
X-13398Y-292494D01*
X-13560Y-292163D01*
X-13713Y-291829D01*
X-13858Y-291490D01*
X-13995Y-291148D01*
X-14123Y-290803D01*
X-14243Y-290455D01*
X-14354Y-290104D01*
X-14457Y-289751D01*
X-14550Y-289395D01*
X-14636Y-289037D01*
X-14712Y-288676D01*
X-14779Y-288314D01*
X-14838Y-287951D01*
X-14887Y-287586D01*
X-14928Y-287220D01*
X-14959Y-286853D01*
X-14982Y-286486D01*
X-14995Y-286118D01*
X-15000Y-285750D01*
D12*
X-64470Y-309619D02*
X-64470Y-317754D01*
X-64470Y-309619D02*
X-60403Y-309619D01*
X-59047Y-310975D01*
X-59047Y-312331D01*
X-60403Y-313687D01*
X-59047Y-315042D01*
X-59047Y-316398D01*
X-60403Y-317754D01*
X-64470Y-317754D01*
X-64470Y-313687D02*
X-60403Y-313687D01*
X-55115Y-312331D02*
X-55115Y-317754D01*
X-55115Y-312331D02*
X-52404Y-309619D01*
X-49692Y-312331D01*
X-49692Y-317754D01*
X-49692Y-313687D02*
X-55115Y-313687D01*
X-43048Y-317754D02*
X-43048Y-309619D01*
X-40337Y-309619D02*
X-45760Y-309619D01*
X-33693Y-309619D02*
X-33693Y-317754D01*
X-30982Y-309619D02*
X-36405Y-309619D01*
X-27050Y-309619D02*
X-21626Y-309619D01*
X-27050Y-309619D02*
X-27050Y-317754D01*
X-21626Y-317754D01*
X-24338Y-313687D02*
X-27050Y-313687D01*
X-17694Y-317754D02*
X-17694Y-309619D01*
X-13627Y-309619D01*
X-12271Y-310975D01*
X-12271Y-313687D01*
X-13627Y-315042D01*
X-17694Y-315042D01*
X-14983Y-315042D02*
X-12271Y-317754D01*
X-8339Y-310975D02*
X-8339Y-309619D01*
X-8339Y-310975D02*
X-5628Y-313687D01*
X-2916Y-310975D01*
X-2916Y-309619D01*
X-5628Y-313687D02*
X-5628Y-317754D01*
X1016Y-319110D02*
X6439Y-319110D01*
X10371Y-317754D02*
X10371Y-309619D01*
X10371Y-313687D02*
X15794Y-313687D01*
X15794Y-317754D02*
X15794Y-309619D01*
X21082Y-309619D02*
X23794Y-309619D01*
X21082Y-309619D02*
X19726Y-310975D01*
X19726Y-316398D01*
X21082Y-317754D01*
X23794Y-317754D01*
X25150Y-316398D01*
X25150Y-310975D01*
X23794Y-309619D01*
X29082Y-309619D02*
X29082Y-317754D01*
X34505Y-317754D01*
X38437Y-317754D02*
X38437Y-309619D01*
X38437Y-317754D02*
X42504Y-317754D01*
X43860Y-316398D01*
X43860Y-310975D01*
X42504Y-309619D01*
X38437Y-309619D01*
X47792Y-309619D02*
X53215Y-309619D01*
X47792Y-309619D02*
X47792Y-317754D01*
X53215Y-317754D01*
X50504Y-313687D02*
X47792Y-313687D01*
X57147Y-317754D02*
X57147Y-309619D01*
X61215Y-309619D01*
X62570Y-310975D01*
X62570Y-313687D01*
X61215Y-315042D01*
X57147Y-315042D01*
X59859Y-315042D02*
X62570Y-317754D01*
D10*
X-386640Y-339320D02*
X-456640Y-339320D01*
X-456640Y-209320D02*
X-386640Y-209320D01*
D16*
X-456640Y-209320D02*
X-456640Y-339320D01*
X-386640Y-339320D02*
X-386640Y-209320D01*
D12*
X-425912Y-248659D02*
X-424556Y-250015D01*
X-425912Y-248659D02*
X-428623Y-248659D01*
X-429979Y-250015D01*
X-429979Y-251371D01*
X-428623Y-252727D01*
X-425912Y-252727D01*
X-424556Y-254082D01*
X-424556Y-255438D01*
X-425912Y-256794D01*
X-428623Y-256794D01*
X-429979Y-255438D01*
X-420624Y-256794D02*
X-415201Y-256794D01*
X-420624Y-256794D02*
X-415201Y-251371D01*
X-415201Y-250015D01*
X-416557Y-248659D01*
X-419268Y-248659D01*
X-420624Y-250015D01*
X-243840Y299720D02*
X-243840Y312420D01*
X-237490Y318770D01*
X-224790Y318770D02*
X-218440Y312420D01*
X-243840Y274320D02*
X-237490Y267970D01*
X-243840Y274320D02*
X-243840Y287020D01*
X-237490Y293370D01*
X-224790Y293370D02*
X-218440Y287020D01*
X-218440Y274320D01*
X-224790Y267970D01*
X-237490Y293370D02*
X-243840Y299720D01*
X-224790Y293370D02*
X-218440Y299720D01*
X-218440Y312420D01*
X-243840Y236220D02*
X-243840Y223520D01*
X-243840Y236220D02*
X-237490Y242570D01*
X-224790Y242570D02*
X-218440Y236220D01*
X-237490Y242570D02*
X-243840Y248920D01*
X-243840Y261620D01*
X-237490Y267970D01*
X-224790Y267970D02*
X-218440Y261620D01*
X-218440Y248920D01*
X-224790Y242570D01*
X-243840Y198120D02*
X-237490Y191770D01*
X-243840Y198120D02*
X-243840Y210820D01*
X-237490Y217170D01*
X-224790Y217170D02*
X-218440Y210820D01*
X-218440Y198120D01*
X-224790Y191770D01*
X-237490Y217170D02*
X-243840Y223520D01*
X-224790Y217170D02*
X-218440Y223520D01*
X-218440Y236220D01*
X-243840Y160020D02*
X-243840Y147320D01*
X-243840Y160020D02*
X-237490Y166370D01*
X-224790Y166370D02*
X-218440Y160020D01*
X-237490Y166370D02*
X-243840Y172720D01*
X-243840Y185420D01*
X-237490Y191770D01*
X-224790Y191770D02*
X-218440Y185420D01*
X-218440Y172720D01*
X-224790Y166370D01*
X-224790Y140970D02*
X-237490Y140970D01*
X-243840Y147320D01*
X-224790Y140970D02*
X-218440Y147320D01*
X-218440Y160020D01*
X-243840Y325120D02*
X-243840Y337820D01*
X-237490Y344170D01*
X-224790Y344170D02*
X-218440Y337820D01*
X-237490Y318770D02*
X-243840Y325120D01*
X-224790Y318770D02*
X-218440Y325120D01*
X-218440Y337820D01*
X-243840Y350520D02*
X-243840Y363220D01*
X-237490Y369570D01*
X-224790Y369570D02*
X-218440Y363220D01*
X-237490Y344170D02*
X-243840Y350520D01*
X-224790Y344170D02*
X-218440Y350520D01*
X-218440Y363220D01*
X-243840Y375920D02*
X-243840Y388620D01*
X-237490Y394970D01*
X-224790Y394970D02*
X-218440Y388620D01*
X-237490Y369570D02*
X-243840Y375920D01*
X-224790Y369570D02*
X-218440Y375920D01*
X-218440Y388620D01*
X-243840Y401320D02*
X-243840Y414020D01*
X-237490Y420370D01*
X-224790Y420370D02*
X-218440Y414020D01*
X-237490Y394970D02*
X-243840Y401320D01*
X-224790Y394970D02*
X-218440Y401320D01*
X-218440Y414020D01*
X-243840Y426720D02*
X-243840Y439420D01*
X-237490Y445770D01*
X-224790Y445770D01*
X-218440Y439420D01*
X-237490Y420370D02*
X-243840Y426720D01*
X-224790Y420370D02*
X-218440Y426720D01*
X-218440Y439420D01*
X-256369Y445516D02*
X-257724Y446872D01*
X-256369Y445516D02*
X-255013Y445516D01*
X-253657Y446872D01*
X-253657Y453651D01*
X-255013Y453651D02*
X-252301Y453651D01*
X-248369Y450939D02*
X-245658Y453651D01*
X-245658Y445516D01*
X-248369Y445516D02*
X-242946Y445516D01*
X218440Y312420D02*
X218440Y299720D01*
X218440Y312420D02*
X224790Y318770D01*
X237490Y318770D02*
X243840Y312420D01*
X218440Y274320D02*
X224790Y267970D01*
X218440Y274320D02*
X218440Y287020D01*
X224790Y293370D01*
X237490Y293370D02*
X243840Y287020D01*
X243840Y274320D01*
X237490Y267970D01*
X224790Y293370D02*
X218440Y299720D01*
X237490Y293370D02*
X243840Y299720D01*
X243840Y312420D01*
X218440Y236220D02*
X218440Y223520D01*
X218440Y236220D02*
X224790Y242570D01*
X237490Y242570D02*
X243840Y236220D01*
X224790Y242570D02*
X218440Y248920D01*
X218440Y261620D01*
X224790Y267970D01*
X237490Y267970D02*
X243840Y261620D01*
X243840Y248920D01*
X237490Y242570D01*
X218440Y198120D02*
X224790Y191770D01*
X218440Y198120D02*
X218440Y210820D01*
X224790Y217170D01*
X237490Y217170D02*
X243840Y210820D01*
X243840Y198120D01*
X237490Y191770D01*
X224790Y217170D02*
X218440Y223520D01*
X237490Y217170D02*
X243840Y223520D01*
X243840Y236220D01*
X218440Y160020D02*
X218440Y147320D01*
X218440Y160020D02*
X224790Y166370D01*
X237490Y166370D02*
X243840Y160020D01*
X224790Y166370D02*
X218440Y172720D01*
X218440Y185420D01*
X224790Y191770D01*
X237490Y191770D02*
X243840Y185420D01*
X243840Y172720D01*
X237490Y166370D01*
X237490Y140970D02*
X224790Y140970D01*
X218440Y147320D01*
X237490Y140970D02*
X243840Y147320D01*
X243840Y160020D01*
X218440Y325120D02*
X218440Y337820D01*
X224790Y344170D01*
X237490Y344170D02*
X243840Y337820D01*
X224790Y318770D02*
X218440Y325120D01*
X237490Y318770D02*
X243840Y325120D01*
X243840Y337820D01*
X218440Y350520D02*
X218440Y363220D01*
X224790Y369570D01*
X237490Y369570D02*
X243840Y363220D01*
X224790Y344170D02*
X218440Y350520D01*
X237490Y344170D02*
X243840Y350520D01*
X243840Y363220D01*
X218440Y375920D02*
X218440Y388620D01*
X224790Y394970D01*
X237490Y394970D02*
X243840Y388620D01*
X224790Y369570D02*
X218440Y375920D01*
X237490Y369570D02*
X243840Y375920D01*
X243840Y388620D01*
X218440Y401320D02*
X218440Y414020D01*
X224790Y420370D01*
X237490Y420370D02*
X243840Y414020D01*
X224790Y394970D02*
X218440Y401320D01*
X237490Y394970D02*
X243840Y401320D01*
X243840Y414020D01*
X218440Y426720D02*
X218440Y439420D01*
X224790Y445770D01*
X237490Y445770D01*
X243840Y439420D01*
X224790Y420370D02*
X218440Y426720D01*
X237490Y420370D02*
X243840Y426720D01*
X243840Y439420D01*
X245281Y445516D02*
X243926Y446872D01*
X245281Y445516D02*
X246637Y445516D01*
X247993Y446872D01*
X247993Y453651D01*
X246637Y453651D02*
X249349Y453651D01*
X253281Y445516D02*
X258704Y445516D01*
X253281Y445516D02*
X258704Y450939D01*
X258704Y452295D01*
X257348Y453651D01*
X254637Y453651D01*
X253281Y452295D01*
D16*
X-101600Y228600D02*
X-101600Y76200D01*
X-101600Y228600D02*
X101600Y228600D01*
X101600Y76200D01*
X-101600Y76200D01*
D18*
X-124988Y79165D02*
X-124988Y87639D01*
X-124988Y79165D02*
X-123293Y77470D01*
X-119904Y77470D01*
X-118209Y79165D01*
X-118209Y87639D01*
X-113294Y77470D02*
X-106515Y77470D01*
X-113294Y77470D02*
X-106515Y84249D01*
X-106515Y85944D01*
X-108210Y87639D01*
X-111599Y87639D01*
X-113294Y85944D01*
D12*
X-38371Y148336D02*
X-38371Y156471D01*
X-41082Y156471D02*
X-35659Y156471D01*
X-31727Y156471D02*
X-31727Y148336D01*
X-31727Y156471D02*
X-27660Y156471D01*
X-26304Y155115D01*
X-26304Y153759D01*
X-27660Y152403D01*
X-26304Y151048D01*
X-26304Y149692D01*
X-27660Y148336D01*
X-31727Y148336D01*
X-31727Y152403D02*
X-27660Y152403D01*
X-19660Y155115D02*
X-16949Y156471D01*
X-19660Y155115D02*
X-22372Y152403D01*
X-22372Y149692D01*
X-21016Y148336D01*
X-18305Y148336D01*
X-16949Y149692D01*
X-16949Y151048D01*
X-18305Y152403D01*
X-22372Y152403D01*
X-10305Y155115D02*
X-7594Y156471D01*
X-10305Y155115D02*
X-13017Y152403D01*
X-13017Y149692D01*
X-11661Y148336D01*
X-8949Y148336D01*
X-7594Y149692D01*
X-7594Y151048D01*
X-8949Y152403D01*
X-13017Y152403D01*
X-3662Y153759D02*
X-950Y156471D01*
X-950Y148336D01*
X-3662Y148336D02*
X1762Y148336D01*
X5694Y148336D02*
X11117Y148336D01*
X5694Y148336D02*
X11117Y153759D01*
X11117Y155115D01*
X9761Y156471D01*
X7049Y156471D01*
X5694Y155115D01*
X15049Y156471D02*
X15049Y148336D01*
X15049Y156471D02*
X20472Y156471D01*
X17760Y152403D02*
X15049Y152403D01*
X24404Y148336D02*
X24404Y156471D01*
X29827Y148336D01*
X29827Y156471D01*
X37827Y156471D02*
X39182Y155115D01*
X37827Y156471D02*
X35115Y156471D01*
X33759Y155115D01*
X33759Y149692D01*
X35115Y148336D01*
X37827Y148336D01*
X39182Y149692D01*
X39182Y152403D01*
X36471Y152403D01*
D10*
X386640Y-339320D02*
X456640Y-339320D01*
X456640Y-209320D02*
X386640Y-209320D01*
D16*
X386640Y-339320D01*
X456640Y-339320D02*
X456640Y-209320D01*
D12*
X418638Y-246119D02*
X419994Y-247475D01*
X418638Y-246119D02*
X415927Y-246119D01*
X414571Y-247475D01*
X414571Y-248831D01*
X415927Y-250187D01*
X418638Y-250187D01*
X419994Y-251542D01*
X419994Y-252898D01*
X418638Y-254254D01*
X415927Y-254254D01*
X414571Y-252898D01*
X423926Y-248831D02*
X426638Y-246119D01*
X426638Y-254254D01*
X429349Y-254254D02*
X423926Y-254254D01*
D10*
X-46990Y-127000D02*
X-49530Y-129540D01*
X-46990Y-127000D02*
X46990Y-127000D01*
X49530Y-129540D01*
X-49530Y-129540D02*
X-50800Y-158750D01*
X50800Y-158750D02*
X49530Y-129540D01*
D19*
X44958Y-133096D03*
D20*
X0Y-166370D03*
D21*
X43815Y-160020D03*
D22*
X12700Y-160020D03*
X-12700Y-160020D03*
D21*
X-43815Y-160020D03*
D12*
X33106Y-117516D02*
X33106Y-112093D01*
X34461Y-110737D01*
X37173Y-110737D01*
X38529Y-112093D01*
X38529Y-117516D01*
X37173Y-118872D01*
X34461Y-118872D01*
X33106Y-117516D01*
X35817Y-116160D02*
X38529Y-118872D01*
X45172Y-112093D02*
X47884Y-110737D01*
X45172Y-112093D02*
X42461Y-114805D01*
X42461Y-117516D01*
X43817Y-118872D01*
X46528Y-118872D01*
X47884Y-117516D01*
X47884Y-116160D01*
X46528Y-114805D01*
X42461Y-114805D01*
X29500Y-20000D02*
X29500Y56000D01*
X29500Y-20000D02*
X-29500Y-20000D01*
X-29500Y56000D01*
X23000Y56000D02*
X29500Y56000D01*
X-23000Y56000D02*
X-29500Y56000D01*
X23000Y56000D02*
X23000Y40000D01*
X-23000Y40000D02*
X-23000Y56000D01*
X-49444Y-17948D02*
X-48089Y-19304D01*
X-46733Y-19304D01*
X-45377Y-17948D01*
X-45377Y-11169D01*
X-46733Y-11169D02*
X-44021Y-11169D01*
X-40089Y-11169D02*
X-34666Y-11169D01*
X-40089Y-11169D02*
X-40089Y-15237D01*
X-37378Y-13881D01*
X-36022Y-13881D01*
X-34666Y-15237D01*
X-34666Y-17948D01*
X-36022Y-19304D01*
X-38733Y-19304D01*
X-40089Y-17948D01*
M02*
